<?xml version="1.0" encoding="utf-8"?>
<!-- Generator: Adobe Illustrator 22.0.1, SVG Export Plug-In . SVG Version: 6.00 Build 0)  -->
<svg version="1.1" id="Layer_1" xmlns="http://www.w3.org/2000/svg" xmlns:xlink="http://www.w3.org/1999/xlink" x="0px" y="0px"
	 viewBox="0 0 419.5 595.3" style="enable-background:new 0 0 419.5 595.3;" xml:space="preserve">
<style type="text/css">
	.st0{fill:#EC681C;}
	.st1{fill:#4D4D4D;}
	.st2{fill:none;}
	.st3{font-family:'DINAlternate-Black';}
	.st4{font-size:26px;}
	.st5{font-family:'DINAlternate-Regular';}
	.st6{font-size:21px;}
	.st7{fill:none;stroke:#EC681C;stroke-width:6;stroke-miterlimit:10;}
</style>
<g>
	<path id="path22" class="st0" d="M209.8,117.6c-41.3,0-74.8,33.5-74.8,74.8c0,8.3,1.3,16.2,3.8,23.6h22.4v-63l48.6,48.6l48.6-48.6
		v63h22.4c2.5-7.4,3.8-15.4,3.8-23.6C284.6,151.1,251.1,117.6,209.8,117.6"/>
	<path id="path26" class="st1" d="M177.3,191.7v39.6h-31.5c13.1,21.6,36.9,35.9,63.9,35.9s50.8-14.4,63.9-35.9h-31.5v-39.6
		l-32.4,32.4L177.3,191.7z"/>
</g>
<g>
	<path id="path30" class="st1" d="M348.7,326.8c-3,3-6.6,4.6-10.8,4.6c-3.7,0-7-1.2-9.9-3.5c-3.7-3-5.6-7.1-5.6-12.3
		c0-4.6,1.5-8.5,4.4-11.5c2.9-3,6.6-4.5,10.9-4.5c4.3,0,7.9,1.5,10.9,4.6c3,3.1,4.5,6.8,4.5,11.3C353.2,320,351.7,323.7,348.7,326.8
		 M355,298.1c-4.8-4.8-10.4-7.2-17.1-7.2c-4.4,0-8.4,1.1-12.2,3.3c-3.8,2.2-6.8,5.2-8.9,8.9c-2.2,3.8-3.2,7.9-3.2,12.3
		c0,6.7,2.3,12.4,7,17.3c4.6,4.9,10.5,7.3,17.5,7.3c6.7,0,12.4-2.4,17.1-7.1c4.7-4.7,7-10.5,7-17.3
		C362.1,308.7,359.7,302.8,355,298.1"/>
	<path id="path34" class="st1" d="M296.5,308.9c-1.1,0.8-1.7,1.2-4.6,1.2h-11.7v-10h11.4c2.3,0,2.7,0.2,3.6,0.5
		c0.9,0.3,1.7,0.9,2.2,1.7c0.6,0.8,0.8,1.7,0.8,2.8C298.2,306.8,297.6,308.1,296.5,308.9 M297.9,318.1c3.1-1.1,5.4-2.8,7-4.9
		c1.5-2.2,2.3-4.9,2.3-8.1c0-3.1-0.7-5.7-2.1-8c-1.4-2.2-3.3-3.8-5.6-4.8c-2.3-1-6.2-1.5-11.6-1.5h-17.2V340h9.3v-20.8h8.2
		l11.1,20.8h10.2L297.9,318.1L297.9,318.1z"/>
	<path id="path38" class="st1" d="M228.9,290.9h31.8v9.1h-22.5v10h22.5v9h-22.5v11.7h22.5v9.2h-31.8V290.9z"/>
	<path id="path42" class="st1" d="M179.6,290.9h8.9l21.1,32.3v-32.3h9.3V340h-9l-21-32.2V340h-9.3V290.9z"/>
	<g id="use46" transform="translate(-125.0586,0)">
		<path id="path30_1_" class="st1" d="M158.9,326.8c-3,3-6.6,4.6-10.8,4.6c-3.7,0-7-1.2-9.9-3.5c-3.7-3-5.6-7.1-5.6-12.3
			c0-4.6,1.5-8.5,4.4-11.5c2.9-3,6.6-4.5,10.9-4.5c4.3,0,7.9,1.5,10.9,4.6c3,3.1,4.5,6.8,4.5,11.3
			C163.4,320,161.9,323.7,158.9,326.8 M165.1,298.1c-4.8-4.8-10.4-7.2-17.1-7.2c-4.4,0-8.4,1.1-12.2,3.3c-3.8,2.2-6.8,5.2-8.9,8.9
			c-2.2,3.8-3.2,7.9-3.2,12.3c0,6.7,2.3,12.4,7,17.3c4.6,4.9,10.5,7.3,17.5,7.3c6.7,0,12.4-2.4,17.1-7.1c4.7-4.7,7-10.5,7-17.3
			C172.3,308.7,169.9,302.8,165.1,298.1"/>
	</g>
	<path id="path50" class="st1" d="M70.9,290.9h9.1l11.3,34.2l11.5-34.2h9l8.3,49.1h-9l-5.3-31l-10.4,31h-8.2l-10.3-31l-5.4,31h-9.1
		L70.9,290.9z"/>
</g>
<g>
	<path d="M72.1,53c0,0.7,0,2,0,4.1c0,2.5-0.1,4.6-0.3,6.3c-0.2,1.8-0.7,3.5-1.5,5.2c-0.8,1.7-2,3.3-3.6,4.9
		c-3.3,3.4-7.9,5.1-13.8,5.1c-4.2,0-10.6,0-19.1,0c0-5,0-15,0-30c0-3.5,0-10.6,0-21.3c3.2,0,9.5,0,19.1,0c5.9,0,10.5,1.7,13.8,5.1
		c1.6,1.5,2.8,3.2,3.6,4.9c0.7,1.7,1.2,3.4,1.5,5.2c0.2,1.7,0.3,3.8,0.3,6.3C72.1,49.8,72.1,51.2,72.1,53z M59.5,53
		c0-4.3-0.1-7.1-0.3-8.4c-0.2-1.4-0.5-2.4-1.1-3.2c-1.3-1.9-3.3-2.9-6-2.9c-1.2,0-3.1,0-5.6,0c0,4.8,0,14.4,0,28.8
		c0.9,0,2.8,0,5.6,0c2.8,0,4.8-0.9,6-2.8c0.4-0.6,0.7-1.2,0.8-1.8c0.1-0.6,0.3-1.6,0.4-3.1C59.5,58.2,59.5,56,59.5,53z"/>
	<path d="M118.2,53c0,0.3,0,0.8,0,1.7c0,2.9-0.1,5.3-0.3,7.4c-0.2,2.1-0.7,4.1-1.5,6c-0.8,1.9-1.9,3.7-3.4,5.2
		c-1.9,1.9-4,3.3-6.3,4.3c-2.3,1-5,1.5-8,1.5c-2.1,0-4-0.2-5.7-0.6c-1.6-0.4-3.2-1.1-4.6-2c-1.4-0.8-2.7-1.9-4-3.2
		c-2.2-2.2-3.7-4.8-4.3-7.7c-0.6-2.9-0.9-6.5-0.9-10.9c0-0.4,0-0.9,0-1.7c0-0.3,0-0.9,0-1.8c0-4.4,0.3-8,0.9-10.9
		c0.6-2.9,2-5.4,4.3-7.7c1.9-2,4-3.4,6.3-4.4c2.2-0.9,4.9-1.4,8-1.4c3,0,5.7,0.5,8,1.4c2.3,0.9,4.4,2.4,6.3,4.4
		c1.5,1.5,2.6,3.3,3.4,5.2c0.7,1.9,1.2,3.9,1.4,6c0.2,2.1,0.4,4.5,0.4,7.4C118.2,51.7,118.2,52.2,118.2,53z M105.6,53
		c0-4.4-0.1-7.3-0.4-8.9c-0.3-1.6-0.8-2.8-1.4-3.7c-0.5-0.6-1.2-1.1-2.1-1.5c-0.9-0.5-1.9-0.7-3-0.7c-1.1,0-2.1,0.2-3,0.6
		s-1.5,1-2.1,1.6c-0.4,0.6-0.8,1.2-1.1,2c-0.2,0.8-0.4,1.9-0.6,3.6c-0.1,1.6-0.2,4-0.2,7c0,3,0.1,5.3,0.2,6.9
		c0.2,1.6,0.4,2.8,0.6,3.6c0.3,0.8,0.6,1.5,1.1,2c1.2,1.6,2.9,2.4,5.1,2.4c2.2,0,3.8-0.8,5.1-2.4c0.6-0.9,1.1-2.1,1.4-3.7
		C105.5,60.3,105.6,57.4,105.6,53z"/>
	<path d="M167,78.6c-1.8,0-5.5,0-11,0c-2.8-4.3-8.3-12.9-16.5-25.8c0,4.3,0,12.9,0,25.8c-2.1,0-6.3,0-12.7,0c0-5,0-15,0-30
		c0-3.5,0-10.6,0-21.3c1.9,0,5.6,0,11.1,0c2.7,4.3,8.2,12.9,16.4,25.7c0-4.3,0-12.8,0-25.7c2.1,0,6.3,0,12.6,0
		C167,35.9,167,53,167,78.6z"/>
	<path d="M188.2,37.9c-2,1.5-5.9,4.3-11.8,8.6c0-0.8,0-2.5,0-4.9c0-2.3,0-7.1,0-14.3c2,0,5.9,0,11.8,0
		C188.2,29.2,188.2,32.7,188.2,37.9z"/>
	<path d="M232.1,38.6c-2.1,0-6.3,0-12.6,0c0,6.7,0,20,0,40c-2.1,0-6.3,0-12.6,0c0-6.7,0-20,0-40c-2.1,0-6.3,0-12.6,0
		c0-1.2,0-3.5,0-7c0-0.7,0-2.1,0-4.2c6.3,0,18.9,0,37.8,0C232.1,29.3,232.1,33,232.1,38.6z"/>
	<path d="M293.9,63.5c0,2.4-0.4,4.5-1.2,6.4c-0.8,1.9-2,3.5-3.4,4.8c-1.4,1.3-3.1,2.3-5.1,3c-2,0.7-4.1,1-6.3,1c-5,0-12.4,0-22.4,0
		c0-5,0-15,0-30c0-3.5,0-10.6,0-21.3c3.6,0,10.7,0,21.3,0c3.5,0,6.4,0.6,8.9,1.8c2.5,1.3,4.3,3,5.6,5.3c1.3,2.2,1.9,4.8,1.9,7.7
		c0,2.5-0.6,4.6-1.8,6.3c-1.2,1.7-2.5,3-3.8,3.9c1.7,1,3.2,2.4,4.5,4C293.2,58,293.9,60.4,293.9,63.5z M280.5,42.8
		c0-1.1-0.4-2.1-1.1-3c-0.7-0.8-1.9-1.2-3.5-1.2c-1.7,0-4.3,0-7.8,0c0,1.4,0,4.1,0,8.4c1.3,0,3.9,0,7.8,0c1.5,0,2.7-0.4,3.4-1.3
		C280.1,45,280.5,44,280.5,42.8z M281.3,62.8c0-1.3-0.4-2.3-1.1-3.2c-0.8-0.9-1.9-1.3-3.5-1.3c-1.9,0-4.7,0-8.5,0c0,1.5,0,4.5,0,9
		c1.4,0,4.2,0,8.5,0c1.6,0,2.8-0.4,3.5-1.3C280.9,65.1,281.3,64,281.3,62.8z"/>
	<path d="M340.6,60.6c0,2.7-0.5,5.2-1.5,7.5c-1,2.3-2.4,4.3-4.2,6c-1.8,1.6-3.9,2.8-6.3,3.7c-2.4,0.8-4.9,1.3-7.5,1.3
		c-3.5,0-6.7-0.7-9.7-2.2c-3-1.5-5.4-3.7-7.1-6.5c-1.7-2.8-2.6-6-2.6-9.6c0-3.2,0-7.9,0-14.3c0-3.2,0-9.5,0-19c2.1,0,6.3,0,12.6,0
		c0,5.5,0,16.5,0,33c0,2.3,0.6,4.2,1.8,5.5c1.2,1.4,2.9,2,5,2c1.4,0,2.6-0.3,3.7-0.9c1-0.6,1.8-1.5,2.4-2.6s0.8-2.5,0.8-4
		c0-7.3,0-18.3,0-33c2.1,0,6.3,0,12.7,0C340.6,32.9,340.6,44,340.6,60.6z"/>
	<path d="M388.4,27.4c-2.6,5.1-7.7,15.2-15.5,30.4c0,3.5,0,10.4,0,20.9c-2.1,0-6.3,0-12.7,0c0-3.5,0-10.4,0-20.9
		c-2.6-5.1-7.7-15.2-15.5-30.4c2.3,0,6.9,0,13.8,0c1.3,3.1,4,9.2,8.1,18.4c1.3-3.1,4-9.2,7.9-18.4C377,27.4,381.6,27.4,388.4,27.4z"
		/>
</g>
<g>
	<path class="st0" d="M379.6,368.6v157.3H39.9V368.6H379.6 M385.6,362.6H33.9v169.3h351.7V362.6L385.6,362.6z"/>
</g>
<rect x="62.6" y="390.4" class="st2" width="321.9" height="143.3"/>
<text transform="matrix(1 0 0 1 62.584 408.9561)"><tspan x="0" y="0" class="st3 st4">Cryptocurrencies</tspan><tspan x="207.7" y="0" class="st5 st4"> are </tspan><tspan x="0" y="31.2" class="st5 st4">harmful to the banking </tspan><tspan x="0" y="62.4" class="st5 st4">system and </tspan><tspan x="138.1" y="62.4" class="st3 st4">may weaken </tspan><tspan x="0" y="93.6" class="st3 st4">the state</tspan><tspan x="105.1" y="93.6" class="st5 st4"> apparatus.</tspan></text>
<text transform="matrix(1 0 0 1 114.5458 569.6952)" class="st5 st6">www.getmonero.org</text>
<g>
	<line class="st7" x1="33.9" y1="564" x2="101" y2="564"/>
</g>
<g>
	<line class="st7" x1="317.4" y1="564" x2="384.5" y2="564"/>
</g>
</svg>
