<svg xmlns="http://www.w3.org/2000/svg" viewBox="0 0 419.53 595.28"><defs><style>.a{fill:#ec681c;}.b{fill:#4d4d4d;}.c{fill:#1d1d1b;}.d{fill:none;stroke:#ec681c;stroke-miterlimit:10;stroke-width:6px;}</style></defs><title>dontbuymonero</title><path class="a" d="M209.76,117.58a74.9,74.9,0,0,0-71,98.48h22.38v-63l48.64,48.65,48.65-48.65v63h22.38a74.9,74.9,0,0,0-71-98.48"/><path class="b" d="M177.35,191.69v39.62H145.81a74.85,74.85,0,0,0,127.9,0H242.18V191.69l-32.42,32.42Z"/><path class="a" d="M379.6,368.59V525.9H39.93V368.59H379.6m6-6H33.93V531.9H385.6V362.59Z"/><path class="c" d="M76,407.05a6.5,6.5,0,0,1-5.1,2.06A7,7,0,0,1,65.73,407a5.55,5.55,0,0,1-1.55-2.77,19.44,19.44,0,0,1-.33-3.94v-1.24a19.51,19.51,0,0,1,.33-3.94,5.48,5.48,0,0,1,1.55-2.76A6.88,6.88,0,0,1,68,390.8a7.06,7.06,0,0,1,8,1.53l-3,3a4.91,4.91,0,0,0-.94-.77,2.35,2.35,0,0,0-1.14-.25,2.11,2.11,0,0,0-1.78.79,2.79,2.79,0,0,0-.38.73,6.18,6.18,0,0,0-.26,1.3c0,.57-.07,1.43-.07,2.56a18.72,18.72,0,0,0,.18,3.15,3.49,3.49,0,0,0,.53,1.42,2.11,2.11,0,0,0,1.78.79,2.24,2.24,0,0,0,1.14-.25,4.87,4.87,0,0,0,.94-.76C73.65,404.72,74.65,405.71,76,407.05Z"/><path class="c" d="M89.17,396.11q-.81.81-3.23,3.27a3.72,3.72,0,0,0-.71-.53,1.64,1.64,0,0,0-.84-.18,1.89,1.89,0,0,0-1.14.43,1.8,1.8,0,0,0-.56,1.5V409H78.43V395h4.16v1.14a4.26,4.26,0,0,1,1.4-.92,4.64,4.64,0,0,1,1.88-.38,5.5,5.5,0,0,1,1.83.28A4.6,4.6,0,0,1,89.17,396.11Z"/><path class="c" d="M102.75,395q-1.47,3.9-5.81,15.64a4.66,4.66,0,0,1-1.09,1.85,4.07,4.07,0,0,1-3.13,1.17H91.1v-3.84H92a1.63,1.63,0,0,0,.92-.22,1.54,1.54,0,0,0,.5-.82c.09-.27.22-.67.41-1.19L89.17,395h4.47c.39,1.2,1.17,3.62,2.36,7.26q.59-1.8,2.28-7.26Z"/><path class="c" d="M116.23,402v.66a18.06,18.06,0,0,1-.22,3.12,4.13,4.13,0,0,1-1.07,2.11,4.67,4.67,0,0,1-3.38,1.27,4.15,4.15,0,0,1-3.12-1.17v5.54h-4.27V395h4.14v1.14a4.33,4.33,0,0,1,3.2-1.3,4.76,4.76,0,0,1,3.43,1.27,4.13,4.13,0,0,1,1.07,2.11,18.06,18.06,0,0,1,.22,3.12ZM112,402a9.92,9.92,0,0,0-.13-1.8,1.92,1.92,0,0,0-.51-1.12,1.53,1.53,0,0,0-1.14-.36,1.38,1.38,0,0,0-1.42.79,6.79,6.79,0,0,0-.33,2.49,13.19,13.19,0,0,0,.1,1.83,2.13,2.13,0,0,0,.51,1.11,1.51,1.51,0,0,0,1.14.38,1.45,1.45,0,0,0,1.14-.38,2,2,0,0,0,.49-1.11A9.22,9.22,0,0,0,112,402Z"/><path class="c" d="M125.76,409h-2.14a4.51,4.51,0,0,1-2.43-.61,3.77,3.77,0,0,1-1.45-1.55,4.55,4.55,0,0,1-.46-2v-6H118v-3.28h1.29v-4h4.27v4h2.21v3.28h-2.21v5.71c0,.58.28.87.83.87h1.38Z"/><path class="c" d="M140,402a12.51,12.51,0,0,1-.33,3.25,5.07,5.07,0,0,1-1.19,2.13,5.94,5.94,0,0,1-4.52,1.78,5.85,5.85,0,0,1-4.49-1.78,5.51,5.51,0,0,1-.92-1.34,6.36,6.36,0,0,1-.48-1.66,19,19,0,0,1-.13-2.38,13.66,13.66,0,0,1,.16-2.34,5.69,5.69,0,0,1,.45-1.65,6.85,6.85,0,0,1,.92-1.37,6,6,0,0,1,1.85-1.27,6.22,6.22,0,0,1,2.64-.51,6.3,6.3,0,0,1,2.67.51,6,6,0,0,1,1.85,1.27,5.32,5.32,0,0,1,1.19,2.13A12.6,12.6,0,0,1,140,402Zm-4.26,0a10.07,10.07,0,0,0-.13-1.88,1.88,1.88,0,0,0-.48-1,1.6,1.6,0,0,0-1.17-.38,1.62,1.62,0,0,0-1.14.38,1.87,1.87,0,0,0-.48,1.1,9.62,9.62,0,0,0-.13,1.8,10.28,10.28,0,0,0,.13,1.83,2,2,0,0,0,.48,1.09,1.54,1.54,0,0,0,1.14.4,1.42,1.42,0,0,0,1.14-.4,1.87,1.87,0,0,0,.51-1A10.39,10.39,0,0,0,135.71,402Z"/><path class="c" d="M153,407.33a7.26,7.26,0,0,1-1.26,1,6.72,6.72,0,0,1-1.58.61,7.69,7.69,0,0,1-1.75.2,7.83,7.83,0,0,1-2.9-.56,5.22,5.22,0,0,1-2.41-2.21,10.18,10.18,0,0,1,0-8.76,5.23,5.23,0,0,1,2.39-2.21,8,8,0,0,1,2.92-.56,6.91,6.91,0,0,1,2.56.46,6.24,6.24,0,0,1,2,1.32c-.64.64-1.59,1.62-2.86,2.92a2.54,2.54,0,0,0-1.73-.84,1.76,1.76,0,0,0-1.32.54,3.94,3.94,0,0,0-.71,2.74,4,4,0,0,0,.71,2.77,1.74,1.74,0,0,0,1.32.55,2.45,2.45,0,0,0,1.73-.83C150.73,405.08,151.69,406,153,407.33Z"/><path class="c" d="M166.89,409h-4.17v-1.15a3.82,3.82,0,0,1-1.49,1,5.07,5.07,0,0,1-1.76.33,4.32,4.32,0,0,1-3.14-1.19,4.19,4.19,0,0,1-1.1-1.78,8.18,8.18,0,0,1-.27-2.24V395h4.26v8.37a1.88,1.88,0,0,0,.53,1.5,1.9,1.9,0,0,0,1.17.43,1.86,1.86,0,0,0,1.17-.43,1.81,1.81,0,0,0,.53-1.5V395h4.27Z"/><path class="c" d="M180.88,396.11q-.81.81-3.23,3.27a3.72,3.72,0,0,0-.71-.53,1.62,1.62,0,0,0-.83-.18,1.91,1.91,0,0,0-1.15.43,1.8,1.8,0,0,0-.56,1.5V409h-4.26V395h4.16v1.14a4.26,4.26,0,0,1,1.4-.92,4.64,4.64,0,0,1,1.88-.38,5.5,5.5,0,0,1,1.83.28A4.6,4.6,0,0,1,180.88,396.11Z"/><path class="c" d="M193.24,396.11,190,399.38a3.72,3.72,0,0,0-.71-.53,1.64,1.64,0,0,0-.84-.18,1.89,1.89,0,0,0-1.14.43,1.8,1.8,0,0,0-.56,1.5V409H182.5V395h4.17v1.14a4.21,4.21,0,0,1,1.39-.92,4.71,4.71,0,0,1,1.88-.38,5.5,5.5,0,0,1,1.83.28A4.4,4.4,0,0,1,193.24,396.11Z"/><path class="c" d="M206.78,403.34h-8.36a2.06,2.06,0,0,0,.66,1.55,2.47,2.47,0,0,0,1.81.64,4,4,0,0,0,1.67-.28,4.16,4.16,0,0,0,1.22-.89l2.54,2.54a8.47,8.47,0,0,1-2.36,1.68,7.56,7.56,0,0,1-3.07.53q-6.66,0-6.66-7.16a7.43,7.43,0,0,1,1.73-5.23,5.88,5.88,0,0,1,4.52-1.91,6.31,6.31,0,0,1,3.4.89,5.35,5.35,0,0,1,2.16,2.36,7.59,7.59,0,0,1,.74,3.38Zm-4.19-2.84a2.53,2.53,0,0,0-.23-1.09,1.74,1.74,0,0,0-.69-.79,2.21,2.21,0,0,0-1.19-.3,2.17,2.17,0,0,0-1.17.3,1.62,1.62,0,0,0-.66.79,2.53,2.53,0,0,0-.23,1.09Z"/><path class="c" d="M221.35,409h-4.26V400.6a1.83,1.83,0,0,0-.56-1.52,2,2,0,0,0-1.17-.41,1.92,1.92,0,0,0-1.17.43,1.83,1.83,0,0,0-.53,1.5V409h-4.27V395h4.17v1.14a4,4,0,0,1,1.49-.94,4.69,4.69,0,0,1,1.76-.36,4.22,4.22,0,0,1,3.12,1.2,3.89,3.89,0,0,1,1.12,1.75,7.64,7.64,0,0,1,.3,2.26Z"/><path class="c" d="M234.71,407.33a7.74,7.74,0,0,1-1.27,1,6.55,6.55,0,0,1-1.58.61,7.74,7.74,0,0,1-4.64-.36,5.19,5.19,0,0,1-2.42-2.21,10.18,10.18,0,0,1,0-8.76,5.23,5.23,0,0,1,2.39-2.21,8,8,0,0,1,2.92-.56,7,7,0,0,1,2.57.46,6.46,6.46,0,0,1,2,1.32c-.65.64-1.6,1.62-2.87,2.92a2.52,2.52,0,0,0-1.73-.84,1.8,1.8,0,0,0-1.32.54,4,4,0,0,0-.71,2.74,4.08,4.08,0,0,0,.71,2.77,1.77,1.77,0,0,0,1.32.55,2.45,2.45,0,0,0,1.73-.83C232.46,405.08,233.42,406,234.71,407.33Z"/><path class="c" d="M241.54,391.74a2.54,2.54,0,0,1-.36,1.32,2.49,2.49,0,0,1-.94.94,2.58,2.58,0,0,1-1.29.33,2.69,2.69,0,0,1-1.32-.33,2.48,2.48,0,0,1-.94-1,2.45,2.45,0,0,1-.36-1.3,2.63,2.63,0,0,1,.33-1.29,3,3,0,0,1,1-1,2.69,2.69,0,0,1,1.32-.33,2.63,2.63,0,0,1,2.23,1.3A2.46,2.46,0,0,1,241.54,391.74ZM241.08,409h-4.27V395.52h4.27Z"/><path class="c" d="M256.21,403.34h-8.35a2.06,2.06,0,0,0,.66,1.55,2.46,2.46,0,0,0,1.8.64,4.07,4.07,0,0,0,1.68-.28,4.44,4.44,0,0,0,1.22-.89l2.54,2.54a8.36,8.36,0,0,1-2.37,1.68,7.53,7.53,0,0,1-3.07.53q-6.65,0-6.65-7.16a7.43,7.43,0,0,1,1.73-5.23,5.85,5.85,0,0,1,4.52-1.91,6.31,6.31,0,0,1,3.4.89,5.47,5.47,0,0,1,2.16,2.36,7.59,7.59,0,0,1,.73,3.38ZM252,400.5a2.39,2.39,0,0,0-.23-1.09,1.72,1.72,0,0,0-.68-.79,2.21,2.21,0,0,0-1.19-.3,2.17,2.17,0,0,0-1.17.3,1.62,1.62,0,0,0-.66.79,2.53,2.53,0,0,0-.23,1.09Z"/><path class="c" d="M269.59,404.39a4.19,4.19,0,0,1-.81,2.64,4.75,4.75,0,0,1-2.16,1.57,8.87,8.87,0,0,1-3.07.51,16.6,16.6,0,0,1-2.26-.13,8,8,0,0,1-2-.53,6.34,6.34,0,0,1-1.88-1.35c.61-.62,1.53-1.56,2.76-2.79a4.55,4.55,0,0,0,3.41,1.19,3.76,3.76,0,0,0,1.22-.2.76.76,0,0,0,.58-.71c0-.54-.34-.84-1-.89l-2.13-.2a7,7,0,0,1-2.16-.56,3.24,3.24,0,0,1-1.39-1.3,4.38,4.38,0,0,1-.51-2.21,4.15,4.15,0,0,1,1.7-3.45,5.78,5.78,0,0,1,1.78-.86,7.12,7.12,0,0,1,2.08-.31,12.05,12.05,0,0,1,3.2.38,5.13,5.13,0,0,1,2.31,1.35l-2.64,2.62a4.06,4.06,0,0,0-2.95-.84,1.71,1.71,0,0,0-1,.25.7.7,0,0,0-.35.56c0,.46.3.72.91.79s1.22.1,2.18.2a5.43,5.43,0,0,1,2.37.71,3.7,3.7,0,0,1,1.39,1.5A4.72,4.72,0,0,1,269.59,404.39Z"/><path class="c" d="M288.26,409h-1.88v-1.22a4,4,0,0,1-1.6,1.06,6,6,0,0,1-2.11.31,7,7,0,0,1-2.16-.28,3.48,3.48,0,0,1-1.45-.89,3.53,3.53,0,0,1-1-2.61,3.39,3.39,0,0,1,1.14-2.7,5,5,0,0,1,3.3-1h3.84v-1.22a2.82,2.82,0,0,0-.76-2.13,3.8,3.8,0,0,0-2.52-.68,4.69,4.69,0,0,0-1.93.33,3.42,3.42,0,0,0-1.29,1.14c-.29-.25-.71-.64-1.27-1.17a4.28,4.28,0,0,1,2.64-1.73,9.5,9.5,0,0,1,1.88-.17,8.08,8.08,0,0,1,2.28.28,4.22,4.22,0,0,1,1.58.81,3.23,3.23,0,0,1,.94,1.32,4.74,4.74,0,0,1,.33,1.85Zm-1.88-4.52v-1.37h-3.61c-1.89,0-2.84.74-2.84,2.23a2,2,0,0,0,.71,1.65,3.62,3.62,0,0,0,2.23.56,6.49,6.49,0,0,0,1.63-.18,2.48,2.48,0,0,0,1.22-.68A3,3,0,0,0,286.38,404.44Z"/><path class="c" d="M301.33,397.2c-.22.24-.67.7-1.37,1.4a3.29,3.29,0,0,0-1-.71,3,3,0,0,0-1.2-.21,3.11,3.11,0,0,0-1.62.43,3.38,3.38,0,0,0-1.09,1.22,4.26,4.26,0,0,0-.36,1.78V409H292.8v-12.8h1.88v1.55a3.65,3.65,0,0,1,1.5-1.25,5,5,0,0,1,2.08-.45A4.18,4.18,0,0,1,301.33,397.2Z"/><path class="c" d="M313.54,403.07h-8.63a4.84,4.84,0,0,0,1,3.25,3.5,3.5,0,0,0,2.8,1.14,4.52,4.52,0,0,0,1.8-.33,4.78,4.78,0,0,0,1.55-1.12l1.27,1.12a7.47,7.47,0,0,1-2.09,1.52,6.26,6.26,0,0,1-2.61.46,6.09,6.09,0,0,1-2.95-.69,4.7,4.7,0,0,1-1.93-2.18,8.5,8.5,0,0,1-.71-3.68,9.12,9.12,0,0,1,.38-2.74,5.72,5.72,0,0,1,1-2.06,4.38,4.38,0,0,1,1.67-1.32,5.24,5.24,0,0,1,2.18-.43,5,5,0,0,1,2.8.76,4.6,4.6,0,0,1,1.8,2.16,7.88,7.88,0,0,1,.63,3.27Zm-1.87-1.43a6.84,6.84,0,0,0-.38-2.13,3.11,3.11,0,0,0-1.17-1.4,3.37,3.37,0,0,0-3.63,0,3,3,0,0,0-1.2,1.4,7.34,7.34,0,0,0-.38,2.13Z"/><path class="c" d="M75,440.16H73.12v-7.93a4.18,4.18,0,0,0-.38-1.85,2.42,2.42,0,0,0-1.09-1.12,3.41,3.41,0,0,0-1.65-.38,3.1,3.1,0,0,0-2.34.87,3.37,3.37,0,0,0-.86,2.48v7.93H64.92V421.65H66.8v7.13a4.51,4.51,0,0,1,3.58-1.57,4.92,4.92,0,0,1,2.46.58,3.92,3.92,0,0,1,1.6,1.65,5.44,5.44,0,0,1,.53,2.49Z"/><path class="c" d="M88.69,440.16H86.81v-1.22a4,4,0,0,1-1.6,1.06,6,6,0,0,1-2.11.31,7,7,0,0,1-2.16-.28,3.48,3.48,0,0,1-1.45-.89,3.53,3.53,0,0,1-1-2.61,3.39,3.39,0,0,1,1.14-2.7,5,5,0,0,1,3.3-1h3.84v-1.22a2.79,2.79,0,0,0-.77-2.13,3.8,3.8,0,0,0-2.51-.68,4.69,4.69,0,0,0-1.93.33,3.42,3.42,0,0,0-1.29,1.14c-.29-.25-.71-.64-1.27-1.17a4.28,4.28,0,0,1,2.64-1.73,9.5,9.5,0,0,1,1.88-.17,8.08,8.08,0,0,1,2.28.28,4.22,4.22,0,0,1,1.58.81,3.23,3.23,0,0,1,.94,1.32,4.74,4.74,0,0,1,.33,1.85Zm-1.88-4.52v-1.37H83.2c-1.89,0-2.84.74-2.84,2.23a1.91,1.91,0,0,0,.71,1.65,3.62,3.62,0,0,0,2.23.56,6.49,6.49,0,0,0,1.63-.18,2.53,2.53,0,0,0,1.22-.68A3,3,0,0,0,86.81,435.64Z"/><path class="c" d="M101.76,428.4c-.22.24-.68.7-1.37,1.4a3.29,3.29,0,0,0-1-.71,3,3,0,0,0-1.2-.21,3.11,3.11,0,0,0-1.62.43,3.5,3.5,0,0,0-1.1,1.22,4.42,4.42,0,0,0-.35,1.78v7.85H93.23v-12.8h1.88v1.55a3.58,3.58,0,0,1,1.5-1.25,5,5,0,0,1,2.08-.45A4.19,4.19,0,0,1,101.76,428.4Z"/><path class="c" d="M122.48,440.16h-1.85v-7.9a3.44,3.44,0,0,0-.84-2.51,3.06,3.06,0,0,0-2.31-.87,3.77,3.77,0,0,0-1.68.36,2.72,2.72,0,0,0-1.14,1.09,3.43,3.43,0,0,0-.41,1.73v8.1H112.4v-7.9a4.14,4.14,0,0,0-.25-1.5,3.08,3.08,0,0,0-.61-1.06,2.27,2.27,0,0,0-1-.61,3.73,3.73,0,0,0-1.32-.21,3.06,3.06,0,0,0-2.33.87,3.43,3.43,0,0,0-.87,2.51v7.9h-1.88v-12.8h1.88v1.42a4.51,4.51,0,0,1,3.61-1.57,4.77,4.77,0,0,1,2.33.53,3.86,3.86,0,0,1,1.6,1.6,4.84,4.84,0,0,1,4.19-2.13,4.66,4.66,0,0,1,3.33,1.19,4.78,4.78,0,0,1,1.37,3.56Z"/><path class="c" d="M132.05,428.88h-2.71v11.28h-1.91V428.88h-1.62v-1.42h1.62V425a3.56,3.56,0,0,1,.86-2.46,3,3,0,0,1,2.39-1h1.37v1.6h-1c-1.14,0-1.7.62-1.7,1.87v2.39h2.71Z"/><path class="c" d="M145.13,440.16h-1.85v-1.43a4.69,4.69,0,0,1-1.6,1.17,5.13,5.13,0,0,1-2,.41,4.49,4.49,0,0,1-3.3-1.19,4,4,0,0,1-1-1.55,6.06,6.06,0,0,1-.33-2.06v-8.15h1.88v7.9a3.54,3.54,0,0,0,.81,2.51,3.09,3.09,0,0,0,2.31.86,3.2,3.2,0,0,0,2.34-.86,3.51,3.51,0,0,0,.83-2.51v-7.9h1.91Z"/><path class="c" d="M154.37,440.16H153a3.12,3.12,0,0,1-2.44-.94,3.66,3.66,0,0,1-.81-2.47v-15.1h1.88v15a2.23,2.23,0,0,0,.38,1.42,1.72,1.72,0,0,0,1.35.43h1Z"/><path class="c" d="M168.89,440.16h-1.32a3.09,3.09,0,0,1-2.41-1,3.56,3.56,0,0,1-.86-2.46v-7.85h-1.6v-1.42h1.6v-4h1.88v4h2.71v1.42h-2.71v7.8c0,1.23.58,1.85,1.75,1.85h1Z"/><path class="c" d="M182.4,433.76a14.62,14.62,0,0,1-.12,2,5.33,5.33,0,0,1-.49,1.67,4.37,4.37,0,0,1-.94,1.45,4.92,4.92,0,0,1-3.65,1.45,4.87,4.87,0,0,1-4.65-2.87,6.93,6.93,0,0,1-.46-1.68,12.07,12.07,0,0,1-.15-2,11.24,11.24,0,0,1,.33-2.92,5,5,0,0,1,1.25-2.16,5.3,5.3,0,0,1,7.33,0,4.56,4.56,0,0,1,1.22,2.13A11.59,11.59,0,0,1,182.4,433.76Zm-1.85,0a12.08,12.08,0,0,0-.2-2.36,3.05,3.05,0,0,0-3.15-2.52,3.27,3.27,0,0,0-2.34.92,3.33,3.33,0,0,0-.84,1.65,15.92,15.92,0,0,0,0,4.64,3.31,3.31,0,0,0,.84,1.63,3.23,3.23,0,0,0,2.34.91,3.14,3.14,0,0,0,2.33-.91,3.22,3.22,0,0,0,.82-1.6A11.86,11.86,0,0,0,180.55,433.76Z"/><path class="c" d="M197.79,440.16h-1.32a3.07,3.07,0,0,1-2.41-1,3.52,3.52,0,0,1-.87-2.46v-7.85h-1.6v-1.42h1.6v-4h1.88v4h2.72v1.42h-2.72v7.8c0,1.23.59,1.85,1.75,1.85h1Z"/><path class="c" d="M211.58,440.16h-1.86v-7.93a4,4,0,0,0-.38-1.85,2.42,2.42,0,0,0-1.09-1.12,3.41,3.41,0,0,0-1.65-.38,3.1,3.1,0,0,0-2.34.87,3.37,3.37,0,0,0-.86,2.48v7.93h-1.88V421.65h1.88v7.13a4.51,4.51,0,0,1,3.58-1.57,4.92,4.92,0,0,1,2.46.58,3.92,3.92,0,0,1,1.6,1.65,5.44,5.44,0,0,1,.54,2.49Z"/><path class="c" d="M226,434.27h-8.64a4.84,4.84,0,0,0,1,3.25,3.52,3.52,0,0,0,2.8,1.14,4.52,4.52,0,0,0,1.8-.33,4.78,4.78,0,0,0,1.55-1.12l1.27,1.12a7.58,7.58,0,0,1-2.08,1.52,6.34,6.34,0,0,1-2.62.46,6,6,0,0,1-2.94-.69,4.65,4.65,0,0,1-1.93-2.18,8.36,8.36,0,0,1-.71-3.68,8.81,8.81,0,0,1,.38-2.74,5.56,5.56,0,0,1,1-2.06,4.38,4.38,0,0,1,1.67-1.32,5.28,5.28,0,0,1,2.19-.43,5,5,0,0,1,2.79.76,4.54,4.54,0,0,1,1.8,2.16,7.73,7.73,0,0,1,.64,3.27Zm-1.88-1.43a6.56,6.56,0,0,0-.38-2.13,3.11,3.11,0,0,0-1.17-1.4,3.24,3.24,0,0,0-1.8-.53,3.3,3.3,0,0,0-1.83.53,3,3,0,0,0-1.19,1.4,7.31,7.31,0,0,0-.39,2.13Z"/><path class="c" d="M246.56,433.76a14,14,0,0,1-.33,3.17,4.5,4.5,0,0,1-1.21,2.26,3.87,3.87,0,0,1-1.35.81,5,5,0,0,1-1.78.31,5.55,5.55,0,0,1-1.34-.15,3.55,3.55,0,0,1-1.22-.54,3.89,3.89,0,0,1-1-1v1.53h-1.88V421.65h1.88v7.21a4,4,0,0,1,1.6-1.3,5.33,5.33,0,0,1,2-.35,5.24,5.24,0,0,1,1.78.3,3.15,3.15,0,0,1,1.35.81,4.54,4.54,0,0,1,1.21,2.26A14.12,14.12,0,0,1,246.56,433.76Zm-1.85,0a8.42,8.42,0,0,0-.63-3.58,3.17,3.17,0,0,0-5.13,0,9.9,9.9,0,0,0,0,7.11,2.58,2.58,0,0,0,2.56,1.32,2.61,2.61,0,0,0,2.57-1.29A8.45,8.45,0,0,0,244.71,433.76Z"/><path class="c" d="M259.72,440.16h-1.88v-1.22a4,4,0,0,1-1.6,1.06,6,6,0,0,1-2.11.31A7,7,0,0,1,252,440a3.44,3.44,0,0,1-1.44-.89,3.49,3.49,0,0,1-1-2.61,3.39,3.39,0,0,1,1.14-2.7,5,5,0,0,1,3.3-1h3.84v-1.22a2.82,2.82,0,0,0-.76-2.13,3.85,3.85,0,0,0-2.52-.68,4.69,4.69,0,0,0-1.93.33,3.42,3.42,0,0,0-1.29,1.14c-.29-.25-.71-.64-1.27-1.17a4.28,4.28,0,0,1,2.64-1.73,9.5,9.5,0,0,1,1.88-.17,8.08,8.08,0,0,1,2.28.28,4.22,4.22,0,0,1,1.58.81,3.23,3.23,0,0,1,.94,1.32,4.74,4.74,0,0,1,.33,1.85Zm-1.88-4.52v-1.37h-3.61c-1.89,0-2.84.74-2.84,2.23a1.94,1.94,0,0,0,.71,1.65,3.62,3.62,0,0,0,2.23.56,6.49,6.49,0,0,0,1.63-.18,2.48,2.48,0,0,0,1.22-.68A3,3,0,0,0,257.84,435.64Z"/><path class="c" d="M274.32,440.16h-1.86v-7.9a4.38,4.38,0,0,0-.23-1.5,3.11,3.11,0,0,0-.63-1.06,2.23,2.23,0,0,0-.94-.61,4,4,0,0,0-1.35-.21,3.06,3.06,0,0,0-2.31.87,3.47,3.47,0,0,0-.86,2.51v7.9h-1.88v-12.8h1.88v1.42a4.23,4.23,0,0,1,1.57-1.19,5.07,5.07,0,0,1,2-.38A4.42,4.42,0,0,1,273,428.4a4.75,4.75,0,0,1,1.32,3.56Z"/><path class="c" d="M289.63,440.16h-2.31l-4.07-6.55c-.4.47-1.23,1.43-2.48,2.86v3.69h-1.88V421.65h1.88V434q1.44-1.68,5.76-6.68h2.34c-.72.81-2.15,2.44-4.32,4.87Z"/><path class="c" d="M295.06,422.56a1.27,1.27,0,0,1-.18.64,1.48,1.48,0,0,1-.45.48,1.52,1.52,0,0,1-.66.15,1.24,1.24,0,0,1-.64-.18,1.15,1.15,0,0,1-.48-.45,1.46,1.46,0,0,1-.15-.64,1.19,1.19,0,0,1,.17-.63,1,1,0,0,1,.46-.46,1.1,1.1,0,0,1,.64-.2,1.31,1.31,0,0,1,.5.1.9.9,0,0,1,.41.3,1.42,1.42,0,0,1,.28.41A1.12,1.12,0,0,1,295.06,422.56Zm-.35,17.6h-1.88v-12.8h1.88Z"/><path class="c" d="M309.46,440.16H307.6v-7.9a4.64,4.64,0,0,0-.22-1.5,3.29,3.29,0,0,0-.64-1.06,2.23,2.23,0,0,0-.94-.61,4,4,0,0,0-1.34-.21,3.07,3.07,0,0,0-2.32.87,3.47,3.47,0,0,0-.86,2.51v7.9H299.4v-12.8h1.88v1.42a4.19,4.19,0,0,1,1.58-1.19,5,5,0,0,1,2-.38,4.42,4.42,0,0,1,3.28,1.19,4.75,4.75,0,0,1,1.32,3.56Z"/><path class="c" d="M323.47,440.56a6.62,6.62,0,0,1-.35,2.19,5.23,5.23,0,0,1-1.07,1.72,4.46,4.46,0,0,1-1.7,1.17,5.91,5.91,0,0,1-2.21.41,8.71,8.71,0,0,1-1.27-.1,6,6,0,0,1-1.12-.31,4.7,4.7,0,0,1-1-.56c-.3-.22-.62-.47-1-.76L315,443.1a9.31,9.31,0,0,0,.91.74,3.14,3.14,0,0,0,.94.4,4.15,4.15,0,0,0,1.22.16,3.2,3.2,0,0,0,2.64-1.1,4.39,4.39,0,0,0,.86-2.84v-2a4.2,4.2,0,0,1-1.06,1,3.68,3.68,0,0,1-1.2.51,5.32,5.32,0,0,1-1.32.15,5,5,0,0,1-1.75-.3,3.83,3.83,0,0,1-1.34-.84,4.92,4.92,0,0,1-1-1.45,7.41,7.41,0,0,1-.46-1.8,14,14,0,0,1-.15-2.08,12.06,12.06,0,0,1,.36-3.1,4.63,4.63,0,0,1,1.22-2.24,4.22,4.22,0,0,1,3.12-1.11,5.19,5.19,0,0,1,2,.35,4.06,4.06,0,0,1,1.58,1.32v-1.52h1.85Zm-1.88-6.9a8.13,8.13,0,0,0-.63-3.51,2.57,2.57,0,0,0-2.54-1.27,2.84,2.84,0,0,0-2,.64,3.48,3.48,0,0,0-.94,1.72,13.37,13.37,0,0,0,0,4.83,3.48,3.48,0,0,0,.94,1.72,2.84,2.84,0,0,0,2,.64,2.55,2.55,0,0,0,2.54-1.27A8.09,8.09,0,0,0,321.59,433.66Z"/><path class="c" d="M74.16,467.6a3.46,3.46,0,0,1-.66,2.11,4.35,4.35,0,0,1-1.8,1.34,7.53,7.53,0,0,1-2.74.46,9.12,9.12,0,0,1-2.95-.43,6.06,6.06,0,0,1-2.31-1.42L65,468.41a5.17,5.17,0,0,0,4,1.5,4.58,4.58,0,0,0,2.49-.58,1.9,1.9,0,0,0,.91-1.71,1.67,1.67,0,0,0-.5-1.29,2.77,2.77,0,0,0-1.63-.56l-2.11-.2c-2.54-.21-3.8-1.35-3.8-3.43a3.24,3.24,0,0,1,1.29-2.72,5.45,5.45,0,0,1,3.4-1,9.27,9.27,0,0,1,2.59.35,5.45,5.45,0,0,1,2,1L72.36,461a5.47,5.47,0,0,0-3.4-1,3.52,3.52,0,0,0-2.14.56,1.86,1.86,0,0,0-.73,1.57c0,1.12.75,1.74,2.26,1.86l2,.18a5.09,5.09,0,0,1,2.79,1A3,3,0,0,1,74.16,467.6Z"/><path class="c" d="M86.83,458.56q-1.47,4-5.84,15.89a3.73,3.73,0,0,1-.91,1.5,3.43,3.43,0,0,1-2.49.89h-.81v-1.65h.56a2.16,2.16,0,0,0,1.39-.36,2.6,2.6,0,0,0,.71-1.24l.92-2.49q-1.14-3.12-4.57-12.54h2c.6,1.71,1.76,5.13,3.51,10.26q.89-2.56,3.5-10.26Z"/><path class="c" d="M98.66,467.6a3.46,3.46,0,0,1-.66,2.11,4.35,4.35,0,0,1-1.8,1.34,7.49,7.49,0,0,1-2.74.46,9.12,9.12,0,0,1-2.95-.43,6.06,6.06,0,0,1-2.31-1.42l1.25-1.25a5.17,5.17,0,0,0,4,1.5,4.58,4.58,0,0,0,2.49-.58,1.91,1.91,0,0,0,.92-1.71,1.64,1.64,0,0,0-.51-1.29,2.77,2.77,0,0,0-1.63-.56l-2.1-.2q-3.81-.31-3.81-3.43a3.24,3.24,0,0,1,1.29-2.72,5.47,5.47,0,0,1,3.4-1,9.22,9.22,0,0,1,2.59.35,5.45,5.45,0,0,1,2,1L96.86,461a5.47,5.47,0,0,0-3.4-1,3.49,3.49,0,0,0-2.13.56,1.84,1.84,0,0,0-.74,1.57c0,1.12.75,1.74,2.26,1.86l2,.18a5.09,5.09,0,0,1,2.79,1A3,3,0,0,1,98.66,467.6Z"/><path class="c" d="M107.22,471.36H105.9a3,3,0,0,1-2.41-1,3.52,3.52,0,0,1-.87-2.46v-7.85H101v-1.42h1.59v-4h1.88v4h2.72v1.42H104.5v7.8c0,1.23.59,1.85,1.76,1.85h1Z"/><path class="c" d="M120.75,465.47h-8.63a4.84,4.84,0,0,0,1,3.25,3.5,3.5,0,0,0,2.79,1.14,4.54,4.54,0,0,0,1.81-.33,4.74,4.74,0,0,0,1.55-1.12c.28.26.71.63,1.27,1.12a7.47,7.47,0,0,1-2.09,1.52,6.29,6.29,0,0,1-2.61.46,6.09,6.09,0,0,1-3-.69,4.7,4.7,0,0,1-1.93-2.18,8.5,8.5,0,0,1-.71-3.68,9.12,9.12,0,0,1,.38-2.74,5.87,5.87,0,0,1,1-2.06,4.49,4.49,0,0,1,1.68-1.32,5.24,5.24,0,0,1,2.18-.43,5,5,0,0,1,2.8.76,4.6,4.6,0,0,1,1.8,2.16,7.88,7.88,0,0,1,.63,3.27ZM118.88,464a6.53,6.53,0,0,0-.39-2.13,3,3,0,0,0-1.16-1.4,3.37,3.37,0,0,0-3.63,0,3,3,0,0,0-1.2,1.4,7.34,7.34,0,0,0-.38,2.13Z"/><path class="c" d="M143.05,471.36h-1.86v-7.9a3.48,3.48,0,0,0-.83-2.51,3.07,3.07,0,0,0-2.32-.87,3.76,3.76,0,0,0-1.67.36,2.72,2.72,0,0,0-1.14,1.09,3.43,3.43,0,0,0-.41,1.73v8.1H133v-7.9a4.14,4.14,0,0,0-.26-1.5,2.79,2.79,0,0,0-.61-1.06,2.17,2.17,0,0,0-1-.61,3.73,3.73,0,0,0-1.32-.21,3.1,3.1,0,0,0-2.34.87,3.47,3.47,0,0,0-.86,2.51v7.9h-1.88v-12.8h1.88V460a4.5,4.5,0,0,1,3.6-1.57,4.81,4.81,0,0,1,2.34.53,3.86,3.86,0,0,1,1.6,1.6,4.84,4.84,0,0,1,4.19-2.13,4.66,4.66,0,0,1,3.33,1.19,4.78,4.78,0,0,1,1.37,3.56Z"/><path class="c" d="M163.21,471.36h-1.88v-1.22a4,4,0,0,1-1.6,1.06,6,6,0,0,1-2.11.31,7,7,0,0,1-2.16-.28,3.38,3.38,0,0,1-1.44-.89,3.49,3.49,0,0,1-1-2.61,3.39,3.39,0,0,1,1.14-2.7,5,5,0,0,1,3.3-1h3.84v-1.21a2.83,2.83,0,0,0-.76-2.14,3.85,3.85,0,0,0-2.52-.68,4.69,4.69,0,0,0-1.93.33,3.42,3.42,0,0,0-1.29,1.14c-.29-.25-.71-.64-1.27-1.17a4.28,4.28,0,0,1,2.64-1.73,9.5,9.5,0,0,1,1.88-.17,8.08,8.08,0,0,1,2.28.28,4.22,4.22,0,0,1,1.58.81,3.23,3.23,0,0,1,.94,1.32,4.74,4.74,0,0,1,.33,1.85Zm-1.88-4.52v-1.37h-3.61c-1.89,0-2.84.74-2.84,2.23a1.92,1.92,0,0,0,.71,1.65,3.62,3.62,0,0,0,2.23.56,6.49,6.49,0,0,0,1.63-.18,2.48,2.48,0,0,0,1.22-.68A3,3,0,0,0,161.33,466.84Z"/><path class="c" d="M177.81,471.36H176v-7.9a4.38,4.38,0,0,0-.23-1.5,3.11,3.11,0,0,0-.63-1.06,2.23,2.23,0,0,0-.94-.61,4,4,0,0,0-1.35-.21,3.06,3.06,0,0,0-2.31.87,3.47,3.47,0,0,0-.86,2.51v7.9h-1.88v-12.8h1.88V460a4.19,4.19,0,0,1,1.58-1.19,5,5,0,0,1,2-.38,4.42,4.42,0,0,1,3.28,1.19,4.75,4.75,0,0,1,1.32,3.56Z"/><path class="c" d="M191.87,471.36H190v-1.53a4.28,4.28,0,0,1-1.07,1,3.63,3.63,0,0,1-1.19.51,5.93,5.93,0,0,1-1.37.15,4.18,4.18,0,0,1-3.12-1.12q-1.58-1.58-1.58-5.43t1.58-5.44a4.22,4.22,0,0,1,3.12-1.11,5.46,5.46,0,0,1,2,.35,4.06,4.06,0,0,1,1.57,1.3v-7.21h1.88ZM190,465a8.08,8.08,0,0,0-.66-3.58,3.11,3.11,0,0,0-5.07,0,8,8,0,0,0-.66,3.56,8.33,8.33,0,0,0,.63,3.55,3.14,3.14,0,0,0,5.1,0A8.11,8.11,0,0,0,190,465Z"/><path class="c" d="M221.94,471.36h-4.27V463a1.89,1.89,0,0,0-.53-1.52,2,2,0,0,0-1.17-.41,1.92,1.92,0,0,0-1.17.43,1.83,1.83,0,0,0-.53,1.5v8.36H210V463a1.8,1.8,0,0,0-.56-1.52,2,2,0,0,0-1.16-.41,1.92,1.92,0,0,0-1.17.43,1.8,1.8,0,0,0-.54,1.5v8.36h-4.26v-14h4.16v1.14a4.12,4.12,0,0,1,1.5-.94,4.64,4.64,0,0,1,1.75-.36,4.29,4.29,0,0,1,3.38,1.48,6.69,6.69,0,0,1,1.83-1.12,5.8,5.8,0,0,1,2.13-.36,5.5,5.5,0,0,1,1.9.33,3.56,3.56,0,0,1,1.45.87,4.7,4.7,0,0,1,1.2,1.8,7,7,0,0,1,.33,2.21Z"/><path class="c" d="M236,471.36h-4.16v-1.15a5,5,0,0,1-1.37,1,4.32,4.32,0,0,1-1.76.3,4.53,4.53,0,0,1-3.35-1.24,4.45,4.45,0,0,1-1.22-3.28,4.11,4.11,0,0,1,.51-2,3.74,3.74,0,0,1,1.55-1.47,5.91,5.91,0,0,1,2.69-.56h2.85v-.35a1.57,1.57,0,0,0-.51-1.35,2.5,2.5,0,0,0-1.6-.41,2.62,2.62,0,0,0-2.24.94l-2.66-2.66a6.45,6.45,0,0,1,2.21-1.48,9.11,9.11,0,0,1,2.89-.38,7.22,7.22,0,0,1,4.6,1.27,4.61,4.61,0,0,1,1.57,3.81Zm-4.26-5.26v-.35h-2.19a1.45,1.45,0,0,0-1,.3,1,1,0,0,0-.38.81,1,1,0,0,0,.38.84,1.48,1.48,0,0,0,1,.33,3.47,3.47,0,0,0,1-.1,1.77,1.77,0,0,0,.74-.43A1.9,1.9,0,0,0,231.74,466.1Z"/><path class="c" d="M251,457.37q-1.47,3.9-5.82,15.64a4.54,4.54,0,0,1-1.09,1.85,4.06,4.06,0,0,1-3.12,1.17H239.3v-3.84h.92a1.25,1.25,0,0,0,1.42-1c.08-.27.22-.67.4-1.19q-1.15-3.15-4.67-12.59h4.47q.58,1.8,2.36,7.26.59-1.8,2.29-7.26Z"/><path class="c" d="M276.83,457.37q-1.06,3.5-4.21,14h-3.41l-2.51-7.67c-.42,1.27-1.27,3.82-2.54,7.67h-3.4q-1-3.51-4.22-14H261q.43,1.8,1.75,7.26.61-1.8,2.41-7.26h2.95c.4,1.2,1.22,3.62,2.43,7.26q.44-1.8,1.73-7.26Z"/><path class="c" d="M290.36,465.75H282a2.06,2.06,0,0,0,.66,1.54,2.46,2.46,0,0,0,1.8.64,4.07,4.07,0,0,0,1.68-.28,4.44,4.44,0,0,0,1.22-.89l2.54,2.54a8.36,8.36,0,0,1-2.37,1.68,7.53,7.53,0,0,1-3.07.53q-6.64,0-6.65-7.16a7.43,7.43,0,0,1,1.73-5.23,5.85,5.85,0,0,1,4.52-1.91,6.31,6.31,0,0,1,3.4.89,5.47,5.47,0,0,1,2.16,2.36,7.59,7.59,0,0,1,.73,3.38Zm-4.19-2.85a2.56,2.56,0,0,0-.22-1.09,1.8,1.8,0,0,0-.69-.79,2.21,2.21,0,0,0-1.19-.3,2.17,2.17,0,0,0-1.17.3,1.62,1.62,0,0,0-.66.79,2.56,2.56,0,0,0-.23,1.09Z"/><path class="c" d="M303.92,471.36h-4.16v-1.15a5,5,0,0,1-1.37,1,4.32,4.32,0,0,1-1.76.3,4.53,4.53,0,0,1-3.35-1.24,4.45,4.45,0,0,1-1.22-3.28,4.11,4.11,0,0,1,.51-2,3.74,3.74,0,0,1,1.55-1.47,5.91,5.91,0,0,1,2.69-.56h2.85v-.35a1.57,1.57,0,0,0-.51-1.35,2.5,2.5,0,0,0-1.6-.41,2.62,2.62,0,0,0-2.24.94l-2.66-2.66a6.45,6.45,0,0,1,2.21-1.48,9.06,9.06,0,0,1,2.89-.38,7.22,7.22,0,0,1,4.6,1.27,4.61,4.61,0,0,1,1.57,3.81Zm-4.26-5.26v-.35h-2.19a1.45,1.45,0,0,0-1,.3,1,1,0,0,0-.38.81,1,1,0,0,0,.38.84,1.48,1.48,0,0,0,1,.33,3.47,3.47,0,0,0,1-.1,1.77,1.77,0,0,0,.74-.43A1.9,1.9,0,0,0,299.66,466.1Z"/><path class="c" d="M320.2,471.36h-5.28q-.75-1.28-2.92-5.11c-.14.14-.41.43-.82.89v4.22h-4.26V452.85h4.26v9.39l3.76-4.87H320q-1.26,1.44-5.12,5.79Z"/><path class="c" d="M333.73,465.75h-8.35a2.06,2.06,0,0,0,.66,1.54,2.46,2.46,0,0,0,1.8.64,4.07,4.07,0,0,0,1.68-.28,4.26,4.26,0,0,0,1.21-.89l2.54,2.54a8.19,8.19,0,0,1-2.36,1.68,7.56,7.56,0,0,1-3.07.53q-6.64,0-6.65-7.16a7.43,7.43,0,0,1,1.72-5.23,5.88,5.88,0,0,1,4.52-1.91,6.34,6.34,0,0,1,3.41.89,5.39,5.39,0,0,1,2.15,2.36,7.46,7.46,0,0,1,.74,3.38Zm-4.19-2.85a2.56,2.56,0,0,0-.23-1.09,1.72,1.72,0,0,0-.68-.79,2.23,2.23,0,0,0-1.2-.3,2.15,2.15,0,0,0-1.16.3,1.52,1.52,0,0,0-.66.79,2.42,2.42,0,0,0-.23,1.09Z"/><path class="c" d="M348.3,471.36H344V463a1.83,1.83,0,0,0-.56-1.52,1.84,1.84,0,0,0-2.34,0,1.83,1.83,0,0,0-.53,1.5v8.36h-4.26v-14h4.16v1.14a4.12,4.12,0,0,1,1.5-.94,4.61,4.61,0,0,1,1.75-.36,4.19,4.19,0,0,1,3.12,1.2,3.89,3.89,0,0,1,1.12,1.75,7.64,7.64,0,0,1,.3,2.26Z"/><path class="c" d="M71,502.56H68.86a4.52,4.52,0,0,1-2.44-.61A3.83,3.83,0,0,1,65,500.4a4.7,4.7,0,0,1-.46-2v-6H63.22v-3.28h1.29v-4h4.27v4H71v3.28H68.78v5.71a.76.76,0,0,0,.84.87H71Z"/><path class="c" d="M85.44,502.56H81.17v-8.48a1.7,1.7,0,0,0-.51-1.4,1.72,1.72,0,0,0-2.23,0,1.74,1.74,0,0,0-.51,1.4v8.48H73.65V484.05h4.27v5.66a4.18,4.18,0,0,1,1.42-1,4.28,4.28,0,0,1,1.63-.33,4.34,4.34,0,0,1,2.46.66,3.87,3.87,0,0,1,1.5,1.81,6.53,6.53,0,0,1,.51,2.61Z"/><path class="c" d="M100.47,496.94H92.11a2.06,2.06,0,0,0,.66,1.55,2.47,2.47,0,0,0,1.81.64,4,4,0,0,0,1.67-.28,4.29,4.29,0,0,0,1.22-.89L100,500.5a8.22,8.22,0,0,1-2.36,1.67,7.38,7.38,0,0,1-3.07.54q-6.66,0-6.66-7.16a7.43,7.43,0,0,1,1.73-5.23,5.86,5.86,0,0,1,4.52-1.91,6.31,6.31,0,0,1,3.4.89,5.35,5.35,0,0,1,2.16,2.36,7.59,7.59,0,0,1,.74,3.38Zm-4.19-2.84a2.53,2.53,0,0,0-.23-1.09,1.75,1.75,0,0,0-.69-.79,2.21,2.21,0,0,0-1.19-.3,2.17,2.17,0,0,0-1.17.3,1.58,1.58,0,0,0-.66.79,2.53,2.53,0,0,0-.23,1.09Z"/><path class="c" d="M119.64,498a4.14,4.14,0,0,1-.82,2.64,4.77,4.77,0,0,1-2.15,1.57,9,9,0,0,1-3.08.51,16.7,16.7,0,0,1-2.26-.13,8.14,8.14,0,0,1-2-.53,6.47,6.47,0,0,1-1.88-1.35c.61-.62,1.53-1.56,2.77-2.79a4.53,4.53,0,0,0,3.4,1.19,3.71,3.71,0,0,0,1.22-.2.76.76,0,0,0,.58-.71c0-.54-.34-.84-1-.89l-2.14-.2a6.85,6.85,0,0,1-2.15-.56,3.27,3.27,0,0,1-1.4-1.3,4.38,4.38,0,0,1-.51-2.21,4.15,4.15,0,0,1,1.7-3.45,5.78,5.78,0,0,1,1.78-.86,6.8,6.8,0,0,1,2.08-.31,12,12,0,0,1,3.2.38,5.13,5.13,0,0,1,2.31,1.35c-.59.57-1.47,1.45-2.64,2.61a4.08,4.08,0,0,0-2.94-.83,1.67,1.67,0,0,0-1,.25.71.71,0,0,0-.36.56c0,.46.3.72.91.79s1.22.1,2.19.2a5.25,5.25,0,0,1,2.36.71,3.79,3.79,0,0,1,1.4,1.5A4.86,4.86,0,0,1,119.64,498Z"/><path class="c" d="M128.75,502.56h-2.13a4.55,4.55,0,0,1-2.44-.61,3.83,3.83,0,0,1-1.45-1.55,4.68,4.68,0,0,1-.45-2v-6H121v-3.28h1.3v-4h4.26v4h2.21v3.28h-2.21v5.71a.76.76,0,0,0,.84.87h1.37Z"/><path class="c" d="M142.36,502.56H138.2v-1.15a5.18,5.18,0,0,1-1.37,1,4.32,4.32,0,0,1-1.76.3,4.53,4.53,0,0,1-3.35-1.24,4.45,4.45,0,0,1-1.22-3.28,4.11,4.11,0,0,1,.51-2,3.74,3.74,0,0,1,1.55-1.47,5.91,5.91,0,0,1,2.69-.56h2.85v-.35a1.57,1.57,0,0,0-.51-1.35A2.5,2.5,0,0,0,136,492a2.62,2.62,0,0,0-2.24.94l-2.66-2.66a6.31,6.31,0,0,1,2.21-1.48,9.06,9.06,0,0,1,2.89-.38,7.22,7.22,0,0,1,4.6,1.27,4.61,4.61,0,0,1,1.57,3.81Zm-4.26-5.26v-.36h-2.19a1.44,1.44,0,0,0-1,.31,1,1,0,0,0-.38.81,1,1,0,0,0,.38.84,1.46,1.46,0,0,0,1,.33,3.52,3.52,0,0,0,1-.1,1.77,1.77,0,0,0,.74-.43A1.9,1.9,0,0,0,138.1,497.3Z"/><path class="c" d="M152.14,502.56H150a4.51,4.51,0,0,1-2.43-.61,3.77,3.77,0,0,1-1.45-1.55,4.55,4.55,0,0,1-.46-2v-6h-1.29v-3.28h1.29v-4h4.27v4h2.21v3.28h-2.21v5.71a.76.76,0,0,0,.84.87h1.37Z"/><path class="c" d="M166.71,496.94h-8.35a2.06,2.06,0,0,0,.66,1.55,2.46,2.46,0,0,0,1.8.64,4.07,4.07,0,0,0,1.68-.28,4.26,4.26,0,0,0,1.21-.89l2.54,2.54a8,8,0,0,1-2.36,1.67,7.38,7.38,0,0,1-3.07.54q-6.65,0-6.65-7.16a7.43,7.43,0,0,1,1.72-5.23,5.88,5.88,0,0,1,4.52-1.91,6.34,6.34,0,0,1,3.41.89,5.39,5.39,0,0,1,2.15,2.36,7.46,7.46,0,0,1,.74,3.38Zm-4.19-2.84a2.39,2.39,0,0,0-.23-1.09,1.67,1.67,0,0,0-.68-.79,2.23,2.23,0,0,0-1.2-.3,2.15,2.15,0,0,0-1.16.3,1.48,1.48,0,0,0-.66.79,2.39,2.39,0,0,0-.23,1.09Z"/><path class="c" d="M185.65,502.56h-1.88v-1.22a3.93,3.93,0,0,1-1.6,1.06,5.89,5.89,0,0,1-2.1.31,7,7,0,0,1-2.16-.28,3.42,3.42,0,0,1-1.45-.89,3.54,3.54,0,0,1-1-2.62,3.38,3.38,0,0,1,1.14-2.69,5,5,0,0,1,3.3-1h3.83V494a2.79,2.79,0,0,0-.76-2.13,3.75,3.75,0,0,0-2.51-.68,4.65,4.65,0,0,0-1.93.33,3.37,3.37,0,0,0-1.3,1.14c-.28-.26-.71-.64-1.27-1.17a5,5,0,0,1,1.2-1.14,4.8,4.8,0,0,1,1.44-.59,9.57,9.57,0,0,1,1.88-.17,8.15,8.15,0,0,1,2.29.28,4.17,4.17,0,0,1,1.57.81,3.05,3.05,0,0,1,.94,1.32,4.74,4.74,0,0,1,.33,1.85ZM183.77,498v-1.37h-3.6c-1.9,0-2.85.74-2.85,2.23a1.93,1.93,0,0,0,.72,1.65,3.6,3.6,0,0,0,2.23.56,6.35,6.35,0,0,0,1.62-.18,2.44,2.44,0,0,0,1.22-.68A3,3,0,0,0,183.77,498Z"/><path class="c" d="M200.35,496.16a14,14,0,0,1-.33,3.17,4.44,4.44,0,0,1-1.22,2.26,3.82,3.82,0,0,1-1.34.81,5,5,0,0,1-1.78.31,5.55,5.55,0,0,1-1.34-.15,3.68,3.68,0,0,1-1.2-.51,4.24,4.24,0,0,1-1.06-1v7.24H190.2V489.76h1.88v1.52a4,4,0,0,1,1.6-1.32,5.14,5.14,0,0,1,2-.35,5.24,5.24,0,0,1,1.78.3,3.11,3.11,0,0,1,1.34.81A4.48,4.48,0,0,1,200,493,14.12,14.12,0,0,1,200.35,496.16Zm-1.85,0a8.42,8.42,0,0,0-.63-3.58,3.17,3.17,0,0,0-5.13,0,9.9,9.9,0,0,0,0,7.11A2.58,2.58,0,0,0,195.3,501a2.62,2.62,0,0,0,2.57-1.29A8.45,8.45,0,0,0,198.5,496.16Z"/><path class="c" d="M214.52,496.16a14,14,0,0,1-.33,3.17,4.51,4.51,0,0,1-1.22,2.26,3.82,3.82,0,0,1-1.34.81,5,5,0,0,1-1.78.31,5.69,5.69,0,0,1-1.35-.15,3.72,3.72,0,0,1-1.19-.51,4.45,4.45,0,0,1-1.07-1v7.24h-1.87V489.76h1.87v1.52a4,4,0,0,1,1.6-1.32,5.69,5.69,0,0,1,3.79,0,3.11,3.11,0,0,1,1.34.81,4.56,4.56,0,0,1,1.22,2.26A14.12,14.12,0,0,1,214.52,496.16Zm-1.85,0a8.25,8.25,0,0,0-.64-3.58,2.59,2.59,0,0,0-2.56-1.3,2.63,2.63,0,0,0-2.57,1.32,9.9,9.9,0,0,0,0,7.11,3.17,3.17,0,0,0,5.13,0A8.28,8.28,0,0,0,212.67,496.16Z"/><path class="c" d="M227.67,502.56h-1.88v-1.22a4,4,0,0,1-1.59,1.06,6,6,0,0,1-2.11.31,7,7,0,0,1-2.16-.28,3.42,3.42,0,0,1-1.45-.89,3.54,3.54,0,0,1-1-2.62,3.38,3.38,0,0,1,1.14-2.69,5,5,0,0,1,3.3-1h3.83V494a2.79,2.79,0,0,0-.76-2.13,3.75,3.75,0,0,0-2.51-.68,4.65,4.65,0,0,0-1.93.33,3.44,3.44,0,0,0-1.3,1.14c-.28-.26-.71-.64-1.26-1.17a4.28,4.28,0,0,1,2.64-1.73,9.39,9.39,0,0,1,1.87-.17,8.15,8.15,0,0,1,2.29.28,4.1,4.1,0,0,1,1.57.81,3.05,3.05,0,0,1,.94,1.32,4.74,4.74,0,0,1,.33,1.85ZM225.79,498v-1.37h-3.6c-1.9,0-2.84.74-2.84,2.23a1.92,1.92,0,0,0,.71,1.65,3.62,3.62,0,0,0,2.23.56,6.49,6.49,0,0,0,1.63-.18,2.45,2.45,0,0,0,1.21-.68A3,3,0,0,0,225.79,498Z"/><path class="c" d="M240.75,490.8c-.22.24-.68.7-1.37,1.4a3.44,3.44,0,0,0-1-.71,3,3,0,0,0-1.19-.21,3.17,3.17,0,0,0-1.63.43,3.39,3.39,0,0,0-1.09,1.22,4.42,4.42,0,0,0-.35,1.78v7.85h-1.88v-12.8h1.88v1.55a3.58,3.58,0,0,1,1.5-1.25,5,5,0,0,1,2.08-.45A4.19,4.19,0,0,1,240.75,490.8Z"/><path class="c" d="M252.3,502.56h-1.88v-1.22a3.93,3.93,0,0,1-1.6,1.06,5.89,5.89,0,0,1-2.1.31,7,7,0,0,1-2.16-.28,3.42,3.42,0,0,1-1.45-.89,3.54,3.54,0,0,1-1-2.62,3.38,3.38,0,0,1,1.14-2.69,5,5,0,0,1,3.3-1h3.83V494a2.79,2.79,0,0,0-.76-2.13,3.75,3.75,0,0,0-2.51-.68,4.65,4.65,0,0,0-1.93.33,3.44,3.44,0,0,0-1.3,1.14c-.28-.26-.71-.64-1.27-1.17a5,5,0,0,1,1.2-1.14,4.8,4.8,0,0,1,1.44-.59,9.57,9.57,0,0,1,1.88-.17,8.15,8.15,0,0,1,2.29.28,4.17,4.17,0,0,1,1.57.81A3.05,3.05,0,0,1,252,492a4.74,4.74,0,0,1,.33,1.85ZM250.42,498v-1.37h-3.6c-1.9,0-2.85.74-2.85,2.23a1.93,1.93,0,0,0,.72,1.65,3.6,3.6,0,0,0,2.23.56,6.35,6.35,0,0,0,1.62-.18,2.44,2.44,0,0,0,1.22-.68A3,3,0,0,0,250.42,498Z"/><path class="c" d="M261.75,502.56h-1.32a3.07,3.07,0,0,1-2.41-1,3.52,3.52,0,0,1-.87-2.46v-7.85h-1.6v-1.42h1.6v-4H259v4h2.72v1.42H259v7.8c0,1.23.59,1.85,1.75,1.85h1Z"/><path class="c" d="M275.43,502.56h-1.85v-1.43a4.69,4.69,0,0,1-1.6,1.17,5.08,5.08,0,0,1-2,.41,4.43,4.43,0,0,1-3.3-1.2,4.07,4.07,0,0,1-1-1.54,6.06,6.06,0,0,1-.33-2.06v-8.15h1.88v7.9a3.54,3.54,0,0,0,.81,2.51,3.1,3.1,0,0,0,2.32.86,3.16,3.16,0,0,0,2.33-.86,3.51,3.51,0,0,0,.84-2.51v-7.9h1.9Z"/><path class="c" d="M289.35,498.8a3.46,3.46,0,0,1-.66,2.11,4.32,4.32,0,0,1-1.81,1.34,7.49,7.49,0,0,1-2.74.46,9.34,9.34,0,0,1-2.94-.43,5.94,5.94,0,0,1-2.31-1.43l1.24-1.24a5.18,5.18,0,0,0,4,1.5,4.54,4.54,0,0,0,2.49-.59,1.9,1.9,0,0,0,.91-1.7,1.63,1.63,0,0,0-.51-1.29,2.76,2.76,0,0,0-1.62-.56l-2.11-.2q-3.81-.31-3.81-3.43a3.23,3.23,0,0,1,1.3-2.72,5.45,5.45,0,0,1,3.4-1,9,9,0,0,1,2.59.35,5.33,5.33,0,0,1,2,1l-1.22,1.22a5.45,5.45,0,0,0-3.4-1,3.49,3.49,0,0,0-2.13.56,1.86,1.86,0,0,0-.74,1.57c0,1.12.76,1.74,2.26,1.86l2,.17a5.24,5.24,0,0,1,2.8,1A3,3,0,0,1,289.35,498.8Z"/><path class="c" d="M295.67,501.13a1.49,1.49,0,0,1-.43,1.07,1.33,1.33,0,0,1-1,.43,1.48,1.48,0,0,1-1.06-.43,1.5,1.5,0,0,1-.44-1.07,1.33,1.33,0,0,1,.44-1,1.48,1.48,0,0,1,1.06-.43,1.27,1.27,0,0,1,.71.2,1.71,1.71,0,0,1,.54.53A1.39,1.39,0,0,1,295.67,501.13Z"/><path class="c" d="M129.52,559.36q-.83,2.58-3.24,10.34h-1.42c-.45-1.34-1.35-4-2.71-8l-2.68,8h-1.42q-.81-2.6-3.26-10.34h1.62l2.38,8.28,2.71-8.28h1.31q.68,2.07,2.73,8.28.57-2.07,2.34-8.28Z"/><path class="c" d="M144.71,559.36l-3.24,10.34h-1.41l-2.71-8q-.67,2-2.69,8h-1.41q-.83-2.6-3.26-10.34h1.62l2.38,8.28,2.7-8.28H138q.68,2.07,2.72,8.28l2.34-8.28Z"/><path class="c" d="M159.91,559.36q-.82,2.58-3.24,10.34h-1.42c-.45-1.34-1.35-4-2.7-8q-.68,2-2.69,8h-1.41q-.82-2.6-3.27-10.34h1.62l2.38,8.28,2.71-8.28h1.31q.68,2.07,2.73,8.28.57-2.07,2.34-8.28Z"/><path class="c" d="M164.17,568.55a1.22,1.22,0,0,1-.34.86,1.1,1.1,0,0,1-.82.35,1.25,1.25,0,0,1-.87-.35,1.22,1.22,0,0,1-.34-.86,1.08,1.08,0,0,1,.34-.82,1.21,1.21,0,0,1,.87-.35,1.07,1.07,0,0,1,.57.16,1.26,1.26,0,0,1,.43.43A1.08,1.08,0,0,1,164.17,568.55Z"/><path class="c" d="M175.37,570a5,5,0,0,1-.29,1.77,4,4,0,0,1-.86,1.39,3.5,3.5,0,0,1-1.37.94,4.74,4.74,0,0,1-1.78.33,5.73,5.73,0,0,1-1-.08,4.43,4.43,0,0,1-.9-.25,2.91,2.91,0,0,1-.8-.45,9.35,9.35,0,0,1-.78-.61l1-1a7.54,7.54,0,0,0,.74.6,2.58,2.58,0,0,0,.76.33,3.7,3.7,0,0,0,1,.12,2.59,2.59,0,0,0,2.14-.88,3.64,3.64,0,0,0,.69-2.3v-1.62a3.32,3.32,0,0,1-.86.82,2.68,2.68,0,0,1-1,.41,4.38,4.38,0,0,1-1.07.12,4.09,4.09,0,0,1-1.41-.24,3.07,3.07,0,0,1-1.09-.68,3.87,3.87,0,0,1-.78-1.17,5.7,5.7,0,0,1-.37-1.45,11.45,11.45,0,0,1-.12-1.68,10,10,0,0,1,.29-2.51,3.69,3.69,0,0,1,1-1.8,3.41,3.41,0,0,1,2.52-.9,4.16,4.16,0,0,1,1.62.28,3.29,3.29,0,0,1,1.28,1.07v-1.23h1.49Zm-1.52-5.57a6.51,6.51,0,0,0-.51-2.83,2.05,2.05,0,0,0-2.05-1,2.31,2.31,0,0,0-1.62.51,2.81,2.81,0,0,0-.76,1.4,10.6,10.6,0,0,0,0,3.89,2.81,2.81,0,0,0,.76,1.4,2.31,2.31,0,0,0,1.62.51,2.06,2.06,0,0,0,2.05-1A6.57,6.57,0,0,0,173.85,564.45Z"/><path class="c" d="M187.06,564.94h-7a3.89,3.89,0,0,0,.8,2.62,2.8,2.8,0,0,0,2.25.93,3.59,3.59,0,0,0,1.46-.27,3.87,3.87,0,0,0,1.25-.9l1,.9a6,6,0,0,1-1.68,1.23,5.17,5.17,0,0,1-2.12.37,5,5,0,0,1-2.38-.56,3.73,3.73,0,0,1-1.55-1.76,6.69,6.69,0,0,1-.58-3,7.17,7.17,0,0,1,.31-2.22,4.64,4.64,0,0,1,.84-1.66,3.8,3.8,0,0,1,1.35-1.07,4.33,4.33,0,0,1,1.77-.34,4,4,0,0,1,2.25.61,3.7,3.7,0,0,1,1.46,1.74,6.43,6.43,0,0,1,.51,2.65Zm-1.52-1.15a5.17,5.17,0,0,0-.3-1.72,2.48,2.48,0,0,0-1-1.13,2.55,2.55,0,0,0-1.45-.43,2.62,2.62,0,0,0-1.48.43,2.36,2.36,0,0,0-1,1.13,5.52,5.52,0,0,0-.31,1.72Z"/><path class="c" d="M194.24,569.7h-1.07a2.49,2.49,0,0,1-1.95-.78,2.9,2.9,0,0,1-.69-2v-6.34h-1.29v-1.15h1.29v-3.26H192v3.26h2.2v1.15H192v6.3c0,1,.48,1.49,1.42,1.49h.78Z"/><path class="c" d="M212,569.7h-1.5v-6.38a2.79,2.79,0,0,0-.67-2,2.47,2.47,0,0,0-1.87-.7,3,3,0,0,0-1.35.29,2.2,2.2,0,0,0-.93.88,2.75,2.75,0,0,0-.32,1.39v6.55h-1.5v-6.38a3.27,3.27,0,0,0-.21-1.21,2.16,2.16,0,0,0-.49-.86,1.85,1.85,0,0,0-.78-.5,3.07,3.07,0,0,0-1.06-.16,2.49,2.49,0,0,0-1.89.7,2.77,2.77,0,0,0-.7,2v6.38h-1.52V559.36h1.52v1.15a3.64,3.64,0,0,1,2.91-1.27,3.88,3.88,0,0,1,1.89.43,3,3,0,0,1,1.29,1.29,3.91,3.91,0,0,1,3.39-1.72,3.76,3.76,0,0,1,2.68,1,3.83,3.83,0,0,1,1.11,2.87Z"/><path class="c" d="M223.61,564.53a10.86,10.86,0,0,1-.11,1.6,4.16,4.16,0,0,1-.39,1.35,3.61,3.61,0,0,1-.75,1.17,4.11,4.11,0,0,1-6.71-1.15,5.38,5.38,0,0,1-.37-1.35,9.91,9.91,0,0,1-.12-1.62,9.5,9.5,0,0,1,.26-2.36,4.12,4.12,0,0,1,1-1.74,4.29,4.29,0,0,1,5.93,0,3.79,3.79,0,0,1,1,1.72A9.23,9.23,0,0,1,223.61,564.53Zm-1.5,0a10.25,10.25,0,0,0-.16-1.91,2.57,2.57,0,0,0-.66-1.29,2.77,2.77,0,0,0-3.77,0,2.57,2.57,0,0,0-.68,1.33,12.63,12.63,0,0,0,0,3.75,2.62,2.62,0,0,0,.68,1.32,2.8,2.8,0,0,0,3.77,0,2.64,2.64,0,0,0,.66-1.3A9.9,9.9,0,0,0,222.11,564.53Z"/><path class="c" d="M235,569.7h-1.5v-6.38a3.76,3.76,0,0,0-.18-1.21,2.46,2.46,0,0,0-.52-.86,1.84,1.84,0,0,0-.76-.5,3.23,3.23,0,0,0-1.08-.16,2.46,2.46,0,0,0-1.87.7,2.81,2.81,0,0,0-.7,2v6.38h-1.51V559.36h1.51v1.15a3.49,3.49,0,0,1,1.28-1,4.25,4.25,0,0,1,1.62-.3,3.57,3.57,0,0,1,2.64,1,3.84,3.84,0,0,1,1.07,2.87Z"/><path class="c" d="M246.58,564.94h-7a3.89,3.89,0,0,0,.8,2.62,2.83,2.83,0,0,0,2.26.93,3.57,3.57,0,0,0,1.45-.27,4,4,0,0,0,1.26-.9l1,.9a6,6,0,0,1-1.68,1.23,5.12,5.12,0,0,1-2.11.37,4.9,4.9,0,0,1-2.38-.56,3.8,3.8,0,0,1-1.56-1.76,6.83,6.83,0,0,1-.58-3,7.49,7.49,0,0,1,.31-2.22,4.64,4.64,0,0,1,.84-1.66,3.75,3.75,0,0,1,1.36-1.07,4.28,4.28,0,0,1,1.76-.34,4,4,0,0,1,2.26.61,3.73,3.73,0,0,1,1.45,1.74,6.42,6.42,0,0,1,.52,2.65Zm-1.52-1.15a5.14,5.14,0,0,0-.31-1.72,2.46,2.46,0,0,0-.94-1.13,2.73,2.73,0,0,0-2.94,0,2.47,2.47,0,0,0-1,1.13,5.83,5.83,0,0,0-.31,1.72Z"/><path class="c" d="M256.69,560.2c-.18.19-.55.57-1.11,1.13a2.77,2.77,0,0,0-.82-.58,2.78,2.78,0,0,0-2.28.19,2.61,2.61,0,0,0-.88,1,3.53,3.53,0,0,0-.29,1.44v6.34h-1.52V559.36h1.52v1.25a2.93,2.93,0,0,1,1.21-1,4,4,0,0,1,1.68-.37A3.43,3.43,0,0,1,256.69,560.2Z"/><path class="c" d="M266.53,564.53a11,11,0,0,1-.1,1.6,4.73,4.73,0,0,1-.39,1.35,3.63,3.63,0,0,1-.76,1.17,4,4,0,0,1-2.95,1.17,4.08,4.08,0,0,1-3-1.17,4,4,0,0,1-.78-1.15,5.38,5.38,0,0,1-.37-1.35,9.91,9.91,0,0,1-.12-1.62,9,9,0,0,1,.27-2.36,4,4,0,0,1,4-2.93,4,4,0,0,1,2.95,1.19,3.7,3.7,0,0,1,1,1.72A9.23,9.23,0,0,1,266.53,564.53Zm-1.5,0a9.46,9.46,0,0,0-.16-1.91,2.46,2.46,0,0,0-2.54-2,2.49,2.49,0,0,0-2.57,2.07,12.63,12.63,0,0,0,0,3.75,2.7,2.7,0,0,0,.68,1.32,2.59,2.59,0,0,0,1.89.73,2.55,2.55,0,0,0,1.88-.73,2.64,2.64,0,0,0,.66-1.3A9.16,9.16,0,0,0,265,564.53Z"/><path class="c" d="M271.92,568.55a1.19,1.19,0,0,1-.35.86,1.07,1.07,0,0,1-.82.35,1.24,1.24,0,0,1-.86-.35,1.23,1.23,0,0,1-.35-.86,1.09,1.09,0,0,1,.35-.82,1.2,1.2,0,0,1,.86-.35,1.08,1.08,0,0,1,.58.16,1.26,1.26,0,0,1,.43.43A1.08,1.08,0,0,1,271.92,568.55Z"/><path class="c" d="M283.39,564.53a10.86,10.86,0,0,1-.11,1.6,4.16,4.16,0,0,1-.39,1.35,3.61,3.61,0,0,1-.75,1.17,4.11,4.11,0,0,1-6.71-1.15,5.38,5.38,0,0,1-.37-1.35,9.91,9.91,0,0,1-.12-1.62,9.5,9.5,0,0,1,.26-2.36,4.12,4.12,0,0,1,1-1.74,4.29,4.29,0,0,1,5.93,0,3.79,3.79,0,0,1,1,1.72A9.23,9.23,0,0,1,283.39,564.53Zm-1.5,0a10.25,10.25,0,0,0-.16-1.91,2.57,2.57,0,0,0-.66-1.29,2.77,2.77,0,0,0-3.77,0,2.57,2.57,0,0,0-.68,1.33,12.63,12.63,0,0,0,0,3.75,2.62,2.62,0,0,0,.68,1.32,2.8,2.8,0,0,0,3.77,0,2.64,2.64,0,0,0,.66-1.3A9.9,9.9,0,0,0,281.89,564.53Z"/><path class="c" d="M293.52,560.2c-.18.19-.55.57-1.11,1.13a2.77,2.77,0,0,0-.82-.58,2.47,2.47,0,0,0-1-.16,2.53,2.53,0,0,0-1.32.35,2.61,2.61,0,0,0-.88,1,3.53,3.53,0,0,0-.29,1.44v6.34h-1.51V559.36h1.51v1.25a2.93,2.93,0,0,1,1.21-1,4,4,0,0,1,1.69-.37A3.43,3.43,0,0,1,293.52,560.2Z"/><path class="c" d="M303.09,570a5.26,5.26,0,0,1-.28,1.77,4.1,4.1,0,0,1-.86,1.39,3.53,3.53,0,0,1-1.38.94,4.7,4.7,0,0,1-1.78.33,5.73,5.73,0,0,1-1-.08,4.62,4.62,0,0,1-.9-.25,3.06,3.06,0,0,1-.8-.45,9.35,9.35,0,0,1-.78-.61l1-1a7.55,7.55,0,0,0,.73.6,2.7,2.7,0,0,0,.76.33,3.73,3.73,0,0,0,1,.12,2.58,2.58,0,0,0,2.13-.88,3.64,3.64,0,0,0,.7-2.3v-1.62a3.49,3.49,0,0,1-.86.82,2.8,2.8,0,0,1-1,.41,4.29,4.29,0,0,1-1.06.12,4.11,4.11,0,0,1-1.42-.24,3.07,3.07,0,0,1-1.09-.68,4.27,4.27,0,0,1-.78-1.17,5.7,5.7,0,0,1-.36-1.45,10.21,10.21,0,0,1-.13-1.68,10,10,0,0,1,.29-2.51,3.86,3.86,0,0,1,1-1.8,3.45,3.45,0,0,1,2.53-.9,4.19,4.19,0,0,1,1.62.28,3.26,3.26,0,0,1,1.27,1.07v-1.23h1.49Zm-1.51-5.57a6.35,6.35,0,0,0-.52-2.83,2.05,2.05,0,0,0-2.05-1,2.31,2.31,0,0,0-1.62.51,2.81,2.81,0,0,0-.76,1.4,10.6,10.6,0,0,0,0,3.89,2.81,2.81,0,0,0,.76,1.4,2.31,2.31,0,0,0,1.62.51,2.06,2.06,0,0,0,2.05-1A6.41,6.41,0,0,0,301.58,564.45Z"/><line class="d" x1="317.41" y1="563.98" x2="384.47" y2="563.98"/><line class="d" x1="33.93" y1="563.98" x2="100.99" y2="563.98"/><path class="b" d="M348.74,326.8A14.45,14.45,0,0,1,338,331.37a15.28,15.28,0,0,1-9.92-3.53,15,15,0,0,1-5.56-12.27,15.68,15.68,0,0,1,4.42-11.47,15.27,15.27,0,0,1,21.8.11,16.49,16.49,0,0,1,0,22.59M355,298.05a23.22,23.22,0,0,0-17.06-7.18,24.46,24.46,0,0,0-21.13,12.21,25,25,0,0,0,3.72,29.62,24.4,24.4,0,0,0,34.57.2,23.63,23.63,0,0,0,7-17.33A24,24,0,0,0,355,298.05M296.52,308.9c-1.13.79-1.66,1.17-4.64,1.17H280.13V300h11.38a7.82,7.82,0,0,1,3.62.52,4.57,4.57,0,0,1,2.23,1.7,4.68,4.68,0,0,1,.84,2.79,4.36,4.36,0,0,1-1.68,3.86m1.41,9.25a14.24,14.24,0,0,0,7-4.92,13.6,13.6,0,0,0,2.31-8.1,14.67,14.67,0,0,0-2.1-8,11.86,11.86,0,0,0-5.55-4.82q-3.45-1.45-11.6-1.46h-17.2V340h9.34V319.18h8.15L299.34,340h10.21l-11.62-21.82Zm-69-27.28h31.83V300H238.21v10h22.54v9H238.21v11.73h22.54V340H228.92Zm-49.31,0h8.94l21.06,32.3v-32.3H219V340h-9l-21-32.2V340h-9.34Zm-20.7,35.93a14.47,14.47,0,0,1-10.78,4.57,15.28,15.28,0,0,1-9.92-3.53,15,15,0,0,1-5.56-12.27,15.69,15.69,0,0,1,4.43-11.47,15.27,15.27,0,0,1,21.8.11,16.49,16.49,0,0,1,0,22.59m6.22-28.75a23.23,23.23,0,0,0-17.06-7.18,24.46,24.46,0,0,0-21.14,12.21,25,25,0,0,0,3.72,29.62,24.4,24.4,0,0,0,34.57.2,23.64,23.64,0,0,0,7.05-17.33,24,24,0,0,0-7.14-17.52m-94.21-7.18h9.15l11.34,34.24,11.52-34.24h9L120.21,340h-9l-5.27-31L95.48,340H87.24l-10.3-31-5.38,31H62.45Z"/><path class="c" d="M73.25,53.46v4.15A59.47,59.47,0,0,1,73,63.94a19,19,0,0,1-1.48,5.2A16.82,16.82,0,0,1,67.91,74q-5,5.07-13.79,5.07h-19V27.8h19q8.79,0,13.79,5.06a17,17,0,0,1,3.58,4.85A19,19,0,0,1,73,42.92a59.4,59.4,0,0,1,.28,6.32Zm-12.59,0a75.59,75.59,0,0,0-.28-8.37,7.37,7.37,0,0,0-1.05-3.16c-1.27-1.92-3.28-2.88-6-2.88H47.73V67.81h5.55c2.77,0,4.78-.94,6-2.82a5.39,5.39,0,0,0,.84-1.82,21.67,21.67,0,0,0,.35-3.1C60.62,58.62,60.66,56.42,60.66,53.46Z"/><path class="c" d="M119.38,53.46v1.69q0,4.29-.29,7.38a23.48,23.48,0,0,1-1.47,6,15.49,15.49,0,0,1-3.38,5.2A20.51,20.51,0,0,1,107.91,78a20.05,20.05,0,0,1-8,1.48,23.16,23.16,0,0,1-5.7-.64,16.78,16.78,0,0,1-4.64-2,18.19,18.19,0,0,1-4-3.17,15.09,15.09,0,0,1-4.28-7.66,53.61,53.61,0,0,1-.92-10.9V51.7a53.57,53.57,0,0,1,.92-10.89,15.11,15.11,0,0,1,4.28-7.67,18.89,18.89,0,0,1,6.33-4.36,20.92,20.92,0,0,1,8-1.4,21.19,21.19,0,0,1,8,1.4,18.7,18.7,0,0,1,6.33,4.36,15.59,15.59,0,0,1,3.38,5.2,21.62,21.62,0,0,1,1.4,6,65.06,65.06,0,0,1,.36,7.38Zm-12.59,0a61.72,61.72,0,0,0-.42-8.93A10.33,10.33,0,0,0,105,40.81a7.1,7.1,0,0,0-5.06-2.25,6.44,6.44,0,0,0-5.06,2.25,7.33,7.33,0,0,0-1.06,2,21.35,21.35,0,0,0-.63,3.59c-.14,1.64-.21,4-.21,7s.07,5.3.21,6.89a21.15,21.15,0,0,0,.63,3.59,6.33,6.33,0,0,0,1.06,2A5.89,5.89,0,0,0,99.9,68.3,6,6,0,0,0,105,65.91a10.28,10.28,0,0,0,1.41-3.66A59.31,59.31,0,0,0,106.79,53.46Z"/><path class="c" d="M168.17,79.06h-11q-4.14-6.48-16.45-25.81V79.06H128.09V27.8H139.2q4.08,6.47,16.39,25.73V27.8h12.58Z"/><path class="c" d="M189.34,38.34q-3,2.19-11.82,8.58V27.8h11.82Z"/><path class="c" d="M233.28,39.05H220.7v40H208.11v-40H195.52V27.8h37.76Z"/><path class="c" d="M295,63.94a16.19,16.19,0,0,1-1.2,6.4,14.75,14.75,0,0,1-3.37,4.78,13.52,13.52,0,0,1-5.14,2.95,19.8,19.8,0,0,1-6.33,1H256.62V27.8h21.31a19.63,19.63,0,0,1,8.86,1.83,12.61,12.61,0,0,1,5.55,5.27,15.2,15.2,0,0,1,1.9,7.73,10.4,10.4,0,0,1-1.83,6.26,14.13,14.13,0,0,1-3.79,3.87,17.55,17.55,0,0,1,4.5,4C294.38,58.41,295,60.8,295,63.94ZM281.66,43.27a3.94,3.94,0,0,0-4.57-4.15h-7.81v8.37h7.81a4.39,4.39,0,0,0,3.44-1.27A4.15,4.15,0,0,0,281.66,43.27Zm.77,20a4.61,4.61,0,0,0-1.13-3.17,4.34,4.34,0,0,0-3.51-1.33h-8.51v9h8.51a4.34,4.34,0,0,0,3.51-1.34A4.75,4.75,0,0,0,282.43,63.24Z"/><path class="c" d="M341.7,61.06a18,18,0,0,1-1.54,7.45,16.59,16.59,0,0,1-4.22,6,19.52,19.52,0,0,1-6.26,3.72,22.28,22.28,0,0,1-7.52,1.27,21.42,21.42,0,0,1-9.71-2.25,17.71,17.71,0,0,1-7.1-6.54,18,18,0,0,1-2.6-9.63V27.8h12.59v33a7.74,7.74,0,0,0,1.82,5.49,6.38,6.38,0,0,0,5,2,7.28,7.28,0,0,0,3.65-.92,6,6,0,0,0,2.39-2.6,8.76,8.76,0,0,0,.85-4v-33H341.7Z"/><path class="c" d="M389.59,27.8,374.12,58.17V79.06H361.46V58.17L346,27.8h13.78q2,4.64,8.09,18.42,2-4.63,7.94-18.42Z"/></svg>