<?xml version="1.0" encoding="utf-8"?>
<!-- Generator: Adobe Illustrator 22.0.1, SVG Export Plug-In . SVG Version: 6.00 Build 0)  -->
<svg version="1.1" id="Layer_1" xmlns="http://www.w3.org/2000/svg" xmlns:xlink="http://www.w3.org/1999/xlink" x="0px" y="0px"
	 viewBox="0 0 419.5 595.3" style="enable-background:new 0 0 419.5 595.3;" xml:space="preserve">
<style type="text/css">
	.st0{fill:#EC681C;}
	.st1{fill:#4D4D4D;}
	.st2{fill:none;}
	.st3{font-family:'DINAlternate-Black';}
	.st4{font-size:26px;}
	.st5{font-family:'DINAlternate-Regular';}
	.st6{font-size:21px;}
	.st7{fill:none;stroke:#EC681C;stroke-width:6;stroke-miterlimit:10;}
	.st8{font-size:72px;}
</style>
<g>
	<path id="path22" class="st0" d="M209.8,117.6c-41.3,0-74.8,33.5-74.8,74.8c0,8.3,1.3,16.2,3.8,23.6h22.4v-63l48.6,48.6l48.6-48.6
		v63h22.4c2.5-7.4,3.8-15.4,3.8-23.6C284.6,151.1,251.1,117.6,209.8,117.6"/>
	<path id="path26" class="st1" d="M177.3,191.7v39.6h-31.5c13.1,21.6,36.9,35.9,63.9,35.9s50.8-14.4,63.9-35.9h-31.5v-39.6
		l-32.4,32.4L177.3,191.7z"/>
</g>
<g>
	<path class="st0" d="M379.6,368.6v157.3H39.9V368.6H379.6 M385.6,362.6H33.9v169.3h351.7V362.6L385.6,362.6z"/>
</g>
<rect x="62.6" y="390.4" class="st2" width="321.9" height="143.3"/>
<text transform="matrix(1 0 0 1 62.584 408.9561)"><tspan x="0" y="0" class="st3 st4">Cryptocurrencies</tspan><tspan x="207.7" y="0" class="st5 st4"> are </tspan><tspan x="0" y="31.2" class="st5 st4">harmful to the banking </tspan><tspan x="0" y="62.4" class="st5 st4">system and </tspan><tspan x="138.1" y="62.4" class="st3 st4">may weaken </tspan><tspan x="0" y="93.6" class="st3 st4">the state</tspan><tspan x="105.1" y="93.6" class="st5 st4"> apparatus.</tspan></text>
<text transform="matrix(1 0 0 1 114.5458 569.6952)" class="st5 st6">www.getmonero.org</text>
<g>
	<line class="st7" x1="317.4" y1="564" x2="384.5" y2="564"/>
</g>
<g>
	<line class="st7" x1="33.9" y1="564" x2="101" y2="564"/>
</g>
<path class="st1" d="M348.7,326.8c-3,3-6.6,4.6-10.8,4.6c-3.7,0-7-1.2-9.9-3.5c-3.7-3-5.6-7.1-5.6-12.3c0-4.6,1.5-8.5,4.4-11.5
	c2.9-3,6.6-4.5,10.9-4.5c4.3,0,7.9,1.5,10.9,4.6c3,3.1,4.5,6.8,4.5,11.3C353.2,320,351.7,323.7,348.7,326.8 M355,298.1
	c-4.8-4.8-10.4-7.2-17.1-7.2c-4.4,0-8.4,1.1-12.2,3.3c-3.8,2.2-6.8,5.2-8.9,8.9c-2.2,3.8-3.2,7.9-3.2,12.3c0,6.7,2.3,12.4,7,17.3
	c4.6,4.9,10.5,7.3,17.5,7.3c6.7,0,12.4-2.4,17.1-7.1c4.7-4.7,7-10.5,7-17.3C362.1,308.7,359.7,302.8,355,298.1 M296.5,308.9
	c-1.1,0.8-1.7,1.2-4.6,1.2h-11.7v-10h11.4c2.3,0,2.7,0.2,3.6,0.5c0.9,0.3,1.7,0.9,2.2,1.7c0.6,0.8,0.8,1.7,0.8,2.8
	C298.2,306.8,297.6,308.1,296.5,308.9 M297.9,318.1c3.1-1.1,5.4-2.8,7-4.9c1.5-2.2,2.3-4.9,2.3-8.1c0-3.1-0.7-5.7-2.1-8
	c-1.4-2.2-3.3-3.8-5.6-4.8c-2.3-1-6.2-1.5-11.6-1.5h-17.2V340h9.3v-20.8h8.2l11.1,20.8h10.2L297.9,318.1L297.9,318.1z M228.9,290.9
	h31.8v9.1h-22.5v10h22.5v9h-22.5v11.7h22.5v9.2h-31.8V290.9z M179.6,290.9h8.9l21.1,32.3v-32.3h9.3V340h-9l-21-32.2V340h-9.3V290.9z
	 M158.9,326.8c-3,3-6.6,4.6-10.8,4.6c-3.7,0-7-1.2-9.9-3.5c-3.7-3-5.6-7.1-5.6-12.3c0-4.6,1.5-8.5,4.4-11.5c2.9-3,6.6-4.5,10.9-4.5
	c4.3,0,7.9,1.5,10.9,4.6c3,3.1,4.5,6.8,4.5,11.3C163.4,320,161.9,323.7,158.9,326.8 M165.1,298.1c-4.8-4.8-10.4-7.2-17.1-7.2
	c-4.4,0-8.4,1.1-12.2,3.3c-3.8,2.2-6.8,5.2-8.9,8.9c-2.2,3.8-3.2,7.9-3.2,12.3c0,6.7,2.3,12.4,7,17.3c4.6,4.9,10.5,7.3,17.5,7.3
	c6.7,0,12.4-2.4,17.1-7.1c4.7-4.7,7-10.5,7-17.3C172.3,308.7,169.9,302.8,165.1,298.1 M70.9,290.9h9.1l11.3,34.2l11.5-34.2h9
	l8.3,49.1h-9l-5.3-31l-10.4,31h-8.2l-10.3-31l-5.4,31h-9.1L70.9,290.9z"/>
<text transform="matrix(1 0 0 1 29.9373 79.0557)" class="st3 st8">DON’T BUY</text>
</svg>
