<svg xmlns="http://www.w3.org/2000/svg" viewBox="0 0 419.53 595.28"><defs><style>.a{fill:#ec681c;}.b{fill:#4d4d4d;}.c{fill:#1d1d1b;}.d{fill:none;stroke:#ec681c;stroke-miterlimit:10;stroke-width:6px;}</style></defs><title>dontbuymonero</title><path class="a" d="M209.76,117.58a74.9,74.9,0,0,0-71,98.48h22.38v-63l48.64,48.65,48.65-48.65v63h22.38a74.9,74.9,0,0,0-71-98.48"/><path class="b" d="M177.35,191.69v39.62H145.81a74.85,74.85,0,0,0,127.9,0H242.18V191.69l-32.42,32.42Z"/><path class="a" d="M379.6,368.59V525.9H39.93V368.59H379.6m6-6H33.93V531.9H385.6V362.59Z"/><path class="c" d="M119.85,569.7l-2.06-6.6c-.13-.4-.37-1.32-.73-2.75H117c-.27,1.2-.51,2.12-.72,2.77l-2.12,6.58h-2l-3.06-11.24h1.78q1.1,4.23,1.66,6.45a27,27,0,0,1,.65,3h.08c.07-.39.2-.89.36-1.51s.32-1.11.44-1.47l2.06-6.45H118l2,6.45a22.45,22.45,0,0,1,.78,3h.08a8.91,8.91,0,0,1,.22-1.14q.18-.76,2.14-8.27H125l-3.11,11.24Z"/><path class="c" d="M136.19,569.7l-2.06-6.6c-.13-.4-.38-1.32-.73-2.75h-.08c-.28,1.2-.52,2.12-.72,2.77l-2.12,6.58h-2l-3.07-11.24h1.79l1.65,6.45a24.72,24.72,0,0,1,.65,3h.08c.08-.39.2-.89.37-1.51s.31-1.11.43-1.47l2.07-6.45h1.84l2,6.45a22.45,22.45,0,0,1,.78,3h.08a11.14,11.14,0,0,1,.22-1.14q.18-.76,2.14-8.27h1.76l-3.1,11.24Z"/><path class="c" d="M152.52,569.7l-2.06-6.6c-.13-.4-.37-1.32-.73-2.75h-.08c-.27,1.2-.51,2.12-.72,2.77l-2.12,6.58h-2l-3.06-11.24h1.78c.72,2.82,1.28,5,1.66,6.45a27,27,0,0,1,.65,3H146c.07-.39.2-.89.36-1.51s.32-1.11.44-1.47l2.06-6.45h1.85l2,6.45a20.76,20.76,0,0,1,.77,3h.09a8.91,8.91,0,0,1,.22-1.14q.18-.76,2.13-8.27h1.77l-3.11,11.24Z"/><path class="c" d="M159.43,568.61a1.5,1.5,0,0,1,.32-1,1.1,1.1,0,0,1,.89-.36,1.2,1.2,0,0,1,.93.36,1.77,1.77,0,0,1,0,2.06,1.23,1.23,0,0,1-.93.36,1.2,1.2,0,0,1-.86-.32A1.41,1.41,0,0,1,159.43,568.61Z"/><path class="c" d="M174.46,558.46v1.07l-2.08.25a3.56,3.56,0,0,1,.74,2.25,3.29,3.29,0,0,1-1.13,2.63,4.51,4.51,0,0,1-3.09,1,4.81,4.81,0,0,1-1-.08,1.69,1.69,0,0,0-1.08,1.45.72.72,0,0,0,.38.68,2.7,2.7,0,0,0,1.3.22h2a4.47,4.47,0,0,1,2.8.77,2.68,2.68,0,0,1,1,2.24,3.18,3.18,0,0,1-1.5,2.84,8,8,0,0,1-4.36,1,5.93,5.93,0,0,1-3.4-.82,2.65,2.65,0,0,1-1.2-2.32,2.59,2.59,0,0,1,.66-1.77,3.36,3.36,0,0,1,1.84-1,1.87,1.87,0,0,1-.72-.6,1.63,1.63,0,0,1-.29-1,1.79,1.79,0,0,1,.33-1.07,3.32,3.32,0,0,1,1-.89,3.09,3.09,0,0,1-1.42-1.22,4,4,0,0,1,.56-4.82,4.52,4.52,0,0,1,3.14-1,5.57,5.57,0,0,1,1.59.21Zm-9,13.12a1.54,1.54,0,0,0,.77,1.39,4.3,4.3,0,0,0,2.21.47,6.22,6.22,0,0,0,3.17-.64,2,2,0,0,0,1-1.74,1.4,1.4,0,0,0-.56-1.27,4.51,4.51,0,0,0-2.13-.35h-2a2.67,2.67,0,0,0-1.8.55A2,2,0,0,0,165.5,571.58Zm.93-9.52a2.29,2.29,0,0,0,.66,1.78,2.7,2.7,0,0,0,1.86.61,2.17,2.17,0,0,0,2.49-2.42,2.24,2.24,0,0,0-2.52-2.54,2.51,2.51,0,0,0-1.85.65A2.6,2.6,0,0,0,166.43,562.06Z"/><path class="c" d="M181.52,569.9a5.17,5.17,0,0,1-3.93-1.52,5.86,5.86,0,0,1-1.44-4.21,6.54,6.54,0,0,1,1.33-4.32,4.48,4.48,0,0,1,3.6-1.6,4.22,4.22,0,0,1,3.34,1.39,5.34,5.34,0,0,1,1.23,3.67v1.07h-7.74a4.45,4.45,0,0,0,1,3,3.46,3.46,0,0,0,2.67,1,9,9,0,0,0,3.59-.76v1.52a8.72,8.72,0,0,1-1.71.56A9.7,9.7,0,0,1,181.52,569.9Zm-.46-10.22a2.78,2.78,0,0,0-2.16.88,4.07,4.07,0,0,0-1,2.44h5.88a3.75,3.75,0,0,0-.72-2.47A2.52,2.52,0,0,0,181.06,559.68Z"/><path class="c" d="M192.18,568.5a6.4,6.4,0,0,0,.88-.07,6,6,0,0,0,.66-.14v1.3a3,3,0,0,1-.81.22,6,6,0,0,1-1,.09c-2.18,0-3.26-1.14-3.26-3.44v-6.68h-1.61V559l1.61-.71.71-2.4h1v2.61h3.26v1.32h-3.26v6.61a2.28,2.28,0,0,0,.48,1.56A1.68,1.68,0,0,0,192.18,568.5Z"/><path class="c" d="M210.29,569.7v-7.32a3.05,3.05,0,0,0-.57-2,2.23,2.23,0,0,0-1.79-.67,2.85,2.85,0,0,0-2.34.91,4.33,4.33,0,0,0-.76,2.81v6.28h-1.71v-7.32a3.05,3.05,0,0,0-.57-2,2.22,2.22,0,0,0-1.79-.67,2.79,2.79,0,0,0-2.35,1,5.21,5.21,0,0,0-.74,3.14v5.9H196V558.46h1.38l.28,1.54h.08a3.32,3.32,0,0,1,1.36-1.29,4.23,4.23,0,0,1,2-.46c1.76,0,2.91.64,3.45,1.91h.08a3.65,3.65,0,0,1,1.46-1.4,4.52,4.52,0,0,1,2.17-.51,3.8,3.8,0,0,1,2.85,1,4.34,4.34,0,0,1,1,3.13v7.34Z"/><path class="c" d="M225.2,564.07a6.21,6.21,0,0,1-1.38,4.29A4.89,4.89,0,0,1,220,569.9a5,5,0,0,1-2.67-.71,4.65,4.65,0,0,1-1.81-2,7.1,7.1,0,0,1-.63-3.09,6.15,6.15,0,0,1,1.37-4.28,4.84,4.84,0,0,1,3.81-1.54,4.77,4.77,0,0,1,3.75,1.57A6.16,6.16,0,0,1,225.2,564.07Zm-8.56,0a5.37,5.37,0,0,0,.86,3.28,3.43,3.43,0,0,0,5.07,0,5.28,5.28,0,0,0,.87-3.28,5.21,5.21,0,0,0-.87-3.26A3.05,3.05,0,0,0,220,559.7a3,3,0,0,0-2.52,1.09A5.31,5.31,0,0,0,216.64,564.07Z"/><path class="c" d="M235.88,569.7v-7.27a2.91,2.91,0,0,0-.63-2,2.52,2.52,0,0,0-2-.68,3.24,3.24,0,0,0-2.58.95,4.82,4.82,0,0,0-.82,3.15v5.9h-1.71V558.46h1.39l.28,1.54h.08a3.46,3.46,0,0,1,1.46-1.29,4.7,4.7,0,0,1,2.11-.46,4.27,4.27,0,0,1,3.05,1,4.14,4.14,0,0,1,1,3.13v7.34Z"/><path class="c" d="M245.82,569.9a5.17,5.17,0,0,1-3.93-1.52,5.86,5.86,0,0,1-1.44-4.21,6.49,6.49,0,0,1,1.34-4.32,4.46,4.46,0,0,1,3.59-1.6,4.22,4.22,0,0,1,3.34,1.39,5.34,5.34,0,0,1,1.23,3.67v1.07h-7.74a4.5,4.5,0,0,0,1,3,3.46,3.46,0,0,0,2.67,1,9,9,0,0,0,3.59-.76v1.52a8.72,8.72,0,0,1-1.71.56A9.7,9.7,0,0,1,245.82,569.9Zm-.46-10.22a2.78,2.78,0,0,0-2.16.88,4.14,4.14,0,0,0-.95,2.44h5.88a3.75,3.75,0,0,0-.72-2.47A2.52,2.52,0,0,0,245.36,559.68Z"/><path class="c" d="M258,558.25a6.19,6.19,0,0,1,1.35.13l-.24,1.57a6,6,0,0,0-1.23-.15,3,3,0,0,0-2.33,1.11,4,4,0,0,0-1,2.76v6h-1.7V558.46h1.4l.2,2.08h.08a4.88,4.88,0,0,1,1.5-1.69A3.39,3.39,0,0,1,258,558.25Z"/><path class="c" d="M271.13,564.07a6.17,6.17,0,0,1-1.39,4.29,4.85,4.85,0,0,1-3.82,1.54,5.08,5.08,0,0,1-2.68-.71,4.63,4.63,0,0,1-1.8-2,7,7,0,0,1-.64-3.09,6.15,6.15,0,0,1,1.38-4.28,5.37,5.37,0,0,1,7.56,0A6.16,6.16,0,0,1,271.13,564.07Zm-8.56,0a5.3,5.3,0,0,0,.86,3.28,3,3,0,0,0,2.53,1.12,3,3,0,0,0,2.54-1.12,5.28,5.28,0,0,0,.86-3.28,5.22,5.22,0,0,0-.86-3.26,3.05,3.05,0,0,0-2.56-1.11,3,3,0,0,0-2.52,1.09A5.31,5.31,0,0,0,262.57,564.07Z"/><path class="c" d="M273.87,568.61a1.5,1.5,0,0,1,.31-1,1.13,1.13,0,0,1,.9-.36,1.19,1.19,0,0,1,.92.36,1.42,1.42,0,0,1,.34,1,1.46,1.46,0,0,1-.34,1,1.21,1.21,0,0,1-.92.36,1.24,1.24,0,0,1-.87-.32A1.41,1.41,0,0,1,273.87,568.61Z"/><path class="c" d="M289.4,564.07a6.21,6.21,0,0,1-1.38,4.29,4.89,4.89,0,0,1-3.83,1.54,5,5,0,0,1-2.67-.71,4.65,4.65,0,0,1-1.81-2,7.1,7.1,0,0,1-.63-3.09,6.15,6.15,0,0,1,1.37-4.28,4.84,4.84,0,0,1,3.81-1.54,4.77,4.77,0,0,1,3.75,1.57A6.16,6.16,0,0,1,289.4,564.07Zm-8.56,0a5.37,5.37,0,0,0,.86,3.28,3.43,3.43,0,0,0,5.07,0,5.28,5.28,0,0,0,.87-3.28,5.21,5.21,0,0,0-.87-3.26,3.05,3.05,0,0,0-2.56-1.11,3,3,0,0,0-2.52,1.09A5.31,5.31,0,0,0,280.84,564.07Z"/><path class="c" d="M297.51,558.25a6,6,0,0,1,1.34.13l-.23,1.57a6,6,0,0,0-1.23-.15,3,3,0,0,0-2.33,1.11,4,4,0,0,0-1,2.76v6h-1.71V558.46h1.41l.19,2.08h.09a4.88,4.88,0,0,1,1.5-1.69A3.39,3.39,0,0,1,297.51,558.25Z"/><path class="c" d="M310.15,558.46v1.07l-2.08.25a3.56,3.56,0,0,1,.74,2.25,3.29,3.29,0,0,1-1.13,2.63,4.51,4.51,0,0,1-3.09,1,4.81,4.81,0,0,1-.95-.08,1.69,1.69,0,0,0-1.08,1.45.72.72,0,0,0,.38.68,2.7,2.7,0,0,0,1.3.22h2a4.47,4.47,0,0,1,2.8.77,2.68,2.68,0,0,1,1,2.24,3.18,3.18,0,0,1-1.5,2.84,8,8,0,0,1-4.36,1,5.93,5.93,0,0,1-3.4-.82,2.65,2.65,0,0,1-1.2-2.32,2.59,2.59,0,0,1,.66-1.77,3.36,3.36,0,0,1,1.84-1,1.87,1.87,0,0,1-.72-.6,1.63,1.63,0,0,1-.29-1,1.79,1.79,0,0,1,.33-1.07,3.32,3.32,0,0,1,1-.89,3.09,3.09,0,0,1-1.42-1.22,4,4,0,0,1,.56-4.82,4.52,4.52,0,0,1,3.14-1,5.57,5.57,0,0,1,1.59.21Zm-9,13.12A1.54,1.54,0,0,0,302,573a4.3,4.3,0,0,0,2.21.47,6.24,6.24,0,0,0,3.17-.64,2,2,0,0,0,1-1.74,1.4,1.4,0,0,0-.56-1.27,4.51,4.51,0,0,0-2.13-.35h-2a2.67,2.67,0,0,0-1.8.55A2,2,0,0,0,301.19,571.58Zm.93-9.52a2.29,2.29,0,0,0,.66,1.78,2.69,2.69,0,0,0,1.86.61,2.17,2.17,0,0,0,2.49-2.42,2.24,2.24,0,0,0-2.52-2.54,2.51,2.51,0,0,0-1.85.65A2.6,2.6,0,0,0,302.12,562.06Z"/><line class="d" x1="322.41" y1="563.98" x2="384.47" y2="563.98"/><line class="d" x1="33.93" y1="563.98" x2="95.99" y2="563.98"/><path class="b" d="M348.74,326.8A14.45,14.45,0,0,1,338,331.37a15.28,15.28,0,0,1-9.92-3.53,15,15,0,0,1-5.56-12.27,15.68,15.68,0,0,1,4.42-11.47,15.27,15.27,0,0,1,21.8.11,16.49,16.49,0,0,1,0,22.59M355,298.05a23.22,23.22,0,0,0-17.06-7.18,24.46,24.46,0,0,0-21.13,12.21,25,25,0,0,0,3.72,29.62,24.4,24.4,0,0,0,34.57.2,23.63,23.63,0,0,0,7-17.33A24,24,0,0,0,355,298.05M296.52,308.9c-1.13.79-1.66,1.17-4.64,1.17H280.13V300h11.38a7.82,7.82,0,0,1,3.62.52,4.57,4.57,0,0,1,2.23,1.7,4.68,4.68,0,0,1,.84,2.79,4.36,4.36,0,0,1-1.68,3.86m1.41,9.25a14.24,14.24,0,0,0,7-4.92,13.6,13.6,0,0,0,2.31-8.1,14.67,14.67,0,0,0-2.1-8,11.86,11.86,0,0,0-5.55-4.82q-3.45-1.45-11.6-1.46h-17.2V340h9.34V319.18h8.15L299.34,340h10.21l-11.62-21.82Zm-69-27.28h31.83V300H238.21v10h22.54v9H238.21v11.73h22.54V340H228.92Zm-49.31,0h8.94l21.06,32.3v-32.3H219V340h-9l-21-32.2V340h-9.34Zm-20.7,35.93a14.47,14.47,0,0,1-10.78,4.57,15.28,15.28,0,0,1-9.92-3.53,15,15,0,0,1-5.56-12.27,15.69,15.69,0,0,1,4.43-11.47,15.27,15.27,0,0,1,21.8.11,16.49,16.49,0,0,1,0,22.59m6.22-28.75a23.23,23.23,0,0,0-17.06-7.18,24.46,24.46,0,0,0-21.14,12.21,25,25,0,0,0,3.72,29.62,24.4,24.4,0,0,0,34.57.2,23.64,23.64,0,0,0,7.05-17.33,24,24,0,0,0-7.14-17.52m-94.21-7.18h9.15l11.34,34.24,11.52-34.24h9L120.21,340h-9l-5.27-31L95.48,340H87.24l-10.3-31-5.38,31H62.45Z"/><path class="c" d="M72.41,394.49a3.87,3.87,0,0,0-3.31,1.61,7.47,7.47,0,0,0-1.17,4.47q0,6,4.48,6A14.06,14.06,0,0,0,77,405.6v3.17a12.44,12.44,0,0,1-4.9.92,7.49,7.49,0,0,1-6-2.36c-1.38-1.58-2.06-3.84-2.06-6.78a11,11,0,0,1,1-4.88A7.44,7.44,0,0,1,68,392.46a8.67,8.67,0,0,1,4.45-1.12,12,12,0,0,1,5.23,1.26l-1.23,3.08a17.37,17.37,0,0,0-2-.83A5.94,5.94,0,0,0,72.41,394.49Z"/><path class="c" d="M88.08,395.54a6.2,6.2,0,0,1,1.26.11l-.28,3.49A4.35,4.35,0,0,0,88,399a3.92,3.92,0,0,0-2.77.92,3.28,3.28,0,0,0-1,2.56v6.95H80.47V395.8h2.82l.55,2.29H84a5.15,5.15,0,0,1,1.71-1.85A4.31,4.31,0,0,1,88.08,395.54Z"/><path class="c" d="M89.87,395.8h4.07l2.58,7.68a10.42,10.42,0,0,1,.45,2.36H97a10.54,10.54,0,0,1,.53-2.36l2.53-7.68h4l-5.78,15.39a6.66,6.66,0,0,1-2.26,3.2,5.71,5.71,0,0,1-3.44,1.06,9.19,9.19,0,0,1-1.89-.2v-3a6.19,6.19,0,0,0,1.47.16,2.59,2.59,0,0,0,1.72-.61A3.88,3.88,0,0,0,95.07,410l.22-.67Z"/><path class="c" d="M113.54,409.69a4.53,4.53,0,0,1-3.78-1.75h-.19c.13,1.14.19,1.8.19,2v5.53H106V395.8h3l.52,1.77h.17a4.31,4.31,0,0,1,3.87-2,4.44,4.44,0,0,1,3.79,1.87,8.65,8.65,0,0,1,1.37,5.19,10.16,10.16,0,0,1-.65,3.79,5.25,5.25,0,0,1-1.82,2.46A4.69,4.69,0,0,1,113.54,409.69Zm-1.1-11.17a2.36,2.36,0,0,0-2,.85,4.94,4.94,0,0,0-.66,2.8v.4a5.68,5.68,0,0,0,.66,3.15,2.31,2.31,0,0,0,2.07.95c1.66,0,2.5-1.37,2.5-4.12a5.9,5.9,0,0,0-.62-3A2.1,2.1,0,0,0,112.44,398.52Z"/><path class="c" d="M127.61,406.72a8.17,8.17,0,0,0,2.34-.42v2.77a8.38,8.38,0,0,1-3.41.62,4.21,4.21,0,0,1-3.26-1.13,4.91,4.91,0,0,1-1-3.39v-6.58h-1.78V397l2-1.25,1.08-2.88H126v2.91h3.82v2.79H126v6.58a1.5,1.5,0,0,0,.44,1.18A1.77,1.77,0,0,0,127.61,406.72Z"/><path class="c" d="M145.12,402.6a7.33,7.33,0,0,1-1.76,5.21,6.4,6.4,0,0,1-4.9,1.88,6.86,6.86,0,0,1-3.46-.86,5.75,5.75,0,0,1-2.31-2.47,8.29,8.29,0,0,1-.81-3.76,7.26,7.26,0,0,1,1.75-5.2,6.4,6.4,0,0,1,4.91-1.86,6.86,6.86,0,0,1,3.46.86,5.7,5.7,0,0,1,2.31,2.45A8.22,8.22,0,0,1,145.12,402.6Zm-9.44,0a5.65,5.65,0,0,0,.67,3.06,2.37,2.37,0,0,0,2.16,1,2.33,2.33,0,0,0,2.14-1,5.76,5.76,0,0,0,.66-3.07,5.62,5.62,0,0,0-.66-3,2.81,2.81,0,0,0-4.31,0A5.64,5.64,0,0,0,135.68,402.6Z"/><path class="c" d="M153.73,409.69q-6.36,0-6.37-7a7.44,7.44,0,0,1,1.74-5.32,6.5,6.5,0,0,1,5-1.84,9.45,9.45,0,0,1,4.25.93l-1.1,2.88c-.58-.23-1.13-.43-1.63-.58a5.32,5.32,0,0,0-1.52-.22q-2.9,0-2.9,4.12t2.9,4a6.65,6.65,0,0,0,2-.28,7.05,7.05,0,0,0,1.83-.9v3.19a6.14,6.14,0,0,1-1.82.79A10.11,10.11,0,0,1,153.73,409.69Z"/><path class="c" d="M170.71,409.45l-.5-1.75H170a4,4,0,0,1-1.7,1.47,5.73,5.73,0,0,1-2.5.52,4.79,4.79,0,0,1-3.63-1.29,5.19,5.19,0,0,1-1.22-3.7v-8.9h3.73v8a3.87,3.87,0,0,0,.52,2.22,1.91,1.91,0,0,0,1.67.73,2.5,2.5,0,0,0,2.26-1,6.42,6.42,0,0,0,.7-3.46V395.8h3.72v13.65Z"/><path class="c" d="M185.09,395.54a6.2,6.2,0,0,1,1.26.11l-.28,3.49A4.35,4.35,0,0,0,185,399a4,4,0,0,0-2.78.92,3.31,3.31,0,0,0-1,2.56v6.95h-3.72V395.8h2.82l.55,2.29H181a5.15,5.15,0,0,1,1.71-1.85A4.31,4.31,0,0,1,185.09,395.54Z"/><path class="c" d="M196.45,395.54a6.16,6.16,0,0,1,1.25.11l-.28,3.49a4.29,4.29,0,0,0-1.1-.12,3.94,3.94,0,0,0-2.77.92,3.28,3.28,0,0,0-1,2.56v6.95h-3.72V395.8h2.82l.55,2.29h.18a5.18,5.18,0,0,1,1.72-1.85A4.28,4.28,0,0,1,196.45,395.54Z"/><path class="c" d="M206.36,409.69a7,7,0,0,1-5.15-1.82,6.87,6.87,0,0,1-1.86-5.15,7.53,7.53,0,0,1,1.72-5.3,6.1,6.1,0,0,1,4.74-1.88,6,6,0,0,1,4.5,1.65,6.22,6.22,0,0,1,1.61,4.55v1.81h-8.8a3.62,3.62,0,0,0,.94,2.48,3.34,3.34,0,0,0,2.47.89,10.27,10.27,0,0,0,2.33-.26,11.42,11.42,0,0,0,2.3-.82v2.89a9.22,9.22,0,0,1-2.09.72A13.09,13.09,0,0,1,206.36,409.69Zm-.53-11.5a2.35,2.35,0,0,0-1.85.75,3.43,3.43,0,0,0-.77,2.13h5.22a3,3,0,0,0-.72-2.13A2.43,2.43,0,0,0,205.83,398.19Z"/><path class="c" d="M227.55,409.45h-3.72v-8a3.82,3.82,0,0,0-.53-2.22,1.92,1.92,0,0,0-1.67-.74,2.53,2.53,0,0,0-2.26,1,6.55,6.55,0,0,0-.69,3.47v6.42H215V395.8h2.85l.5,1.74h.2a4,4,0,0,1,1.72-1.49,5.82,5.82,0,0,1,2.48-.51,4.79,4.79,0,0,1,3.62,1.29,5.18,5.18,0,0,1,1.23,3.72Z"/><path class="c" d="M236.92,409.69q-6.36,0-6.37-7a7.44,7.44,0,0,1,1.74-5.32,6.5,6.5,0,0,1,5-1.84,9.45,9.45,0,0,1,4.25.93l-1.1,2.88c-.58-.23-1.13-.43-1.63-.58a5.32,5.32,0,0,0-1.52-.22q-2.9,0-2.9,4.12t2.9,4a6.65,6.65,0,0,0,2-.28,7.26,7.26,0,0,0,1.84-.9v3.19a6.3,6.3,0,0,1-1.83.79A10.05,10.05,0,0,1,236.92,409.69Z"/><path class="c" d="M244.08,392.27c0-1.21.67-1.82,2-1.82s2,.61,2,1.82a1.76,1.76,0,0,1-.51,1.35,2.12,2.12,0,0,1-1.52.48C244.75,394.1,244.08,393.49,244.08,392.27ZM248,409.45h-3.72V395.8H248Z"/><path class="c" d="M258,409.69a7.05,7.05,0,0,1-5.15-1.82,6.87,6.87,0,0,1-1.85-5.15,7.57,7.57,0,0,1,1.71-5.3,6.1,6.1,0,0,1,4.74-1.88,6,6,0,0,1,4.51,1.65,6.26,6.26,0,0,1,1.61,4.55v1.81h-8.8a3.57,3.57,0,0,0,.94,2.48,3.31,3.31,0,0,0,2.46.89,10.2,10.2,0,0,0,2.33-.26,11.2,11.2,0,0,0,2.3-.82v2.89a9.05,9.05,0,0,1-2.09.72A13,13,0,0,1,258,409.69Zm-.52-11.5a2.38,2.38,0,0,0-1.86.75,3.49,3.49,0,0,0-.77,2.13h5.23a3.14,3.14,0,0,0-.72-2.13A2.45,2.45,0,0,0,257.52,398.19Z"/><path class="c" d="M276.16,405.39a3.76,3.76,0,0,1-1.46,3.2,7.23,7.23,0,0,1-4.37,1.1,14,14,0,0,1-2.53-.2,10,10,0,0,1-2-.59v-3.08a12.56,12.56,0,0,0,2.34.82,9.41,9.41,0,0,0,2.29.33c1.35,0,2-.39,2-1.17a1,1,0,0,0-.27-.72,3.66,3.66,0,0,0-.92-.62c-.44-.23-1-.5-1.76-.81a11.17,11.17,0,0,1-2.31-1.22,3.52,3.52,0,0,1-1.08-1.29,4.3,4.3,0,0,1-.33-1.79,3.23,3.23,0,0,1,1.41-2.81,6.8,6.8,0,0,1,4-1,11.27,11.27,0,0,1,4.8,1.08l-1.12,2.68c-.69-.29-1.32-.53-1.92-.72a5.91,5.91,0,0,0-1.82-.28c-1.1,0-1.65.3-1.65.89a1,1,0,0,0,.54.87,14.68,14.68,0,0,0,2.32,1.09,10.69,10.69,0,0,1,2.34,1.2,3.53,3.53,0,0,1,1.1,1.3A3.92,3.92,0,0,1,276.16,405.39Z"/><path class="c" d="M294,409.45l-.4-1.91h-.1a5.65,5.65,0,0,1-2,1.71,6.19,6.19,0,0,1-2.48.44,4.48,4.48,0,0,1-3.12-1,3.77,3.77,0,0,1-1.13-2.92q0-4,6.48-4.25l2.27-.07v-.83a3.41,3.41,0,0,0-.67-2.33,2.81,2.81,0,0,0-2.17-.75,8.69,8.69,0,0,0-3.78,1l-.63-1.55a9.71,9.71,0,0,1,2.17-.85,9.49,9.49,0,0,1,2.36-.3,5.09,5.09,0,0,1,3.55,1.06,4.43,4.43,0,0,1,1.15,3.41v9.13ZM289.4,408a4.12,4.12,0,0,0,3-1,3.84,3.84,0,0,0,1.09-2.9v-1.21l-2,.08a7.51,7.51,0,0,0-3.49.75,2.28,2.28,0,0,0-1.06,2.07,2.09,2.09,0,0,0,.66,1.67A2.71,2.71,0,0,0,289.4,408Z"/><path class="c" d="M305.76,395.82a7.77,7.77,0,0,1,1.6.15l-.28,1.88a7.06,7.06,0,0,0-1.47-.18,3.55,3.55,0,0,0-2.77,1.32,4.78,4.78,0,0,0-1.16,3.28v7.18h-2V396.07h1.67l.23,2.48h.1a5.73,5.73,0,0,1,1.79-2A4.06,4.06,0,0,1,305.76,395.82Z"/><path class="c" d="M315.51,409.69a6.13,6.13,0,0,1-4.68-1.81,7,7,0,0,1-1.71-5,7.76,7.76,0,0,1,1.59-5.14,5.3,5.3,0,0,1,4.28-1.91,5.06,5.06,0,0,1,4,1.66,6.35,6.35,0,0,1,1.46,4.36v1.28h-9.21a5.27,5.27,0,0,0,1.19,3.58,4.12,4.12,0,0,0,3.18,1.22,10.81,10.81,0,0,0,4.27-.9v1.8a11.43,11.43,0,0,1-2,.67A11.78,11.78,0,0,1,315.51,409.69ZM315,397.52a3.32,3.32,0,0,0-2.57,1.05,4.81,4.81,0,0,0-1.12,2.91h7a4.52,4.52,0,0,0-.85-2.94A3,3,0,0,0,315,397.52Z"/><path class="c" d="M73.89,440.45v-8.66a3.48,3.48,0,0,0-.75-2.44,3,3,0,0,0-2.33-.81,3.83,3.83,0,0,0-3.08,1.15,5.81,5.81,0,0,0-1,3.76v7h-2v-19h2v5.75a11.7,11.7,0,0,1-.1,1.72h.12a4.16,4.16,0,0,1,1.71-1.52,5.5,5.5,0,0,1,2.52-.55A5.21,5.21,0,0,1,74.69,428a5,5,0,0,1,1.22,3.71v8.73Z"/><path class="c" d="M88.3,440.45l-.4-1.91h-.1a5.62,5.62,0,0,1-2,1.71,6.24,6.24,0,0,1-2.49.44,4.51,4.51,0,0,1-3.12-1,3.76,3.76,0,0,1-1.12-2.92q0-4,6.48-4.25l2.27-.07v-.83a3.41,3.41,0,0,0-.68-2.33,2.78,2.78,0,0,0-2.17-.75,8.76,8.76,0,0,0-3.78,1L80.58,428a9.82,9.82,0,0,1,2.16-.85,9.62,9.62,0,0,1,2.37-.3,5.08,5.08,0,0,1,3.54,1.06,4.43,4.43,0,0,1,1.16,3.41v9.13ZM83.73,439a4.12,4.12,0,0,0,3-1,3.83,3.83,0,0,0,1.08-2.9v-1.21l-2,.08a7.43,7.43,0,0,0-3.48.75,2.28,2.28,0,0,0-1.07,2.07,2.09,2.09,0,0,0,.66,1.67A2.76,2.76,0,0,0,83.73,439Z"/><path class="c" d="M100.08,426.82a7.7,7.7,0,0,1,1.6.15l-.28,1.88a7,7,0,0,0-1.46-.18A3.56,3.56,0,0,0,97.16,430,4.78,4.78,0,0,0,96,433.27v7.18H94V427.07h1.67l.23,2.48H96a5.85,5.85,0,0,1,1.8-2A4.05,4.05,0,0,1,100.08,426.82Z"/><path class="c" d="M121.24,440.45v-8.71a3.67,3.67,0,0,0-.68-2.4,2.67,2.67,0,0,0-2.13-.8,3.43,3.43,0,0,0-2.79,1.09,5.13,5.13,0,0,0-.91,3.35v7.47h-2v-8.71a3.62,3.62,0,0,0-.69-2.4,2.66,2.66,0,0,0-2.13-.8,3.29,3.29,0,0,0-2.79,1.15,6.15,6.15,0,0,0-.89,3.74v7h-2V427.07h1.64l.33,1.83h.1a4,4,0,0,1,1.62-1.53,5,5,0,0,1,2.34-.55c2.09,0,3.45.76,4.1,2.27h.1a4.2,4.2,0,0,1,1.73-1.66,5.47,5.47,0,0,1,2.59-.61,4.54,4.54,0,0,1,3.4,1.17,5.23,5.23,0,0,1,1.13,3.73v8.73Z"/><path class="c" d="M133.47,428.64h-3.41v11.81h-2V428.64h-2.39v-.91L128,427v-.74c0-3.29,1.43-4.93,4.31-4.93a8.67,8.67,0,0,1,2.49.43l-.53,1.62a6.79,6.79,0,0,0-2-.38,2,2,0,0,0-1.7.76,4.33,4.33,0,0,0-.55,2.45v.87h3.41Z"/><path class="c" d="M137.82,427.07v8.68a3.48,3.48,0,0,0,.74,2.44,3,3,0,0,0,2.33.8,3.82,3.82,0,0,0,3.07-1.14,5.79,5.79,0,0,0,1-3.75v-7h2v13.38h-1.67l-.3-1.8h-.11a4,4,0,0,1-1.72,1.52,5.82,5.82,0,0,1-2.52.52,5.14,5.14,0,0,1-3.66-1.16,4.93,4.93,0,0,1-1.21-3.71v-8.75Z"/><path class="c" d="M153.28,440.45h-2v-19h2Z"/><path class="c" d="M168.39,439a7,7,0,0,0,1-.08,5.65,5.65,0,0,0,.8-.17v1.55a3.6,3.6,0,0,1-1,.27,7.06,7.06,0,0,1-1.15.1q-3.89,0-3.88-4.09v-8H162.3v-1l1.92-.85.85-2.85h1.18v3.1h3.88v1.57h-3.88v7.88a2.71,2.71,0,0,0,.57,1.85A2,2,0,0,0,168.39,439Z"/><path class="c" d="M184.45,433.75a7.34,7.34,0,0,1-1.65,5.1,5.79,5.79,0,0,1-4.55,1.84,6.05,6.05,0,0,1-3.19-.84,5.58,5.58,0,0,1-2.15-2.42,8.48,8.48,0,0,1-.76-3.68,7.37,7.37,0,0,1,1.64-5.1,5.77,5.77,0,0,1,4.54-1.83,5.67,5.67,0,0,1,4.46,1.87A7.33,7.33,0,0,1,184.45,433.75Zm-10.2,0a6.36,6.36,0,0,0,1,3.9,3.54,3.54,0,0,0,3,1.34,3.6,3.6,0,0,0,3-1.33,6.37,6.37,0,0,0,1-3.91,6.26,6.26,0,0,0-1-3.88,3.65,3.65,0,0,0-3-1.33,3.55,3.55,0,0,0-3,1.31A6.26,6.26,0,0,0,174.25,433.75Z"/><path class="c" d="M198.81,439a7,7,0,0,0,1-.08,5.65,5.65,0,0,0,.8-.17v1.55a3.6,3.6,0,0,1-1,.27,7.06,7.06,0,0,1-1.15.1q-3.89,0-3.88-4.09v-8h-1.92v-1l1.92-.85.85-2.85h1.18v3.1h3.88v1.57h-3.88v7.88a2.71,2.71,0,0,0,.57,1.85A2,2,0,0,0,198.81,439Z"/><path class="c" d="M212.47,440.45v-8.66a3.48,3.48,0,0,0-.74-2.44,3,3,0,0,0-2.33-.81,3.82,3.82,0,0,0-3.08,1.15,5.81,5.81,0,0,0-1,3.76v7h-2v-19h2v5.75a13.27,13.27,0,0,1-.1,1.72h.12a4.19,4.19,0,0,1,1.7-1.52,5.56,5.56,0,0,1,2.52-.55,5.17,5.17,0,0,1,3.68,1.16,4.92,4.92,0,0,1,1.23,3.71v8.73Z"/><path class="c" d="M224.31,440.69a6.15,6.15,0,0,1-4.68-1.81,7,7,0,0,1-1.71-5,7.76,7.76,0,0,1,1.59-5.14,5.3,5.3,0,0,1,4.28-1.91,5.06,5.06,0,0,1,4,1.66,6.3,6.3,0,0,1,1.46,4.36v1.28H220a5.32,5.32,0,0,0,1.19,3.58,4.12,4.12,0,0,0,3.18,1.22,10.81,10.81,0,0,0,4.27-.9v1.8a11.17,11.17,0,0,1-2,.67A11.78,11.78,0,0,1,224.31,440.69Zm-.54-12.17a3.29,3.29,0,0,0-2.57,1.05,4.82,4.82,0,0,0-1.13,2.91h7a4.46,4.46,0,0,0-.85-2.94A3,3,0,0,0,223.77,428.52Z"/><path class="c" d="M245.41,426.85a5,5,0,0,1,4.09,1.8,7.86,7.86,0,0,1,1.46,5.1,8,8,0,0,1-1.47,5.12,5,5,0,0,1-4.08,1.82,5.83,5.83,0,0,1-2.39-.48,4.53,4.53,0,0,1-1.81-1.48h-.15l-.42,1.72h-1.46v-19h2v4.62c0,1,0,2-.1,2.78h.1A4.79,4.79,0,0,1,245.41,426.85Zm-.29,1.69a3.57,3.57,0,0,0-3,1.19,6.82,6.82,0,0,0-.91,4,6.68,6.68,0,0,0,.94,4,3.58,3.58,0,0,0,3,1.21,3.12,3.12,0,0,0,2.78-1.36,7,7,0,0,0,.91-3.91,6.71,6.71,0,0,0-.91-3.89A3.24,3.24,0,0,0,245.12,428.54Z"/><path class="c" d="M262.73,440.45l-.4-1.91h-.1a5.71,5.71,0,0,1-2,1.71,6.27,6.27,0,0,1-2.49.44,4.48,4.48,0,0,1-3.12-1,3.77,3.77,0,0,1-1.13-2.92q0-4,6.48-4.25l2.28-.07v-.83a3.41,3.41,0,0,0-.68-2.33,2.8,2.8,0,0,0-2.17-.75,8.76,8.76,0,0,0-3.78,1L255,428a9.9,9.9,0,0,1,2.17-.85,9.55,9.55,0,0,1,2.36-.3,5.09,5.09,0,0,1,3.55,1.06,4.43,4.43,0,0,1,1.15,3.41v9.13ZM258.15,439a4.13,4.13,0,0,0,3-1,3.83,3.83,0,0,0,1.08-2.9v-1.21l-2,.08a7.43,7.43,0,0,0-3.48.75,2.26,2.26,0,0,0-1.07,2.07,2.09,2.09,0,0,0,.66,1.67A2.74,2.74,0,0,0,258.15,439Z"/><path class="c" d="M277.56,440.45v-8.66a3.48,3.48,0,0,0-.74-2.44,3,3,0,0,0-2.33-.81,3.84,3.84,0,0,0-3.08,1.14,5.75,5.75,0,0,0-1,3.75v7h-2V427.07h1.65l.33,1.83h.09a4.15,4.15,0,0,1,1.75-1.53,5.56,5.56,0,0,1,2.5-.55,5.07,5.07,0,0,1,3.64,1.17,5,5,0,0,1,1.22,3.73v8.73Z"/><path class="c" d="M285.75,433.6a23.66,23.66,0,0,1,1.6-2l4.32-4.58h2.41l-5.42,5.7,5.8,7.68H292l-4.72-6.33-1.53,1.32v5h-2v-19h2v10.07c0,.45,0,1.14-.09,2.08Z"/><path class="c" d="M296.7,423.44a1.35,1.35,0,0,1,.35-1,1.2,1.2,0,0,1,.85-.32,1.17,1.17,0,0,1,.84.33,1.61,1.61,0,0,1,0,2,1.22,1.22,0,0,1-1.69,0A1.35,1.35,0,0,1,296.7,423.44Zm2.2,17h-2V427.07h2Z"/><path class="c" d="M312.35,440.45v-8.66a3.48,3.48,0,0,0-.74-2.44,3,3,0,0,0-2.33-.81,3.84,3.84,0,0,0-3.08,1.14,5.75,5.75,0,0,0-1,3.75v7h-2V427.07h1.65l.33,1.83h.09a4.15,4.15,0,0,1,1.75-1.53,5.56,5.56,0,0,1,2.5-.55,5.07,5.07,0,0,1,3.64,1.17,5,5,0,0,1,1.22,3.73v8.73Z"/><path class="c" d="M329.49,427.07v1.28l-2.48.29a4.05,4.05,0,0,1,.61,1.12,4.25,4.25,0,0,1,.27,1.56,3.92,3.92,0,0,1-1.34,3.13,5.41,5.41,0,0,1-3.69,1.17,6.69,6.69,0,0,1-1.12-.09,2,2,0,0,0-1.29,1.72.88.88,0,0,0,.45.81,3.24,3.24,0,0,0,1.55.26h2.37a5.31,5.31,0,0,1,3.34.92,3.2,3.2,0,0,1,1.16,2.66,3.8,3.8,0,0,1-1.78,3.39,9.61,9.61,0,0,1-5.2,1.16,7.13,7.13,0,0,1-4-1,3.16,3.16,0,0,1-1.42-2.76,3.12,3.12,0,0,1,.78-2.12,4,4,0,0,1,2.2-1.2,2.21,2.21,0,0,1-.86-.72,2,2,0,0,1-.35-1.14,2.16,2.16,0,0,1,.39-1.28,4,4,0,0,1,1.23-1.06,3.69,3.69,0,0,1-1.69-1.45,4.83,4.83,0,0,1,.67-5.74,5.39,5.39,0,0,1,3.73-1.19,6.62,6.62,0,0,1,1.9.25Zm-10.67,15.62a1.81,1.81,0,0,0,.92,1.65,5.08,5.08,0,0,0,2.62.56,7.33,7.33,0,0,0,3.78-.76,2.34,2.34,0,0,0,1.23-2.07,1.66,1.66,0,0,0-.67-1.51,5.24,5.24,0,0,0-2.53-.42h-2.43a3.21,3.21,0,0,0-2.15.66A2.36,2.36,0,0,0,318.82,442.69Zm1.1-11.34a2.73,2.73,0,0,0,.8,2.13,3.16,3.16,0,0,0,2.21.72c2,0,3-1,3-2.88s-1-3-3-3a3,3,0,0,0-2.2.77A3.1,3.1,0,0,0,319.92,431.35Z"/><path class="c" d="M73.36,467.8A3.35,3.35,0,0,1,72,470.68a6.59,6.59,0,0,1-3.91,1,8.54,8.54,0,0,1-4.15-.84V469a10.89,10.89,0,0,0,2.07.77,9,9,0,0,0,2.13.28,4.83,4.83,0,0,0,2.45-.51,1.74,1.74,0,0,0,.17-2.88,10.46,10.46,0,0,0-2.64-1.31,14.49,14.49,0,0,1-2.66-1.22,3.62,3.62,0,0,1-1.17-1.17,3.16,3.16,0,0,1-.38-1.58,3,3,0,0,1,1.33-2.58,6.2,6.2,0,0,1,3.65-.95,10.75,10.75,0,0,1,4.22.88l-.72,1.65a9.75,9.75,0,0,0-3.65-.83,4.21,4.21,0,0,0-2.17.45,1.4,1.4,0,0,0-.73,1.25,1.51,1.51,0,0,0,.27.91,2.73,2.73,0,0,0,.89.72,18.23,18.23,0,0,0,2.34,1,8.74,8.74,0,0,1,3.22,1.75A3.09,3.09,0,0,1,73.36,467.8Z"/><path class="c" d="M74.53,458.07h2.18l2.93,7.63a28.52,28.52,0,0,1,1.19,3.77h.1c.11-.42.33-1.13.67-2.13s1.44-4.1,3.31-9.27h2.17L81.33,473.3a7.6,7.6,0,0,1-2,3.21,4.25,4.25,0,0,1-2.8.94,8.62,8.62,0,0,1-1.83-.2v-1.63a6.8,6.8,0,0,0,1.5.15,3.1,3.1,0,0,0,3-2.35l.74-1.9Z"/><path class="c" d="M97.89,467.8a3.38,3.38,0,0,1-1.39,2.88,6.59,6.59,0,0,1-3.91,1,8.49,8.49,0,0,1-4.15-.84V469a10.4,10.4,0,0,0,2.07.77,8.91,8.91,0,0,0,2.13.28,4.79,4.79,0,0,0,2.44-.51,1.75,1.75,0,0,0,.18-2.88,10.77,10.77,0,0,0-2.65-1.31A14.32,14.32,0,0,1,90,464.1a3.44,3.44,0,0,1-1.17-1.17,3.06,3.06,0,0,1-.39-1.58,3,3,0,0,1,1.33-2.58,6.22,6.22,0,0,1,3.65-.95,10.83,10.83,0,0,1,4.23.88l-.72,1.65a9.79,9.79,0,0,0-3.65-.83,4.25,4.25,0,0,0-2.18.45,1.4,1.4,0,0,0-.73,1.25,1.51,1.51,0,0,0,.27.91,2.84,2.84,0,0,0,.89.72,19.65,19.65,0,0,0,2.34,1,8.74,8.74,0,0,1,3.22,1.75A3.06,3.06,0,0,1,97.89,467.8Z"/><path class="c" d="M105.5,470a7,7,0,0,0,1-.08,5.18,5.18,0,0,0,.79-.17v1.55a3.41,3.41,0,0,1-1,.27,7.06,7.06,0,0,1-1.15.1q-3.88,0-3.88-4.09v-8H99.41v-1l1.92-.85.85-2.85h1.18v3.1h3.88v1.57h-3.88v7.88a2.71,2.71,0,0,0,.57,1.85A2,2,0,0,0,105.5,470Z"/><path class="c" d="M115.66,471.69a6.12,6.12,0,0,1-4.68-1.81,7,7,0,0,1-1.72-5,7.71,7.71,0,0,1,1.6-5.14,5.28,5.28,0,0,1,4.28-1.91,5,5,0,0,1,4,1.66,6.3,6.3,0,0,1,1.47,4.36v1.28h-9.22a5.32,5.32,0,0,0,1.19,3.58,4.15,4.15,0,0,0,3.18,1.22A10.85,10.85,0,0,0,120,469v1.8a11.26,11.26,0,0,1-2,.67A11.75,11.75,0,0,1,115.66,471.69Zm-.55-12.17a3.32,3.32,0,0,0-2.57,1.05,4.88,4.88,0,0,0-1.13,2.91h7a4.46,4.46,0,0,0-.86-2.94A3,3,0,0,0,115.11,459.52Z"/><path class="c" d="M141.09,471.45v-8.71a3.62,3.62,0,0,0-.69-2.4,2.64,2.64,0,0,0-2.12-.8,3.47,3.47,0,0,0-2.8,1.09,5.2,5.2,0,0,0-.9,3.35v7.47h-2v-8.71a3.62,3.62,0,0,0-.68-2.4,2.67,2.67,0,0,0-2.14-.8,3.28,3.28,0,0,0-2.78,1.15,6.15,6.15,0,0,0-.89,3.74v7h-2V458.07h1.65l.33,1.83h.1a4,4,0,0,1,1.62-1.53,5,5,0,0,1,2.33-.55c2.1,0,3.46.76,4.11,2.27h.09a4.29,4.29,0,0,1,1.74-1.66,5.43,5.43,0,0,1,2.58-.61A4.51,4.51,0,0,1,142,459a5.19,5.19,0,0,1,1.13,3.73v8.73Z"/><path class="c" d="M162,471.45l-.4-1.91h-.1a5.65,5.65,0,0,1-2,1.71,6.19,6.19,0,0,1-2.48.44,4.48,4.48,0,0,1-3.12-1,3.77,3.77,0,0,1-1.13-2.92q0-4,6.48-4.25l2.27-.07v-.83a3.41,3.41,0,0,0-.67-2.33,2.81,2.81,0,0,0-2.17-.75,8.69,8.69,0,0,0-3.78,1l-.63-1.55a9.71,9.71,0,0,1,2.17-.85,9.55,9.55,0,0,1,2.36-.3,5.09,5.09,0,0,1,3.55,1.06,4.43,4.43,0,0,1,1.15,3.41v9.13ZM157.43,470a4.1,4.1,0,0,0,3-1,3.8,3.8,0,0,0,1.09-2.9v-1.21l-2,.08a7.51,7.51,0,0,0-3.49.75,2.28,2.28,0,0,0-1.06,2.07,2.09,2.09,0,0,0,.66,1.67A2.71,2.71,0,0,0,157.43,470Z"/><path class="c" d="M176.84,471.45v-8.66a3.52,3.52,0,0,0-.74-2.44,3,3,0,0,0-2.33-.81,3.84,3.84,0,0,0-3.08,1.14,5.75,5.75,0,0,0-1,3.75v7h-2V458.07h1.64l.33,1.83h.1a4.15,4.15,0,0,1,1.75-1.53,5.56,5.56,0,0,1,2.5-.55,5.09,5.09,0,0,1,3.64,1.17,5,5,0,0,1,1.22,3.73v8.73Z"/><path class="c" d="M192.14,469.65H192a4.77,4.77,0,0,1-4.2,2,5,5,0,0,1-4.09-1.79,7.93,7.93,0,0,1-1.45-5.11,8,8,0,0,1,1.46-5.14,4.94,4.94,0,0,1,4.08-1.83,4.86,4.86,0,0,1,4.17,2h.16l-.08-1-.05-.94v-5.45h2v19h-1.64Zm-4.06.34a3.66,3.66,0,0,0,3-1.13,5.63,5.63,0,0,0,.94-3.64v-.43a6.73,6.73,0,0,0-.95-4.06,3.59,3.59,0,0,0-3-1.21,3.09,3.09,0,0,0-2.73,1.39,6.87,6.87,0,0,0-.94,3.91,6.58,6.58,0,0,0,.94,3.87A3.16,3.16,0,0,0,188.08,470Z"/><path class="c" d="M221.9,471.45v-8.71a3.62,3.62,0,0,0-.69-2.4,2.64,2.64,0,0,0-2.12-.8,3.47,3.47,0,0,0-2.8,1.09,5.2,5.2,0,0,0-.9,3.35v7.47h-2v-8.71a3.62,3.62,0,0,0-.69-2.4,2.66,2.66,0,0,0-2.13-.8,3.29,3.29,0,0,0-2.79,1.15,6.15,6.15,0,0,0-.89,3.74v7h-2V458.07h1.65l.33,1.83h.1a4,4,0,0,1,1.62-1.53,5,5,0,0,1,2.34-.55c2.09,0,3.45.76,4.1,2.27h.09a4.29,4.29,0,0,1,1.74-1.66,5.44,5.44,0,0,1,2.59-.61,4.5,4.5,0,0,1,3.39,1.17,5.19,5.19,0,0,1,1.13,3.73v8.73Z"/><path class="c" d="M236.33,471.45l-.41-1.91h-.09a5.73,5.73,0,0,1-2,1.71,6.19,6.19,0,0,1-2.48.44,4.48,4.48,0,0,1-3.12-1,3.73,3.73,0,0,1-1.13-2.92q0-4,6.48-4.25l2.27-.07v-.83a3.41,3.41,0,0,0-.68-2.33,2.77,2.77,0,0,0-2.16-.75,8.76,8.76,0,0,0-3.79,1L228.6,459a9.71,9.71,0,0,1,2.17-.85,9.49,9.49,0,0,1,2.36-.3,5.06,5.06,0,0,1,3.54,1.06,4.43,4.43,0,0,1,1.16,3.41v9.13ZM231.75,470a4.12,4.12,0,0,0,3-1,3.83,3.83,0,0,0,1.08-2.9v-1.21l-2,.08a7.44,7.44,0,0,0-3.49.75,2.28,2.28,0,0,0-1.07,2.07,2.06,2.06,0,0,0,.67,1.67A2.71,2.71,0,0,0,231.75,470Z"/><path class="c" d="M239.88,458.07h2.17L245,465.7a30.69,30.69,0,0,1,1.2,3.77h.1q.15-.63.66-2.13t3.32-9.27h2.17l-5.75,15.23a7.61,7.61,0,0,1-2,3.21,4.23,4.23,0,0,1-2.8.94,8.62,8.62,0,0,1-1.83-.2v-1.63a6.93,6.93,0,0,0,1.5.15,3.09,3.09,0,0,0,3-2.35l.75-1.9Z"/><path class="c" d="M272.12,471.45l-1.05-4.78-1.42-6h-.08l-2.49,10.81h-4l-3.88-13.65h3.71l1.58,6c.25,1.08.51,2.58.77,4.48h.07a23,23,0,0,1,.43-2.94l.19-1,1.69-6.54h4.1l1.6,6.54c0,.18.08.45.15.8s.14.72.2,1.11.12.78.18,1.16.08.68.09.91H274c.08-.58.21-1.39.39-2.41s.33-1.71.41-2.07l1.63-6h3.65l-3.93,13.65Z"/><path class="c" d="M288.48,471.69a7.08,7.08,0,0,1-5.16-1.82,6.91,6.91,0,0,1-1.85-5.15,7.57,7.57,0,0,1,1.71-5.3,6.13,6.13,0,0,1,4.75-1.88,6,6,0,0,1,4.5,1.65,6.26,6.26,0,0,1,1.61,4.55v1.81h-8.8a3.57,3.57,0,0,0,.94,2.48,3.34,3.34,0,0,0,2.47.89,10.27,10.27,0,0,0,2.33-.26,11.13,11.13,0,0,0,2.29-.82v2.89a9,9,0,0,1-2.08.72A13.09,13.09,0,0,1,288.48,471.69Zm-.53-11.5a2.34,2.34,0,0,0-1.85.75,3.43,3.43,0,0,0-.77,2.13h5.22a3.14,3.14,0,0,0-.72-2.13A2.43,2.43,0,0,0,288,460.19Z"/><path class="c" d="M305.74,471.45l-.72-1.86h-.1a5.42,5.42,0,0,1-1.94,1.64,6.13,6.13,0,0,1-2.59.46,4.21,4.21,0,0,1-3.1-1.12,4.33,4.33,0,0,1-1.12-3.2,3.57,3.57,0,0,1,1.52-3.2,8.83,8.83,0,0,1,4.58-1.15l2.37-.07v-.6a1.86,1.86,0,0,0-2.13-2.07,9.64,9.64,0,0,0-3.84,1l-1.23-2.52a11.1,11.1,0,0,1,5.22-1.23,6.54,6.54,0,0,1,4.21,1.19,4.42,4.42,0,0,1,1.47,3.64v9.1Zm-1.1-6.33-1.44.05a4.59,4.59,0,0,0-2.42.59,1.83,1.83,0,0,0-.79,1.63c0,1.05.6,1.58,1.8,1.58a2.83,2.83,0,0,0,2.07-.75,2.58,2.58,0,0,0,.78-2Z"/><path class="c" d="M315.75,464l1.62-2.07,3.82-4.15h4.2L320,463.72l5.75,7.73h-4.3l-3.93-5.53-1.6,1.28v4.25h-3.72v-19h3.72v8.47l-.19,3.1Z"/><path class="c" d="M333.85,471.69a7.05,7.05,0,0,1-5.15-1.82,6.87,6.87,0,0,1-1.86-5.15,7.53,7.53,0,0,1,1.72-5.3,6.1,6.1,0,0,1,4.74-1.88,6,6,0,0,1,4.5,1.65,6.22,6.22,0,0,1,1.62,4.55v1.81h-8.81a3.67,3.67,0,0,0,.94,2.48,3.34,3.34,0,0,0,2.47.89,10.27,10.27,0,0,0,2.33-.26,11.42,11.42,0,0,0,2.3-.82v2.89a9.05,9.05,0,0,1-2.09.72A13,13,0,0,1,333.85,471.69Zm-.52-11.5a2.38,2.38,0,0,0-1.86.75,3.49,3.49,0,0,0-.77,2.13h5.22a3,3,0,0,0-.72-2.13A2.43,2.43,0,0,0,333.33,460.19Z"/><path class="c" d="M355,471.45h-3.72v-8a3.82,3.82,0,0,0-.53-2.22,1.91,1.91,0,0,0-1.67-.74,2.54,2.54,0,0,0-2.26,1,6.55,6.55,0,0,0-.69,3.47v6.42h-3.73V457.8h2.85l.5,1.74H346a4,4,0,0,1,1.71-1.49,5.83,5.83,0,0,1,2.49-.51,4.77,4.77,0,0,1,3.61,1.29,5.18,5.18,0,0,1,1.23,3.72Z"/><path class="c" d="M70.29,499.72a8.17,8.17,0,0,0,2.34-.42v2.77a8.46,8.46,0,0,1-3.42.62A4.19,4.19,0,0,1,66,501.56a4.91,4.91,0,0,1-1-3.39v-6.58H63.16V490l2-1.25,1.07-2.88h2.38v2.91h3.82v2.79H68.66v6.58a1.47,1.47,0,0,0,.45,1.18A1.77,1.77,0,0,0,70.29,499.72Z"/><path class="c" d="M88,502.45H84.26v-8c0-2-.73-3-2.19-3a2.5,2.5,0,0,0-2.26,1.06,6.45,6.45,0,0,0-.7,3.45v6.42H75.39v-19h3.72v3.87c0,.3,0,1-.08,2.13l-.09,1.09h.2a4.32,4.32,0,0,1,4-2,4.81,4.81,0,0,1,3.65,1.3A5.14,5.14,0,0,1,88,493.55Z"/><path class="c" d="M98,502.69a7,7,0,0,1-5.15-1.82A6.87,6.87,0,0,1,91,495.72a7.57,7.57,0,0,1,1.71-5.3,6.13,6.13,0,0,1,4.75-1.88,6,6,0,0,1,4.5,1.65,6.22,6.22,0,0,1,1.61,4.55v1.81h-8.8A3.62,3.62,0,0,0,95.7,499a3.34,3.34,0,0,0,2.47.89,10.27,10.27,0,0,0,2.33-.26,11.13,11.13,0,0,0,2.29-.82v2.89a9,9,0,0,1-2.08.72A13.09,13.09,0,0,1,98,502.69Zm-.53-11.5a2.34,2.34,0,0,0-1.85.75,3.43,3.43,0,0,0-.77,2.13h5.22a3,3,0,0,0-.72-2.13A2.43,2.43,0,0,0,97.47,491.19Z"/><path class="c" d="M122.61,498.39a3.76,3.76,0,0,1-1.46,3.2,7.25,7.25,0,0,1-4.37,1.1,14.14,14.14,0,0,1-2.54-.2,9.94,9.94,0,0,1-2-.59v-3.08a12.56,12.56,0,0,0,2.34.82,9.41,9.41,0,0,0,2.29.33c1.35,0,2-.39,2-1.17a1,1,0,0,0-.27-.72,4.09,4.09,0,0,0-.92-.62c-.44-.23-1-.5-1.76-.81a11.58,11.58,0,0,1-2.32-1.22,3.49,3.49,0,0,1-1.07-1.29,4.3,4.3,0,0,1-.34-1.79,3.23,3.23,0,0,1,1.41-2.81,6.83,6.83,0,0,1,4-1,11.31,11.31,0,0,1,4.8,1.08l-1.12,2.68q-1-.44-1.92-.72a5.91,5.91,0,0,0-1.82-.28c-1.1,0-1.65.3-1.65.89a1,1,0,0,0,.53.87,14.94,14.94,0,0,0,2.33,1.09,10.69,10.69,0,0,1,2.34,1.2,3.53,3.53,0,0,1,1.1,1.3A3.92,3.92,0,0,1,122.61,498.39Z"/><path class="c" d="M131.26,499.72a8.17,8.17,0,0,0,2.34-.42v2.77a8.38,8.38,0,0,1-3.41.62,4.21,4.21,0,0,1-3.26-1.13,4.91,4.91,0,0,1-1-3.39v-6.58h-1.78V490l2.05-1.25,1.08-2.88h2.38v2.91h3.82v2.79h-3.82v6.58a1.5,1.5,0,0,0,.44,1.18A1.77,1.77,0,0,0,131.26,499.72Z"/><path class="c" d="M145,502.45l-.72-1.86h-.1a5.39,5.39,0,0,1-1.93,1.64,6.21,6.21,0,0,1-2.6.46,4.17,4.17,0,0,1-3.09-1.12,4.34,4.34,0,0,1-1.13-3.2,3.59,3.59,0,0,1,1.52-3.2,8.83,8.83,0,0,1,4.58-1.15l2.37-.07v-.6a1.85,1.85,0,0,0-2.12-2.07,9.72,9.72,0,0,0-3.85,1l-1.23-2.52a11.1,11.1,0,0,1,5.22-1.23,6.57,6.57,0,0,1,4.22,1.19,4.44,4.44,0,0,1,1.46,3.64v9.1Zm-1.1-6.33-1.44.05a4.59,4.59,0,0,0-2.42.59,1.83,1.83,0,0,0-.79,1.63c0,1.05.6,1.58,1.81,1.58a2.86,2.86,0,0,0,2.07-.75,2.61,2.61,0,0,0,.77-2Z"/><path class="c" d="M157.21,499.72a8.23,8.23,0,0,0,2.35-.42v2.77a8.46,8.46,0,0,1-3.42.62,4.17,4.17,0,0,1-3.25-1.13,4.91,4.91,0,0,1-1-3.39v-6.58h-1.79V490l2-1.25,1.08-2.88h2.38v2.91h3.82v2.79h-3.82v6.58a1.5,1.5,0,0,0,.44,1.18A1.77,1.77,0,0,0,157.21,499.72Z"/><path class="c" d="M168.49,502.69a7.05,7.05,0,0,1-5.15-1.82,6.87,6.87,0,0,1-1.85-5.15,7.57,7.57,0,0,1,1.71-5.3,6.1,6.1,0,0,1,4.74-1.88,6,6,0,0,1,4.51,1.65,6.26,6.26,0,0,1,1.61,4.55v1.81h-8.8a3.57,3.57,0,0,0,.94,2.48,3.3,3.3,0,0,0,2.46.89,10.27,10.27,0,0,0,2.33-.26,11.2,11.2,0,0,0,2.3-.82v2.89a9.05,9.05,0,0,1-2.09.72A13,13,0,0,1,168.49,502.69Zm-.52-11.5a2.38,2.38,0,0,0-1.86.75,3.49,3.49,0,0,0-.77,2.13h5.23a3.14,3.14,0,0,0-.72-2.13A2.45,2.45,0,0,0,168,491.19Z"/><path class="c" d="M192.25,502.45l-.72-1.86h-.1a5.42,5.42,0,0,1-1.94,1.64,6.13,6.13,0,0,1-2.59.46,4.17,4.17,0,0,1-3.09-1.12,4.3,4.3,0,0,1-1.13-3.2,3.57,3.57,0,0,1,1.52-3.2,8.83,8.83,0,0,1,4.58-1.15l2.37-.07v-.6a1.86,1.86,0,0,0-2.13-2.07,9.64,9.64,0,0,0-3.84,1L184,489.75a11.1,11.1,0,0,1,5.22-1.23,6.54,6.54,0,0,1,4.21,1.19,4.42,4.42,0,0,1,1.47,3.64v9.1Zm-1.1-6.33-1.44.05a4.59,4.59,0,0,0-2.42.59,1.83,1.83,0,0,0-.79,1.63c0,1.05.6,1.58,1.8,1.58a2.83,2.83,0,0,0,2.07-.75,2.58,2.58,0,0,0,.78-2Z"/><path class="c" d="M206.18,502.69a4.52,4.52,0,0,1-3.78-1.75h-.19c.13,1.14.19,1.8.19,2v5.53h-3.72V488.8h3l.52,1.77h.17a4.31,4.31,0,0,1,3.87-2,4.45,4.45,0,0,1,3.79,1.87,8.65,8.65,0,0,1,1.36,5.19,10.16,10.16,0,0,1-.64,3.79,5.25,5.25,0,0,1-1.82,2.46A4.69,4.69,0,0,1,206.18,502.69Zm-1.1-11.17a2.36,2.36,0,0,0-2,.85,4.94,4.94,0,0,0-.66,2.8v.4a5.68,5.68,0,0,0,.66,3.15,2.31,2.31,0,0,0,2.07.95c1.66,0,2.5-1.37,2.5-4.12a5.9,5.9,0,0,0-.62-3A2.1,2.1,0,0,0,205.08,491.52Z"/><path class="c" d="M222,502.69a4.52,4.52,0,0,1-3.78-1.75H218c.13,1.14.19,1.8.19,2v5.53H214.5V488.8h3l.52,1.77h.17a4.31,4.31,0,0,1,3.87-2,4.44,4.44,0,0,1,3.79,1.87,8.65,8.65,0,0,1,1.36,5.19,10.16,10.16,0,0,1-.64,3.79,5.25,5.25,0,0,1-1.82,2.46A4.69,4.69,0,0,1,222,502.69Zm-1.1-11.17a2.36,2.36,0,0,0-2,.85,4.94,4.94,0,0,0-.66,2.8v.4a5.68,5.68,0,0,0,.66,3.15,2.31,2.31,0,0,0,2.07.95c1.66,0,2.5-1.37,2.5-4.12a5.9,5.9,0,0,0-.62-3A2.1,2.1,0,0,0,220.9,491.52Z"/><path class="c" d="M239,502.45l-.72-1.86h-.1a5.42,5.42,0,0,1-1.94,1.64,6.13,6.13,0,0,1-2.59.46,4.17,4.17,0,0,1-3.09-1.12,4.3,4.3,0,0,1-1.13-3.2,3.57,3.57,0,0,1,1.52-3.2,8.83,8.83,0,0,1,4.58-1.15l2.37-.07v-.6a1.86,1.86,0,0,0-2.13-2.07,9.64,9.64,0,0,0-3.84,1l-1.23-2.52a11.1,11.1,0,0,1,5.22-1.23,6.54,6.54,0,0,1,4.21,1.19,4.42,4.42,0,0,1,1.47,3.64v9.1Zm-1.1-6.33-1.44.05a4.59,4.59,0,0,0-2.42.59,1.83,1.83,0,0,0-.79,1.63c0,1.05.6,1.58,1.8,1.58a2.83,2.83,0,0,0,2.07-.75,2.58,2.58,0,0,0,.78-2Z"/><path class="c" d="M253,488.54a6.16,6.16,0,0,1,1.25.11l-.28,3.49a4.26,4.26,0,0,0-1.09-.12,4,4,0,0,0-2.78.92,3.28,3.28,0,0,0-1,2.56v6.95h-3.72V488.8h2.82l.55,2.29H249a5.27,5.27,0,0,1,1.72-1.85A4.28,4.28,0,0,1,253,488.54Z"/><path class="c" d="M265.44,502.45l-.72-1.86h-.1a5.39,5.39,0,0,1-1.93,1.64,6.21,6.21,0,0,1-2.6.46,4.17,4.17,0,0,1-3.09-1.12,4.34,4.34,0,0,1-1.13-3.2,3.59,3.59,0,0,1,1.52-3.2A8.83,8.83,0,0,1,262,494l2.37-.07v-.6a1.85,1.85,0,0,0-2.12-2.07,9.68,9.68,0,0,0-3.85,1l-1.23-2.52a11.1,11.1,0,0,1,5.22-1.23,6.59,6.59,0,0,1,4.22,1.19,4.44,4.44,0,0,1,1.46,3.64v9.1Zm-1.1-6.33-1.44.05a4.59,4.59,0,0,0-2.42.59,1.83,1.83,0,0,0-.79,1.63c0,1.05.6,1.58,1.81,1.58a2.86,2.86,0,0,0,2.07-.75,2.61,2.61,0,0,0,.77-2Z"/><path class="c" d="M277.62,499.72a8.29,8.29,0,0,0,2.35-.42v2.77a8.46,8.46,0,0,1-3.42.62,4.21,4.21,0,0,1-3.26-1.13,5,5,0,0,1-1-3.39v-6.58h-1.79V490l2.05-1.25,1.08-2.88H276v2.91h3.82v2.79H276v6.58a1.5,1.5,0,0,0,.44,1.18A1.77,1.77,0,0,0,277.62,499.72Z"/><path class="c" d="M292.39,502.45l-.5-1.75h-.19a4,4,0,0,1-1.7,1.47,5.73,5.73,0,0,1-2.5.52,4.77,4.77,0,0,1-3.63-1.29,5.19,5.19,0,0,1-1.22-3.7v-8.9h3.73v8a3.87,3.87,0,0,0,.52,2.22,1.91,1.91,0,0,0,1.67.73,2.5,2.5,0,0,0,2.26-1,6.51,6.51,0,0,0,.7-3.46V488.8h3.72v13.65Z"/><path class="c" d="M308.68,498.39a3.76,3.76,0,0,1-1.46,3.2,7.23,7.23,0,0,1-4.37,1.1,13.94,13.94,0,0,1-2.53-.2,10,10,0,0,1-2-.59v-3.08a12.56,12.56,0,0,0,2.34.82A9.41,9.41,0,0,0,303,500c1.35,0,2-.39,2-1.17a1,1,0,0,0-.27-.72,3.86,3.86,0,0,0-.92-.62c-.44-.23-1-.5-1.76-.81a11.17,11.17,0,0,1-2.31-1.22,3.43,3.43,0,0,1-1.08-1.29,4.3,4.3,0,0,1-.33-1.79,3.21,3.21,0,0,1,1.41-2.81,6.78,6.78,0,0,1,4-1,11.27,11.27,0,0,1,4.8,1.08l-1.12,2.68q-1-.44-1.92-.72a5.91,5.91,0,0,0-1.82-.28c-1.1,0-1.65.3-1.65.89a1,1,0,0,0,.53.87,14.94,14.94,0,0,0,2.33,1.09,10.69,10.69,0,0,1,2.34,1.2,3.53,3.53,0,0,1,1.1,1.3A3.92,3.92,0,0,1,308.68,498.39Z"/><path class="c" d="M311.48,501.15a1.82,1.82,0,0,1,.38-1.24,1.33,1.33,0,0,1,1.06-.42,1.45,1.45,0,0,1,1.11.42,1.78,1.78,0,0,1,.4,1.24,1.7,1.7,0,0,1-.41,1.22,1.42,1.42,0,0,1-1.1.43,1.49,1.49,0,0,1-1-.38A1.7,1.7,0,0,1,311.48,501.15Z"/><path class="c" d="M73.46,54.87q0,11.63-6.39,17.9t-18,6.29h-15V32.65H50.13q11.17,0,17.25,5.72T73.46,54.87Zm-13,.45q0-6.39-2.52-9.46c-1.69-2-4.24-3.08-7.67-3.08H46.61v26H49.4q5.72,0,8.38-3.31C59.56,63.25,60.45,59.86,60.45,55.32Z"/><path class="c" d="M125.2,55.79q0,11.71-5.75,17.81t-16.82,6.09q-10.92,0-16.74-6.13T80.06,55.73q0-11.58,5.8-17.7t16.83-6.11q11.09,0,16.79,6.07T125.2,55.79Zm-31.93,0q0,13.46,9.36,13.46c3.17,0,5.53-1.09,7.06-3.27S112,60.4,112,55.79s-.78-8-2.33-10.27a8,8,0,0,0-7-3.31Q93.27,42.21,93.27,55.79Z"/><path class="c" d="M177.75,79.06H161.31L144.37,46.37h-.29q.6,7.71.6,11.77V79.06H133.57V32.65H150L166.84,64.9H167c-.3-4.68-.45-8.43-.45-11.27v-21h11.17Z"/><path class="c" d="M197.91,32.72l.47.7a120.61,120.61,0,0,1-5.61,17.8h-8.83q2.16-10.06,3.11-18.5Z"/><path class="c" d="M224.5,79.06H212V42.91H200.64V32.65H235.8V42.91H224.5Z"/><path class="c" d="M259.32,32.65h16.19q9.45,0,14,2.81t4.59,8.75a11.07,11.07,0,0,1-2,6.66,9,9,0,0,1-5.27,3.56v.31a10.86,10.86,0,0,1,6.25,3.81,11.52,11.52,0,0,1,1.94,6.92,11.84,11.84,0,0,1-4.75,10q-4.74,3.63-12.93,3.64H259.32Zm12.54,17.81h3.77a6.86,6.86,0,0,0,4.18-1.11,3.87,3.87,0,0,0,1.47-3.3c0-2.6-2-3.91-5.9-3.91h-3.52Zm0,9.17v9.75h4.41q5.87,0,5.87-5a4.24,4.24,0,0,0-1.57-3.55A7.22,7.22,0,0,0,276,59.63Z"/><path class="c" d="M342.57,32.65V60.58q0,9.12-5.16,14.11t-14.87,5q-9.48,0-14.58-4.86t-5.09-14V32.65h12.6V59.89q0,4.92,1.84,7.14a6.62,6.62,0,0,0,5.42,2.22q3.84,0,5.57-2.21c1.16-1.47,1.73-3.87,1.73-7.22V32.65Z"/><path class="c" d="M368.88,49.86l8-17.21h13.58L375.2,60.93V79.06H362.57V61.31L347.3,32.65H361Z"/></svg>