<svg xmlns="http://www.w3.org/2000/svg" viewBox="0 0 419.53 595.28"><defs><style>.a{fill:#fff;}.b{fill:#9d9d9c;}.c{fill:#ec681c;}.d{fill:#4d4d4d;}.e{fill:#1d1d1b;}.f{fill:none;stroke:#ec681c;stroke-miterlimit:10;stroke-width:6px;}</style></defs><title>neacetumonero</title><rect class="a" x="0.5" y="0.5" width="418.53" height="594.28"/><path class="b" d="M418.53,1V594.28H1V1H418.53m1-1H0V595.28H419.53V0Z"/><path class="c" d="M209.76,117.58a74.9,74.9,0,0,0-71,98.48h22.38v-63l48.64,48.65,48.65-48.65v63h22.38a74.9,74.9,0,0,0-71-98.48"/><path class="d" d="M177.35,191.69v39.62H145.81a74.85,74.85,0,0,0,127.9,0H242.18V191.69l-32.42,32.42Z"/><path class="c" d="M379.6,368.59V525.9H39.93V368.59H379.6m6-6H33.93V531.9H385.6V362.59Z"/><path class="e" d="M119.85,569.7l-2.06-6.6c-.13-.4-.37-1.32-.73-2.75H117c-.27,1.2-.51,2.12-.72,2.77l-2.12,6.58h-2l-3.06-11.24h1.78q1.1,4.23,1.66,6.45a27,27,0,0,1,.65,3h.08c.07-.39.2-.89.36-1.51s.32-1.11.44-1.47l2.06-6.45H118l2,6.45a22.45,22.45,0,0,1,.78,3h.08a8.91,8.91,0,0,1,.22-1.14q.18-.76,2.14-8.27H125l-3.11,11.24Z"/><path class="e" d="M136.19,569.7l-2.06-6.6c-.13-.4-.38-1.32-.73-2.75h-.08c-.28,1.2-.52,2.12-.72,2.77l-2.12,6.58h-2l-3.07-11.24h1.79l1.65,6.45a24.72,24.72,0,0,1,.65,3h.08c.08-.39.2-.89.37-1.51s.31-1.11.43-1.47l2.07-6.45h1.84l2,6.45a22.45,22.45,0,0,1,.78,3h.08a11.14,11.14,0,0,1,.22-1.14q.18-.76,2.14-8.27h1.76l-3.1,11.24Z"/><path class="e" d="M152.52,569.7l-2.06-6.6c-.13-.4-.37-1.32-.73-2.75h-.08c-.27,1.2-.51,2.12-.72,2.77l-2.12,6.58h-2l-3.06-11.24h1.78c.72,2.82,1.28,5,1.66,6.45a27,27,0,0,1,.65,3H146c.07-.39.2-.89.36-1.51s.32-1.11.44-1.47l2.06-6.45h1.85l2,6.45a20.76,20.76,0,0,1,.77,3h.09a8.91,8.91,0,0,1,.22-1.14q.18-.76,2.13-8.27h1.77l-3.11,11.24Z"/><path class="e" d="M159.43,568.61a1.5,1.5,0,0,1,.32-1,1.1,1.1,0,0,1,.89-.36,1.2,1.2,0,0,1,.93.36,1.77,1.77,0,0,1,0,2.06,1.23,1.23,0,0,1-.93.36,1.2,1.2,0,0,1-.86-.32A1.41,1.41,0,0,1,159.43,568.61Z"/><path class="e" d="M174.46,558.46v1.07l-2.08.25a3.56,3.56,0,0,1,.74,2.25,3.29,3.29,0,0,1-1.13,2.63,4.51,4.51,0,0,1-3.09,1,4.81,4.81,0,0,1-1-.08,1.69,1.69,0,0,0-1.08,1.45.72.72,0,0,0,.38.68,2.7,2.7,0,0,0,1.3.22h2a4.47,4.47,0,0,1,2.8.77,2.68,2.68,0,0,1,1,2.24,3.18,3.18,0,0,1-1.5,2.84,8,8,0,0,1-4.36,1,5.93,5.93,0,0,1-3.4-.82,2.65,2.65,0,0,1-1.2-2.32,2.59,2.59,0,0,1,.66-1.77,3.36,3.36,0,0,1,1.84-1,1.87,1.87,0,0,1-.72-.6,1.63,1.63,0,0,1-.29-1,1.79,1.79,0,0,1,.33-1.07,3.32,3.32,0,0,1,1-.89,3.09,3.09,0,0,1-1.42-1.22,4,4,0,0,1,.56-4.82,4.52,4.52,0,0,1,3.14-1,5.57,5.57,0,0,1,1.59.21Zm-9,13.12a1.54,1.54,0,0,0,.77,1.39,4.3,4.3,0,0,0,2.21.47,6.22,6.22,0,0,0,3.17-.64,2,2,0,0,0,1-1.74,1.4,1.4,0,0,0-.56-1.27,4.51,4.51,0,0,0-2.13-.35h-2a2.67,2.67,0,0,0-1.8.55A2,2,0,0,0,165.5,571.58Zm.93-9.52a2.29,2.29,0,0,0,.66,1.78,2.7,2.7,0,0,0,1.86.61,2.17,2.17,0,0,0,2.49-2.42,2.24,2.24,0,0,0-2.52-2.54,2.51,2.51,0,0,0-1.85.65A2.6,2.6,0,0,0,166.43,562.06Z"/><path class="e" d="M181.52,569.9a5.17,5.17,0,0,1-3.93-1.52,5.86,5.86,0,0,1-1.44-4.21,6.54,6.54,0,0,1,1.33-4.32,4.48,4.48,0,0,1,3.6-1.6,4.22,4.22,0,0,1,3.34,1.39,5.34,5.34,0,0,1,1.23,3.67v1.07h-7.74a4.45,4.45,0,0,0,1,3,3.46,3.46,0,0,0,2.67,1,9,9,0,0,0,3.59-.76v1.52a8.72,8.72,0,0,1-1.71.56A9.7,9.7,0,0,1,181.52,569.9Zm-.46-10.22a2.78,2.78,0,0,0-2.16.88,4.07,4.07,0,0,0-1,2.44h5.88a3.75,3.75,0,0,0-.72-2.47A2.52,2.52,0,0,0,181.06,559.68Z"/><path class="e" d="M192.18,568.5a6.4,6.4,0,0,0,.88-.07,6,6,0,0,0,.66-.14v1.3a3,3,0,0,1-.81.22,6,6,0,0,1-1,.09c-2.18,0-3.26-1.14-3.26-3.44v-6.68h-1.61V559l1.61-.71.71-2.4h1v2.61h3.26v1.32h-3.26v6.61a2.28,2.28,0,0,0,.48,1.56A1.68,1.68,0,0,0,192.18,568.5Z"/><path class="e" d="M210.29,569.7v-7.32a3.05,3.05,0,0,0-.57-2,2.23,2.23,0,0,0-1.79-.67,2.85,2.85,0,0,0-2.34.91,4.33,4.33,0,0,0-.76,2.81v6.28h-1.71v-7.32a3.05,3.05,0,0,0-.57-2,2.22,2.22,0,0,0-1.79-.67,2.79,2.79,0,0,0-2.35,1,5.21,5.21,0,0,0-.74,3.14v5.9H196V558.46h1.38l.28,1.54h.08a3.32,3.32,0,0,1,1.36-1.29,4.23,4.23,0,0,1,2-.46c1.76,0,2.91.64,3.45,1.91h.08a3.65,3.65,0,0,1,1.46-1.4,4.52,4.52,0,0,1,2.17-.51,3.8,3.8,0,0,1,2.85,1,4.34,4.34,0,0,1,1,3.13v7.34Z"/><path class="e" d="M225.2,564.07a6.21,6.21,0,0,1-1.38,4.29A4.89,4.89,0,0,1,220,569.9a5,5,0,0,1-2.67-.71,4.65,4.65,0,0,1-1.81-2,7.1,7.1,0,0,1-.63-3.09,6.15,6.15,0,0,1,1.37-4.28,4.84,4.84,0,0,1,3.81-1.54,4.77,4.77,0,0,1,3.75,1.57A6.16,6.16,0,0,1,225.2,564.07Zm-8.56,0a5.37,5.37,0,0,0,.86,3.28,3.43,3.43,0,0,0,5.07,0,5.28,5.28,0,0,0,.87-3.28,5.21,5.21,0,0,0-.87-3.26A3.05,3.05,0,0,0,220,559.7a3,3,0,0,0-2.52,1.09A5.31,5.31,0,0,0,216.64,564.07Z"/><path class="e" d="M235.88,569.7v-7.27a2.91,2.91,0,0,0-.63-2,2.52,2.52,0,0,0-2-.68,3.24,3.24,0,0,0-2.58.95,4.82,4.82,0,0,0-.82,3.15v5.9h-1.71V558.46h1.39l.28,1.54h.08a3.46,3.46,0,0,1,1.46-1.29,4.7,4.7,0,0,1,2.11-.46,4.27,4.27,0,0,1,3.05,1,4.14,4.14,0,0,1,1,3.13v7.34Z"/><path class="e" d="M245.82,569.9a5.17,5.17,0,0,1-3.93-1.52,5.86,5.86,0,0,1-1.44-4.21,6.49,6.49,0,0,1,1.34-4.32,4.46,4.46,0,0,1,3.59-1.6,4.22,4.22,0,0,1,3.34,1.39,5.34,5.34,0,0,1,1.23,3.67v1.07h-7.74a4.5,4.5,0,0,0,1,3,3.46,3.46,0,0,0,2.67,1,9,9,0,0,0,3.59-.76v1.52a8.72,8.72,0,0,1-1.71.56A9.7,9.7,0,0,1,245.82,569.9Zm-.46-10.22a2.78,2.78,0,0,0-2.16.88,4.14,4.14,0,0,0-.95,2.44h5.88a3.75,3.75,0,0,0-.72-2.47A2.52,2.52,0,0,0,245.36,559.68Z"/><path class="e" d="M258,558.25a6.19,6.19,0,0,1,1.35.13l-.24,1.57a6,6,0,0,0-1.23-.15,3,3,0,0,0-2.33,1.11,4,4,0,0,0-1,2.76v6h-1.7V558.46h1.4l.2,2.08h.08a4.88,4.88,0,0,1,1.5-1.69A3.39,3.39,0,0,1,258,558.25Z"/><path class="e" d="M271.13,564.07a6.17,6.17,0,0,1-1.39,4.29,4.85,4.85,0,0,1-3.82,1.54,5.08,5.08,0,0,1-2.68-.71,4.63,4.63,0,0,1-1.8-2,7,7,0,0,1-.64-3.09,6.15,6.15,0,0,1,1.38-4.28,5.37,5.37,0,0,1,7.56,0A6.16,6.16,0,0,1,271.13,564.07Zm-8.56,0a5.3,5.3,0,0,0,.86,3.28,3,3,0,0,0,2.53,1.12,3,3,0,0,0,2.54-1.12,5.28,5.28,0,0,0,.86-3.28,5.22,5.22,0,0,0-.86-3.26,3.05,3.05,0,0,0-2.56-1.11,3,3,0,0,0-2.52,1.09A5.31,5.31,0,0,0,262.57,564.07Z"/><path class="e" d="M273.87,568.61a1.5,1.5,0,0,1,.31-1,1.13,1.13,0,0,1,.9-.36,1.19,1.19,0,0,1,.92.36,1.42,1.42,0,0,1,.34,1,1.46,1.46,0,0,1-.34,1,1.21,1.21,0,0,1-.92.36,1.24,1.24,0,0,1-.87-.32A1.41,1.41,0,0,1,273.87,568.61Z"/><path class="e" d="M289.4,564.07a6.21,6.21,0,0,1-1.38,4.29,4.89,4.89,0,0,1-3.83,1.54,5,5,0,0,1-2.67-.71,4.65,4.65,0,0,1-1.81-2,7.1,7.1,0,0,1-.63-3.09,6.15,6.15,0,0,1,1.37-4.28,4.84,4.84,0,0,1,3.81-1.54,4.77,4.77,0,0,1,3.75,1.57A6.16,6.16,0,0,1,289.4,564.07Zm-8.56,0a5.37,5.37,0,0,0,.86,3.28,3.43,3.43,0,0,0,5.07,0,5.28,5.28,0,0,0,.87-3.28,5.21,5.21,0,0,0-.87-3.26,3.05,3.05,0,0,0-2.56-1.11,3,3,0,0,0-2.52,1.09A5.31,5.31,0,0,0,280.84,564.07Z"/><path class="e" d="M297.51,558.25a6,6,0,0,1,1.34.13l-.23,1.57a6,6,0,0,0-1.23-.15,3,3,0,0,0-2.33,1.11,4,4,0,0,0-1,2.76v6h-1.71V558.46h1.41l.19,2.08h.09a4.88,4.88,0,0,1,1.5-1.69A3.39,3.39,0,0,1,297.51,558.25Z"/><path class="e" d="M310.15,558.46v1.07l-2.08.25a3.56,3.56,0,0,1,.74,2.25,3.29,3.29,0,0,1-1.13,2.63,4.51,4.51,0,0,1-3.09,1,4.81,4.81,0,0,1-.95-.08,1.69,1.69,0,0,0-1.08,1.45.72.72,0,0,0,.38.68,2.7,2.7,0,0,0,1.3.22h2a4.47,4.47,0,0,1,2.8.77,2.68,2.68,0,0,1,1,2.24,3.18,3.18,0,0,1-1.5,2.84,8,8,0,0,1-4.36,1,5.93,5.93,0,0,1-3.4-.82,2.65,2.65,0,0,1-1.2-2.32,2.59,2.59,0,0,1,.66-1.77,3.36,3.36,0,0,1,1.84-1,1.87,1.87,0,0,1-.72-.6,1.63,1.63,0,0,1-.29-1,1.79,1.79,0,0,1,.33-1.07,3.32,3.32,0,0,1,1-.89,3.09,3.09,0,0,1-1.42-1.22,4,4,0,0,1,.56-4.82,4.52,4.52,0,0,1,3.14-1,5.57,5.57,0,0,1,1.59.21Zm-9,13.12A1.54,1.54,0,0,0,302,573a4.3,4.3,0,0,0,2.21.47,6.24,6.24,0,0,0,3.17-.64,2,2,0,0,0,1-1.74,1.4,1.4,0,0,0-.56-1.27,4.51,4.51,0,0,0-2.13-.35h-2a2.67,2.67,0,0,0-1.8.55A2,2,0,0,0,301.19,571.58Zm.93-9.52a2.29,2.29,0,0,0,.66,1.78,2.69,2.69,0,0,0,1.86.61,2.17,2.17,0,0,0,2.49-2.42,2.24,2.24,0,0,0-2.52-2.54,2.51,2.51,0,0,0-1.85.65A2.6,2.6,0,0,0,302.12,562.06Z"/><line class="f" x1="322.41" y1="563.98" x2="384.47" y2="563.98"/><line class="f" x1="33.93" y1="563.98" x2="95.99" y2="563.98"/><path class="d" d="M348.74,326.8A14.45,14.45,0,0,1,338,331.37a15.28,15.28,0,0,1-9.92-3.53,15,15,0,0,1-5.56-12.27,15.68,15.68,0,0,1,4.42-11.47,15.27,15.27,0,0,1,21.8.11,16.49,16.49,0,0,1,0,22.59M355,298.05a23.22,23.22,0,0,0-17.06-7.18,24.46,24.46,0,0,0-21.13,12.21,25,25,0,0,0,3.72,29.62,24.4,24.4,0,0,0,34.57.2,23.63,23.63,0,0,0,7-17.33A24,24,0,0,0,355,298.05M296.52,308.9c-1.13.79-1.66,1.17-4.64,1.17H280.13V300h11.38a7.82,7.82,0,0,1,3.62.52,4.57,4.57,0,0,1,2.23,1.7,4.68,4.68,0,0,1,.84,2.79,4.36,4.36,0,0,1-1.68,3.86m1.41,9.25a14.24,14.24,0,0,0,7-4.92,13.6,13.6,0,0,0,2.31-8.1,14.67,14.67,0,0,0-2.1-8,11.86,11.86,0,0,0-5.55-4.82q-3.45-1.45-11.6-1.46h-17.2V340h9.34V319.18h8.15L299.34,340h10.21l-11.62-21.82Zm-69-27.28h31.83V300H238.21v10h22.54v9H238.21v11.73h22.54V340H228.92Zm-49.31,0h8.94l21.06,32.3v-32.3H219V340h-9l-21-32.2V340h-9.34Zm-20.7,35.93a14.47,14.47,0,0,1-10.78,4.57,15.28,15.28,0,0,1-9.92-3.53,15,15,0,0,1-5.56-12.27,15.69,15.69,0,0,1,4.43-11.47,15.27,15.27,0,0,1,21.8.11,16.49,16.49,0,0,1,0,22.59m6.22-28.75a23.23,23.23,0,0,0-17.06-7.18,24.46,24.46,0,0,0-21.14,12.21,25,25,0,0,0,3.72,29.62,24.4,24.4,0,0,0,34.57.2,23.64,23.64,0,0,0,7.05-17.33,24,24,0,0,0-7.14-17.52m-94.21-7.18h9.15l11.34,34.24,11.52-34.24h9L120.21,340h-9l-5.27-31L95.48,340H87.24l-10.3-31-5.38,31H62.45Z"/><path class="e" d="M70.84,392.85a3.23,3.23,0,0,0-2.78,1.34,6.27,6.27,0,0,0-1,3.76c0,3.34,1.25,5,3.76,5a12,12,0,0,0,3.82-.79v2.66a10.47,10.47,0,0,1-4.12.77,6.28,6.28,0,0,1-5-2,8.39,8.39,0,0,1-1.74-5.7,9.3,9.3,0,0,1,.86-4.1,6.08,6.08,0,0,1,2.44-2.69,7.19,7.19,0,0,1,3.74-.94,10,10,0,0,1,4.39,1.06l-1,2.58a16.3,16.3,0,0,0-1.69-.7A5,5,0,0,0,70.84,392.85Zm2.22-3.64a10.77,10.77,0,0,1-2.4-1.8,12.32,12.32,0,0,1-2.34,1.8H66.23v-.27a17.65,17.65,0,0,0,2.63-3.09h3.66a11.24,11.24,0,0,0,1.1,1.45c.53.62,1,1.16,1.53,1.64v.27Z"/><path class="e" d="M77.47,391c0-1,.57-1.53,1.7-1.53s1.71.51,1.71,1.53a1.51,1.51,0,0,1-.43,1.13,1.79,1.79,0,0,1-1.28.41C78,392.52,77.47,392,77.47,391Zm3.26,14.43H77.61V393.94h3.12Z"/><path class="e" d="M90.35,396.29H87.64v9.12H84.52v-9.12H82.79v-1.51l1.73-.84v-.84a3.77,3.77,0,0,1,1-2.86,4.42,4.42,0,0,1,3.09-.9,8.05,8.05,0,0,1,2.88.48l-.8,2.3a5.79,5.79,0,0,0-1.74-.3,1.14,1.14,0,0,0-1,.39,1.64,1.64,0,0,0-.3,1v.72h2.71Z"/><path class="e" d="M98.54,393.73a5.16,5.16,0,0,1,1.06.09l-.24,2.93a3.5,3.5,0,0,0-.92-.1,3.32,3.32,0,0,0-2.33.77,2.77,2.77,0,0,0-.84,2.15v5.84H92.15V393.94h2.36l.47,1.93h.15a4.38,4.38,0,0,1,1.44-1.55A3.5,3.5,0,0,1,98.54,393.73Z"/><path class="e" d="M109,405.41l-.6-1.56h-.08a4.71,4.71,0,0,1-1.63,1.38,5.36,5.36,0,0,1-2.18.38,3.52,3.52,0,0,1-2.6-.94,3.65,3.65,0,0,1-1-2.69,3,3,0,0,1,1.28-2.69,7.34,7.34,0,0,1,3.85-1l2-.06v-.5a1.57,1.57,0,0,0-1.78-1.75,8.15,8.15,0,0,0-3.23.83l-1-2.11a9.32,9.32,0,0,1,4.39-1,5.47,5.47,0,0,1,3.54,1,3.72,3.72,0,0,1,1.23,3.06v7.64Zm-.92-5.32-1.21.05a3.8,3.8,0,0,0-2,.49,1.53,1.53,0,0,0-.67,1.37c0,.88.51,1.32,1.52,1.32a2.39,2.39,0,0,0,1.74-.62A2.21,2.21,0,0,0,108,401Z"/><path class="e" d="M117.09,405.41l-4.36-11.47H116l2.21,6.53a11.31,11.31,0,0,1,.46,2.35h.06a10.33,10.33,0,0,1,.47-2.35l2.2-6.53h3.27l-4.37,11.47Z"/><path class="e" d="M133.59,405.41l-.6-1.56h-.08a4.71,4.71,0,0,1-1.63,1.38,5.36,5.36,0,0,1-2.18.38,3.52,3.52,0,0,1-2.6-.94,3.65,3.65,0,0,1-1-2.69,3,3,0,0,1,1.28-2.69,7.34,7.34,0,0,1,3.85-1l2-.06v-.5a1.57,1.57,0,0,0-1.78-1.75,8.15,8.15,0,0,0-3.23.83l-1-2.11a9.32,9.32,0,0,1,4.39-1,5.47,5.47,0,0,1,3.54,1,3.72,3.72,0,0,1,1.23,3.06v7.64Zm-.92-5.32-1.21.05a3.8,3.8,0,0,0-2,.49,1.53,1.53,0,0,0-.67,1.37c0,.88.51,1.32,1.52,1.32a2.41,2.41,0,0,0,1.74-.62,2.21,2.21,0,0,0,.65-1.66Z"/><path class="e" d="M142.12,405.41H139v-16h3.12Z"/><path class="e" d="M153.53,405.41l-.42-1.47h-.17a3.38,3.38,0,0,1-1.42,1.24,4.91,4.91,0,0,1-2.11.43,4,4,0,0,1-3-1.08,4.37,4.37,0,0,1-1-3.11v-7.48h3.13v6.7a3.23,3.23,0,0,0,.44,1.86,1.62,1.62,0,0,0,1.41.62,2.1,2.1,0,0,0,1.89-.88,5.4,5.4,0,0,0,.59-2.9v-5.4h3.13v11.47Z"/><path class="e" d="M164,403.12a6.72,6.72,0,0,0,2-.36v2.33a7,7,0,0,1-2.87.52,3.52,3.52,0,0,1-2.73-.95,4.12,4.12,0,0,1-.86-2.84v-5.53h-1.49V395l1.72-1.05.9-2.42h2v2.44h3.21v2.35h-3.21v5.53a1.22,1.22,0,0,0,.38,1A1.49,1.49,0,0,0,164,403.12Z"/><path class="e" d="M178.74,399.65a6.13,6.13,0,0,1-1.48,4.38,5.35,5.35,0,0,1-4.11,1.58,5.76,5.76,0,0,1-2.91-.72,4.82,4.82,0,0,1-1.94-2.08,7,7,0,0,1-.68-3.16,6.1,6.1,0,0,1,1.47-4.36,5.38,5.38,0,0,1,4.12-1.56,5.83,5.83,0,0,1,2.92.72,4.7,4.7,0,0,1,1.93,2.06A6.89,6.89,0,0,1,178.74,399.65Zm-7.93,0a4.84,4.84,0,0,0,.56,2.58,2,2,0,0,0,1.82.87,2,2,0,0,0,1.8-.87,4.81,4.81,0,0,0,.55-2.58,4.74,4.74,0,0,0-.55-2.55,2,2,0,0,0-1.82-.85,2,2,0,0,0-1.8.85A4.68,4.68,0,0,0,170.81,399.65Z"/><path class="e" d="M180.4,410.45a7.3,7.3,0,0,1-2.06-.25v-2.47a5.6,5.6,0,0,0,1.47.2,1.42,1.42,0,0,0,1.15-.44,2,2,0,0,0,.36-1.3V393.94h3.13v12.71a3.68,3.68,0,0,1-1,2.81A4.24,4.24,0,0,1,180.4,410.45Zm.79-19.47c0-1,.57-1.53,1.7-1.53s1.71.51,1.71,1.53a1.51,1.51,0,0,1-.43,1.13,1.79,1.79,0,0,1-1.28.41C181.76,392.52,181.19,392,181.19,391Z"/><path class="e" d="M198.1,405.61a5.13,5.13,0,0,1-3.93-1.52,5.86,5.86,0,0,1-1.44-4.21,6.54,6.54,0,0,1,1.33-4.32,4.48,4.48,0,0,1,3.6-1.6,4.25,4.25,0,0,1,3.34,1.39,5.34,5.34,0,0,1,1.23,3.67v1.07h-7.74a4.45,4.45,0,0,0,1,3,3.46,3.46,0,0,0,2.67,1,9.14,9.14,0,0,0,3.59-.75v1.51a8.72,8.72,0,0,1-1.71.56A9.7,9.7,0,0,1,198.1,405.61Zm-.46-10.22a2.78,2.78,0,0,0-2.16.88,4.07,4.07,0,0,0-.95,2.44h5.88a3.77,3.77,0,0,0-.72-2.47A2.52,2.52,0,0,0,197.64,395.39Z"/><path class="e" d="M212.38,402.34a2.81,2.81,0,0,1-1.17,2.42,5.45,5.45,0,0,1-3.28.85,7,7,0,0,1-3.48-.71v-1.58a8.34,8.34,0,0,0,1.73.65,7.18,7.18,0,0,0,1.79.24,4.06,4.06,0,0,0,2.05-.43,1.46,1.46,0,0,0,.15-2.42,8.89,8.89,0,0,0-2.22-1.1,12.26,12.26,0,0,1-2.23-1,3,3,0,0,1-1-1,2.74,2.74,0,0,1,.79-3.49,5.23,5.23,0,0,1,3.07-.8,9,9,0,0,1,3.55.74l-.61,1.39a8.06,8.06,0,0,0-3.06-.7,3.47,3.47,0,0,0-1.83.38,1.16,1.16,0,0,0-.61,1,1.23,1.23,0,0,0,.23.77,2.25,2.25,0,0,0,.74.61,16.45,16.45,0,0,0,2,.83,7.35,7.35,0,0,1,2.7,1.46A2.61,2.61,0,0,1,212.38,402.34Z"/><path class="e" d="M218.78,404.21a6.13,6.13,0,0,0,.87-.07,4.48,4.48,0,0,0,.67-.14v1.3a2.87,2.87,0,0,1-.82.22,5.81,5.81,0,0,1-1,.09c-2.18,0-3.26-1.14-3.26-3.43v-6.69h-1.61v-.82l1.61-.71.71-2.4h1v2.61h3.26v1.32H217v6.61a2.28,2.28,0,0,0,.48,1.56A1.65,1.65,0,0,0,218.78,404.21Z"/><path class="e" d="M229.48,405.41l-.34-1.6h-.08a4.75,4.75,0,0,1-1.68,1.43,5.11,5.11,0,0,1-2.09.37,3.78,3.78,0,0,1-2.62-.86,3.14,3.14,0,0,1-.95-2.45q0-3.41,5.45-3.57l1.91-.06V398a2.84,2.84,0,0,0-.57-2,2.35,2.35,0,0,0-1.82-.63,7.46,7.46,0,0,0-3.18.86L223,395a8.2,8.2,0,0,1,3.8-1,4.27,4.27,0,0,1,3,.9,3.69,3.69,0,0,1,1,2.86v7.67Zm-3.85-1.2a3.44,3.44,0,0,0,2.5-.88,3.24,3.24,0,0,0,.91-2.44v-1l-1.71.07a6.2,6.2,0,0,0-2.92.63,1.9,1.9,0,0,0-.9,1.74,1.74,1.74,0,0,0,.56,1.4A2.26,2.26,0,0,0,225.63,404.21Z"/><path class="e" d="M241.49,402.34a2.81,2.81,0,0,1-1.17,2.42,5.47,5.47,0,0,1-3.28.85,7,7,0,0,1-3.48-.71v-1.58a8.34,8.34,0,0,0,1.73.65,7.18,7.18,0,0,0,1.79.24,4.06,4.06,0,0,0,2-.43,1.46,1.46,0,0,0,.15-2.42,8.89,8.89,0,0,0-2.22-1.1,12.26,12.26,0,0,1-2.23-1,3,3,0,0,1-1-1,2.74,2.74,0,0,1,.79-3.49,5.23,5.23,0,0,1,3.07-.8,9,9,0,0,1,3.55.74l-.61,1.39a8,8,0,0,0-3.06-.7,3.47,3.47,0,0,0-1.83.38,1.16,1.16,0,0,0-.61,1,1.23,1.23,0,0,0,.23.77,2.25,2.25,0,0,0,.74.61,16.45,16.45,0,0,0,2,.83,7.35,7.35,0,0,1,2.7,1.46A2.61,2.61,0,0,1,241.49,402.34Z"/><path class="e" d="M72,435.9H72a4,4,0,0,1-3.53,1.71A4.16,4.16,0,0,1,65,436.1a6.59,6.59,0,0,1-1.23-4.28A6.77,6.77,0,0,1,65,427.5,4.17,4.17,0,0,1,68.42,426a4.12,4.12,0,0,1,3.51,1.66h.13l-.07-.81,0-.79v-4.57h1.7v16H72.26Zm-3.41.29a3.1,3.1,0,0,0,2.53-.95,4.82,4.82,0,0,0,.79-3.06v-.36a5.64,5.64,0,0,0-.8-3.41,3,3,0,0,0-2.54-1,2.62,2.62,0,0,0-2.29,1.16,5.8,5.8,0,0,0-.79,3.29,5.53,5.53,0,0,0,.79,3.25A2.67,2.67,0,0,0,68.63,436.19Z"/><path class="e" d="M84.17,437.41l-.34-1.6h-.08a4.75,4.75,0,0,1-1.68,1.43,5.11,5.11,0,0,1-2.09.37,3.79,3.79,0,0,1-2.62-.86,3.14,3.14,0,0,1-.94-2.45q0-3.41,5.44-3.57l1.91-.06V430a2.84,2.84,0,0,0-.57-2,2.35,2.35,0,0,0-1.82-.63,7.46,7.46,0,0,0-3.18.86l-.52-1.3a8.2,8.2,0,0,1,3.8-1,4.27,4.27,0,0,1,3,.9,3.69,3.69,0,0,1,1,2.86v7.67Zm-3.85-1.2a3.42,3.42,0,0,0,2.5-.88,3.2,3.2,0,0,0,.91-2.44v-1L82,432a6.25,6.25,0,0,0-2.93.63,1.9,1.9,0,0,0-.9,1.74,1.74,1.74,0,0,0,.56,1.4A2.26,2.26,0,0,0,80.32,436.21Z"/><path class="e" d="M103.26,437.41V430.1a3.06,3.06,0,0,0-.57-2,2.23,2.23,0,0,0-1.79-.67,2.88,2.88,0,0,0-2.35.91,4.39,4.39,0,0,0-.75,2.81v6.28H96.09V430.1a3.06,3.06,0,0,0-.57-2,2.22,2.22,0,0,0-1.79-.67,2.79,2.79,0,0,0-2.35,1,5.21,5.21,0,0,0-.74,3.14v5.9h-1.7V426.17h1.38l.28,1.54h.08A3.32,3.32,0,0,1,92,426.42a4.23,4.23,0,0,1,2-.46c1.76,0,2.91.64,3.45,1.91h.08A3.5,3.5,0,0,1,99,426.48a4.41,4.41,0,0,1,2.17-.52,3.8,3.8,0,0,1,2.85,1,4.34,4.34,0,0,1,.95,3.13v7.34Z"/><path class="e" d="M115.38,437.41l-.34-1.6H115a4.75,4.75,0,0,1-1.68,1.43,5.06,5.06,0,0,1-2.08.37,3.76,3.76,0,0,1-2.62-.86,3.14,3.14,0,0,1-1-2.45q0-3.41,5.44-3.57l1.91-.06V430a2.84,2.84,0,0,0-.57-2,2.33,2.33,0,0,0-1.82-.63,7.53,7.53,0,0,0-3.18.86l-.52-1.3a8.2,8.2,0,0,1,3.8-1,4.25,4.25,0,0,1,3,.9,3.69,3.69,0,0,1,1,2.86v7.67Zm-3.84-1.2a3.4,3.4,0,0,0,2.49-.88,3.2,3.2,0,0,0,.91-2.44v-1l-1.7.07a6.25,6.25,0,0,0-2.93.63,1.9,1.9,0,0,0-.9,1.74,1.74,1.74,0,0,0,.56,1.4A2.29,2.29,0,0,0,111.54,436.21Z"/><path class="e" d="M129.35,426.17v1.07l-2.08.25a3.64,3.64,0,0,1,.73,2.25,3.32,3.32,0,0,1-1.12,2.63,4.56,4.56,0,0,1-3.1,1,4.62,4.62,0,0,1-.94-.09,1.68,1.68,0,0,0-1.09,1.45.74.74,0,0,0,.38.68,2.73,2.73,0,0,0,1.3.22h2a4.45,4.45,0,0,1,2.8.77,2.66,2.66,0,0,1,1,2.24,3.19,3.19,0,0,1-1.49,2.84,8.06,8.06,0,0,1-4.37,1,6,6,0,0,1-3.4-.82,2.65,2.65,0,0,1-1.2-2.32,2.59,2.59,0,0,1,.66-1.77,3.35,3.35,0,0,1,1.85-1,1.83,1.83,0,0,1-.73-.6,1.62,1.62,0,0,1-.29-.95,1.82,1.82,0,0,1,.33-1.08,3.26,3.26,0,0,1,1-.89,3.06,3.06,0,0,1-1.43-1.22,4.09,4.09,0,0,1,.56-4.82,4.57,4.57,0,0,1,3.14-1,5.57,5.57,0,0,1,1.59.21Zm-9,13.12a1.54,1.54,0,0,0,.76,1.39,4.32,4.32,0,0,0,2.21.47,6.09,6.09,0,0,0,3.17-.64,2,2,0,0,0,1-1.74,1.37,1.37,0,0,0-.56-1.27,4.46,4.46,0,0,0-2.12-.35h-2a2.68,2.68,0,0,0-1.81.55A2,2,0,0,0,120.39,439.29Zm.15-14.84c.87-.93,1.48-1.62,1.82-2.06a7.41,7.41,0,0,0,.76-1.07h1.71a6.85,6.85,0,0,0,.78,1.11c.37.45,1,1.13,1.84,2v.23h-1.22a14,14,0,0,1-2.27-1.91,14.08,14.08,0,0,1-2.24,1.91h-1.18Zm.77,5.32a2.29,2.29,0,0,0,.66,1.78,2.66,2.66,0,0,0,1.86.61,2.17,2.17,0,0,0,2.49-2.42,2.24,2.24,0,0,0-2.52-2.54,2.51,2.51,0,0,0-1.85.65A2.6,2.6,0,0,0,121.31,429.77Z"/><path class="e" d="M136.4,437.61a5.13,5.13,0,0,1-3.93-1.52,5.86,5.86,0,0,1-1.44-4.21,6.49,6.49,0,0,1,1.34-4.32A4.46,4.46,0,0,1,136,426a4.25,4.25,0,0,1,3.34,1.39,5.34,5.34,0,0,1,1.23,3.67v1.07h-7.74a4.5,4.5,0,0,0,1,3,3.46,3.46,0,0,0,2.67,1,9.14,9.14,0,0,0,3.59-.75v1.51a8.72,8.72,0,0,1-1.71.56A9.7,9.7,0,0,1,136.4,437.61Zm-.46-10.22a2.78,2.78,0,0,0-2.16.88,4.14,4.14,0,0,0-.95,2.44h5.88a3.77,3.77,0,0,0-.72-2.47A2.52,2.52,0,0,0,135.94,427.39Z"/><path class="e" d="M157.76,437.41V430.1a3.06,3.06,0,0,0-.57-2,2.23,2.23,0,0,0-1.79-.67,2.88,2.88,0,0,0-2.35.91,4.39,4.39,0,0,0-.75,2.81v6.28h-1.71V430.1a3.06,3.06,0,0,0-.57-2,2.23,2.23,0,0,0-1.8-.67,2.79,2.79,0,0,0-2.34,1,5.21,5.21,0,0,0-.74,3.14v5.9h-1.7V426.17h1.38l.28,1.54h.08a3.32,3.32,0,0,1,1.36-1.29,4.23,4.23,0,0,1,2-.46c1.76,0,2.91.64,3.45,1.91H152a3.54,3.54,0,0,1,1.45-1.39,4.48,4.48,0,0,1,2.18-.52,3.8,3.8,0,0,1,2.85,1,4.34,4.34,0,0,1,1,3.13v7.34Z"/><path class="e" d="M169.88,437.41l-.34-1.6h-.08a4.75,4.75,0,0,1-1.68,1.43,5.06,5.06,0,0,1-2.08.37,3.76,3.76,0,0,1-2.62-.86,3.11,3.11,0,0,1-1-2.45q0-3.41,5.44-3.57l1.91-.06V430a2.84,2.84,0,0,0-.57-2,2.33,2.33,0,0,0-1.82-.63,7.53,7.53,0,0,0-3.18.86l-.52-1.3a8.2,8.2,0,0,1,3.8-1,4.25,4.25,0,0,1,3,.9,3.69,3.69,0,0,1,1,2.86v7.67Zm-3.84-1.2a3.4,3.4,0,0,0,2.49-.88,3.2,3.2,0,0,0,.91-2.44v-1l-1.7.07a6.25,6.25,0,0,0-2.93.63,1.9,1.9,0,0,0-.9,1.74,1.74,1.74,0,0,0,.56,1.4A2.29,2.29,0,0,0,166,436.21Z"/><path class="e" d="M173.29,442.45a4.12,4.12,0,0,1-1.58-.25v-1.39a4.83,4.83,0,0,0,1.39.21,1.47,1.47,0,0,0,1.17-.44,2,2,0,0,0,.38-1.33V426.17h1.7v13Q176.35,442.44,173.29,442.45Zm1.22-19.33a1.12,1.12,0,0,1,.28-.85,1,1,0,0,1,.72-.28,1,1,0,0,1,.71.28,1.37,1.37,0,0,1,0,1.71,1,1,0,0,1-.71.28,1,1,0,0,1-.72-.28A1.16,1.16,0,0,1,174.51,423.12Z"/><path class="e" d="M192.33,437.41l-.34-1.6h-.08a4.75,4.75,0,0,1-1.68,1.43,5.11,5.11,0,0,1-2.09.37,3.79,3.79,0,0,1-2.62-.86,3.14,3.14,0,0,1-1-2.45q0-3.41,5.45-3.57l1.91-.06V430a2.84,2.84,0,0,0-.57-2,2.35,2.35,0,0,0-1.82-.63,7.46,7.46,0,0,0-3.18.86l-.52-1.3a8.2,8.2,0,0,1,3.8-1,4.27,4.27,0,0,1,3,.9,3.69,3.69,0,0,1,1,2.86v7.67Zm-3.85-1.2a3.44,3.44,0,0,0,2.5-.88,3.24,3.24,0,0,0,.91-2.44v-1l-1.71.07a6.2,6.2,0,0,0-2.92.63,1.9,1.9,0,0,0-.9,1.74,1.71,1.71,0,0,0,.56,1.4A2.26,2.26,0,0,0,188.48,436.21Z"/><path class="e" d="M198.8,437.41h-1.71v-16h1.71Z"/><path class="e" d="M209.56,437.41h-1.7v-16h1.7Z"/><path class="e" d="M220.08,437.41l-.33-1.6h-.09a4.82,4.82,0,0,1-1.67,1.43,5.15,5.15,0,0,1-2.09.37,3.78,3.78,0,0,1-2.62-.86,3.14,3.14,0,0,1-.95-2.45q0-3.41,5.45-3.57l1.9-.06V430a2.89,2.89,0,0,0-.56-2,2.36,2.36,0,0,0-1.83-.63,7.45,7.45,0,0,0-3.17.86l-.53-1.3a8.11,8.11,0,0,1,1.82-.71,7.94,7.94,0,0,1,2-.26,4.27,4.27,0,0,1,3,.9,3.73,3.73,0,0,1,1,2.86v7.67Zm-3.84-1.2a3.44,3.44,0,0,0,2.5-.88,3.23,3.23,0,0,0,.9-2.44v-1l-1.7.07a6.28,6.28,0,0,0-2.93.63,1.91,1.91,0,0,0-.89,1.74,1.74,1.74,0,0,0,.55,1.4A2.31,2.31,0,0,0,216.24,436.21Z"/><path class="e" d="M235.54,426A4.19,4.19,0,0,1,239,427.5a8.12,8.12,0,0,1,0,8.58,4.18,4.18,0,0,1-3.43,1.53,4.88,4.88,0,0,1-2-.4A3.81,3.81,0,0,1,232,436h-.12l-.36,1.45h-1.22v-16H232v3.88c0,.87,0,1.64-.08,2.34H232A4,4,0,0,1,235.54,426Zm-.25,1.43a3,3,0,0,0-2.51,1,5.67,5.67,0,0,0-.77,3.37,5.6,5.6,0,0,0,.79,3.39,3,3,0,0,0,2.53,1,2.63,2.63,0,0,0,2.34-1.15,5.87,5.87,0,0,0,.77-3.28,5.63,5.63,0,0,0-.77-3.27A2.72,2.72,0,0,0,235.29,427.41Z"/><path class="e" d="M250.09,437.41l-.34-1.6h-.08a4.75,4.75,0,0,1-1.68,1.43,5.11,5.11,0,0,1-2.09.37,3.79,3.79,0,0,1-2.62-.86,3.14,3.14,0,0,1-.95-2.45q0-3.41,5.45-3.57l1.91-.06V430a2.84,2.84,0,0,0-.57-2,2.35,2.35,0,0,0-1.82-.63,7.46,7.46,0,0,0-3.18.86l-.52-1.3a8.2,8.2,0,0,1,3.8-1,4.27,4.27,0,0,1,3,.9,3.69,3.69,0,0,1,1,2.86v7.67Zm-3.85-1.2a3.44,3.44,0,0,0,2.5-.88,3.24,3.24,0,0,0,.91-2.44v-1l-1.71.07a6.2,6.2,0,0,0-2.92.63,1.9,1.9,0,0,0-.9,1.74,1.74,1.74,0,0,0,.56,1.4A2.26,2.26,0,0,0,246.24,436.21Z"/><path class="e" d="M262.55,437.41v-7.27a2.91,2.91,0,0,0-.63-2.05,2.52,2.52,0,0,0-2-.68,3.24,3.24,0,0,0-2.58.95,4.82,4.82,0,0,0-.82,3.15v5.9h-1.7V426.17h1.38l.28,1.54h.08a3.46,3.46,0,0,1,1.46-1.29,4.84,4.84,0,0,1,2.11-.46,4.27,4.27,0,0,1,3.05,1,4.14,4.14,0,0,1,1,3.13v7.34Z"/><path class="e" d="M269.43,431.65a21.17,21.17,0,0,1,1.34-1.64l3.63-3.84h2L271.87,431l4.87,6.45h-2.06l-4-5.32-1.28,1.11v4.21h-1.69v-16h1.69v8.46q0,.57-.09,1.74Z"/><path class="e" d="M286,434.34a2.81,2.81,0,0,1-1.17,2.42,5.49,5.49,0,0,1-3.28.85,7,7,0,0,1-3.49-.71v-1.58a8.22,8.22,0,0,0,1.74.65,7.12,7.12,0,0,0,1.79.24,4.09,4.09,0,0,0,2.05-.43,1.46,1.46,0,0,0,.15-2.42,8.89,8.89,0,0,0-2.22-1.1,11.94,11.94,0,0,1-2.23-1,3.11,3.11,0,0,1-1-1,2.63,2.63,0,0,1-.32-1.32,2.51,2.51,0,0,1,1.12-2.17,5.17,5.17,0,0,1,3.06-.8,9,9,0,0,1,3.55.74l-.6,1.39a8.06,8.06,0,0,0-3.07-.7,3.43,3.43,0,0,0-1.82.38,1.17,1.17,0,0,0-.62,1,1.3,1.3,0,0,0,.23.77,2.25,2.25,0,0,0,.74.61,17.23,17.23,0,0,0,2,.83,7.17,7.17,0,0,1,2.7,1.46A2.62,2.62,0,0,1,286,434.34Z"/><path class="e" d="M288.64,423.12a1.12,1.12,0,0,1,.29-.85,1,1,0,0,1,.72-.28,1,1,0,0,1,.7.28,1.37,1.37,0,0,1,0,1.71,1,1,0,0,1-.7.28,1,1,0,0,1-.72-.28A1.16,1.16,0,0,1,288.64,423.12Zm1.85,14.29h-1.7V426.17h1.7Z"/><path class="e" d="M301.35,434.34a2.81,2.81,0,0,1-1.17,2.42,5.49,5.49,0,0,1-3.28.85,7,7,0,0,1-3.49-.71v-1.58a8.22,8.22,0,0,0,1.74.65,7.12,7.12,0,0,0,1.79.24,4.09,4.09,0,0,0,2.05-.43,1.46,1.46,0,0,0,.15-2.42,8.89,8.89,0,0,0-2.22-1.1,11.94,11.94,0,0,1-2.23-1,3.11,3.11,0,0,1-1-1,2.63,2.63,0,0,1-.32-1.32,2.51,2.51,0,0,1,1.12-2.17,5.17,5.17,0,0,1,3.06-.8,9,9,0,0,1,3.55.74l-.61,1.39a8,8,0,0,0-3.06-.7,3.47,3.47,0,0,0-1.83.38,1.16,1.16,0,0,0-.61,1,1.3,1.3,0,0,0,.23.77,2.25,2.25,0,0,0,.74.61,16.45,16.45,0,0,0,2,.83,7.26,7.26,0,0,1,2.7,1.46A2.62,2.62,0,0,1,301.35,434.34Z"/><path class="e" d="M307.75,436.21a6.13,6.13,0,0,0,.87-.07,4.31,4.31,0,0,0,.66-.14v1.3a2.7,2.7,0,0,1-.81.22,5.93,5.93,0,0,1-1,.09q-3.25,0-3.26-3.43v-6.69h-1.61v-.82l1.61-.71.72-2.4h1v2.61h3.26v1.32h-3.26v6.61a2.28,2.28,0,0,0,.48,1.56A1.66,1.66,0,0,0,307.75,436.21Z"/><path class="e" d="M316.28,437.61a5.15,5.15,0,0,1-3.94-1.52,5.86,5.86,0,0,1-1.44-4.21,6.55,6.55,0,0,1,1.34-4.32,4.47,4.47,0,0,1,3.6-1.6,4.26,4.26,0,0,1,3.34,1.39,5.34,5.34,0,0,1,1.23,3.67v1.07h-7.74a4.45,4.45,0,0,0,1,3,3.46,3.46,0,0,0,2.67,1,9.17,9.17,0,0,0,3.59-.75v1.51a8.72,8.72,0,0,1-1.71.56A9.78,9.78,0,0,1,316.28,437.61Zm-.46-10.22a2.75,2.75,0,0,0-2.16.88,4,4,0,0,0-1,2.44h5.87a3.83,3.83,0,0,0-.71-2.47A2.54,2.54,0,0,0,315.82,427.39Z"/><path class="e" d="M337.63,437.41V430.1a3.06,3.06,0,0,0-.57-2,2.21,2.21,0,0,0-1.78-.67,2.87,2.87,0,0,0-2.35.91,4.33,4.33,0,0,0-.76,2.81v6.28h-1.7V430.1a3,3,0,0,0-.58-2,2.22,2.22,0,0,0-1.79-.67,2.76,2.76,0,0,0-2.34,1,5.14,5.14,0,0,0-.75,3.14v5.9h-1.7V426.17h1.39l.27,1.54h.08a3.45,3.45,0,0,1,1.36-1.29,4.27,4.27,0,0,1,2-.46c1.75,0,2.9.64,3.44,1.91h.08a3.56,3.56,0,0,1,1.46-1.39,4.44,4.44,0,0,1,2.17-.52,3.83,3.83,0,0,1,2.86,1,4.39,4.39,0,0,1,.95,3.13v7.34Z"/><path class="e" d="M352.54,431.78a6.21,6.21,0,0,1-1.38,4.29,4.87,4.87,0,0,1-3.83,1.54,5,5,0,0,1-2.67-.71,4.66,4.66,0,0,1-1.81-2,7.1,7.1,0,0,1-.63-3.09,6.22,6.22,0,0,1,1.37-4.28,4.85,4.85,0,0,1,3.82-1.54,4.75,4.75,0,0,1,3.74,1.57A6.16,6.16,0,0,1,352.54,431.78Zm-8.56,0a5.37,5.37,0,0,0,.86,3.28,3.41,3.41,0,0,0,5.07,0,5.28,5.28,0,0,0,.87-3.28,5.21,5.21,0,0,0-.87-3.26,3,3,0,0,0-2.55-1.11,3,3,0,0,0-2.53,1.1A5.32,5.32,0,0,0,344,431.78Z"/><path class="e" d="M66.07,463.65A21.17,21.17,0,0,1,67.41,462L71,458.17h2L68.51,463l4.87,6.45H71.32l-4-5.32-1.28,1.11v4.21H64.39v-16h1.68v8.46c0,.38,0,1-.08,1.74Z"/><path class="e" d="M82.32,469.41l-.34-1.6H81.9a4.82,4.82,0,0,1-1.67,1.43,5.15,5.15,0,0,1-2.09.37,3.76,3.76,0,0,1-2.62-.86,3.14,3.14,0,0,1-1-2.45q0-3.41,5.45-3.57l1.9-.06V462a2.84,2.84,0,0,0-.57-2,2.33,2.33,0,0,0-1.82-.63,7.53,7.53,0,0,0-3.18.86l-.52-1.3a8.11,8.11,0,0,1,1.82-.71,7.94,7.94,0,0,1,2-.26,4.22,4.22,0,0,1,3,.9,3.69,3.69,0,0,1,1,2.86v7.67Zm-3.84-1.2a3.4,3.4,0,0,0,2.49-.88,3.2,3.2,0,0,0,.91-2.44v-1l-1.7.07a6.28,6.28,0,0,0-2.93.63,1.9,1.9,0,0,0-.9,1.74,1.74,1.74,0,0,0,.56,1.4A2.31,2.31,0,0,0,78.48,468.21Z"/><path class="e" d="M85.73,474.45a4.12,4.12,0,0,1-1.58-.25v-1.39a4.83,4.83,0,0,0,1.39.21,1.47,1.47,0,0,0,1.18-.44,2,2,0,0,0,.37-1.33V458.17h1.7v13Q88.79,474.44,85.73,474.45ZM87,455.12a1.12,1.12,0,0,1,.28-.85A1,1,0,0,1,88,454a1,1,0,0,1,.71.28,1.37,1.37,0,0,1,0,1.71,1,1,0,0,1-.71.28,1,1,0,0,1-.72-.28A1.16,1.16,0,0,1,87,455.12Z"/><path class="e" d="M104,469.61a3.8,3.8,0,0,1-3.17-1.47h-.16c.11,1,.16,1.52.16,1.67v4.64H97.69V457.94h2.55l.44,1.49h.14a3.61,3.61,0,0,1,3.25-1.7,3.72,3.72,0,0,1,3.18,1.57,7.19,7.19,0,0,1,1.15,4.35,8.56,8.56,0,0,1-.54,3.19,4.45,4.45,0,0,1-1.53,2.06A3.91,3.91,0,0,1,104,469.61Zm-.92-9.38a2,2,0,0,0-1.7.71,4.12,4.12,0,0,0-.55,2.35v.34a4.8,4.8,0,0,0,.55,2.65,2,2,0,0,0,1.74.8c1.4,0,2.1-1.16,2.1-3.47a4.85,4.85,0,0,0-.52-2.53A1.75,1.75,0,0,0,103.07,460.23Z"/><path class="e" d="M121.4,463.65a6.13,6.13,0,0,1-1.48,4.38,5.35,5.35,0,0,1-4.11,1.58,5.76,5.76,0,0,1-2.91-.72,4.82,4.82,0,0,1-1.94-2.08,7,7,0,0,1-.67-3.16,6.1,6.1,0,0,1,1.46-4.36,5.38,5.38,0,0,1,4.12-1.56,5.83,5.83,0,0,1,2.92.72,4.7,4.7,0,0,1,1.93,2.06A6.89,6.89,0,0,1,121.4,463.65Zm-7.93,0a4.84,4.84,0,0,0,.56,2.58,2,2,0,0,0,1.82.87,2,2,0,0,0,1.8-.87,4.81,4.81,0,0,0,.55-2.58,4.74,4.74,0,0,0-.55-2.55,2,2,0,0,0-1.82-.85,2,2,0,0,0-1.8.85A4.68,4.68,0,0,0,113.47,463.65Z"/><path class="e" d="M126.71,469.41l-4.37-11.47h3.27l2.22,6.53a11.31,11.31,0,0,1,.46,2.35h.06a10.81,10.81,0,0,1,.46-2.35l2.21-6.53h3.27l-4.37,11.47Z"/><path class="e" d="M143.21,469.41l-.6-1.56h-.09a4.6,4.6,0,0,1-1.62,1.38,5.4,5.4,0,0,1-2.18.38,3.52,3.52,0,0,1-2.6-.94,3.65,3.65,0,0,1-1-2.69,3,3,0,0,1,1.28-2.69,7.34,7.34,0,0,1,3.85-1l2-.06v-.5A1.57,1.57,0,0,0,140.5,460a8.23,8.23,0,0,0-3.23.83l-1-2.11a9.32,9.32,0,0,1,4.39-1,5.46,5.46,0,0,1,3.53,1,3.72,3.72,0,0,1,1.23,3.06v7.64Zm-.92-5.32-1.21.05a3.8,3.8,0,0,0-2,.49,1.53,1.53,0,0,0-.67,1.37c0,.88.51,1.32,1.52,1.32a2.41,2.41,0,0,0,1.74-.62,2.21,2.21,0,0,0,.65-1.66Z"/><path class="e" d="M156.61,466a3.18,3.18,0,0,1-1.22,2.69,6.11,6.11,0,0,1-3.67.92,11.77,11.77,0,0,1-2.13-.17,8.34,8.34,0,0,1-1.65-.49v-2.59a11.49,11.49,0,0,0,2,.69,8.16,8.16,0,0,0,1.92.27c1.14,0,1.71-.32,1.71-1a.81.81,0,0,0-.23-.6,3.23,3.23,0,0,0-.78-.52c-.37-.2-.86-.42-1.48-.68a9,9,0,0,1-1.94-1,3,3,0,0,1-.9-1.08,3.56,3.56,0,0,1-.28-1.5,2.73,2.73,0,0,1,1.18-2.37,5.83,5.83,0,0,1,3.36-.83,9.57,9.57,0,0,1,4,.9l-.94,2.25c-.58-.24-1.11-.44-1.61-.6a5,5,0,0,0-1.53-.24c-.92,0-1.39.25-1.39.75a.88.88,0,0,0,.45.73,11.72,11.72,0,0,0,1.95.91,8.89,8.89,0,0,1,2,1,2.79,2.79,0,0,1,.92,1.09A3.28,3.28,0,0,1,156.61,466Z"/><path class="e" d="M174.77,469.41h-3.13v-6.7a3.33,3.33,0,0,0-.41-1.86,1.47,1.47,0,0,0-1.31-.62,1.88,1.88,0,0,0-1.74.88,5.83,5.83,0,0,0-.54,2.9v5.4h-3.13V457.94h2.39l.42,1.47h.17a3.19,3.19,0,0,1,1.33-1.24,4.46,4.46,0,0,1,2-.44c1.72,0,2.88.56,3.49,1.68h.28a3.1,3.1,0,0,1,1.36-1.24,4.41,4.41,0,0,1,2-.44,4,4,0,0,1,2.95,1,4.35,4.35,0,0,1,1,3.2v7.48h-3.14v-6.7a3.42,3.42,0,0,0-.41-1.86,1.48,1.48,0,0,0-1.31-.62,1.94,1.94,0,0,0-1.72.82,4.64,4.64,0,0,0-.57,2.6Z"/><path class="e" d="M192.41,469.41l-.61-1.56h-.08a4.69,4.69,0,0,1-1.62,1.38,5.4,5.4,0,0,1-2.18.38,3.52,3.52,0,0,1-2.6-.94,3.65,3.65,0,0,1-.95-2.69,3,3,0,0,1,1.28-2.69,7.34,7.34,0,0,1,3.85-1l2-.06v-.5A1.57,1.57,0,0,0,189.7,460a8.23,8.23,0,0,0-3.23.83l-1-2.11a9.31,9.31,0,0,1,4.38-1,5.47,5.47,0,0,1,3.54,1,3.72,3.72,0,0,1,1.23,3.06v7.64Zm-.92-5.32-1.21.05a3.8,3.8,0,0,0-2,.49,1.53,1.53,0,0,0-.67,1.37c0,.88.5,1.32,1.52,1.32a2.37,2.37,0,0,0,1.73-.62,2.18,2.18,0,0,0,.66-1.66Z"/><path class="e" d="M200.94,469.41h-3.13v-16h3.13Z"/><path class="e" d="M210.56,460.29h-2.71v9.12h-3.13v-9.12H203v-1.51l1.72-.84v-.84a3.73,3.73,0,0,1,1-2.86,4.41,4.41,0,0,1,3.08-.9,8.15,8.15,0,0,1,2.89.48l-.8,2.3a5.8,5.8,0,0,0-1.75-.3,1.13,1.13,0,0,0-1,.39,1.64,1.64,0,0,0-.3,1v.72h2.71Z"/><path class="e" d="M222.77,463.65a6.13,6.13,0,0,1-1.48,4.38,5.35,5.35,0,0,1-4.11,1.58,5.76,5.76,0,0,1-2.91-.72,4.82,4.82,0,0,1-1.94-2.08,7,7,0,0,1-.67-3.16,6.1,6.1,0,0,1,1.46-4.36,5.38,5.38,0,0,1,4.12-1.56,5.83,5.83,0,0,1,2.92.72,4.7,4.7,0,0,1,1.93,2.06A6.89,6.89,0,0,1,222.77,463.65Zm-7.93,0a4.84,4.84,0,0,0,.56,2.58,2,2,0,0,0,1.82.87,2,2,0,0,0,1.8-.87,4.81,4.81,0,0,0,.55-2.58,4.74,4.74,0,0,0-.55-2.55,2,2,0,0,0-1.82-.85,2,2,0,0,0-1.8.85A4.68,4.68,0,0,0,214.84,463.65Z"/><path class="e" d="M231.75,457.73a5.16,5.16,0,0,1,1.06.09l-.24,2.93a3.5,3.5,0,0,0-.92-.1,3.32,3.32,0,0,0-2.33.77,2.77,2.77,0,0,0-.84,2.15v5.84h-3.13V457.94h2.37l.46,1.93h.16a4.2,4.2,0,0,1,1.44-1.55A3.48,3.48,0,0,1,231.75,457.73Z"/><path class="e" d="M239.72,467.12a6.78,6.78,0,0,0,2-.36v2.33a7,7,0,0,1-2.87.52,3.56,3.56,0,0,1-2.74-.95,4.12,4.12,0,0,1-.85-2.84v-5.53h-1.5V459l1.73-1.05.9-2.42h2v2.44h3.21v2.35h-3.21v5.53a1.21,1.21,0,0,0,.37,1A1.49,1.49,0,0,0,239.72,467.12Z"/><path class="e" d="M243.87,455c0-1,.57-1.53,1.7-1.53s1.71.51,1.71,1.53a1.51,1.51,0,0,1-.43,1.13,1.79,1.79,0,0,1-1.28.41C244.44,456.52,243.87,456,243.87,455Zm3.26,14.43H244V457.94h3.12Z"/><path class="e" d="M260.39,457.94v1.59l-1.79.46a3.23,3.23,0,0,1,.49,1.73,3.45,3.45,0,0,1-1.29,2.87,5.56,5.56,0,0,1-3.57,1l-.57,0-.46,0a1,1,0,0,0-.48.82c0,.45.57.68,1.72.68h1.95a4.45,4.45,0,0,1,2.88.81,2.89,2.89,0,0,1,1,2.38,3.5,3.5,0,0,1-1.68,3.11,8.71,8.71,0,0,1-4.81,1.11,6.76,6.76,0,0,1-3.67-.83,2.67,2.67,0,0,1-1.27-2.35,2.44,2.44,0,0,1,.65-1.73,3.7,3.7,0,0,1,1.9-1,2.05,2.05,0,0,1-.84-.67,1.65,1.65,0,0,1,0-2.08,4.44,4.44,0,0,1,1.09-.85,3.11,3.11,0,0,1-1.43-1.26,3.81,3.81,0,0,1-.52-2,3.57,3.57,0,0,1,1.22-2.9,5.27,5.27,0,0,1,3.48-1,10.6,10.6,0,0,1,1.15.08l.84.13ZM251.54,471a1.14,1.14,0,0,0,.62,1,3.41,3.41,0,0,0,1.74.37,6.16,6.16,0,0,0,2.64-.46,1.42,1.42,0,0,0,.95-1.26.89.89,0,0,0-.56-.89,4.53,4.53,0,0,0-1.75-.25h-1.62a2.4,2.4,0,0,0-1.44.41A1.24,1.24,0,0,0,251.54,471Zm1.14-9.33a2.28,2.28,0,0,0,.43,1.47,1.82,1.82,0,0,0,2.59,0,2.4,2.4,0,0,0,.41-1.47c0-1.39-.57-2.08-1.71-2.08S252.68,460.31,252.68,461.7Z"/><path class="e" d="M262.14,455q0-1.53,1.71-1.53c1.13,0,1.7.51,1.7,1.53a1.47,1.47,0,0,1-.43,1.13,1.78,1.78,0,0,1-1.27.41C262.71,456.52,262.14,456,262.14,455Zm3.26,14.43h-3.12V457.94h3.12Z"/><path class="e" d="M277.27,469.41h-3.13v-16h3.13Z"/><path class="e" d="M287.83,469.41l-.61-1.56h-.08a4.69,4.69,0,0,1-1.62,1.38,5.4,5.4,0,0,1-2.18.38,3.52,3.52,0,0,1-2.6-.94,3.65,3.65,0,0,1-.95-2.69,3,3,0,0,1,1.28-2.69,7.34,7.34,0,0,1,3.85-1l2-.06v-.5a1.57,1.57,0,0,0-1.79-1.75,8.23,8.23,0,0,0-3.23.83l-1-2.11a9.32,9.32,0,0,1,4.39-1,5.46,5.46,0,0,1,3.53,1,3.72,3.72,0,0,1,1.23,3.06v7.64Zm-.92-5.32-1.21.05a3.8,3.8,0,0,0-2,.49A1.53,1.53,0,0,0,283,466c0,.88.5,1.32,1.52,1.32a2.37,2.37,0,0,0,1.73-.62,2.18,2.18,0,0,0,.66-1.66Z"/><path class="e" d="M71.5,501.41l-.6-1.56h-.08a4.71,4.71,0,0,1-1.63,1.38,5.33,5.33,0,0,1-2.18.38,3.53,3.53,0,0,1-2.6-.94,3.64,3.64,0,0,1-.94-2.69,3,3,0,0,1,1.27-2.69,7.37,7.37,0,0,1,3.85-1l2-.06v-.5A1.56,1.56,0,0,0,68.8,492a8.19,8.19,0,0,0-3.23.83l-1-2.11a9.32,9.32,0,0,1,4.39-1,5.47,5.47,0,0,1,3.54,1,3.72,3.72,0,0,1,1.23,3.06v7.64Zm-.92-5.32-1.21.05a3.83,3.83,0,0,0-2,.49,1.55,1.55,0,0,0-.66,1.37c0,.88.5,1.32,1.51,1.32a2.38,2.38,0,0,0,1.74-.62,2.21,2.21,0,0,0,.65-1.66Z"/><path class="e" d="M83.2,501.61A3.78,3.78,0,0,1,80,500.14h-.17c.11,1,.17,1.52.17,1.67v4.64H76.91V489.94h2.54l.44,1.49H80a3.6,3.6,0,0,1,3.25-1.7,3.72,3.72,0,0,1,3.18,1.57,7.26,7.26,0,0,1,1.14,4.35,8.77,8.77,0,0,1-.53,3.19,4.4,4.4,0,0,1-1.54,2.06A3.86,3.86,0,0,1,83.2,501.61Zm-.92-9.38a2,2,0,0,0-1.69.71,4,4,0,0,0-.55,2.35v.34a4.9,4.9,0,0,0,.54,2.65,2,2,0,0,0,1.74.8c1.4,0,2.1-1.16,2.1-3.47a5,5,0,0,0-.51-2.53A1.77,1.77,0,0,0,82.28,492.23Z"/><path class="e" d="M97.48,501.41l-.61-1.56h-.08a4.78,4.78,0,0,1-1.62,1.38,5.4,5.4,0,0,1-2.18.38,3.52,3.52,0,0,1-2.6-.94,3.61,3.61,0,0,1-1-2.69,3,3,0,0,1,1.28-2.69,7.34,7.34,0,0,1,3.85-1l2-.06v-.5A1.57,1.57,0,0,0,94.77,492a8.19,8.19,0,0,0-3.23.83l-1-2.11a9.28,9.28,0,0,1,4.38-1,5.47,5.47,0,0,1,3.54,1,3.72,3.72,0,0,1,1.23,3.06v7.64Zm-.92-5.32-1.21.05a3.87,3.87,0,0,0-2,.49,1.55,1.55,0,0,0-.66,1.37c0,.88.5,1.32,1.52,1.32a2.37,2.37,0,0,0,1.73-.62,2.18,2.18,0,0,0,.66-1.66Z"/><path class="e" d="M109.28,489.73a5.23,5.23,0,0,1,1.06.09l-.24,2.93a3.5,3.5,0,0,0-.92-.1,3.35,3.35,0,0,0-2.34.77,2.79,2.79,0,0,0-.83,2.15v5.84h-3.13V489.94h2.37l.46,1.93h.16a4.2,4.2,0,0,1,1.44-1.55A3.48,3.48,0,0,1,109.28,489.73Z"/><path class="e" d="M119.7,501.41l-.61-1.56H119a4.78,4.78,0,0,1-1.62,1.38,5.4,5.4,0,0,1-2.18.38,3.52,3.52,0,0,1-2.6-.94,3.65,3.65,0,0,1-1-2.69,3,3,0,0,1,1.28-2.69,7.34,7.34,0,0,1,3.85-1l2-.06v-.5A1.57,1.57,0,0,0,117,492a8.23,8.23,0,0,0-3.23.83l-1-2.11a9.28,9.28,0,0,1,4.38-1,5.47,5.47,0,0,1,3.54,1,3.72,3.72,0,0,1,1.23,3.06v7.64Zm-.92-5.32-1.21.05a3.8,3.8,0,0,0-2,.49,1.53,1.53,0,0,0-.67,1.37c0,.88.5,1.32,1.52,1.32a2.37,2.37,0,0,0,1.73-.62,2.18,2.18,0,0,0,.66-1.66Z"/><path class="e" d="M129.93,499.12a6.78,6.78,0,0,0,2-.36v2.33a7,7,0,0,1-2.87.52,3.52,3.52,0,0,1-2.73-.95,4.12,4.12,0,0,1-.86-2.84v-5.53h-1.5V491l1.73-1.05.9-2.42h2v2.44h3.21v2.35h-3.21v5.53a1.21,1.21,0,0,0,.37,1A1.49,1.49,0,0,0,129.93,499.12Z"/><path class="e" d="M144.64,495.65a6.17,6.17,0,0,1-1.48,4.38,5.38,5.38,0,0,1-4.11,1.58,5.76,5.76,0,0,1-2.91-.72,4.77,4.77,0,0,1-1.94-2.08,7,7,0,0,1-.68-3.16,6.1,6.1,0,0,1,1.47-4.36,5.37,5.37,0,0,1,4.12-1.56,5.76,5.76,0,0,1,2.91.72,4.72,4.72,0,0,1,1.94,2.06A6.89,6.89,0,0,1,144.64,495.65Zm-7.93,0a4.84,4.84,0,0,0,.56,2.58,2,2,0,0,0,1.82.87,2,2,0,0,0,1.8-.87,4.9,4.9,0,0,0,.55-2.58,4.73,4.73,0,0,0-.56-2.55,2.35,2.35,0,0,0-3.62,0A4.69,4.69,0,0,0,136.71,495.65Z"/><path class="e" d="M157.8,501.41h-3.13v-6.7a3.15,3.15,0,0,0-.44-1.86,1.6,1.6,0,0,0-1.4-.62,2.1,2.1,0,0,0-1.9.88,5.41,5.41,0,0,0-.58,2.9v5.4h-3.13V489.94h2.39l.42,1.47h.17a3.39,3.39,0,0,1,1.44-1.26,5,5,0,0,1,2.09-.42,4,4,0,0,1,3,1.08,4.33,4.33,0,0,1,1,3.12Z"/><path class="e" d="M170.11,501.61a3.72,3.72,0,0,1-3.18-1.57,7.17,7.17,0,0,1-1.15-4.34,7.26,7.26,0,0,1,1.17-4.4,3.82,3.82,0,0,1,3.24-1.57,3.74,3.74,0,0,1,3.3,1.68h.1a13.52,13.52,0,0,1-.23-2.29v-3.67h3.13v16H174.1l-.61-1.49h-.13A3.58,3.58,0,0,1,170.11,501.61Zm1.09-2.49a2.11,2.11,0,0,0,1.76-.7,4,4,0,0,0,.61-2.37v-.34a4.65,4.65,0,0,0-.57-2.64,2.11,2.11,0,0,0-1.85-.8,1.83,1.83,0,0,0-1.62.89,4.7,4.7,0,0,0-.58,2.58,4.46,4.46,0,0,0,.58,2.53A1.9,1.9,0,0,0,171.2,499.12Z"/><path class="e" d="M185,501.61a5.9,5.9,0,0,1-4.32-1.53,5.76,5.76,0,0,1-1.56-4.32,6.38,6.38,0,0,1,1.44-4.46,5.86,5.86,0,0,1,7.77-.19,5.25,5.25,0,0,1,1.35,3.83v1.51h-7.39a3,3,0,0,0,.79,2.09,2.8,2.8,0,0,0,2.07.74,8.86,8.86,0,0,0,2-.21,9.94,9.94,0,0,0,1.92-.69v2.42a6.85,6.85,0,0,1-1.75.61A11.28,11.28,0,0,1,185,501.61Zm-.44-9.66a2,2,0,0,0-1.56.63,2.93,2.93,0,0,0-.64,1.79h4.39a2.64,2.64,0,0,0-.61-1.79A2,2,0,0,0,184.51,492Z"/><path class="e" d="M205.63,498a3.16,3.16,0,0,1-1.23,2.69,6.11,6.11,0,0,1-3.67.92,11.77,11.77,0,0,1-2.13-.17A8.34,8.34,0,0,1,197,501v-2.59a11.61,11.61,0,0,0,2,.69,8,8,0,0,0,1.92.27c1.13,0,1.7-.32,1.7-1a.81.81,0,0,0-.23-.6,3.23,3.23,0,0,0-.78-.52c-.36-.2-.86-.42-1.47-.68a9,9,0,0,1-1.94-1,2.88,2.88,0,0,1-.91-1.08,3.56,3.56,0,0,1-.28-1.5,2.74,2.74,0,0,1,1.19-2.37,5.77,5.77,0,0,1,3.35-.83,9.54,9.54,0,0,1,4,.9l-.94,2.25c-.57-.24-1.11-.44-1.61-.6a5,5,0,0,0-1.53-.24q-1.38,0-1.38.75a.89.89,0,0,0,.44.73,11.54,11.54,0,0,0,2,.91,9.38,9.38,0,0,1,2,1,3,3,0,0,1,.92,1.09A3.28,3.28,0,0,1,205.63,498Zm-1.86-9.32a11.42,11.42,0,0,1-2.4-1.8,12.87,12.87,0,0,1-2.35,1.8h-2.08v-.28a18.53,18.53,0,0,0,2.63-3.08h3.66a12,12,0,0,0,1.1,1.45c.52.61,1,1.16,1.52,1.63v.28Z"/><path class="e" d="M212.9,499.12a6.83,6.83,0,0,0,2-.36v2.33a7,7,0,0,1-2.88.52,3.52,3.52,0,0,1-2.73-.95,4.12,4.12,0,0,1-.86-2.84v-5.53h-1.49V491l1.72-1.05.9-2.42h2v2.44h3.21v2.35h-3.21v5.53a1.22,1.22,0,0,0,.38,1A1.49,1.49,0,0,0,212.9,499.12Z"/><path class="e" d="M224.46,501.41l-.6-1.56h-.08a4.71,4.71,0,0,1-1.63,1.38,5.36,5.36,0,0,1-2.18.38,3.52,3.52,0,0,1-2.6-.94,3.65,3.65,0,0,1-1-2.69,3,3,0,0,1,1.28-2.69,7.34,7.34,0,0,1,3.85-1l2-.06v-.5a1.56,1.56,0,0,0-1.78-1.75,8.15,8.15,0,0,0-3.23.83l-1-2.11a9.32,9.32,0,0,1,4.39-1,5.47,5.47,0,0,1,3.54,1,3.72,3.72,0,0,1,1.23,3.06v7.64Zm-.92-5.32-1.21.05a3.8,3.8,0,0,0-2,.49,1.56,1.56,0,0,0-.67,1.37c0,.88.51,1.32,1.52,1.32a2.39,2.39,0,0,0,1.74-.62,2.21,2.21,0,0,0,.65-1.66Z"/><path class="e" d="M234.7,499.12a6.83,6.83,0,0,0,2-.36v2.33a7,7,0,0,1-2.88.52,3.52,3.52,0,0,1-2.73-.95,4.12,4.12,0,0,1-.86-2.84v-5.53h-1.49V491l1.72-1.05.9-2.42h2v2.44h3.21v2.35h-3.21v5.53a1.22,1.22,0,0,0,.38,1A1.49,1.49,0,0,0,234.7,499.12Z"/><path class="e" d="M249.4,495.65a6.13,6.13,0,0,1-1.48,4.38,5.35,5.35,0,0,1-4.11,1.58,5.76,5.76,0,0,1-2.91-.72,4.82,4.82,0,0,1-1.94-2.08,7,7,0,0,1-.67-3.16,6.1,6.1,0,0,1,1.46-4.36,5.38,5.38,0,0,1,4.12-1.56,5.8,5.8,0,0,1,2.92.72,4.7,4.7,0,0,1,1.93,2.06A6.89,6.89,0,0,1,249.4,495.65Zm-7.93,0a4.84,4.84,0,0,0,.56,2.58,2,2,0,0,0,1.82.87,2,2,0,0,0,1.8-.87,4.81,4.81,0,0,0,.55-2.58,4.74,4.74,0,0,0-.55-2.55,2,2,0,0,0-1.82-.85,2,2,0,0,0-1.8.85A4.68,4.68,0,0,0,241.47,495.65Z"/><path class="e" d="M251.9,500.32a1.56,1.56,0,0,1,.31-1,1.13,1.13,0,0,1,.9-.36,1.2,1.2,0,0,1,.93.36,1.46,1.46,0,0,1,.33,1,1.44,1.44,0,0,1-.33,1,1.23,1.23,0,0,1-.93.36,1.16,1.16,0,0,1-.86-.32A1.39,1.39,0,0,1,251.9,500.32Z"/><path class="e" d="M85.65,79.06H67.18l-19-36.72h-.32c.45,5.78.68,10.18.68,13.23V79.06H36V26.94H54.42l19,36.22h.21q-.5-7.87-.5-12.66V26.94H85.65Z"/><path class="e" d="M127.85,79.06H96.91V26.94h30.94v11.3H111v8.2H126.6v11.3H111v9.84h16.86Z"/><path class="e" d="M187.91,79.06l-2.56-9.77H168.41l-2.63,9.77H150.31l17-52.33h18.78l17.22,52.33Zm-5.49-21.32-2.24-8.55c-.53-1.91-1.16-4.36-1.91-7.38s-1.24-5.18-1.48-6.49c-.21,1.21-.64,3.21-1.26,6s-2,8.26-4.19,16.43Z"/><path class="e" d="M232.15,37.74a9,9,0,0,0-7.85,4.12Q221.5,46,221.49,53.21q0,15,11.44,15.05a23.5,23.5,0,0,0,6.7-1A66.94,66.94,0,0,0,246.15,65v11.9a36,36,0,0,1-14.75,2.89q-11.81,0-18.09-6.85T207,53.14a31.6,31.6,0,0,1,3-14.22,21.88,21.88,0,0,1,8.77-9.43,26.49,26.49,0,0,1,13.46-3.3,37.08,37.08,0,0,1,16.15,3.68L244.12,41a49.31,49.31,0,0,0-5.77-2.28A20.13,20.13,0,0,0,232.15,37.74Zm6.34-15a47.47,47.47,0,0,1-7.16-5.34,63.36,63.36,0,0,1-6.92,5.34h-9.2v-1a73.47,73.47,0,0,0,5.16-5.45,54.44,54.44,0,0,0,4-5.21h14a77.08,77.08,0,0,0,9.12,10.66v1Z"/><path class="e" d="M287.25,79.06H256.31V26.94h30.94v11.3H270.39v8.2H286v11.3H270.39v9.84h16.86Z"/><path class="e" d="M319.37,79.06H305.29V38.46H292.56V26.94h39.5V38.46H319.37Z"/><path class="e" d="M383.81,26.94V58.31q0,10.23-5.79,15.84t-16.7,5.62q-10.65,0-16.38-5.46t-5.72-15.68V26.94h14.15V57.53q0,5.52,2.07,8a7.47,7.47,0,0,0,6.1,2.49c2.87,0,5-.82,6.25-2.48s1.94-4.35,1.94-8.1V26.94Z"/></svg>