<svg xmlns="http://www.w3.org/2000/svg" viewBox="0 0 419.53 595.28"><defs><style>.a{fill:#ec681c;}.b{fill:#4d4d4d;}.c{fill:#1d1d1b;}.d{fill:none;stroke:#ec681c;stroke-miterlimit:10;stroke-width:6px;}</style></defs><title>nocompremonero</title><path class="a" d="M209.76,117.58a74.9,74.9,0,0,0-71,98.48h22.38v-63l48.64,48.65,48.65-48.65v63h22.38a74.9,74.9,0,0,0-71-98.48"/><path class="b" d="M177.35,191.69v39.62H145.81a74.85,74.85,0,0,0,127.9,0H242.18V191.69l-32.42,32.42Z"/><path class="a" d="M379.6,368.59V525.9H39.93V368.59H379.6m6-6H33.93V531.9H385.6V362.59Z"/><path class="c" d="M119.85,569.7l-2.06-6.6c-.13-.4-.37-1.32-.73-2.75H117c-.27,1.2-.51,2.12-.72,2.77l-2.12,6.58h-2l-3.06-11.24h1.78q1.1,4.23,1.66,6.45a27,27,0,0,1,.65,3h.08c.07-.39.2-.89.36-1.51s.32-1.11.44-1.47l2.06-6.45H118l2,6.45a22.45,22.45,0,0,1,.78,3h.08a8.91,8.91,0,0,1,.22-1.14q.18-.76,2.14-8.27H125l-3.11,11.24Z"/><path class="c" d="M136.19,569.7l-2.06-6.6c-.13-.4-.38-1.32-.73-2.75h-.08c-.28,1.2-.52,2.12-.72,2.77l-2.12,6.58h-2l-3.07-11.24h1.79l1.65,6.45a24.72,24.72,0,0,1,.65,3h.08c.08-.39.2-.89.37-1.51s.31-1.11.43-1.47l2.07-6.45h1.84l2,6.45a22.45,22.45,0,0,1,.78,3h.08a11.14,11.14,0,0,1,.22-1.14q.18-.76,2.14-8.27h1.76l-3.1,11.24Z"/><path class="c" d="M152.52,569.7l-2.06-6.6c-.13-.4-.37-1.32-.73-2.75h-.08c-.27,1.2-.51,2.12-.72,2.77l-2.12,6.58h-2l-3.06-11.24h1.78c.72,2.82,1.28,5,1.66,6.45a27,27,0,0,1,.65,3H146c.07-.39.2-.89.36-1.51s.32-1.11.44-1.47l2.06-6.45h1.85l2,6.45a20.76,20.76,0,0,1,.77,3h.09a8.91,8.91,0,0,1,.22-1.14q.18-.76,2.13-8.27h1.77l-3.11,11.24Z"/><path class="c" d="M159.43,568.61a1.5,1.5,0,0,1,.32-1,1.1,1.1,0,0,1,.89-.36,1.2,1.2,0,0,1,.93.36,1.77,1.77,0,0,1,0,2.06,1.23,1.23,0,0,1-.93.36,1.2,1.2,0,0,1-.86-.32A1.41,1.41,0,0,1,159.43,568.61Z"/><path class="c" d="M174.46,558.46v1.07l-2.08.25a3.56,3.56,0,0,1,.74,2.25,3.29,3.29,0,0,1-1.13,2.63,4.51,4.51,0,0,1-3.09,1,4.81,4.81,0,0,1-1-.08,1.69,1.69,0,0,0-1.08,1.45.72.72,0,0,0,.38.68,2.7,2.7,0,0,0,1.3.22h2a4.47,4.47,0,0,1,2.8.77,2.68,2.68,0,0,1,1,2.24,3.18,3.18,0,0,1-1.5,2.84,8,8,0,0,1-4.36,1,5.93,5.93,0,0,1-3.4-.82,2.65,2.65,0,0,1-1.2-2.32,2.59,2.59,0,0,1,.66-1.77,3.36,3.36,0,0,1,1.84-1,1.87,1.87,0,0,1-.72-.6,1.63,1.63,0,0,1-.29-1,1.79,1.79,0,0,1,.33-1.07,3.32,3.32,0,0,1,1-.89,3.09,3.09,0,0,1-1.42-1.22,4,4,0,0,1,.56-4.82,4.52,4.52,0,0,1,3.14-1,5.57,5.57,0,0,1,1.59.21Zm-9,13.12a1.54,1.54,0,0,0,.77,1.39,4.3,4.3,0,0,0,2.21.47,6.22,6.22,0,0,0,3.17-.64,2,2,0,0,0,1-1.74,1.4,1.4,0,0,0-.56-1.27,4.51,4.51,0,0,0-2.13-.35h-2a2.67,2.67,0,0,0-1.8.55A2,2,0,0,0,165.5,571.58Zm.93-9.52a2.29,2.29,0,0,0,.66,1.78,2.7,2.7,0,0,0,1.86.61,2.17,2.17,0,0,0,2.49-2.42,2.24,2.24,0,0,0-2.52-2.54,2.51,2.51,0,0,0-1.85.65A2.6,2.6,0,0,0,166.43,562.06Z"/><path class="c" d="M181.52,569.9a5.17,5.17,0,0,1-3.93-1.52,5.86,5.86,0,0,1-1.44-4.21,6.54,6.54,0,0,1,1.33-4.32,4.48,4.48,0,0,1,3.6-1.6,4.22,4.22,0,0,1,3.34,1.39,5.34,5.34,0,0,1,1.23,3.67v1.07h-7.74a4.45,4.45,0,0,0,1,3,3.46,3.46,0,0,0,2.67,1,9,9,0,0,0,3.59-.76v1.52a8.72,8.72,0,0,1-1.71.56A9.7,9.7,0,0,1,181.52,569.9Zm-.46-10.22a2.78,2.78,0,0,0-2.16.88,4.07,4.07,0,0,0-1,2.44h5.88a3.75,3.75,0,0,0-.72-2.47A2.52,2.52,0,0,0,181.06,559.68Z"/><path class="c" d="M192.18,568.5a6.4,6.4,0,0,0,.88-.07,6,6,0,0,0,.66-.14v1.3a3,3,0,0,1-.81.22,6,6,0,0,1-1,.09c-2.18,0-3.26-1.14-3.26-3.44v-6.68h-1.61V559l1.61-.71.71-2.4h1v2.61h3.26v1.32h-3.26v6.61a2.28,2.28,0,0,0,.48,1.56A1.68,1.68,0,0,0,192.18,568.5Z"/><path class="c" d="M210.29,569.7v-7.32a3.05,3.05,0,0,0-.57-2,2.23,2.23,0,0,0-1.79-.67,2.85,2.85,0,0,0-2.34.91,4.33,4.33,0,0,0-.76,2.81v6.28h-1.71v-7.32a3.05,3.05,0,0,0-.57-2,2.22,2.22,0,0,0-1.79-.67,2.79,2.79,0,0,0-2.35,1,5.21,5.21,0,0,0-.74,3.14v5.9H196V558.46h1.38l.28,1.54h.08a3.32,3.32,0,0,1,1.36-1.29,4.23,4.23,0,0,1,2-.46c1.76,0,2.91.64,3.45,1.91h.08a3.65,3.65,0,0,1,1.46-1.4,4.52,4.52,0,0,1,2.17-.51,3.8,3.8,0,0,1,2.85,1,4.34,4.34,0,0,1,1,3.13v7.34Z"/><path class="c" d="M225.2,564.07a6.21,6.21,0,0,1-1.38,4.29A4.89,4.89,0,0,1,220,569.9a5,5,0,0,1-2.67-.71,4.65,4.65,0,0,1-1.81-2,7.1,7.1,0,0,1-.63-3.09,6.15,6.15,0,0,1,1.37-4.28,4.84,4.84,0,0,1,3.81-1.54,4.77,4.77,0,0,1,3.75,1.57A6.16,6.16,0,0,1,225.2,564.07Zm-8.56,0a5.37,5.37,0,0,0,.86,3.28,3.43,3.43,0,0,0,5.07,0,5.28,5.28,0,0,0,.87-3.28,5.21,5.21,0,0,0-.87-3.26A3.05,3.05,0,0,0,220,559.7a3,3,0,0,0-2.52,1.09A5.31,5.31,0,0,0,216.64,564.07Z"/><path class="c" d="M235.88,569.7v-7.27a2.91,2.91,0,0,0-.63-2,2.52,2.52,0,0,0-2-.68,3.24,3.24,0,0,0-2.58.95,4.82,4.82,0,0,0-.82,3.15v5.9h-1.71V558.46h1.39l.28,1.54h.08a3.46,3.46,0,0,1,1.46-1.29,4.7,4.7,0,0,1,2.11-.46,4.27,4.27,0,0,1,3.05,1,4.14,4.14,0,0,1,1,3.13v7.34Z"/><path class="c" d="M245.82,569.9a5.17,5.17,0,0,1-3.93-1.52,5.86,5.86,0,0,1-1.44-4.21,6.49,6.49,0,0,1,1.34-4.32,4.46,4.46,0,0,1,3.59-1.6,4.22,4.22,0,0,1,3.34,1.39,5.34,5.34,0,0,1,1.23,3.67v1.07h-7.74a4.5,4.5,0,0,0,1,3,3.46,3.46,0,0,0,2.67,1,9,9,0,0,0,3.59-.76v1.52a8.72,8.72,0,0,1-1.71.56A9.7,9.7,0,0,1,245.82,569.9Zm-.46-10.22a2.78,2.78,0,0,0-2.16.88,4.14,4.14,0,0,0-.95,2.44h5.88a3.75,3.75,0,0,0-.72-2.47A2.52,2.52,0,0,0,245.36,559.68Z"/><path class="c" d="M258,558.25a6.19,6.19,0,0,1,1.35.13l-.24,1.57a6,6,0,0,0-1.23-.15,3,3,0,0,0-2.33,1.11,4,4,0,0,0-1,2.76v6h-1.7V558.46h1.4l.2,2.08h.08a4.88,4.88,0,0,1,1.5-1.69A3.39,3.39,0,0,1,258,558.25Z"/><path class="c" d="M271.13,564.07a6.17,6.17,0,0,1-1.39,4.29,4.85,4.85,0,0,1-3.82,1.54,5.08,5.08,0,0,1-2.68-.71,4.63,4.63,0,0,1-1.8-2,7,7,0,0,1-.64-3.09,6.15,6.15,0,0,1,1.38-4.28,5.37,5.37,0,0,1,7.56,0A6.16,6.16,0,0,1,271.13,564.07Zm-8.56,0a5.3,5.3,0,0,0,.86,3.28,3,3,0,0,0,2.53,1.12,3,3,0,0,0,2.54-1.12,5.28,5.28,0,0,0,.86-3.28,5.22,5.22,0,0,0-.86-3.26,3.05,3.05,0,0,0-2.56-1.11,3,3,0,0,0-2.52,1.09A5.31,5.31,0,0,0,262.57,564.07Z"/><path class="c" d="M273.87,568.61a1.5,1.5,0,0,1,.31-1,1.13,1.13,0,0,1,.9-.36,1.19,1.19,0,0,1,.92.36,1.42,1.42,0,0,1,.34,1,1.46,1.46,0,0,1-.34,1,1.21,1.21,0,0,1-.92.36,1.24,1.24,0,0,1-.87-.32A1.41,1.41,0,0,1,273.87,568.61Z"/><path class="c" d="M289.4,564.07a6.21,6.21,0,0,1-1.38,4.29,4.89,4.89,0,0,1-3.83,1.54,5,5,0,0,1-2.67-.71,4.65,4.65,0,0,1-1.81-2,7.1,7.1,0,0,1-.63-3.09,6.15,6.15,0,0,1,1.37-4.28,4.84,4.84,0,0,1,3.81-1.54,4.77,4.77,0,0,1,3.75,1.57A6.16,6.16,0,0,1,289.4,564.07Zm-8.56,0a5.37,5.37,0,0,0,.86,3.28,3.43,3.43,0,0,0,5.07,0,5.28,5.28,0,0,0,.87-3.28,5.21,5.21,0,0,0-.87-3.26,3.05,3.05,0,0,0-2.56-1.11,3,3,0,0,0-2.52,1.09A5.31,5.31,0,0,0,280.84,564.07Z"/><path class="c" d="M297.51,558.25a6,6,0,0,1,1.34.13l-.23,1.57a6,6,0,0,0-1.23-.15,3,3,0,0,0-2.33,1.11,4,4,0,0,0-1,2.76v6h-1.71V558.46h1.41l.19,2.08h.09a4.88,4.88,0,0,1,1.5-1.69A3.39,3.39,0,0,1,297.51,558.25Z"/><path class="c" d="M310.15,558.46v1.07l-2.08.25a3.56,3.56,0,0,1,.74,2.25,3.29,3.29,0,0,1-1.13,2.63,4.51,4.51,0,0,1-3.09,1,4.81,4.81,0,0,1-.95-.08,1.69,1.69,0,0,0-1.08,1.45.72.72,0,0,0,.38.68,2.7,2.7,0,0,0,1.3.22h2a4.47,4.47,0,0,1,2.8.77,2.68,2.68,0,0,1,1,2.24,3.18,3.18,0,0,1-1.5,2.84,8,8,0,0,1-4.36,1,5.93,5.93,0,0,1-3.4-.82,2.65,2.65,0,0,1-1.2-2.32,2.59,2.59,0,0,1,.66-1.77,3.36,3.36,0,0,1,1.84-1,1.87,1.87,0,0,1-.72-.6,1.63,1.63,0,0,1-.29-1,1.79,1.79,0,0,1,.33-1.07,3.32,3.32,0,0,1,1-.89,3.09,3.09,0,0,1-1.42-1.22,4,4,0,0,1,.56-4.82,4.52,4.52,0,0,1,3.14-1,5.57,5.57,0,0,1,1.59.21Zm-9,13.12A1.54,1.54,0,0,0,302,573a4.3,4.3,0,0,0,2.21.47,6.24,6.24,0,0,0,3.17-.64,2,2,0,0,0,1-1.74,1.4,1.4,0,0,0-.56-1.27,4.51,4.51,0,0,0-2.13-.35h-2a2.67,2.67,0,0,0-1.8.55A2,2,0,0,0,301.19,571.58Zm.93-9.52a2.29,2.29,0,0,0,.66,1.78,2.69,2.69,0,0,0,1.86.61,2.17,2.17,0,0,0,2.49-2.42,2.24,2.24,0,0,0-2.52-2.54,2.51,2.51,0,0,0-1.85.65A2.6,2.6,0,0,0,302.12,562.06Z"/><line class="d" x1="322.41" y1="563.98" x2="384.47" y2="563.98"/><line class="d" x1="33.93" y1="563.98" x2="95.99" y2="563.98"/><path class="b" d="M348.74,326.8A14.45,14.45,0,0,1,338,331.37a15.28,15.28,0,0,1-9.92-3.53,15,15,0,0,1-5.56-12.27,15.68,15.68,0,0,1,4.42-11.47,15.27,15.27,0,0,1,21.8.11,16.49,16.49,0,0,1,0,22.59M355,298.05a23.22,23.22,0,0,0-17.06-7.18,24.46,24.46,0,0,0-21.13,12.21,25,25,0,0,0,3.72,29.62,24.4,24.4,0,0,0,34.57.2,23.63,23.63,0,0,0,7-17.33A24,24,0,0,0,355,298.05M296.52,308.9c-1.13.79-1.66,1.17-4.64,1.17H280.13V300h11.38a7.82,7.82,0,0,1,3.62.52,4.57,4.57,0,0,1,2.23,1.7,4.68,4.68,0,0,1,.84,2.79,4.36,4.36,0,0,1-1.68,3.86m1.41,9.25a14.24,14.24,0,0,0,7-4.92,13.6,13.6,0,0,0,2.31-8.1,14.67,14.67,0,0,0-2.1-8,11.86,11.86,0,0,0-5.55-4.82q-3.45-1.45-11.6-1.46h-17.2V340h9.34V319.18h8.15L299.34,340h10.21l-11.62-21.82Zm-69-27.28h31.83V300H238.21v10h22.54v9H238.21v11.73h22.54V340H228.92Zm-49.31,0h8.94l21.06,32.3v-32.3H219V340h-9l-21-32.2V340h-9.34Zm-20.7,35.93a14.47,14.47,0,0,1-10.78,4.57,15.28,15.28,0,0,1-9.92-3.53,15,15,0,0,1-5.56-12.27,15.69,15.69,0,0,1,4.43-11.47,15.27,15.27,0,0,1,21.8.11,16.49,16.49,0,0,1,0,22.59m6.22-28.75a23.23,23.23,0,0,0-17.06-7.18,24.46,24.46,0,0,0-21.14,12.21,25,25,0,0,0,3.72,29.62,24.4,24.4,0,0,0,34.57.2,23.64,23.64,0,0,0,7.05-17.33,24,24,0,0,0-7.14-17.52m-94.21-7.18h9.15l11.34,34.24,11.52-34.24h9L120.21,340h-9l-5.27-31L95.48,340H87.24l-10.3-31-5.38,31H62.45Z"/><path class="c" d="M64.65,406.93V390.51h3.48v13.54h6.66v2.88Z"/><path class="c" d="M85.35,406.93l-.66-1.71H84.6a5,5,0,0,1-1.78,1.51,5.79,5.79,0,0,1-2.39.42,3.85,3.85,0,0,1-2.85-1,4,4,0,0,1-1-2.95,3.3,3.3,0,0,1,1.4-2.94,8,8,0,0,1,4.22-1.05l2.18-.07v-.55a1.71,1.71,0,0,0-2-1.91,8.81,8.81,0,0,0-3.53.91l-1.14-2.31a10.19,10.19,0,0,1,4.81-1.14,6,6,0,0,1,3.87,1.1,4.08,4.08,0,0,1,1.35,3.35v8.37Zm-1-5.82-1.33,0a4.25,4.25,0,0,0-2.22.54,1.69,1.69,0,0,0-.73,1.51c0,1,.55,1.45,1.66,1.45a2.61,2.61,0,0,0,1.9-.69,2.39,2.39,0,0,0,.72-1.82Z"/><path class="c" d="M100,403.2a3.44,3.44,0,0,1-1.35,2.94,6.64,6.64,0,0,1-4,1,12.15,12.15,0,0,1-2.34-.19,8.56,8.56,0,0,1-1.8-.54v-2.83a11.5,11.5,0,0,0,2.15.75,8.81,8.81,0,0,0,2.1.31c1.24,0,1.87-.36,1.87-1.08a.93.93,0,0,0-.25-.66,3.61,3.61,0,0,0-.85-.57c-.41-.22-1-.46-1.62-.75a10,10,0,0,1-2.13-1.12,3.26,3.26,0,0,1-1-1.19,4,4,0,0,1-.31-1.64,3,3,0,0,1,1.3-2.59,6.33,6.33,0,0,1,3.68-.92,10.42,10.42,0,0,1,4.41,1l-1,2.47c-.63-.27-1.22-.49-1.76-.66a5.66,5.66,0,0,0-1.68-.26c-1,0-1.51.28-1.51.82a1,1,0,0,0,.48.8,13.78,13.78,0,0,0,2.14,1,10.46,10.46,0,0,1,2.16,1.11,3.32,3.32,0,0,1,1,1.19A3.64,3.64,0,0,1,100,403.2Z"/><path class="c" d="M113.77,407.15q-5.86,0-5.86-6.44a6.89,6.89,0,0,1,1.59-4.89,6,6,0,0,1,4.58-1.69,8.67,8.67,0,0,1,3.9.86l-1,2.65q-.81-.33-1.5-.54a5.19,5.19,0,0,0-1.39-.2q-2.68,0-2.68,3.79t2.68,3.69a6,6,0,0,0,1.83-.27,6.51,6.51,0,0,0,1.68-.82v2.93a5.61,5.61,0,0,1-1.68.73A9.72,9.72,0,0,1,113.77,407.15Z"/><path class="c" d="M127.51,394.13a5.2,5.2,0,0,1,1.15.11l-.25,3.21a3.73,3.73,0,0,0-1-.12,3.64,3.64,0,0,0-2.56.85,3.05,3.05,0,0,0-.92,2.36v6.39H120.5V394.37h2.59l.51,2.11h.17a4.69,4.69,0,0,1,1.58-1.7A3.88,3.88,0,0,1,127.51,394.13Z"/><path class="c" d="M130.8,391.12c0-1.11.62-1.67,1.86-1.67s1.87.56,1.87,1.67a1.65,1.65,0,0,1-.47,1.25,2,2,0,0,1-1.4.44C131.42,392.81,130.8,392.25,130.8,391.12Zm3.57,15.81h-3.43V394.37h3.43Z"/><path class="c" d="M144.86,407.15a4.14,4.14,0,0,1-3.47-1.61h-.18c.12,1,.18,1.66.18,1.82v5.09H138V394.37h2.79l.48,1.63h.16a4,4,0,0,1,3.56-1.87,4.09,4.09,0,0,1,3.48,1.72,8,8,0,0,1,1.26,4.77,9.5,9.5,0,0,1-.59,3.5,4.87,4.87,0,0,1-1.68,2.26A4.35,4.35,0,0,1,144.86,407.15Zm-1-10.27a2.15,2.15,0,0,0-1.86.78,4.49,4.49,0,0,0-.6,2.57v.37a5.29,5.29,0,0,0,.6,2.9,2.15,2.15,0,0,0,1.9.88c1.54,0,2.3-1.27,2.3-3.8a5.43,5.43,0,0,0-.56-2.78A1.93,1.93,0,0,0,143.85,396.88Z"/><path class="c" d="M157.81,404.42A7.44,7.44,0,0,0,160,404v2.55a7.7,7.7,0,0,1-3.14.57,3.84,3.84,0,0,1-3-1,4.48,4.48,0,0,1-.94-3.11v-6.06h-1.64v-1.45l1.89-1.14,1-2.65h2.19v2.67h3.52v2.57h-3.52V403a1.34,1.34,0,0,0,.41,1.07A1.61,1.61,0,0,0,157.81,404.42Z"/><path class="c" d="M173.91,400.62a6.74,6.74,0,0,1-1.62,4.8,5.85,5.85,0,0,1-4.5,1.73,6.29,6.29,0,0,1-3.19-.79,5.26,5.26,0,0,1-2.12-2.28,7.54,7.54,0,0,1-.74-3.46,6.71,6.71,0,0,1,1.6-4.78,5.9,5.9,0,0,1,4.52-1.71,6.39,6.39,0,0,1,3.19.79,5.21,5.21,0,0,1,2.12,2.26A7.61,7.61,0,0,1,173.91,400.62Zm-8.68,0a5.23,5.23,0,0,0,.61,2.82,2.2,2.2,0,0,0,2,1,2.16,2.16,0,0,0,2-.95,5.34,5.34,0,0,0,.6-2.83,5.11,5.11,0,0,0-.61-2.79,2.58,2.58,0,0,0-4,0A5.15,5.15,0,0,0,165.23,400.62Z"/><path class="c" d="M188,406.93h-3.42v-7.34a3.67,3.67,0,0,0-.46-2,1.59,1.59,0,0,0-1.43-.67,2.09,2.09,0,0,0-1.91,1,6.4,6.4,0,0,0-.59,3.18v5.91h-3.43V394.37h2.62l.46,1.61H180a3.5,3.5,0,0,1,1.46-1.36,4.83,4.83,0,0,1,2.19-.49c1.88,0,3.15.62,3.82,1.85h.3a3.34,3.34,0,0,1,1.49-1.36,4.83,4.83,0,0,1,2.22-.49,4.39,4.39,0,0,1,3.23,1.1,4.81,4.81,0,0,1,1.09,3.51v8.19h-3.44v-7.34a3.76,3.76,0,0,0-.45-2,1.59,1.59,0,0,0-1.43-.67,2.12,2.12,0,0,0-1.88.89,5.05,5.05,0,0,0-.63,2.85Z"/><path class="c" d="M210.74,400.62a6.74,6.74,0,0,1-1.62,4.8,5.88,5.88,0,0,1-4.5,1.73,6.26,6.26,0,0,1-3.19-.79,5.34,5.34,0,0,1-2.13-2.28,7.67,7.67,0,0,1-.74-3.46,6.71,6.71,0,0,1,1.61-4.78,5.88,5.88,0,0,1,4.51-1.71,6.37,6.37,0,0,1,3.19.79,5.29,5.29,0,0,1,2.13,2.26A7.61,7.61,0,0,1,210.74,400.62Zm-8.68,0a5.23,5.23,0,0,0,.61,2.82,2.53,2.53,0,0,0,4,0,5.34,5.34,0,0,0,.6-2.83,5.21,5.21,0,0,0-.6-2.79,2.59,2.59,0,0,0-4,0A5.25,5.25,0,0,0,202.06,400.62Z"/><path class="c" d="M225.16,406.93h-3.43v-7.34a3.57,3.57,0,0,0-.48-2,1.76,1.76,0,0,0-1.54-.67,2.31,2.31,0,0,0-2.08.95A6.05,6.05,0,0,0,217,401v5.91h-3.42V394.37h2.61l.46,1.61h.19a3.65,3.65,0,0,1,1.58-1.38,5.38,5.38,0,0,1,2.29-.47,4.37,4.37,0,0,1,3.32,1.19,4.74,4.74,0,0,1,1.14,3.42Z"/><path class="c" d="M234.37,407.15a6.48,6.48,0,0,1-4.74-1.67,6.34,6.34,0,0,1-1.71-4.74,7,7,0,0,1,1.58-4.88,5.61,5.61,0,0,1,4.36-1.73,5.52,5.52,0,0,1,4.14,1.52,5.74,5.74,0,0,1,1.49,4.19v1.66h-8.1a3.32,3.32,0,0,0,.86,2.28,3,3,0,0,0,2.27.82,9.91,9.91,0,0,0,2.15-.23,10.82,10.82,0,0,0,2.11-.76v2.65a7.8,7.8,0,0,1-1.92.67A11.79,11.79,0,0,1,234.37,407.15Zm-.49-10.58a2.2,2.2,0,0,0-1.71.69,3.22,3.22,0,0,0-.7,2h4.8a2.83,2.83,0,0,0-.66-2A2.24,2.24,0,0,0,233.88,396.57Z"/><path class="c" d="M246.25,407.15a4.07,4.07,0,0,1-3.48-1.72,9.65,9.65,0,0,1,0-9.57,4.19,4.19,0,0,1,3.55-1.73A4.09,4.09,0,0,1,250,396h.12a13.37,13.37,0,0,1-.26-2.51v-4h3.43v17.48h-2.62L250,405.3h-.14A3.93,3.93,0,0,1,246.25,407.15Zm1.2-2.73a2.34,2.34,0,0,0,1.93-.76,4.48,4.48,0,0,0,.66-2.6v-.37a5.23,5.23,0,0,0-.62-2.9,2.33,2.33,0,0,0-2-.87,2,2,0,0,0-1.78,1,5.21,5.21,0,0,0-.63,2.82,4.92,4.92,0,0,0,.64,2.79A2.1,2.1,0,0,0,247.45,404.42Z"/><path class="c" d="M264.8,406.93l-.66-1.71h-.09a5,5,0,0,1-1.78,1.51,5.79,5.79,0,0,1-2.39.42,3.88,3.88,0,0,1-2.85-1,4,4,0,0,1-1-2.95,3.3,3.3,0,0,1,1.39-2.94,8,8,0,0,1,4.22-1.05l2.18-.07v-.55a1.71,1.71,0,0,0-2-1.91,8.81,8.81,0,0,0-3.53.91l-1.14-2.31a10.19,10.19,0,0,1,4.81-1.14,6,6,0,0,1,3.87,1.1,4.08,4.08,0,0,1,1.35,3.35v8.37Zm-1-5.82-1.33,0a4.25,4.25,0,0,0-2.22.54,1.69,1.69,0,0,0-.73,1.51c0,1,.55,1.45,1.66,1.45a2.63,2.63,0,0,0,1.91-.69,2.43,2.43,0,0,0,.71-1.82Z"/><path class="c" d="M279.48,403.2a3.46,3.46,0,0,1-1.34,2.94,6.69,6.69,0,0,1-4,1,12,12,0,0,1-2.33-.19,8.47,8.47,0,0,1-1.81-.54v-2.83a11.5,11.5,0,0,0,2.15.75,8.88,8.88,0,0,0,2.1.31c1.25,0,1.87-.36,1.87-1.08a.89.89,0,0,0-.25-.66,3.4,3.4,0,0,0-.85-.57c-.41-.22-.95-.46-1.62-.75a10.28,10.28,0,0,1-2.13-1.12,3.26,3.26,0,0,1-1-1.19,4,4,0,0,1-.3-1.64,3,3,0,0,1,1.29-2.59,6.33,6.33,0,0,1,3.68-.92,10.42,10.42,0,0,1,4.41,1l-1,2.47c-.63-.27-1.22-.49-1.76-.66a5.66,5.66,0,0,0-1.68-.26c-1,0-1.51.28-1.51.82a1,1,0,0,0,.49.8,12.88,12.88,0,0,0,2.14,1,10.07,10.07,0,0,1,2.15,1.11,3.22,3.22,0,0,1,1,1.19A3.64,3.64,0,0,1,279.48,403.2Z"/><path class="c" d="M296.25,403.57a3.1,3.1,0,0,1-1.28,2.65,6.07,6.07,0,0,1-3.6.93,7.93,7.93,0,0,1-3.82-.77v-1.73a9,9,0,0,0,1.91.7,7.55,7.55,0,0,0,2,.26,4.43,4.43,0,0,0,2.24-.46,1.6,1.6,0,0,0,.17-2.65,9.42,9.42,0,0,0-2.44-1.21,13.29,13.29,0,0,1-2.44-1.12,3.47,3.47,0,0,1-1.08-1.08,2.91,2.91,0,0,1-.35-1.45,2.77,2.77,0,0,1,1.22-2.38,5.73,5.73,0,0,1,3.36-.87,9.83,9.83,0,0,1,3.89.81l-.66,1.52A9,9,0,0,0,292,396a3.82,3.82,0,0,0-2,.42,1.29,1.29,0,0,0-.68,1.14,1.43,1.43,0,0,0,.26.85,2.46,2.46,0,0,0,.81.66,18.74,18.74,0,0,0,2.16.91,8.08,8.08,0,0,1,3,1.61A2.82,2.82,0,0,1,296.25,403.57Z"/><path class="c" d="M309.9,400.76a6.75,6.75,0,0,1-1.52,4.7,5.3,5.3,0,0,1-4.18,1.69,5.59,5.59,0,0,1-2.93-.77,5.07,5.07,0,0,1-2-2.23,7.63,7.63,0,0,1-.7-3.39,6.75,6.75,0,0,1,1.51-4.69,5.31,5.31,0,0,1,4.18-1.68,5.18,5.18,0,0,1,4.1,1.72A6.8,6.8,0,0,1,309.9,400.76Zm-9.38,0a5.82,5.82,0,0,0,1,3.59,3.26,3.26,0,0,0,2.77,1.24,3.29,3.29,0,0,0,2.78-1.23,7.24,7.24,0,0,0,0-7.17,3.33,3.33,0,0,0-2.8-1.21,3.28,3.28,0,0,0-2.76,1.2A5.71,5.71,0,0,0,300.52,400.76Z"/><path class="c" d="M321.59,406.93v-8a3.23,3.23,0,0,0-.68-2.24,2.78,2.78,0,0,0-2.15-.74,3.52,3.52,0,0,0-2.83,1,5.28,5.28,0,0,0-.9,3.45v6.46h-1.86V394.62h1.52l.3,1.68h.09a3.89,3.89,0,0,1,1.61-1.41,5.21,5.21,0,0,1,2.3-.5,4.69,4.69,0,0,1,3.34,1.07,4.58,4.58,0,0,1,1.13,3.44v8Z"/><path class="c" d="M72.94,437.28h-.1A4.38,4.38,0,0,1,69,439.15a4.55,4.55,0,0,1-3.75-1.65,7.25,7.25,0,0,1-1.34-4.7,7.37,7.37,0,0,1,1.34-4.72,5,5,0,0,1,7.59.13H73l-.08-.89,0-.86v-5H74.7v17.48H73.19Zm-3.73.31a3.41,3.41,0,0,0,2.77-1,5.26,5.26,0,0,0,.86-3.35v-.4a6.18,6.18,0,0,0-.87-3.73A3.32,3.32,0,0,0,69.19,428a2.85,2.85,0,0,0-2.51,1.28,6.34,6.34,0,0,0-.87,3.6,6.13,6.13,0,0,0,.86,3.56A2.93,2.93,0,0,0,69.21,437.59Z"/><path class="c" d="M86.22,438.93l-.37-1.76h-.09a5,5,0,0,1-1.83,1.57,5.65,5.65,0,0,1-2.29.41,4.12,4.12,0,0,1-2.87-.94,3.47,3.47,0,0,1-1-2.69c0-2.48,2-3.79,6-3.9l2.09-.07v-.77a3.11,3.11,0,0,0-.63-2.14,2.55,2.55,0,0,0-2-.69,8.09,8.09,0,0,0-3.48.95l-.57-1.43a8.32,8.32,0,0,1,2-.77,8.5,8.5,0,0,1,2.17-.28,4.67,4.67,0,0,1,3.26,1,4.08,4.08,0,0,1,1.07,3.14v8.4ZM82,437.61a3.84,3.84,0,0,0,2.74-.95,3.55,3.55,0,0,0,1-2.68v-1.11l-1.86.08a6.74,6.74,0,0,0-3.21.69,2.09,2.09,0,0,0-1,1.9,1.91,1.91,0,0,0,.61,1.54A2.5,2.5,0,0,0,82,437.61Z"/><path class="c" d="M99.87,438.93v-8a3.18,3.18,0,0,0-.69-2.24A2.75,2.75,0,0,0,97,428a3.52,3.52,0,0,0-2.83,1,5.28,5.28,0,0,0-.9,3.45v6.46H91.45V426.62H93l.31,1.68h.09a3.86,3.86,0,0,1,1.6-1.41,5.28,5.28,0,0,1,2.3-.5,4.7,4.7,0,0,1,3.35,1.07,4.58,4.58,0,0,1,1.12,3.44v8Zm-1.39-14a2.26,2.26,0,0,1-1-.21c-.3-.14-.61-.29-.9-.46l-.85-.46a1.77,1.77,0,0,0-.8-.21,1,1,0,0,0-.84.34,2.43,2.43,0,0,0-.45,1h-1.1a3.89,3.89,0,0,1,.79-2.13,2.09,2.09,0,0,1,1.67-.77,2.46,2.46,0,0,1,1,.21,8.77,8.77,0,0,1,.92.46c.29.17.57.32.84.46a1.69,1.69,0,0,0,.77.21,1,1,0,0,0,.82-.33,2.78,2.78,0,0,0,.44-1H101a4,4,0,0,1-.78,2.13A2.1,2.1,0,0,1,98.48,425Z"/><path class="c" d="M105.41,423.28a1.25,1.25,0,0,1,.31-.94,1.13,1.13,0,0,1,.79-.29,1.1,1.1,0,0,1,.77.3,1.2,1.2,0,0,1,.33.93,1.24,1.24,0,0,1-.33.94,1.14,1.14,0,0,1-1.56,0A1.27,1.27,0,0,1,105.41,423.28Zm2,15.65h-1.87V426.62h1.87Z"/><path class="c" d="M119.8,438.93v-8a3.23,3.23,0,0,0-.68-2.24A2.78,2.78,0,0,0,117,428a3.54,3.54,0,0,0-2.83,1,5.28,5.28,0,0,0-.9,3.45v6.46h-1.86V426.62h1.52l.3,1.68h.09a3.89,3.89,0,0,1,1.61-1.41,5.21,5.21,0,0,1,2.3-.5,4.67,4.67,0,0,1,3.34,1.07,4.58,4.58,0,0,1,1.13,3.44v8Z"/><path class="c" d="M133.07,438.93l-.37-1.76h-.09a5.13,5.13,0,0,1-1.84,1.57,5.65,5.65,0,0,1-2.29.41,4.08,4.08,0,0,1-2.86-.94,3.43,3.43,0,0,1-1-2.69c0-2.48,2-3.79,6-3.9l2.09-.07v-.77a3.11,3.11,0,0,0-.63-2.14,2.54,2.54,0,0,0-2-.69,8.16,8.16,0,0,0-3.48.95l-.57-1.43a8.32,8.32,0,0,1,2-.77,8.5,8.5,0,0,1,2.17-.28,4.72,4.72,0,0,1,3.27,1,4.12,4.12,0,0,1,1.06,3.14v8.4Zm-4.22-1.32a3.8,3.8,0,0,0,2.74-.95,3.55,3.55,0,0,0,1-2.68v-1.11l-1.86.08a6.77,6.77,0,0,0-3.21.69,2.09,2.09,0,0,0-1,1.9,1.91,1.91,0,0,0,.61,1.54A2.5,2.5,0,0,0,128.85,437.61Z"/><path class="c" d="M146.23,435.57a3.1,3.1,0,0,1-1.28,2.65,6,6,0,0,1-3.6.93,7.86,7.86,0,0,1-3.81-.77v-1.73a9,9,0,0,0,1.9.7,7.61,7.61,0,0,0,2,.26,4.5,4.5,0,0,0,2.25-.46,1.56,1.56,0,0,0,.78-1.43,1.55,1.55,0,0,0-.62-1.22,9.49,9.49,0,0,0-2.43-1.21,13.46,13.46,0,0,1-2.45-1.12,3.33,3.33,0,0,1-1.07-1.08,2.81,2.81,0,0,1-.36-1.45,2.76,2.76,0,0,1,1.23-2.38,5.67,5.67,0,0,1,3.35-.87,9.79,9.79,0,0,1,3.89.81l-.66,1.52A9,9,0,0,0,142,428a3.84,3.84,0,0,0-2,.42,1.28,1.28,0,0,0-.67,1.14,1.42,1.42,0,0,0,.25.85,2.57,2.57,0,0,0,.81.66,19.58,19.58,0,0,0,2.16.91,8,8,0,0,1,3,1.61A2.82,2.82,0,0,1,146.23,435.57Z"/><path class="c" d="M161,439.15a5.39,5.39,0,0,1-2.19-.44,4.09,4.09,0,0,1-1.67-1.37H157a16.56,16.56,0,0,1,.14,2.05v5.06h-1.86V426.62h1.51l.26,1.68h.09a4.41,4.41,0,0,1,1.67-1.46,5.1,5.1,0,0,1,2.19-.45,4.54,4.54,0,0,1,3.78,1.68,8.91,8.91,0,0,1,0,9.4A4.56,4.56,0,0,1,161,439.15ZM160.69,428a3.31,3.31,0,0,0-2.73,1,5.37,5.37,0,0,0-.86,3.32v.42a6.19,6.19,0,0,0,.86,3.71,3.3,3.3,0,0,0,2.78,1.12,2.9,2.9,0,0,0,2.5-1.29,6.15,6.15,0,0,0,.9-3.56,5.9,5.9,0,0,0-.9-3.53A3,3,0,0,0,160.69,428Z"/><path class="c" d="M176.9,438.93l-.37-1.76h-.09a5.13,5.13,0,0,1-1.84,1.57,5.64,5.64,0,0,1-2.28.41,4.1,4.1,0,0,1-2.87-.94,3.43,3.43,0,0,1-1-2.69c0-2.48,2-3.79,6-3.9l2.09-.07v-.77a3.16,3.16,0,0,0-.62-2.14,2.58,2.58,0,0,0-2-.69,8.16,8.16,0,0,0-3.48.95l-.57-1.43a8.48,8.48,0,0,1,2-.77,8.58,8.58,0,0,1,2.18-.28,4.71,4.71,0,0,1,3.26,1,4.08,4.08,0,0,1,1.06,3.14v8.4Zm-4.21-1.32a3.79,3.79,0,0,0,2.73-.95,3.56,3.56,0,0,0,1-2.68v-1.11l-1.87.08a6.69,6.69,0,0,0-3.2.69,2.08,2.08,0,0,0-1,1.9,1.91,1.91,0,0,0,.62,1.54A2.47,2.47,0,0,0,172.69,437.61Z"/><path class="c" d="M187.74,426.39a7.34,7.34,0,0,1,1.47.14l-.26,1.73a5.92,5.92,0,0,0-1.35-.17,3.26,3.26,0,0,0-2.55,1.21,4.42,4.42,0,0,0-1.06,3v6.61h-1.87V426.62h1.54l.21,2.28H184a5.58,5.58,0,0,1,1.65-1.86A3.79,3.79,0,0,1,187.74,426.39Z"/><path class="c" d="M199.08,438.93l-.37-1.76h-.09a5.13,5.13,0,0,1-1.84,1.57,5.64,5.64,0,0,1-2.28.41,4.1,4.1,0,0,1-2.87-.94,3.47,3.47,0,0,1-1-2.69c0-2.48,2-3.79,6-3.9l2.09-.07v-.77a3.16,3.16,0,0,0-.62-2.14,2.58,2.58,0,0,0-2-.69,8.16,8.16,0,0,0-3.48.95l-.57-1.43a8.48,8.48,0,0,1,2-.77,8.58,8.58,0,0,1,2.18-.28,4.71,4.71,0,0,1,3.26,1,4.08,4.08,0,0,1,1.06,3.14v8.4Zm-4.21-1.32a3.79,3.79,0,0,0,2.73-.95,3.56,3.56,0,0,0,1-2.68v-1.11l-1.87.08a6.69,6.69,0,0,0-3.2.69,2.08,2.08,0,0,0-1,1.9,1.91,1.91,0,0,0,.62,1.54A2.47,2.47,0,0,0,194.87,437.61Z"/><path class="c" d="M215.48,439.15a5.65,5.65,0,0,1-4.31-1.66,6.46,6.46,0,0,1-1.58-4.62,7.14,7.14,0,0,1,1.47-4.73,4.88,4.88,0,0,1,3.93-1.75,4.63,4.63,0,0,1,3.66,1.52,5.85,5.85,0,0,1,1.35,4v1.18h-8.48a4.87,4.87,0,0,0,1.1,3.29,3.78,3.78,0,0,0,2.92,1.12,9.77,9.77,0,0,0,3.93-.83v1.66a9.23,9.23,0,0,1-1.87.61A9.91,9.91,0,0,1,215.48,439.15ZM215,428a3,3,0,0,0-2.36,1,4.39,4.39,0,0,0-1,2.67H218a4.14,4.14,0,0,0-.78-2.7A2.81,2.81,0,0,0,215,428Z"/><path class="c" d="M225,438.93h-1.86V421.45H225Z"/><path class="c" d="M242.91,435.57a3.07,3.07,0,0,1-1.28,2.65,6,6,0,0,1-3.59.93,7.9,7.9,0,0,1-3.82-.77v-1.73a9.16,9.16,0,0,0,1.9.7,7.61,7.61,0,0,0,2,.26,4.47,4.47,0,0,0,2.25-.46,1.56,1.56,0,0,0,.78-1.43,1.52,1.52,0,0,0-.62-1.22,9.14,9.14,0,0,0-2.43-1.21,13.29,13.29,0,0,1-2.44-1.12,3.36,3.36,0,0,1-1.08-1.08,2.81,2.81,0,0,1-.35-1.45,2.75,2.75,0,0,1,1.22-2.38,5.71,5.71,0,0,1,3.36-.87,9.78,9.78,0,0,1,3.88.81l-.66,1.52a8.92,8.92,0,0,0-3.36-.77,3.84,3.84,0,0,0-2,.42,1.28,1.28,0,0,0-.67,1.14,1.42,1.42,0,0,0,.25.85,2.51,2.51,0,0,0,.82.66,18.35,18.35,0,0,0,2.15.91,8,8,0,0,1,3,1.61A2.78,2.78,0,0,1,242.91,435.57Z"/><path class="c" d="M245.79,423.28a1.25,1.25,0,0,1,.31-.94,1.13,1.13,0,0,1,.79-.29,1.1,1.1,0,0,1,.77.3,1.2,1.2,0,0,1,.33.93,1.24,1.24,0,0,1-.33.94,1.14,1.14,0,0,1-1.56,0A1.27,1.27,0,0,1,245.79,423.28Zm2,15.65h-1.87V426.62h1.87Z"/><path class="c" d="M259.7,435.57a3.1,3.1,0,0,1-1.28,2.65,6,6,0,0,1-3.59.93,7.87,7.87,0,0,1-3.82-.77v-1.73a9,9,0,0,0,1.9.7,7.61,7.61,0,0,0,2,.26,4.5,4.5,0,0,0,2.25-.46,1.56,1.56,0,0,0,.78-1.43,1.52,1.52,0,0,0-.62-1.22,9.31,9.31,0,0,0-2.43-1.21,13,13,0,0,1-2.44-1.12,3.27,3.27,0,0,1-1.08-1.08,2.81,2.81,0,0,1-.36-1.45,2.76,2.76,0,0,1,1.23-2.38,5.68,5.68,0,0,1,3.36-.87,9.78,9.78,0,0,1,3.88.81l-.66,1.52a9,9,0,0,0-3.36-.77,3.84,3.84,0,0,0-2,.42,1.28,1.28,0,0,0-.67,1.14,1.42,1.42,0,0,0,.25.85,2.51,2.51,0,0,0,.82.66,18.35,18.35,0,0,0,2.15.91,8,8,0,0,1,3,1.61A2.82,2.82,0,0,1,259.7,435.57Z"/><path class="c" d="M266.71,437.61a5.82,5.82,0,0,0,1-.07,7,7,0,0,0,.73-.15v1.42a3.17,3.17,0,0,1-.89.24,6.07,6.07,0,0,1-1.06.1q-3.57,0-3.57-3.76v-7.32H261.1v-.9l1.77-.78.78-2.63h1.08v2.86h3.57v1.45h-3.57v7.24a2.52,2.52,0,0,0,.53,1.71A1.85,1.85,0,0,0,266.71,437.61Z"/><path class="c" d="M276.05,439.15a5.66,5.66,0,0,1-4.31-1.66,6.45,6.45,0,0,1-1.57-4.62,7.19,7.19,0,0,1,1.46-4.73,4.9,4.9,0,0,1,3.94-1.75,4.66,4.66,0,0,1,3.66,1.52,5.85,5.85,0,0,1,1.35,4v1.18H272.1a4.91,4.91,0,0,0,1.09,3.29,3.8,3.8,0,0,0,2.93,1.12,9.84,9.84,0,0,0,3.93-.83v1.66a9.23,9.23,0,0,1-1.87.61A10.07,10.07,0,0,1,276.05,439.15Zm-.5-11.2a3.07,3.07,0,0,0-2.37,1,4.45,4.45,0,0,0-1,2.67h6.44a4.08,4.08,0,0,0-.79-2.7A2.77,2.77,0,0,0,275.55,428Z"/><path class="c" d="M299.45,438.93v-8a3.33,3.33,0,0,0-.63-2.21,2.44,2.44,0,0,0-2-.73,3.14,3.14,0,0,0-2.57,1,4.75,4.75,0,0,0-.83,3.07v6.88h-1.87v-8a3.39,3.39,0,0,0-.62-2.21,2.46,2.46,0,0,0-2-.73,3.06,3.06,0,0,0-2.57,1,5.69,5.69,0,0,0-.81,3.44v6.46h-1.86V426.62h1.51l.31,1.68h.09a3.57,3.57,0,0,1,1.48-1.4,4.52,4.52,0,0,1,2.15-.51c1.93,0,3.19.7,3.78,2.09h.09a4,4,0,0,1,1.59-1.53,5,5,0,0,1,2.38-.56,4.18,4.18,0,0,1,3.13,1.07,4.83,4.83,0,0,1,1,3.44v8Z"/><path class="c" d="M312.72,438.93l-.37-1.76h-.09a5,5,0,0,1-1.84,1.57,5.64,5.64,0,0,1-2.28.41,4.1,4.1,0,0,1-2.87-.94,3.47,3.47,0,0,1-1-2.69c0-2.48,2-3.79,6-3.9l2.09-.07v-.77a3.16,3.16,0,0,0-.62-2.14,2.57,2.57,0,0,0-2-.69,8.16,8.16,0,0,0-3.49.95l-.57-1.43a8.48,8.48,0,0,1,2-.77,8.58,8.58,0,0,1,2.18-.28,4.69,4.69,0,0,1,3.26,1,4.08,4.08,0,0,1,1.06,3.14v8.4Zm-4.21-1.32a3.79,3.79,0,0,0,2.73-.95,3.52,3.52,0,0,0,1-2.68v-1.11l-1.87.08a6.69,6.69,0,0,0-3.2.69,2.08,2.08,0,0,0-1,1.9,1.91,1.91,0,0,0,.62,1.54A2.47,2.47,0,0,0,308.51,437.61Z"/><path class="c" d="M70.29,458.42a4.59,4.59,0,0,1,3.77,1.65,8.86,8.86,0,0,1,0,9.4,4.54,4.54,0,0,1-3.75,1.68,5.44,5.44,0,0,1-2.2-.44,4.16,4.16,0,0,1-1.67-1.37h-.13l-.39,1.59H64.56V453.45h1.86v4.25c0,.95,0,1.8-.09,2.56h.09A4.43,4.43,0,0,1,70.29,458.42ZM70,460a3.25,3.25,0,0,0-2.75,1.09,6.18,6.18,0,0,0-.85,3.69,6.11,6.11,0,0,0,.87,3.71,3.28,3.28,0,0,0,2.77,1.12,2.88,2.88,0,0,0,2.56-1.25,6.39,6.39,0,0,0,.85-3.6,6.1,6.1,0,0,0-.85-3.58A3,3,0,0,0,70,460Z"/><path class="c" d="M86.22,470.93l-.37-1.76h-.09a5,5,0,0,1-1.83,1.57,5.65,5.65,0,0,1-2.29.41,4.12,4.12,0,0,1-2.87-.94,3.47,3.47,0,0,1-1-2.69c0-2.48,2-3.79,6-3.9l2.09-.07v-.77a3.11,3.11,0,0,0-.63-2.14,2.55,2.55,0,0,0-2-.69,8.09,8.09,0,0,0-3.48.95l-.57-1.43a8.32,8.32,0,0,1,2-.77,8.5,8.5,0,0,1,2.17-.28,4.67,4.67,0,0,1,3.26,1,4.08,4.08,0,0,1,1.07,3.14v8.4ZM82,469.61a3.84,3.84,0,0,0,2.74-.95,3.55,3.55,0,0,0,1-2.68v-1.11l-1.86.08a6.74,6.74,0,0,0-3.21.69,2.09,2.09,0,0,0-1,1.9,1.91,1.91,0,0,0,.61,1.54A2.5,2.5,0,0,0,82,469.61Z"/><path class="c" d="M99.87,470.93v-8a3.18,3.18,0,0,0-.69-2.24A2.75,2.75,0,0,0,97,460a3.52,3.52,0,0,0-2.83,1,5.28,5.28,0,0,0-.9,3.45v6.46H91.45V458.62H93l.31,1.68h.09a3.86,3.86,0,0,1,1.6-1.41,5.28,5.28,0,0,1,2.3-.5,4.7,4.7,0,0,1,3.35,1.07,4.58,4.58,0,0,1,1.12,3.44v8Z"/><path class="c" d="M110.48,471.15a5.26,5.26,0,0,1-4.14-1.65,6.77,6.77,0,0,1-1.46-4.65,6.92,6.92,0,0,1,1.49-4.77,5.33,5.33,0,0,1,4.24-1.69,8.88,8.88,0,0,1,1.77.19,6,6,0,0,1,1.39.45l-.57,1.59a7.36,7.36,0,0,0-1.35-.41,5.87,5.87,0,0,0-1.29-.17q-3.75,0-3.75,4.79a5.63,5.63,0,0,0,.92,3.48,3.16,3.16,0,0,0,2.71,1.21,8.32,8.32,0,0,0,3.15-.66v1.65A6.67,6.67,0,0,1,110.48,471.15Z"/><path class="c" d="M124.08,470.93l-.37-1.76h-.09a5,5,0,0,1-1.83,1.57,5.69,5.69,0,0,1-2.29.41,4.1,4.1,0,0,1-2.87-.94,3.47,3.47,0,0,1-1-2.69c0-2.48,2-3.79,6-3.9l2.08-.07v-.77a3.11,3.11,0,0,0-.62-2.14,2.55,2.55,0,0,0-2-.69,8.09,8.09,0,0,0-3.48.95l-.58-1.43a9.08,9.08,0,0,1,4.17-1.05,4.69,4.69,0,0,1,3.26,1,4.08,4.08,0,0,1,1.06,3.14v8.4Zm-4.21-1.32a3.84,3.84,0,0,0,2.74-.95,3.55,3.55,0,0,0,1-2.68v-1.11l-1.87.08a6.69,6.69,0,0,0-3.2.69,2.07,2.07,0,0,0-1,1.9,1.91,1.91,0,0,0,.61,1.54A2.5,2.5,0,0,0,119.87,469.61Z"/><path class="c" d="M134.92,458.39a7.19,7.19,0,0,1,1.47.14l-.26,1.73a5.92,5.92,0,0,0-1.35-.17,3.28,3.28,0,0,0-2.55,1.21,4.42,4.42,0,0,0-1.06,3v6.61H129.3V458.62h1.54l.22,2.28h.09A5.37,5.37,0,0,1,132.8,459,3.73,3.73,0,0,1,134.92,458.39Z"/><path class="c" d="M138.54,455.28a1.25,1.25,0,0,1,.31-.94,1.13,1.13,0,0,1,.79-.29,1.1,1.1,0,0,1,.77.3,1.2,1.2,0,0,1,.33.93,1.24,1.24,0,0,1-.33.94,1.14,1.14,0,0,1-1.56,0A1.27,1.27,0,0,1,138.54,455.28Zm2,15.65h-1.87V458.62h1.87Z"/><path class="c" d="M155.13,464.76a6.79,6.79,0,0,1-1.51,4.7,5.33,5.33,0,0,1-4.19,1.69,5.59,5.59,0,0,1-2.93-.77,5.13,5.13,0,0,1-2-2.23,7.77,7.77,0,0,1-.69-3.39,6.79,6.79,0,0,1,1.5-4.69,5.32,5.32,0,0,1,4.18-1.68,5.18,5.18,0,0,1,4.1,1.72A6.75,6.75,0,0,1,155.13,464.76Zm-9.37,0a5.82,5.82,0,0,0,.94,3.59,3.26,3.26,0,0,0,2.77,1.24,3.29,3.29,0,0,0,2.78-1.23,7.24,7.24,0,0,0,0-7.17,3.32,3.32,0,0,0-2.8-1.21,3.28,3.28,0,0,0-2.76,1.2A5.78,5.78,0,0,0,145.76,464.76Z"/><path class="c" d="M162.42,458.62h2l2.7,7a26.5,26.5,0,0,1,1.1,3.47h.09c.09-.39.3-1,.61-2s1.33-3.77,3.05-8.53h2l-5.29,14a7,7,0,0,1-1.84,2.95,3.91,3.91,0,0,1-2.58.87,7.34,7.34,0,0,1-1.68-.19v-1.49a6.47,6.47,0,0,0,1.38.13,2.84,2.84,0,0,0,2.74-2.15l.69-1.76Z"/><path class="c" d="M187.67,471.15a5.47,5.47,0,0,1-2.2-.44,4.06,4.06,0,0,1-1.66-1.37h-.14a16.56,16.56,0,0,1,.14,2.05v5.06h-1.87V458.62h1.52l.26,1.68h.09a4.27,4.27,0,0,1,1.67-1.46,5.1,5.1,0,0,1,2.19-.45,4.55,4.55,0,0,1,3.78,1.68,8.91,8.91,0,0,1,0,9.4A4.58,4.58,0,0,1,187.67,471.15ZM187.4,460a3.29,3.29,0,0,0-2.73,1,5.37,5.37,0,0,0-.86,3.32v.42a6.12,6.12,0,0,0,.86,3.71,3.28,3.28,0,0,0,2.77,1.12,2.88,2.88,0,0,0,2.5-1.29,6.07,6.07,0,0,0,.91-3.56,5.83,5.83,0,0,0-.91-3.53A3,3,0,0,0,187.4,460Z"/><path class="c" d="M197.79,458.62v8a3.25,3.25,0,0,0,.68,2.25,2.81,2.81,0,0,0,2.15.74,3.46,3.46,0,0,0,2.82-1.06,5.28,5.28,0,0,0,.89-3.44v-6.47h1.87v12.31h-1.54l-.27-1.65h-.1a3.72,3.72,0,0,1-1.59,1.39,5.38,5.38,0,0,1-2.32.48,4.69,4.69,0,0,1-3.36-1.07,4.52,4.52,0,0,1-1.12-3.41v-8.05Z"/><path class="c" d="M215.35,471.15a5.66,5.66,0,0,1-4.31-1.66,6.45,6.45,0,0,1-1.57-4.62,7.19,7.19,0,0,1,1.46-4.73,4.9,4.9,0,0,1,3.94-1.75,4.66,4.66,0,0,1,3.66,1.52,5.85,5.85,0,0,1,1.35,4v1.18H211.4a4.91,4.91,0,0,0,1.09,3.29,3.8,3.8,0,0,0,2.93,1.12,9.84,9.84,0,0,0,3.93-.83v1.66a9.23,9.23,0,0,1-1.87.61A10.07,10.07,0,0,1,215.35,471.15Zm-.5-11.2a3.07,3.07,0,0,0-2.37,1,4.45,4.45,0,0,0-1,2.67h6.44a4.08,4.08,0,0,0-.79-2.7A2.77,2.77,0,0,0,214.85,460Z"/><path class="c" d="M231.43,469.28h-.1a4.38,4.38,0,0,1-3.86,1.87,4.58,4.58,0,0,1-3.76-1.65,8.92,8.92,0,0,1,0-9.42,5,5,0,0,1,7.59.13h.15l-.08-.89,0-.86v-5h1.87v17.48h-1.52Zm-3.72.31a3.38,3.38,0,0,0,2.76-1,5.2,5.2,0,0,0,.86-3.35v-.4a6.18,6.18,0,0,0-.87-3.73,3.31,3.31,0,0,0-2.78-1.12,2.86,2.86,0,0,0-2.51,1.28,6.34,6.34,0,0,0-.87,3.6,6.05,6.05,0,0,0,.87,3.56A2.92,2.92,0,0,0,227.71,469.59Z"/><path class="c" d="M242.35,471.15a5.65,5.65,0,0,1-4.31-1.66,6.46,6.46,0,0,1-1.58-4.62,7.14,7.14,0,0,1,1.47-4.73,4.9,4.9,0,0,1,3.94-1.75,4.66,4.66,0,0,1,3.66,1.52,5.85,5.85,0,0,1,1.35,4v1.18H238.4a4.86,4.86,0,0,0,1.09,3.29,3.78,3.78,0,0,0,2.93,1.12,9.84,9.84,0,0,0,3.93-.83v1.66a9.23,9.23,0,0,1-1.87.61A10.07,10.07,0,0,1,242.35,471.15Zm-.51-11.2a3.07,3.07,0,0,0-2.36,1,4.45,4.45,0,0,0-1,2.67h6.44a4.08,4.08,0,0,0-.79-2.7A2.78,2.78,0,0,0,241.84,460Z"/><path class="c" d="M258.48,470.93v-8a3.18,3.18,0,0,0-.69-2.24,2.75,2.75,0,0,0-2.14-.74,3.52,3.52,0,0,0-2.83,1,5.28,5.28,0,0,0-.9,3.45v6.46h-1.87V458.62h1.52l.3,1.68H252a4,4,0,0,1,1.61-1.41,5.28,5.28,0,0,1,2.3-.5,4.71,4.71,0,0,1,3.35,1.07,4.58,4.58,0,0,1,1.12,3.44v8Z"/><path class="c" d="M273.94,471.15a4.06,4.06,0,0,1-3.47-1.72,9.58,9.58,0,0,1,0-9.57,4.18,4.18,0,0,1,3.54-1.73,4.1,4.1,0,0,1,3.62,1.85h.11a14.26,14.26,0,0,1-.26-2.51v-4h3.44v17.48h-2.63l-.66-1.63h-.15A3.92,3.92,0,0,1,273.94,471.15Zm1.2-2.73a2.32,2.32,0,0,0,1.93-.76,4.47,4.47,0,0,0,.67-2.6v-.37a5.23,5.23,0,0,0-.62-2.9,2.34,2.34,0,0,0-2-.87,2,2,0,0,0-1.78,1,5.12,5.12,0,0,0-.64,2.82,5,5,0,0,0,.64,2.79A2.11,2.11,0,0,0,275.14,468.42Z"/><path class="c" d="M290.2,471.15a6.51,6.51,0,0,1-4.74-1.67,6.38,6.38,0,0,1-1.7-4.74,6.92,6.92,0,0,1,1.58-4.88,5.61,5.61,0,0,1,4.36-1.73,5.53,5.53,0,0,1,4.14,1.52,5.74,5.74,0,0,1,1.49,4.19v1.66h-8.1a3.32,3.32,0,0,0,.86,2.28,3,3,0,0,0,2.27.82,9.91,9.91,0,0,0,2.15-.23,10.82,10.82,0,0,0,2.11-.76v2.65a7.8,7.8,0,0,1-1.92.67A11.89,11.89,0,0,1,290.2,471.15Zm-.48-10.58a2.2,2.2,0,0,0-1.71.69,3.22,3.22,0,0,0-.7,2h4.8a2.83,2.83,0,0,0-.66-2A2.24,2.24,0,0,0,289.72,460.57Z"/><path class="c" d="M305.1,458.13a4.06,4.06,0,0,1,3.48,1.74,8,8,0,0,1,1.25,4.75,7.83,7.83,0,0,1-1.29,4.82,4.2,4.2,0,0,1-3.53,1.71,4.12,4.12,0,0,1-3.47-1.61h-.24l-.57,1.39h-2.62V453.45h3.43v4.07c0,.51-.05,1.34-.14,2.48h.14A4,4,0,0,1,305.1,458.13Zm-1.1,2.75a2.15,2.15,0,0,0-1.86.78,4.41,4.41,0,0,0-.6,2.57v.37a5.29,5.29,0,0,0,.6,2.9,2.15,2.15,0,0,0,1.9.88,1.94,1.94,0,0,0,1.68-1,5.33,5.33,0,0,0,.62-2.83,5,5,0,0,0-.63-2.78A2,2,0,0,0,304,460.88Z"/><path class="c" d="M312.52,455.12c0-1.11.62-1.67,1.86-1.67s1.87.56,1.87,1.67a1.65,1.65,0,0,1-.47,1.25,2,2,0,0,1-1.4.44C313.14,456.81,312.52,456.25,312.52,455.12Zm3.57,15.81h-3.42V458.37h3.42Z"/><path class="c" d="M323.11,470.93h-3.43V453.45h3.43Z"/><path class="c" d="M326.56,455.12c0-1.11.62-1.67,1.86-1.67s1.87.56,1.87,1.67a1.65,1.65,0,0,1-.47,1.25,2,2,0,0,1-1.4.44C327.18,456.81,326.56,456.25,326.56,455.12Zm3.57,15.81H326.7V458.37h3.43Z"/><path class="c" d="M339,468.42a7.5,7.5,0,0,0,2.16-.39v2.55a7.75,7.75,0,0,1-3.15.57,3.86,3.86,0,0,1-3-1,4.53,4.53,0,0,1-.94-3.11v-6.06h-1.64v-1.45l1.89-1.14,1-2.65h2.19v2.67H341v2.57h-3.51V467a1.34,1.34,0,0,0,.41,1.07A1.56,1.56,0,0,0,339,468.42Z"/><path class="c" d="M351.68,470.93l-.66-1.71h-.09a5,5,0,0,1-1.78,1.51,5.79,5.79,0,0,1-2.39.42,3.84,3.84,0,0,1-2.84-1,4,4,0,0,1-1-2.95,3.3,3.3,0,0,1,1.39-2.94,8,8,0,0,1,4.22-1.05l2.18-.07v-.55a1.71,1.71,0,0,0-1.95-1.91,8.81,8.81,0,0,0-3.54.91L344,459.25a10.19,10.19,0,0,1,4.81-1.14,6,6,0,0,1,3.87,1.1,4.08,4.08,0,0,1,1.35,3.35v8.37Zm-1-5.82-1.33,0a4.25,4.25,0,0,0-2.22.54,1.69,1.69,0,0,0-.73,1.51c0,1,.56,1.45,1.66,1.45A2.63,2.63,0,0,0,350,468a2.43,2.43,0,0,0,.71-1.82Z"/><path class="c" d="M364.61,458.13a5.2,5.2,0,0,1,1.15.11l-.25,3.21a3.73,3.73,0,0,0-1-.12,3.64,3.64,0,0,0-2.56.85,3,3,0,0,0-.91,2.36v6.39H357.6V458.37h2.59l.51,2.11h.17a4.69,4.69,0,0,1,1.58-1.7A3.88,3.88,0,0,1,364.61,458.13Z"/><path class="c" d="M70.06,503.15a6.51,6.51,0,0,1-4.74-1.67,6.38,6.38,0,0,1-1.7-4.74,6.92,6.92,0,0,1,1.58-4.88,5.61,5.61,0,0,1,4.36-1.73,5.53,5.53,0,0,1,4.14,1.52,5.73,5.73,0,0,1,1.48,4.19v1.66H67.09a3.27,3.27,0,0,0,.86,2.28,3,3,0,0,0,2.27.82,9.91,9.91,0,0,0,2.15-.23,10.82,10.82,0,0,0,2.11-.76v2.65a7.8,7.8,0,0,1-1.92.67A11.89,11.89,0,0,1,70.06,503.15Zm-.48-10.58a2.19,2.19,0,0,0-1.71.69,3.22,3.22,0,0,0-.7,2H72a2.83,2.83,0,0,0-.66-2A2.24,2.24,0,0,0,69.58,492.57Z"/><path class="c" d="M81.4,502.93H78V485.45H81.4Z"/><path class="c" d="M98.94,502.93l-.67-1.71h-.09a5,5,0,0,1-1.78,1.51,5.74,5.74,0,0,1-2.38.42,3.85,3.85,0,0,1-2.85-1,4,4,0,0,1-1-2.95,3.3,3.3,0,0,1,1.4-2.94,8,8,0,0,1,4.22-1.05l2.18-.07v-.55a1.71,1.71,0,0,0-2-1.91,8.89,8.89,0,0,0-3.54.91l-1.13-2.31a10.19,10.19,0,0,1,4.81-1.14,6,6,0,0,1,3.87,1.1,4.08,4.08,0,0,1,1.35,3.35v8.37Zm-1-5.82-1.33,0a4.22,4.22,0,0,0-2.22.54,1.69,1.69,0,0,0-.73,1.51c0,1,.55,1.45,1.66,1.45a2.61,2.61,0,0,0,1.9-.69,2.39,2.39,0,0,0,.72-1.82Z"/><path class="c" d="M111.75,503.15a4.15,4.15,0,0,1-3.47-1.61h-.18c.12,1,.18,1.66.18,1.82v5.09h-3.42V490.37h2.78l.48,1.63h.16a4,4,0,0,1,3.56-1.87,4.09,4.09,0,0,1,3.48,1.72,8,8,0,0,1,1.26,4.77,9.5,9.5,0,0,1-.59,3.5,4.87,4.87,0,0,1-1.68,2.26A4.33,4.33,0,0,1,111.75,503.15Zm-1-10.27a2.13,2.13,0,0,0-1.85.78,4.48,4.48,0,0,0-.61,2.57v.37a5.29,5.29,0,0,0,.6,2.9,2.17,2.17,0,0,0,1.91.88q2.29,0,2.3-3.8a5.42,5.42,0,0,0-.57-2.78A1.93,1.93,0,0,0,110.74,492.88Z"/><path class="c" d="M127.38,502.93l-.66-1.71h-.09a5,5,0,0,1-1.78,1.51,5.75,5.75,0,0,1-2.39.42,3.84,3.84,0,0,1-2.84-1,4,4,0,0,1-1-2.95,3.28,3.28,0,0,1,1.4-2.94,7.93,7.93,0,0,1,4.21-1.05l2.18-.07v-.55a1.71,1.71,0,0,0-2-1.91,8.89,8.89,0,0,0-3.54.91l-1.13-2.31a10.12,10.12,0,0,1,4.8-1.14,6,6,0,0,1,3.88,1.1,4.08,4.08,0,0,1,1.35,3.35v8.37Zm-1-5.82-1.32,0a4.26,4.26,0,0,0-2.23.54,1.71,1.71,0,0,0-.73,1.51c0,1,.56,1.45,1.67,1.45a2.63,2.63,0,0,0,1.9-.69,2.39,2.39,0,0,0,.71-1.82Z"/><path class="c" d="M140.31,490.13a5.37,5.37,0,0,1,1.16.11l-.26,3.21a3.73,3.73,0,0,0-1-.12,3.64,3.64,0,0,0-2.56.85,3,3,0,0,0-.91,2.36v6.39H133.3V490.37h2.6l.5,2.11h.17a4.78,4.78,0,0,1,1.58-1.7A3.88,3.88,0,0,1,140.31,490.13Z"/><path class="c" d="M151.72,502.93l-.66-1.71H151a5,5,0,0,1-1.78,1.51,5.79,5.79,0,0,1-2.39.42,3.88,3.88,0,0,1-2.85-1,4,4,0,0,1-1-2.95,3.3,3.3,0,0,1,1.39-2.94,8,8,0,0,1,4.22-1.05l2.18-.07v-.55a1.71,1.71,0,0,0-2-1.91,8.81,8.81,0,0,0-3.54.91l-1.14-2.31a10.19,10.19,0,0,1,4.81-1.14,6,6,0,0,1,3.87,1.1,4.08,4.08,0,0,1,1.35,3.35v8.37Zm-1-5.82-1.33,0a4.25,4.25,0,0,0-2.22.54,1.69,1.69,0,0,0-.73,1.51c0,1,.55,1.45,1.66,1.45A2.63,2.63,0,0,0,150,500a2.43,2.43,0,0,0,.71-1.82Z"/><path class="c" d="M162.93,500.42a7.39,7.39,0,0,0,2.15-.39v2.55a7.7,7.7,0,0,1-3.14.57,3.84,3.84,0,0,1-3-1A4.48,4.48,0,0,1,158,499v-6.06h-1.64v-1.45l1.89-1.14,1-2.65h2.19v2.67H165v2.57h-3.52V499a1.34,1.34,0,0,0,.41,1.07A1.61,1.61,0,0,0,162.93,500.42Z"/><path class="c" d="M179,496.62a6.78,6.78,0,0,1-1.61,4.8,5.88,5.88,0,0,1-4.51,1.73,6.29,6.29,0,0,1-3.19-.79,5.26,5.26,0,0,1-2.12-2.28,7.67,7.67,0,0,1-.74-3.46,6.71,6.71,0,0,1,1.6-4.78,5.92,5.92,0,0,1,4.52-1.71,6.37,6.37,0,0,1,3.19.79,5.21,5.21,0,0,1,2.12,2.26A7.48,7.48,0,0,1,179,496.62Zm-8.68,0a5.32,5.32,0,0,0,.61,2.82,2.2,2.2,0,0,0,2,1,2.16,2.16,0,0,0,2-.95,5.34,5.34,0,0,0,.6-2.83,5.11,5.11,0,0,0-.61-2.79,2.58,2.58,0,0,0-4,0A5.15,5.15,0,0,0,170.35,496.62Z"/><path class="c" d="M191.81,503.15a4.06,4.06,0,0,1-3.47-1.72,9.58,9.58,0,0,1,0-9.57,4.18,4.18,0,0,1,3.54-1.73,4.1,4.1,0,0,1,3.62,1.85h.11a14.26,14.26,0,0,1-.26-2.51v-4h3.44v17.48h-2.63l-.66-1.63h-.15A3.92,3.92,0,0,1,191.81,503.15Zm1.2-2.73a2.32,2.32,0,0,0,1.93-.76,4.47,4.47,0,0,0,.67-2.6v-.37a5.23,5.23,0,0,0-.62-2.9,2.34,2.34,0,0,0-2-.87,2,2,0,0,0-1.78,1,5.21,5.21,0,0,0-.64,2.82,5,5,0,0,0,.64,2.79A2.11,2.11,0,0,0,193,500.42Z"/><path class="c" d="M208.07,503.15a6.47,6.47,0,0,1-4.73-1.67,6.34,6.34,0,0,1-1.71-4.74,6.92,6.92,0,0,1,1.58-4.88,5.61,5.61,0,0,1,4.36-1.73,5.52,5.52,0,0,1,4.14,1.52,5.74,5.74,0,0,1,1.49,4.19v1.66h-8.1a3.32,3.32,0,0,0,.86,2.28,3,3,0,0,0,2.27.82,9.91,9.91,0,0,0,2.15-.23,10.82,10.82,0,0,0,2.11-.76v2.65a7.8,7.8,0,0,1-1.92.67A11.83,11.83,0,0,1,208.07,503.15Zm-.48-10.58a2.2,2.2,0,0,0-1.71.69,3.22,3.22,0,0,0-.7,2H210a2.83,2.83,0,0,0-.66-2A2.24,2.24,0,0,0,207.59,492.57Z"/><path class="c" d="M219.41,502.93H216V485.45h3.43Z"/><path class="c" d="M234.66,503.15a6.51,6.51,0,0,1-4.74-1.67,6.34,6.34,0,0,1-1.71-4.74,7,7,0,0,1,1.58-4.88,5.61,5.61,0,0,1,4.36-1.73,5.54,5.54,0,0,1,4.15,1.52,5.77,5.77,0,0,1,1.48,4.19v1.66h-8.1a3.32,3.32,0,0,0,.87,2.28,3,3,0,0,0,2.26.82,9.84,9.84,0,0,0,2.15-.23,10.6,10.6,0,0,0,2.11-.76v2.65a7.8,7.8,0,0,1-1.92.67A11.79,11.79,0,0,1,234.66,503.15Zm-.49-10.58a2.16,2.16,0,0,0-1.7.69,3.22,3.22,0,0,0-.71,2h4.81a2.88,2.88,0,0,0-.67-2A2.23,2.23,0,0,0,234.17,492.57Z"/><path class="c" d="M251.32,499.2a3.43,3.43,0,0,1-1.34,2.94,6.64,6.64,0,0,1-4,1,12,12,0,0,1-2.34-.19,8.65,8.65,0,0,1-1.81-.54v-2.83a12,12,0,0,0,2.15.75,8.88,8.88,0,0,0,2.11.31q1.86,0,1.86-1.08a.92.92,0,0,0-.24-.66,3.5,3.5,0,0,0-.86-.57c-.4-.22-.94-.46-1.61-.75a10,10,0,0,1-2.13-1.12,3.07,3.07,0,0,1-1-1.19,3.81,3.81,0,0,1-.31-1.64,3,3,0,0,1,1.3-2.59,6.3,6.3,0,0,1,3.67-.92,10.43,10.43,0,0,1,4.42,1l-1,2.47a18.07,18.07,0,0,0-1.77-.66,5.55,5.55,0,0,0-1.67-.26c-1,0-1.52.28-1.52.82a1,1,0,0,0,.49.8,13.78,13.78,0,0,0,2.14,1A10.46,10.46,0,0,1,250,496.4a3.42,3.42,0,0,1,1,1.19A3.79,3.79,0,0,1,251.32,499.2Z"/><path class="c" d="M259.29,500.42a7.5,7.5,0,0,0,2.15-.39v2.55a7.7,7.7,0,0,1-3.14.57,3.88,3.88,0,0,1-3-1,4.53,4.53,0,0,1-.93-3.11v-6.06h-1.64v-1.45l1.88-1.14,1-2.65h2.19v2.67h3.52v2.57h-3.52V499a1.34,1.34,0,0,0,.41,1.07A1.61,1.61,0,0,0,259.29,500.42Z"/><path class="c" d="M272,502.93l-.66-1.71h-.09a5,5,0,0,1-1.78,1.51,5.74,5.74,0,0,1-2.38.42,3.85,3.85,0,0,1-2.85-1,4,4,0,0,1-1-2.95,3.3,3.3,0,0,1,1.4-2.94,8,8,0,0,1,4.21-1.05l2.18-.07v-.55a1.71,1.71,0,0,0-1.95-1.91,8.89,8.89,0,0,0-3.54.91l-1.13-2.31a10.12,10.12,0,0,1,4.8-1.14,6,6,0,0,1,3.88,1.1,4.08,4.08,0,0,1,1.35,3.35v8.37Zm-1-5.82-1.32,0a4.26,4.26,0,0,0-2.23.54,1.71,1.71,0,0,0-.73,1.51c0,1,.56,1.45,1.67,1.45a2.63,2.63,0,0,0,1.9-.69,2.39,2.39,0,0,0,.71-1.82Z"/><path class="c" d="M281.85,503.15a4.07,4.07,0,0,1-3.48-1.72,9.62,9.62,0,0,1,0-9.57,4.16,4.16,0,0,1,3.54-1.73,4.09,4.09,0,0,1,3.61,1.85h.12a14.26,14.26,0,0,1-.26-2.51v-4h3.44v17.48h-2.63l-.67-1.63h-.14A3.93,3.93,0,0,1,281.85,503.15Zm1.2-2.73a2.32,2.32,0,0,0,1.93-.76,4.48,4.48,0,0,0,.66-2.6v-.37a5.14,5.14,0,0,0-.62-2.9,2.32,2.32,0,0,0-2-.87,2,2,0,0,0-1.78,1,5.21,5.21,0,0,0-.63,2.82,4.92,4.92,0,0,0,.64,2.79A2.11,2.11,0,0,0,283.05,500.42Z"/><path class="c" d="M303.84,496.62a6.74,6.74,0,0,1-1.62,4.8,5.88,5.88,0,0,1-4.5,1.73,6.26,6.26,0,0,1-3.19-.79,5.26,5.26,0,0,1-2.12-2.28,7.54,7.54,0,0,1-.75-3.46,6.71,6.71,0,0,1,1.61-4.78,5.9,5.9,0,0,1,4.52-1.71,6.36,6.36,0,0,1,3.18.79,5.29,5.29,0,0,1,2.13,2.26A7.61,7.61,0,0,1,303.84,496.62Zm-8.68,0a5.23,5.23,0,0,0,.61,2.82,2.18,2.18,0,0,0,2,1,2.15,2.15,0,0,0,2-.95,5.34,5.34,0,0,0,.6-2.83,5.21,5.21,0,0,0-.6-2.79,2.59,2.59,0,0,0-4,0A5.25,5.25,0,0,0,295.16,496.62Z"/><path class="c" d="M306.58,501.74a1.64,1.64,0,0,1,.34-1.14,1.24,1.24,0,0,1,1-.39,1.32,1.32,0,0,1,1,.39,1.59,1.59,0,0,1,.37,1.14,1.57,1.57,0,0,1-.38,1.12,1.31,1.31,0,0,1-1,.39,1.38,1.38,0,0,1-.95-.35A1.55,1.55,0,0,1,306.58,501.74Z"/><path class="c" d="M72.68,79.06H57.75L42.37,49.38h-.26c.36,4.67.55,8.23.55,10.69v19H32.57V36.94H47.44L62.77,66.21h.17q-.4-6.37-.4-10.23v-19H72.68Z"/><path class="c" d="M121.19,57.94q0,10.64-5.21,16.16t-15.27,5.53q-9.92,0-15.2-5.56T80.22,57.88q0-10.52,5.26-16.06t15.28-5.55q10.06,0,15.24,5.51T121.19,57.94Zm-29,0q0,12.21,8.5,12.21c2.88,0,5-1,6.41-3s2.09-5.06,2.09-9.25-.71-7.31-2.12-9.32a7.22,7.22,0,0,0-6.33-3Q92.21,45.61,92.21,57.94Z"/><path class="c" d="M162.88,45.67A7.26,7.26,0,0,0,156.54,49q-2.28,3.33-2.28,9.18,0,12.15,9.25,12.16a18.83,18.83,0,0,0,5.41-.78,54.71,54.71,0,0,0,5.28-1.87V77.3a29.29,29.29,0,0,1-11.93,2.33q-9.54,0-14.62-5.53t-5.08-16A25.5,25.5,0,0,1,145,46.62,17.5,17.5,0,0,1,152.12,39,21.34,21.34,0,0,1,163,36.33a30,30,0,0,1,13,3l-3.48,9a40,40,0,0,0-4.67-1.84A16.32,16.32,0,0,0,162.88,45.67Z"/><path class="c" d="M221.82,57.94q0,10.64-5.22,16.16t-15.27,5.53q-9.9,0-15.19-5.56t-5.29-16.19q0-10.52,5.26-16.06t15.28-5.55q10.06,0,15.24,5.51T221.82,57.94Zm-29,0q0,12.21,8.49,12.21c2.89,0,5-1,6.42-3s2.08-5.06,2.08-9.25-.7-7.31-2.11-9.32a7.23,7.23,0,0,0-6.33-3Q192.84,45.61,192.84,57.94Z"/><path class="c" d="M247.77,79.06l-8.61-30.34h-.26q.61,7.76.61,12v18.3H229.42V36.94h15.16l8.78,29.9h.23l8.62-29.9h15.18V79.06H266.93V60.59c0-1,0-2,.05-3.2s.15-4,.38-8.61h-.25l-8.5,30.28Z"/><path class="c" d="M317,50.33q0,7.06-4.16,10.91T301,65.08h-3.2v14H286.46V36.94H301q8,0,12,3.48T317,50.33Zm-19.19,5.48h2.08A5.68,5.68,0,0,0,304,54.37a5.27,5.27,0,0,0,1.51-4q0-4.26-4.73-4.26h-2.94Z"/><path class="c" d="M335.12,63.73V79.06H323.74V36.94h13.8q17.18,0,17.17,12.44,0,7.32-7.14,11.32l12.27,18.36H346.93L338,63.73Zm0-8.56h2.13c4,0,6-1.75,6-5.27q0-4.35-5.85-4.35h-2.25Z"/><path class="c" d="M388.68,79.06h-25V36.94h25v9.13H375.05V52.7h12.62v9.13H375.05v8h13.63Z"/></svg>