<svg xmlns="http://www.w3.org/2000/svg" viewBox="0 0 419.53 595.28"><defs><style>.a{fill:#ec681c;}.b{fill:#4d4d4d;}.c{fill:#1d1d1b;}.d{fill:none;stroke:#ec681c;stroke-miterlimit:10;stroke-width:6px;}</style></defs><title>achetepasmonero</title><path class="a" d="M209.76,117.58a74.9,74.9,0,0,0-71,98.48h22.38v-63l48.64,48.65,48.65-48.65v63h22.38a74.9,74.9,0,0,0-71-98.48"/><path class="b" d="M177.35,191.69v39.62H145.81a74.85,74.85,0,0,0,127.9,0H242.18V191.69l-32.42,32.42Z"/><path class="a" d="M379.6,368.59V525.9H39.93V368.59H379.6m6-6H33.93V531.9H385.6V362.59Z"/><path class="c" d="M119.85,569.7l-2.06-6.6c-.13-.4-.37-1.32-.73-2.75H117c-.27,1.2-.51,2.12-.72,2.77l-2.12,6.58h-2l-3.06-11.24h1.78q1.1,4.23,1.66,6.45a27,27,0,0,1,.65,3h.08c.07-.39.2-.89.36-1.51s.32-1.11.44-1.47l2.06-6.45H118l2,6.45a22.45,22.45,0,0,1,.78,3h.08a8.91,8.91,0,0,1,.22-1.14q.18-.76,2.14-8.27H125l-3.11,11.24Z"/><path class="c" d="M136.19,569.7l-2.06-6.6c-.13-.4-.38-1.32-.73-2.75h-.08c-.28,1.2-.52,2.12-.72,2.77l-2.12,6.58h-2l-3.07-11.24h1.79l1.65,6.45a24.72,24.72,0,0,1,.65,3h.08c.08-.39.2-.89.37-1.51s.31-1.11.43-1.47l2.07-6.45h1.84l2,6.45a22.45,22.45,0,0,1,.78,3h.08a11.14,11.14,0,0,1,.22-1.14q.18-.76,2.14-8.27h1.76l-3.1,11.24Z"/><path class="c" d="M152.52,569.7l-2.06-6.6c-.13-.4-.37-1.32-.73-2.75h-.08c-.27,1.2-.51,2.12-.72,2.77l-2.12,6.58h-2l-3.06-11.24h1.78c.72,2.82,1.28,5,1.66,6.45a27,27,0,0,1,.65,3H146c.07-.39.2-.89.36-1.51s.32-1.11.44-1.47l2.06-6.45h1.85l2,6.45a20.76,20.76,0,0,1,.77,3h.09a8.91,8.91,0,0,1,.22-1.14q.18-.76,2.13-8.27h1.77l-3.11,11.24Z"/><path class="c" d="M159.43,568.61a1.5,1.5,0,0,1,.32-1,1.1,1.1,0,0,1,.89-.36,1.2,1.2,0,0,1,.93.36,1.77,1.77,0,0,1,0,2.06,1.23,1.23,0,0,1-.93.36,1.2,1.2,0,0,1-.86-.32A1.41,1.41,0,0,1,159.43,568.61Z"/><path class="c" d="M174.46,558.46v1.07l-2.08.25a3.56,3.56,0,0,1,.74,2.25,3.29,3.29,0,0,1-1.13,2.63,4.51,4.51,0,0,1-3.09,1,4.81,4.81,0,0,1-1-.08,1.69,1.69,0,0,0-1.08,1.45.72.72,0,0,0,.38.68,2.7,2.7,0,0,0,1.3.22h2a4.47,4.47,0,0,1,2.8.77,2.68,2.68,0,0,1,1,2.24,3.18,3.18,0,0,1-1.5,2.84,8,8,0,0,1-4.36,1,5.93,5.93,0,0,1-3.4-.82,2.65,2.65,0,0,1-1.2-2.32,2.59,2.59,0,0,1,.66-1.77,3.36,3.36,0,0,1,1.84-1,1.87,1.87,0,0,1-.72-.6,1.63,1.63,0,0,1-.29-1,1.79,1.79,0,0,1,.33-1.07,3.32,3.32,0,0,1,1-.89,3.09,3.09,0,0,1-1.42-1.22,4,4,0,0,1,.56-4.82,4.52,4.52,0,0,1,3.14-1,5.57,5.57,0,0,1,1.59.21Zm-9,13.12a1.54,1.54,0,0,0,.77,1.39,4.3,4.3,0,0,0,2.21.47,6.22,6.22,0,0,0,3.17-.64,2,2,0,0,0,1-1.74,1.4,1.4,0,0,0-.56-1.27,4.51,4.51,0,0,0-2.13-.35h-2a2.67,2.67,0,0,0-1.8.55A2,2,0,0,0,165.5,571.58Zm.93-9.52a2.29,2.29,0,0,0,.66,1.78,2.7,2.7,0,0,0,1.86.61,2.17,2.17,0,0,0,2.49-2.42,2.24,2.24,0,0,0-2.52-2.54,2.51,2.51,0,0,0-1.85.65A2.6,2.6,0,0,0,166.43,562.06Z"/><path class="c" d="M181.52,569.9a5.17,5.17,0,0,1-3.93-1.52,5.86,5.86,0,0,1-1.44-4.21,6.54,6.54,0,0,1,1.33-4.32,4.48,4.48,0,0,1,3.6-1.6,4.22,4.22,0,0,1,3.34,1.39,5.34,5.34,0,0,1,1.23,3.67v1.07h-7.74a4.45,4.45,0,0,0,1,3,3.46,3.46,0,0,0,2.67,1,9,9,0,0,0,3.59-.76v1.52a8.72,8.72,0,0,1-1.71.56A9.7,9.7,0,0,1,181.52,569.9Zm-.46-10.22a2.78,2.78,0,0,0-2.16.88,4.07,4.07,0,0,0-1,2.44h5.88a3.75,3.75,0,0,0-.72-2.47A2.52,2.52,0,0,0,181.06,559.68Z"/><path class="c" d="M192.18,568.5a6.4,6.4,0,0,0,.88-.07,6,6,0,0,0,.66-.14v1.3a3,3,0,0,1-.81.22,6,6,0,0,1-1,.09c-2.18,0-3.26-1.14-3.26-3.44v-6.68h-1.61V559l1.61-.71.71-2.4h1v2.61h3.26v1.32h-3.26v6.61a2.28,2.28,0,0,0,.48,1.56A1.68,1.68,0,0,0,192.18,568.5Z"/><path class="c" d="M210.29,569.7v-7.32a3.05,3.05,0,0,0-.57-2,2.23,2.23,0,0,0-1.79-.67,2.85,2.85,0,0,0-2.34.91,4.33,4.33,0,0,0-.76,2.81v6.28h-1.71v-7.32a3.05,3.05,0,0,0-.57-2,2.22,2.22,0,0,0-1.79-.67,2.79,2.79,0,0,0-2.35,1,5.21,5.21,0,0,0-.74,3.14v5.9H196V558.46h1.38l.28,1.54h.08a3.32,3.32,0,0,1,1.36-1.29,4.23,4.23,0,0,1,2-.46c1.76,0,2.91.64,3.45,1.91h.08a3.65,3.65,0,0,1,1.46-1.4,4.52,4.52,0,0,1,2.17-.51,3.8,3.8,0,0,1,2.85,1,4.34,4.34,0,0,1,1,3.13v7.34Z"/><path class="c" d="M225.2,564.07a6.21,6.21,0,0,1-1.38,4.29A4.89,4.89,0,0,1,220,569.9a5,5,0,0,1-2.67-.71,4.65,4.65,0,0,1-1.81-2,7.1,7.1,0,0,1-.63-3.09,6.15,6.15,0,0,1,1.37-4.28,4.84,4.84,0,0,1,3.81-1.54,4.77,4.77,0,0,1,3.75,1.57A6.16,6.16,0,0,1,225.2,564.07Zm-8.56,0a5.37,5.37,0,0,0,.86,3.28,3.43,3.43,0,0,0,5.07,0,5.28,5.28,0,0,0,.87-3.28,5.21,5.21,0,0,0-.87-3.26A3.05,3.05,0,0,0,220,559.7a3,3,0,0,0-2.52,1.09A5.31,5.31,0,0,0,216.64,564.07Z"/><path class="c" d="M235.88,569.7v-7.27a2.91,2.91,0,0,0-.63-2,2.52,2.52,0,0,0-2-.68,3.24,3.24,0,0,0-2.58.95,4.82,4.82,0,0,0-.82,3.15v5.9h-1.71V558.46h1.39l.28,1.54h.08a3.46,3.46,0,0,1,1.46-1.29,4.7,4.7,0,0,1,2.11-.46,4.27,4.27,0,0,1,3.05,1,4.14,4.14,0,0,1,1,3.13v7.34Z"/><path class="c" d="M245.82,569.9a5.17,5.17,0,0,1-3.93-1.52,5.86,5.86,0,0,1-1.44-4.21,6.49,6.49,0,0,1,1.34-4.32,4.46,4.46,0,0,1,3.59-1.6,4.22,4.22,0,0,1,3.34,1.39,5.34,5.34,0,0,1,1.23,3.67v1.07h-7.74a4.5,4.5,0,0,0,1,3,3.46,3.46,0,0,0,2.67,1,9,9,0,0,0,3.59-.76v1.52a8.72,8.72,0,0,1-1.71.56A9.7,9.7,0,0,1,245.82,569.9Zm-.46-10.22a2.78,2.78,0,0,0-2.16.88,4.14,4.14,0,0,0-.95,2.44h5.88a3.75,3.75,0,0,0-.72-2.47A2.52,2.52,0,0,0,245.36,559.68Z"/><path class="c" d="M258,558.25a6.19,6.19,0,0,1,1.35.13l-.24,1.57a6,6,0,0,0-1.23-.15,3,3,0,0,0-2.33,1.11,4,4,0,0,0-1,2.76v6h-1.7V558.46h1.4l.2,2.08h.08a4.88,4.88,0,0,1,1.5-1.69A3.39,3.39,0,0,1,258,558.25Z"/><path class="c" d="M271.13,564.07a6.17,6.17,0,0,1-1.39,4.29,4.85,4.85,0,0,1-3.82,1.54,5.08,5.08,0,0,1-2.68-.71,4.63,4.63,0,0,1-1.8-2,7,7,0,0,1-.64-3.09,6.15,6.15,0,0,1,1.38-4.28,5.37,5.37,0,0,1,7.56,0A6.16,6.16,0,0,1,271.13,564.07Zm-8.56,0a5.3,5.3,0,0,0,.86,3.28,3,3,0,0,0,2.53,1.12,3,3,0,0,0,2.54-1.12,5.28,5.28,0,0,0,.86-3.28,5.22,5.22,0,0,0-.86-3.26,3.05,3.05,0,0,0-2.56-1.11,3,3,0,0,0-2.52,1.09A5.31,5.31,0,0,0,262.57,564.07Z"/><path class="c" d="M273.87,568.61a1.5,1.5,0,0,1,.31-1,1.13,1.13,0,0,1,.9-.36,1.19,1.19,0,0,1,.92.36,1.42,1.42,0,0,1,.34,1,1.46,1.46,0,0,1-.34,1,1.21,1.21,0,0,1-.92.36,1.24,1.24,0,0,1-.87-.32A1.41,1.41,0,0,1,273.87,568.61Z"/><path class="c" d="M289.4,564.07a6.21,6.21,0,0,1-1.38,4.29,4.89,4.89,0,0,1-3.83,1.54,5,5,0,0,1-2.67-.71,4.65,4.65,0,0,1-1.81-2,7.1,7.1,0,0,1-.63-3.09,6.15,6.15,0,0,1,1.37-4.28,4.84,4.84,0,0,1,3.81-1.54,4.77,4.77,0,0,1,3.75,1.57A6.16,6.16,0,0,1,289.4,564.07Zm-8.56,0a5.37,5.37,0,0,0,.86,3.28,3.43,3.43,0,0,0,5.07,0,5.28,5.28,0,0,0,.87-3.28,5.21,5.21,0,0,0-.87-3.26,3.05,3.05,0,0,0-2.56-1.11,3,3,0,0,0-2.52,1.09A5.31,5.31,0,0,0,280.84,564.07Z"/><path class="c" d="M297.51,558.25a6,6,0,0,1,1.34.13l-.23,1.57a6,6,0,0,0-1.23-.15,3,3,0,0,0-2.33,1.11,4,4,0,0,0-1,2.76v6h-1.71V558.46h1.41l.19,2.08h.09a4.88,4.88,0,0,1,1.5-1.69A3.39,3.39,0,0,1,297.51,558.25Z"/><path class="c" d="M310.15,558.46v1.07l-2.08.25a3.56,3.56,0,0,1,.74,2.25,3.29,3.29,0,0,1-1.13,2.63,4.51,4.51,0,0,1-3.09,1,4.81,4.81,0,0,1-.95-.08,1.69,1.69,0,0,0-1.08,1.45.72.72,0,0,0,.38.68,2.7,2.7,0,0,0,1.3.22h2a4.47,4.47,0,0,1,2.8.77,2.68,2.68,0,0,1,1,2.24,3.18,3.18,0,0,1-1.5,2.84,8,8,0,0,1-4.36,1,5.93,5.93,0,0,1-3.4-.82,2.65,2.65,0,0,1-1.2-2.32,2.59,2.59,0,0,1,.66-1.77,3.36,3.36,0,0,1,1.84-1,1.87,1.87,0,0,1-.72-.6,1.63,1.63,0,0,1-.29-1,1.79,1.79,0,0,1,.33-1.07,3.32,3.32,0,0,1,1-.89,3.09,3.09,0,0,1-1.42-1.22,4,4,0,0,1,.56-4.82,4.52,4.52,0,0,1,3.14-1,5.57,5.57,0,0,1,1.59.21Zm-9,13.12A1.54,1.54,0,0,0,302,573a4.3,4.3,0,0,0,2.21.47,6.24,6.24,0,0,0,3.17-.64,2,2,0,0,0,1-1.74,1.4,1.4,0,0,0-.56-1.27,4.51,4.51,0,0,0-2.13-.35h-2a2.67,2.67,0,0,0-1.8.55A2,2,0,0,0,301.19,571.58Zm.93-9.52a2.29,2.29,0,0,0,.66,1.78,2.69,2.69,0,0,0,1.86.61,2.17,2.17,0,0,0,2.49-2.42,2.24,2.24,0,0,0-2.52-2.54,2.51,2.51,0,0,0-1.85.65A2.6,2.6,0,0,0,302.12,562.06Z"/><line class="d" x1="322.41" y1="563.98" x2="384.47" y2="563.98"/><line class="d" x1="33.93" y1="563.98" x2="95.99" y2="563.98"/><path class="b" d="M348.74,326.8A14.45,14.45,0,0,1,338,331.37a15.28,15.28,0,0,1-9.92-3.53,15,15,0,0,1-5.56-12.27,15.68,15.68,0,0,1,4.42-11.47,15.27,15.27,0,0,1,21.8.11,16.49,16.49,0,0,1,0,22.59M355,298.05a23.22,23.22,0,0,0-17.06-7.18,24.46,24.46,0,0,0-21.13,12.21,25,25,0,0,0,3.72,29.62,24.4,24.4,0,0,0,34.57.2,23.63,23.63,0,0,0,7-17.33A24,24,0,0,0,355,298.05M296.52,308.9c-1.13.79-1.66,1.17-4.64,1.17H280.13V300h11.38a7.82,7.82,0,0,1,3.62.52,4.57,4.57,0,0,1,2.23,1.7,4.68,4.68,0,0,1,.84,2.79,4.36,4.36,0,0,1-1.68,3.86m1.41,9.25a14.24,14.24,0,0,0,7-4.92,13.6,13.6,0,0,0,2.31-8.1,14.67,14.67,0,0,0-2.1-8,11.86,11.86,0,0,0-5.55-4.82q-3.45-1.45-11.6-1.46h-17.2V340h9.34V319.18h8.15L299.34,340h10.21l-11.62-21.82Zm-69-27.28h31.83V300H238.21v10h22.54v9H238.21v11.73h22.54V340H228.92Zm-49.31,0h8.94l21.06,32.3v-32.3H219V340h-9l-21-32.2V340h-9.34Zm-20.7,35.93a14.47,14.47,0,0,1-10.78,4.57,15.28,15.28,0,0,1-9.92-3.53,15,15,0,0,1-5.56-12.27,15.69,15.69,0,0,1,4.43-11.47,15.27,15.27,0,0,1,21.8.11,16.49,16.49,0,0,1,0,22.59m6.22-28.75a23.23,23.23,0,0,0-17.06-7.18,24.46,24.46,0,0,0-21.14,12.21,25,25,0,0,0,3.72,29.62,24.4,24.4,0,0,0,34.57.2,23.64,23.64,0,0,0,7.05-17.33,24,24,0,0,0-7.14-17.52m-94.21-7.18h9.15l11.34,34.24,11.52-34.24h9L120.21,340h-9l-5.27-31L95.48,340H87.24l-10.3-31-5.38,31H62.45Z"/><path class="c" d="M71.23,393a3.4,3.4,0,0,0-2.91,1.41,6.55,6.55,0,0,0-1,3.94q0,5.25,3.94,5.25a12.56,12.56,0,0,0,4-.83v2.8a11.27,11.27,0,0,1-4.32.8,6.57,6.57,0,0,1-5.24-2.08,8.79,8.79,0,0,1-1.82-6,9.81,9.81,0,0,1,.89-4.29,6.46,6.46,0,0,1,2.57-2.82,7.49,7.49,0,0,1,3.91-1,10.52,10.52,0,0,1,4.6,1.1l-1.08,2.71a16.91,16.91,0,0,0-1.77-.73A5.21,5.21,0,0,0,71.23,393Z"/><path class="c" d="M85,393.93a4.89,4.89,0,0,1,1.11.1l-.25,3.07a3.73,3.73,0,0,0-1-.11,3.48,3.48,0,0,0-2.45.81,2.91,2.91,0,0,0-.87,2.25v6.12H78.32v-12H80.8l.49,2h.16A4.38,4.38,0,0,1,83,394.55,3.72,3.72,0,0,1,85,393.93Z"/><path class="c" d="M86.59,394.16h3.59l2.27,6.75a9.62,9.62,0,0,1,.39,2.09h.07a9.23,9.23,0,0,1,.46-2.09l2.22-6.75h3.52L94,407.7a5.88,5.88,0,0,1-2,2.82,5,5,0,0,1-3,.93,7.77,7.77,0,0,1-1.67-.18v-2.6a5.86,5.86,0,0,0,1.29.14,2.34,2.34,0,0,0,1.52-.53,3.4,3.4,0,0,0,1-1.61l.19-.59Z"/><path class="c" d="M107.42,406.38a4,4,0,0,1-3.32-1.54h-.17c.11,1,.17,1.59.17,1.74v4.87h-3.27V394.16h2.66l.46,1.55h.15a3.81,3.81,0,0,1,3.41-1.78,3.9,3.9,0,0,1,3.33,1.64,7.64,7.64,0,0,1,1.2,4.57,9.12,9.12,0,0,1-.56,3.34,4.64,4.64,0,0,1-1.61,2.16A4.13,4.13,0,0,1,107.42,406.38Zm-1-9.83a2.08,2.08,0,0,0-1.78.75,4.35,4.35,0,0,0-.58,2.46v.36a5,5,0,0,0,.58,2.77,2,2,0,0,0,1.82.84c1.47,0,2.2-1.21,2.2-3.63a5.21,5.21,0,0,0-.54-2.66A1.85,1.85,0,0,0,106.46,396.55Z"/><path class="c" d="M119.81,403.77a6.81,6.81,0,0,0,2.06-.38v2.44a7.29,7.29,0,0,1-3,.55,3.69,3.69,0,0,1-2.86-1,4.33,4.33,0,0,1-.9-3v-5.79h-1.57v-1.39l1.81-1.1.94-2.53h2.1v2.56h3.36v2.46h-3.36v5.79a1.28,1.28,0,0,0,.39,1A1.56,1.56,0,0,0,119.81,403.77Z"/><path class="c" d="M135.21,400.14a6.48,6.48,0,0,1-1.54,4.59,5.64,5.64,0,0,1-4.31,1.65,6,6,0,0,1-3.05-.76,5,5,0,0,1-2-2.17,7.24,7.24,0,0,1-.71-3.31,6.45,6.45,0,0,1,1.53-4.58,5.65,5.65,0,0,1,4.32-1.63,6.08,6.08,0,0,1,3.05.75,5,5,0,0,1,2,2.16A7.16,7.16,0,0,1,135.21,400.14Zm-8.3,0a5.06,5.06,0,0,0,.58,2.7,2.12,2.12,0,0,0,1.91.91,2.07,2.07,0,0,0,1.89-.91,5.12,5.12,0,0,0,.57-2.7,5,5,0,0,0-.58-2.68,2.46,2.46,0,0,0-3.79,0A4.91,4.91,0,0,0,126.91,400.14Z"/><path class="c" d="M136.86,401.61v-2.68h5.76v2.68Z"/><path class="c" d="M155.75,406.17h-3.28v-7a3.55,3.55,0,0,0-.43-1.95,1.54,1.54,0,0,0-1.37-.65,2,2,0,0,0-1.83.93,6,6,0,0,0-.57,3v5.65H145v-12h2.5l.44,1.53h.18a3.37,3.37,0,0,1,1.4-1.29,4.57,4.57,0,0,1,2.1-.47c1.79,0,3,.59,3.65,1.76h.29a3.21,3.21,0,0,1,1.42-1.3,4.72,4.72,0,0,1,2.12-.46,4.19,4.19,0,0,1,3.09,1.05,4.58,4.58,0,0,1,1.05,3.35v7.84H160v-7a3.55,3.55,0,0,0-.43-1.95,1.54,1.54,0,0,0-1.37-.65,2,2,0,0,0-1.8.86,4.84,4.84,0,0,0-.6,2.73Z"/><path class="c" d="M177.51,400.14a6.48,6.48,0,0,1-1.54,4.59,5.62,5.62,0,0,1-4.31,1.65,6,6,0,0,1-3-.76,5,5,0,0,1-2-2.17,7.37,7.37,0,0,1-.71-3.31,6.41,6.41,0,0,1,1.54-4.58,5.62,5.62,0,0,1,4.31-1.63,6.11,6.11,0,0,1,3.06.75,5.05,5.05,0,0,1,2,2.16A7.29,7.29,0,0,1,177.51,400.14Zm-8.3,0a5.05,5.05,0,0,0,.59,2.7,2.1,2.1,0,0,0,1.9.91,2,2,0,0,0,1.89-.91,5.12,5.12,0,0,0,.57-2.7,5,5,0,0,0-.58-2.68,2.46,2.46,0,0,0-3.79,0A4.91,4.91,0,0,0,169.21,400.14Z"/><path class="c" d="M191.31,406.17H188v-7a3.36,3.36,0,0,0-.46-1.95,1.69,1.69,0,0,0-1.47-.65,2.22,2.22,0,0,0-2,.92,5.69,5.69,0,0,0-.61,3v5.65h-3.28v-12h2.5l.45,1.53h.18a3.38,3.38,0,0,1,1.51-1.31,5.09,5.09,0,0,1,2.18-.45,4.21,4.21,0,0,1,3.18,1.13,4.53,4.53,0,0,1,1.09,3.27Z"/><path class="c" d="M205.77,406.17h-3.28v-7a3.36,3.36,0,0,0-.46-1.95,1.69,1.69,0,0,0-1.47-.65,2.22,2.22,0,0,0-2,.92,5.69,5.69,0,0,0-.61,3v5.65h-3.28v-12h2.5l.44,1.53h.19a3.33,3.33,0,0,1,1.51-1.31,5.09,5.09,0,0,1,2.18-.45,4.21,4.21,0,0,1,3.18,1.13,4.58,4.58,0,0,1,1.09,3.27Z"/><path class="c" d="M216.77,406.17l-.64-1.64h-.08a4.77,4.77,0,0,1-1.71,1.45,5.45,5.45,0,0,1-2.28.4,3.68,3.68,0,0,1-2.72-1,3.79,3.79,0,0,1-1-2.81,3.16,3.16,0,0,1,1.34-2.82,7.77,7.77,0,0,1,4-1l2.08-.06v-.53a1.63,1.63,0,0,0-1.87-1.82,8.48,8.48,0,0,0-3.38.87L209.46,395a9.81,9.81,0,0,1,4.6-1.08,5.75,5.75,0,0,1,3.71,1,3.91,3.91,0,0,1,1.28,3.2v8Zm-1-5.57-1.27,0a4,4,0,0,0-2.12.52,1.62,1.62,0,0,0-.7,1.44c0,.92.53,1.39,1.59,1.39a2.51,2.51,0,0,0,1.82-.66,2.33,2.33,0,0,0,.68-1.74Z"/><path class="c" d="M222.29,391.05c0-1.07.59-1.6,1.78-1.6s1.78.53,1.78,1.6a1.55,1.55,0,0,1-.44,1.19,1.89,1.89,0,0,1-1.34.42C222.88,392.66,222.29,392.13,222.29,391.05Zm3.41,15.12h-3.27v-12h3.27Z"/><path class="c" d="M234.58,406.38a6.2,6.2,0,0,1-4.54-1.6,6.1,6.1,0,0,1-1.63-4.53,6.64,6.64,0,0,1,1.51-4.67,5.38,5.38,0,0,1,4.17-1.65,5.29,5.29,0,0,1,4,1.45,5.51,5.51,0,0,1,1.42,4V401h-7.75a3.15,3.15,0,0,0,.83,2.18,2.91,2.91,0,0,0,2.17.78,9.07,9.07,0,0,0,2.05-.22,10.27,10.27,0,0,0,2-.72v2.53a7.56,7.56,0,0,1-1.84.64A11.48,11.48,0,0,1,234.58,406.38Zm-.46-10.12a2.1,2.1,0,0,0-1.64.66,3,3,0,0,0-.67,1.88h4.59a2.71,2.71,0,0,0-.63-1.88A2.15,2.15,0,0,0,234.12,396.26Z"/><path class="c" d="M253,406.38a5.42,5.42,0,0,1-4.12-1.59,6.13,6.13,0,0,1-1.51-4.41,6.87,6.87,0,0,1,1.4-4.53,4.68,4.68,0,0,1,3.77-1.67,4.44,4.44,0,0,1,3.5,1.45,5.57,5.57,0,0,1,1.29,3.84v1.13h-8.11a4.62,4.62,0,0,0,1.05,3.15,3.62,3.62,0,0,0,2.79,1.07,9.47,9.47,0,0,0,3.76-.79v1.59a9,9,0,0,1-1.78.58A10,10,0,0,1,253,406.38Zm-.48-10.71a3,3,0,0,0-2.27.92,4.29,4.29,0,0,0-1,2.56h6.16a3.93,3.93,0,0,0-.75-2.58A2.66,2.66,0,0,0,252.52,395.67Z"/><path class="c" d="M268,403a3,3,0,0,1-1.22,2.54,5.79,5.79,0,0,1-3.44.89,7.51,7.51,0,0,1-3.65-.74V404a8.75,8.75,0,0,0,1.82.67,7.35,7.35,0,0,0,1.87.25,4.2,4.2,0,0,0,2.15-.45,1.52,1.52,0,0,0,.16-2.53,9.37,9.37,0,0,0-2.33-1.16,12.48,12.48,0,0,1-2.33-1.06,3.28,3.28,0,0,1-1-1,2.68,2.68,0,0,1-.34-1.39,2.64,2.64,0,0,1,1.17-2.27,5.49,5.49,0,0,1,3.21-.83,9.5,9.5,0,0,1,3.72.77l-.64,1.45a8.46,8.46,0,0,0-3.21-.73,3.65,3.65,0,0,0-1.91.4,1.23,1.23,0,0,0-.65,1.09,1.28,1.28,0,0,0,.25.81,2.43,2.43,0,0,0,.77.63,17.78,17.78,0,0,0,2.07.87,7.71,7.71,0,0,1,2.83,1.54A2.7,2.7,0,0,1,268,403Z"/><path class="c" d="M274.67,404.91a5.41,5.41,0,0,0,.91-.07,6.7,6.7,0,0,0,.7-.15v1.37a3.45,3.45,0,0,1-.86.23,6.39,6.39,0,0,1-1,.09q-3.42,0-3.42-3.6v-7h-1.68v-.86l1.68-.74.76-2.52h1v2.73h3.41v1.39h-3.41v6.93a2.36,2.36,0,0,0,.5,1.63A1.77,1.77,0,0,0,274.67,404.91Z"/><path class="c" d="M292.4,406.17v-7.62a3.11,3.11,0,0,0-.65-2.15,2.68,2.68,0,0,0-2.05-.71,3.4,3.4,0,0,0-2.71,1,5.08,5.08,0,0,0-.86,3.3v6.18h-1.78V394.39h1.45l.29,1.61h.08a3.6,3.6,0,0,1,1.54-1.34,5,5,0,0,1,2.2-.48,4.47,4.47,0,0,1,3.2,1,4.37,4.37,0,0,1,1.08,3.29v7.68Z"/><path class="c" d="M302.82,406.38a5.42,5.42,0,0,1-4.12-1.59,6.18,6.18,0,0,1-1.51-4.41,6.87,6.87,0,0,1,1.4-4.53,4.7,4.7,0,0,1,3.77-1.67,4.43,4.43,0,0,1,3.5,1.45,5.57,5.57,0,0,1,1.29,3.84v1.13H299a4.72,4.72,0,0,0,1,3.15,3.63,3.63,0,0,0,2.8,1.07,9.51,9.51,0,0,0,3.76-.79v1.59a9,9,0,0,1-1.79.58A9.9,9.9,0,0,1,302.82,406.38Zm-.48-10.71a2.92,2.92,0,0,0-2.26.92,4.29,4.29,0,0,0-1,2.56h6.16a3.93,3.93,0,0,0-.75-2.58A2.65,2.65,0,0,0,302.34,395.67Zm-1.32-3.1c.34-.45.71-1,1.11-1.61a17.42,17.42,0,0,0,.94-1.65h2.17v.23a16.21,16.21,0,0,1-1.41,1.72,15.08,15.08,0,0,1-1.62,1.57H301Z"/><path class="c" d="M315.5,395.78h-3v10.39h-1.78V395.78h-2.11V395l2.11-.64v-.66q0-4.34,3.79-4.34a7.87,7.87,0,0,1,2.19.38l-.46,1.43a6,6,0,0,0-1.76-.34,1.73,1.73,0,0,0-1.5.68,3.73,3.73,0,0,0-.48,2.15v.76h3Z"/><path class="c" d="M324.89,406.17l-.36-1.68h-.08a5,5,0,0,1-1.76,1.5,5.37,5.37,0,0,1-2.19.39,3.93,3.93,0,0,1-2.74-.9,3.3,3.3,0,0,1-1-2.57c0-2.38,1.9-3.62,5.7-3.74l2-.06v-.73a3,3,0,0,0-.6-2.05,2.46,2.46,0,0,0-1.91-.66,7.79,7.79,0,0,0-3.33.9l-.54-1.36a8.16,8.16,0,0,1,1.9-.74,8.25,8.25,0,0,1,2.08-.27,4.48,4.48,0,0,1,3.12.93,3.91,3.91,0,0,1,1,3v8Zm-4-1.26a3.63,3.63,0,0,0,2.61-.91,3.36,3.36,0,0,0,.95-2.56v-1.06l-1.78.07a6.51,6.51,0,0,0-3.07.66,2,2,0,0,0-.94,1.82,1.82,1.82,0,0,0,.59,1.47A2.42,2.42,0,0,0,320.86,404.91Z"/><path class="c" d="M337.48,403a3,3,0,0,1-1.23,2.54,5.77,5.77,0,0,1-3.44.89,7.53,7.53,0,0,1-3.65-.74V404a9,9,0,0,0,1.82.67,7.43,7.43,0,0,0,1.88.25,4.25,4.25,0,0,0,2.15-.45,1.53,1.53,0,0,0,.15-2.53,9.45,9.45,0,0,0-2.32-1.16,12.33,12.33,0,0,1-2.34-1.06,3.28,3.28,0,0,1-1-1,2.68,2.68,0,0,1-.34-1.39A2.64,2.64,0,0,1,330.3,395a5.49,5.49,0,0,1,3.21-.83,9.5,9.5,0,0,1,3.72.77l-.63,1.45a8.54,8.54,0,0,0-3.22-.73,3.65,3.65,0,0,0-1.91.4,1.22,1.22,0,0,0-.64,1.09,1.34,1.34,0,0,0,.24.81,2.37,2.37,0,0,0,.78.63,17.4,17.4,0,0,0,2.06.87,7.62,7.62,0,0,1,2.83,1.54A2.71,2.71,0,0,1,337.48,403Z"/><path class="c" d="M344.18,404.91a5.33,5.33,0,0,0,.91-.07,6.17,6.17,0,0,0,.7-.15v1.37a3.35,3.35,0,0,1-.85.23,6.61,6.61,0,0,1-1,.09c-2.28,0-3.41-1.2-3.41-3.6v-7h-1.69v-.86l1.69-.74.75-2.52h1v2.73h3.42v1.39h-3.42v6.93a2.41,2.41,0,0,0,.5,1.63A1.77,1.77,0,0,0,344.18,404.91Z"/><path class="c" d="M353.12,406.38a5.4,5.4,0,0,1-4.12-1.59,6.13,6.13,0,0,1-1.51-4.41,6.87,6.87,0,0,1,1.4-4.53,4.68,4.68,0,0,1,3.77-1.67,4.44,4.44,0,0,1,3.5,1.45,5.57,5.57,0,0,1,1.29,3.84v1.13h-8.11a4.67,4.67,0,0,0,1,3.15,3.66,3.66,0,0,0,2.8,1.07,9.47,9.47,0,0,0,3.76-.79v1.59a9,9,0,0,1-1.79.58A9.86,9.86,0,0,1,353.12,406.38Zm-.49-10.71a2.93,2.93,0,0,0-2.26.92,4.29,4.29,0,0,0-1,2.56h6.15a3.93,3.93,0,0,0-.75-2.58A2.65,2.65,0,0,0,352.63,395.67Z"/><path class="c" d="M70,438.38a5.18,5.18,0,0,1-2.1-.42,4,4,0,0,1-1.59-1.31h-.13a17.11,17.11,0,0,1,.13,2v4.84H64.47V426.39h1.45l.25,1.61h.09a4.11,4.11,0,0,1,1.6-1.39,4.82,4.82,0,0,1,2.09-.43,4.36,4.36,0,0,1,3.62,1.6,8.55,8.55,0,0,1,0,9A4.37,4.37,0,0,1,70,438.38Zm-.25-10.69a3.19,3.19,0,0,0-2.62,1,5.18,5.18,0,0,0-.82,3.18v.4a5.91,5.91,0,0,0,.82,3.55,3.18,3.18,0,0,0,2.66,1.07,2.76,2.76,0,0,0,2.39-1.24,5.9,5.9,0,0,0,.86-3.4,5.68,5.68,0,0,0-.86-3.38A2.84,2.84,0,0,0,69.7,427.69Z"/><path class="c" d="M88.12,432.27a6.5,6.5,0,0,1-1.45,4.49,5.11,5.11,0,0,1-4,1.62,5.32,5.32,0,0,1-2.8-.74A4.8,4.8,0,0,1,78,435.51a7.3,7.3,0,0,1-.67-3.24,6.49,6.49,0,0,1,1.44-4.49,5.09,5.09,0,0,1,4-1.6,5,5,0,0,1,3.92,1.64A6.48,6.48,0,0,1,88.12,432.27Zm-9,0a5.62,5.62,0,0,0,.9,3.44,3.58,3.58,0,0,0,5.31,0,5.51,5.51,0,0,0,.91-3.44,5.42,5.42,0,0,0-.91-3.41,3.63,3.63,0,0,0-5.32,0A5.58,5.58,0,0,0,79.15,432.27Z"/><path class="c" d="M92.92,426.39V434a3.06,3.06,0,0,0,.66,2.15,2.67,2.67,0,0,0,2,.71,3.36,3.36,0,0,0,2.7-1,5.08,5.08,0,0,0,.85-3.3v-6.19H101v11.78H99.49l-.25-1.58h-.1a3.58,3.58,0,0,1-1.52,1.33,5.09,5.09,0,0,1-2.22.46,4.53,4.53,0,0,1-3.22-1,4.36,4.36,0,0,1-1.06-3.27v-7.7Z"/><path class="c" d="M110.12,426.18a6.77,6.77,0,0,1,1.41.13l-.25,1.65a6,6,0,0,0-1.29-.16,3.13,3.13,0,0,0-2.44,1.16,4.22,4.22,0,0,0-1,2.89v6.32h-1.78V426.39h1.47l.2,2.18h.09a5.26,5.26,0,0,1,1.58-1.77A3.57,3.57,0,0,1,110.12,426.18Z"/><path class="c" d="M121.23,438.17h-1.79V421.45h1.79Z"/><path class="c" d="M130,438.38a5.42,5.42,0,0,1-4.12-1.59,6.13,6.13,0,0,1-1.51-4.41,6.87,6.87,0,0,1,1.4-4.53,4.68,4.68,0,0,1,3.77-1.67,4.44,4.44,0,0,1,3.5,1.45,5.57,5.57,0,0,1,1.29,3.84v1.13H126.2a4.62,4.62,0,0,0,1,3.15,3.62,3.62,0,0,0,2.79,1.07,9.44,9.44,0,0,0,3.76-.79v1.59a9,9,0,0,1-1.78.58A10,10,0,0,1,130,438.38Zm-.48-10.71a2.92,2.92,0,0,0-2.26.92,4.23,4.23,0,0,0-1,2.56h6.16a3.93,3.93,0,0,0-.75-2.58A2.66,2.66,0,0,0,129.5,427.67Z"/><path class="c" d="M150.66,435a3,3,0,0,1-1.23,2.54,5.76,5.76,0,0,1-3.43.89,7.58,7.58,0,0,1-3.66-.74V436a9.05,9.05,0,0,0,1.83.67,7.3,7.3,0,0,0,1.87.25,4.22,4.22,0,0,0,2.15-.45,1.53,1.53,0,0,0,.15-2.53,9.26,9.26,0,0,0-2.32-1.16,12.33,12.33,0,0,1-2.34-1.06,3.39,3.39,0,0,1-1-1,2.78,2.78,0,0,1-.34-1.39,2.64,2.64,0,0,1,1.17-2.27,5.5,5.5,0,0,1,3.22-.83,9.49,9.49,0,0,1,3.71.77l-.63,1.45a8.46,8.46,0,0,0-3.21-.73,3.66,3.66,0,0,0-1.92.4,1.22,1.22,0,0,0-.64,1.09,1.34,1.34,0,0,0,.24.81,2.37,2.37,0,0,0,.78.63,18.2,18.2,0,0,0,2.06.87,7.62,7.62,0,0,1,2.83,1.54A2.71,2.71,0,0,1,150.66,435Z"/><path class="c" d="M151.69,426.39h1.91l2.58,6.72a23.78,23.78,0,0,1,1,3.32h.09c.09-.37.29-1,.58-1.88s1.27-3.6,2.92-8.16h1.91l-5.06,13.41a6.73,6.73,0,0,1-1.75,2.82,3.76,3.76,0,0,1-2.47.83,7.29,7.29,0,0,1-1.61-.18v-1.43a5.9,5.9,0,0,0,1.32.13,2.72,2.72,0,0,0,2.62-2.06l.66-1.68Z"/><path class="c" d="M172.24,435a3,3,0,0,1-1.22,2.54,5.81,5.81,0,0,1-3.44.89,7.51,7.51,0,0,1-3.65-.74V436a8.75,8.75,0,0,0,1.82.67,7.3,7.3,0,0,0,1.87.25,4.22,4.22,0,0,0,2.15-.45,1.54,1.54,0,0,0,.16-2.53,9.57,9.57,0,0,0-2.33-1.16,12.64,12.64,0,0,1-2.34-1.06,3.39,3.39,0,0,1-1-1,2.78,2.78,0,0,1-.34-1.39,2.64,2.64,0,0,1,1.17-2.27,5.52,5.52,0,0,1,3.22-.83A9.49,9.49,0,0,1,172,427l-.63,1.45a8.46,8.46,0,0,0-3.21-.73,3.62,3.62,0,0,0-1.91.4,1.23,1.23,0,0,0-.65,1.09,1.34,1.34,0,0,0,.24.81,2.37,2.37,0,0,0,.78.63,18.2,18.2,0,0,0,2.06.87A7.62,7.62,0,0,1,171.5,433,2.71,2.71,0,0,1,172.24,435Z"/><path class="c" d="M178.94,436.91a5.53,5.53,0,0,0,.92-.07,6.42,6.42,0,0,0,.69-.15v1.37a3.23,3.23,0,0,1-.85.23,6.49,6.49,0,0,1-1,.09q-3.42,0-3.42-3.6v-7h-1.69v-.86l1.69-.74.75-2.52h1v2.73h3.42v1.39h-3.42v6.93a2.36,2.36,0,0,0,.51,1.63A1.74,1.74,0,0,0,178.94,436.91Z"/><path class="c" d="M187.88,438.38a5.42,5.42,0,0,1-4.12-1.59,6.13,6.13,0,0,1-1.51-4.41,6.87,6.87,0,0,1,1.4-4.53,4.68,4.68,0,0,1,3.77-1.67,4.44,4.44,0,0,1,3.5,1.45,5.57,5.57,0,0,1,1.29,3.84v1.13H184.1a4.67,4.67,0,0,0,1.05,3.15,3.63,3.63,0,0,0,2.8,1.07,9.51,9.51,0,0,0,3.76-.79v1.59a9.25,9.25,0,0,1-1.79.58A10,10,0,0,1,187.88,438.38Zm-.48-10.71a2.92,2.92,0,0,0-2.26.92,4.23,4.23,0,0,0-1,2.56h6.16a3.93,3.93,0,0,0-.75-2.58A2.66,2.66,0,0,0,187.4,427.67Zm1.25-2.84h-1.18a17.3,17.3,0,0,1-1.65-1.58,13.23,13.23,0,0,1-1.39-1.71v-.23h2.18a15.29,15.29,0,0,0,1,1.72,17.3,17.3,0,0,0,1.08,1.54Z"/><path class="c" d="M210.26,438.17v-7.66a3.18,3.18,0,0,0-.6-2.11,2.35,2.35,0,0,0-1.87-.71,3,3,0,0,0-2.46,1,4.55,4.55,0,0,0-.8,2.94v6.58h-1.78v-7.66a3.18,3.18,0,0,0-.6-2.11,2.34,2.34,0,0,0-1.88-.71,2.92,2.92,0,0,0-2.46,1A5.41,5.41,0,0,0,197,432v6.18h-1.78V426.39h1.45L197,428h.09a3.47,3.47,0,0,1,1.42-1.34,4.38,4.38,0,0,1,2.06-.48c1.84,0,3,.66,3.61,2h.08a3.74,3.74,0,0,1,1.53-1.47,4.78,4.78,0,0,1,2.27-.53,4,4,0,0,1,3,1,4.62,4.62,0,0,1,1,3.29v7.68Z"/><path class="c" d="M220.69,438.38a5.4,5.4,0,0,1-4.12-1.59,6.13,6.13,0,0,1-1.51-4.41,6.87,6.87,0,0,1,1.4-4.53,4.67,4.67,0,0,1,3.77-1.67,4.44,4.44,0,0,1,3.5,1.45,5.57,5.57,0,0,1,1.29,3.84v1.13h-8.11a4.67,4.67,0,0,0,1,3.15,3.66,3.66,0,0,0,2.8,1.07,9.47,9.47,0,0,0,3.76-.79v1.59a8.84,8.84,0,0,1-1.79.58A9.86,9.86,0,0,1,220.69,438.38Zm-.49-10.71a2.93,2.93,0,0,0-2.26.92,4.29,4.29,0,0,0-1,2.56h6.15a3.93,3.93,0,0,0-.75-2.58A2.65,2.65,0,0,0,220.2,427.67Z"/><path class="c" d="M239.25,426.2a4.37,4.37,0,0,1,3.6,1.58,8.47,8.47,0,0,1,0,9,4.35,4.35,0,0,1-3.59,1.6,5.11,5.11,0,0,1-2.1-.42,4,4,0,0,1-1.6-1.31h-.12l-.38,1.52h-1.28V421.45h1.78v4.06c0,.91,0,1.73-.08,2.45h.08A4.27,4.27,0,0,1,239.25,426.2Zm-.26,1.49a3.11,3.11,0,0,0-2.63,1.05,8.05,8.05,0,0,0,0,7.08,3.16,3.16,0,0,0,2.66,1.07,2.73,2.73,0,0,0,2.44-1.2,6.14,6.14,0,0,0,.81-3.44,5.88,5.88,0,0,0-.81-3.43A2.84,2.84,0,0,0,239,427.69Z"/><path class="c" d="M254.49,438.17l-.35-1.68h-.09a4.88,4.88,0,0,1-1.75,1.5,5.43,5.43,0,0,1-2.19.39,3.92,3.92,0,0,1-2.74-.9,3.27,3.27,0,0,1-1-2.57c0-2.38,1.9-3.62,5.71-3.74l2-.06v-.73a3,3,0,0,0-.59-2.05,2.46,2.46,0,0,0-1.91-.66,7.79,7.79,0,0,0-3.33.9l-.55-1.36a8.64,8.64,0,0,1,4-1,4.51,4.51,0,0,1,3.12.93,3.91,3.91,0,0,1,1,3v8Zm-4-1.26a3.64,3.64,0,0,0,2.62-.91,3.4,3.4,0,0,0,.95-2.56v-1.06l-1.78.07a6.51,6.51,0,0,0-3.07.66,2,2,0,0,0-.94,1.82,1.82,1.82,0,0,0,.59,1.47A2.39,2.39,0,0,0,250.46,436.91Z"/><path class="c" d="M267.54,438.17v-7.62a3.06,3.06,0,0,0-.65-2.15,2.68,2.68,0,0,0-2.05-.71,3.41,3.41,0,0,0-2.71,1,5.08,5.08,0,0,0-.86,3.3v6.18h-1.78V426.39h1.45l.29,1.61h.08a3.6,3.6,0,0,1,1.54-1.34,5,5,0,0,1,2.2-.48,4.47,4.47,0,0,1,3.2,1,4.37,4.37,0,0,1,1.08,3.29v7.68Z"/><path class="c" d="M277.7,438.38a5,5,0,0,1-4-1.57,6.46,6.46,0,0,1-1.4-4.46,6.64,6.64,0,0,1,1.42-4.56,5.1,5.1,0,0,1,4.05-1.61,8.11,8.11,0,0,1,1.7.18,5.18,5.18,0,0,1,1.33.43l-.54,1.51a10.88,10.88,0,0,0-1.29-.39,6,6,0,0,0-1.24-.15q-3.58,0-3.59,4.57a5.46,5.46,0,0,0,.88,3.33,3,3,0,0,0,2.59,1.16,8,8,0,0,0,3-.63v1.58A6.41,6.41,0,0,1,277.7,438.38Z"/><path class="c" d="M290.71,438.17l-.36-1.68h-.09a4.88,4.88,0,0,1-1.75,1.5,5.4,5.4,0,0,1-2.19.39,3.93,3.93,0,0,1-2.74-.9,3.31,3.31,0,0,1-1-2.57c0-2.38,1.91-3.62,5.71-3.74l2-.06v-.73a3,3,0,0,0-.6-2.05,2.46,2.46,0,0,0-1.91-.66,7.79,7.79,0,0,0-3.33.9l-.54-1.36a8.16,8.16,0,0,1,1.9-.74,8.25,8.25,0,0,1,2.08-.27,4.51,4.51,0,0,1,3.12.93,3.91,3.91,0,0,1,1,3v8Zm-4-1.26a3.63,3.63,0,0,0,2.61-.91,3.36,3.36,0,0,0,.95-2.56v-1.06l-1.78.07a6.51,6.51,0,0,0-3.07.66,2,2,0,0,0-.94,1.82,1.82,1.82,0,0,0,.59,1.47A2.4,2.4,0,0,0,286.68,436.91Z"/><path class="c" d="M295.55,423.2a1.21,1.21,0,0,1,.3-.9,1.09,1.09,0,0,1,.75-.28,1,1,0,0,1,.74.29,1.15,1.15,0,0,1,.32.89,1.19,1.19,0,0,1-.32.9,1.1,1.1,0,0,1-1.49,0A1.22,1.22,0,0,1,295.55,423.2Zm1.93,15H295.7V426.39h1.78Z"/><path class="c" d="M306.64,426.18a6.6,6.6,0,0,1,1.4.13L307.8,428a6,6,0,0,0-1.29-.16,3.15,3.15,0,0,0-2.45,1.16,4.26,4.26,0,0,0-1,2.89v6.32h-1.79V426.39h1.48l.2,2.18H303a5.16,5.16,0,0,1,1.58-1.77A3.57,3.57,0,0,1,306.64,426.18Z"/><path class="c" d="M315.22,438.38a5.42,5.42,0,0,1-4.12-1.59,6.13,6.13,0,0,1-1.51-4.41,6.87,6.87,0,0,1,1.4-4.53,4.68,4.68,0,0,1,3.77-1.67,4.44,4.44,0,0,1,3.5,1.45,5.57,5.57,0,0,1,1.29,3.84v1.13h-8.11a4.62,4.62,0,0,0,1.05,3.15,3.62,3.62,0,0,0,2.79,1.07A9.47,9.47,0,0,0,319,436v1.59a8.84,8.84,0,0,1-1.79.58A9.86,9.86,0,0,1,315.22,438.38Zm-.48-10.71a3,3,0,0,0-2.27.92,4.29,4.29,0,0,0-1,2.56h6.16a3.93,3.93,0,0,0-.76-2.58A2.62,2.62,0,0,0,314.74,427.67Z"/><path class="c" d="M333.28,438.38a5.4,5.4,0,0,1-4.12-1.59,6.13,6.13,0,0,1-1.51-4.41,6.87,6.87,0,0,1,1.4-4.53,4.66,4.66,0,0,1,3.76-1.67,4.45,4.45,0,0,1,3.51,1.45,5.57,5.57,0,0,1,1.29,3.84v1.13H329.5a4.67,4.67,0,0,0,1,3.15,3.66,3.66,0,0,0,2.8,1.07,9.47,9.47,0,0,0,3.76-.79v1.59a9,9,0,0,1-1.79.58A9.86,9.86,0,0,1,333.28,438.38Zm-.49-10.71a2.93,2.93,0,0,0-2.26.92,4.29,4.29,0,0,0-1,2.56h6.15a3.93,3.93,0,0,0-.75-2.58A2.65,2.65,0,0,0,332.79,427.67Z"/><path class="c" d="M344.45,436.91a5.41,5.41,0,0,0,.91-.07,6.17,6.17,0,0,0,.7-.15v1.37a3.35,3.35,0,0,1-.85.23,6.61,6.61,0,0,1-1,.09q-3.42,0-3.42-3.6v-7h-1.68v-.86l1.68-.74.76-2.52h1v2.73H346v1.39h-3.41v6.93a2.41,2.41,0,0,0,.5,1.63A1.77,1.77,0,0,0,344.45,436.91Z"/><path class="c" d="M70,470.38a5.18,5.18,0,0,1-2.1-.42,4,4,0,0,1-1.59-1.31h-.13a17.11,17.11,0,0,1,.13,2v4.84H64.47V458.39h1.45l.25,1.61h.09a4.11,4.11,0,0,1,1.6-1.39,4.82,4.82,0,0,1,2.09-.43,4.36,4.36,0,0,1,3.62,1.6,8.55,8.55,0,0,1,0,9A4.37,4.37,0,0,1,70,470.38Zm-.25-10.69a3.19,3.19,0,0,0-2.62,1,5.18,5.18,0,0,0-.82,3.18v.4a5.91,5.91,0,0,0,.82,3.55,3.18,3.18,0,0,0,2.66,1.07,2.76,2.76,0,0,0,2.39-1.24,5.9,5.9,0,0,0,.86-3.4,5.68,5.68,0,0,0-.86-3.38A2.84,2.84,0,0,0,69.7,459.69Z"/><path class="c" d="M82.93,470.38a5.42,5.42,0,0,1-4.12-1.59,6.13,6.13,0,0,1-1.51-4.41,6.87,6.87,0,0,1,1.4-4.53,4.68,4.68,0,0,1,3.77-1.67,4.44,4.44,0,0,1,3.5,1.45,5.57,5.57,0,0,1,1.29,3.84v1.13H79.15a4.62,4.62,0,0,0,1,3.15A3.62,3.62,0,0,0,83,468.82a9.47,9.47,0,0,0,3.76-.79v1.59a9,9,0,0,1-1.78.58A10,10,0,0,1,82.93,470.38Zm-.48-10.71a2.92,2.92,0,0,0-2.26.92,4.23,4.23,0,0,0-1,2.56h6.16a3.87,3.87,0,0,0-.76-2.58A2.62,2.62,0,0,0,82.45,459.67Z"/><path class="c" d="M92,458.39V466a3.06,3.06,0,0,0,.66,2.15,2.68,2.68,0,0,0,2.05.71,3.36,3.36,0,0,0,2.7-1,5.08,5.08,0,0,0,.86-3.3v-6.19H100v11.78H98.55l-.26-1.58h-.1a3.52,3.52,0,0,1-1.52,1.33,5,5,0,0,1-2.21.46,4.49,4.49,0,0,1-3.22-1,4.36,4.36,0,0,1-1.07-3.27v-7.7Z"/><path class="c" d="M106.38,470.17l-4.47-11.78h1.91l2.54,7c.57,1.63.91,2.69,1,3.17h.08a24.3,24.3,0,0,1,.75-2.35q.63-1.8,2.82-7.81h1.91l-4.47,11.78Z"/><path class="c" d="M119.8,470.38a5.4,5.4,0,0,1-4.12-1.59,6.13,6.13,0,0,1-1.51-4.41,6.87,6.87,0,0,1,1.4-4.53,4.66,4.66,0,0,1,3.76-1.67,4.45,4.45,0,0,1,3.51,1.45,5.57,5.57,0,0,1,1.29,3.84v1.13H116a4.67,4.67,0,0,0,1,3.15,3.66,3.66,0,0,0,2.8,1.07,9.47,9.47,0,0,0,3.76-.79v1.59a9,9,0,0,1-1.79.58A9.86,9.86,0,0,1,119.8,470.38Zm-.49-10.71a2.93,2.93,0,0,0-2.26.92,4.29,4.29,0,0,0-1,2.56h6.15a3.93,3.93,0,0,0-.75-2.58A2.65,2.65,0,0,0,119.31,459.67Z"/><path class="c" d="M135.22,470.17v-7.62a3.11,3.11,0,0,0-.65-2.15,2.68,2.68,0,0,0-2-.71,3.4,3.4,0,0,0-2.71,1A5.08,5.08,0,0,0,129,464v6.18h-1.78V458.39h1.45l.29,1.61H129a3.6,3.6,0,0,1,1.54-1.34,5,5,0,0,1,2.2-.48,4.47,4.47,0,0,1,3.2,1,4.37,4.37,0,0,1,1.08,3.29v7.68Z"/><path class="c" d="M144.47,468.91a5.33,5.33,0,0,0,.91-.07,6.17,6.17,0,0,0,.7-.15v1.37a3.35,3.35,0,0,1-.85.23,6.61,6.61,0,0,1-1,.09q-3.41,0-3.41-3.6v-7h-1.69v-.86l1.69-.74.75-2.52h1v2.73H146v1.39h-3.42v6.93a2.36,2.36,0,0,0,.51,1.63A1.73,1.73,0,0,0,144.47,468.91Z"/><path class="c" d="M161.61,470.17l-.64-1.64h-.08a4.85,4.85,0,0,1-1.71,1.45,5.45,5.45,0,0,1-2.28.4,3.68,3.68,0,0,1-2.72-1,3.76,3.76,0,0,1-1-2.81,3.16,3.16,0,0,1,1.34-2.82,7.75,7.75,0,0,1,4-1l2.09-.06v-.53a1.63,1.63,0,0,0-1.87-1.82,8.48,8.48,0,0,0-3.38.87L154.3,459a9.81,9.81,0,0,1,4.6-1.08,5.7,5.7,0,0,1,3.7,1,3.89,3.89,0,0,1,1.29,3.2v8Zm-1-5.57-1.27,0a4.05,4.05,0,0,0-2.13.52,1.64,1.64,0,0,0-.69,1.44c0,.92.53,1.39,1.59,1.39a2.53,2.53,0,0,0,1.82-.66,2.33,2.33,0,0,0,.68-1.74Z"/><path class="c" d="M173.91,460.62h-2.84v9.55h-3.28v-9.55H166V459l1.8-.88v-.88a4,4,0,0,1,1-3,4.65,4.65,0,0,1,3.24-.95,8.29,8.29,0,0,1,3,.51l-.83,2.4a6.38,6.38,0,0,0-1.83-.31,1.17,1.17,0,0,0-1,.42,1.66,1.66,0,0,0-.31,1v.76h2.84Zm8.51,0h-2.83v9.55h-3.28v-9.55h-1.8V459l1.8-.88v-.88a4,4,0,0,1,1-3,4.62,4.62,0,0,1,3.23-.95,8.31,8.31,0,0,1,3,.51l-.83,2.4a6.38,6.38,0,0,0-1.83-.31,1.17,1.17,0,0,0-1,.42,1.66,1.66,0,0,0-.31,1v.76h2.83Z"/><path class="c" d="M191.92,470.17l-.63-1.64h-.09a4.83,4.83,0,0,1-1.7,1.45,5.53,5.53,0,0,1-2.29.4,3.68,3.68,0,0,1-2.72-1,3.79,3.79,0,0,1-1-2.81,3.14,3.14,0,0,1,1.34-2.82,7.73,7.73,0,0,1,4-1l2.08-.06v-.53a1.63,1.63,0,0,0-1.87-1.82,8.52,8.52,0,0,0-3.38.87L184.62,459a9.77,9.77,0,0,1,4.59-1.08,5.75,5.75,0,0,1,3.71,1,3.89,3.89,0,0,1,1.29,3.2v8Zm-1-5.57-1.26,0a4,4,0,0,0-2.13.52,1.62,1.62,0,0,0-.7,1.44c0,.92.53,1.39,1.59,1.39a2.5,2.5,0,0,0,1.82-.66,2.29,2.29,0,0,0,.68-1.74Z"/><path class="c" d="M197.44,455.05c0-1.07.6-1.6,1.78-1.6s1.79.53,1.79,1.6a1.55,1.55,0,0,1-.45,1.19,1.89,1.89,0,0,1-1.34.42C198,456.66,197.44,456.13,197.44,455.05Zm3.42,15.12h-3.28v-12h3.28Z"/><path class="c" d="M211,457.93a3.9,3.9,0,0,1,3.33,1.66,7.63,7.63,0,0,1,1.2,4.55,7.48,7.48,0,0,1-1.24,4.61,4,4,0,0,1-3.38,1.63,4,4,0,0,1-3.32-1.54h-.22l-.55,1.33h-2.51V453.45h3.28v3.89c0,.49,0,1.28-.13,2.37h.13A3.81,3.81,0,0,1,211,457.93Zm-1.06,2.62a2.06,2.06,0,0,0-1.77.75,4.35,4.35,0,0,0-.58,2.46v.36a5,5,0,0,0,.58,2.77,2,2,0,0,0,1.82.84,1.81,1.81,0,0,0,1.6-.93,5,5,0,0,0,.6-2.7,4.78,4.78,0,0,0-.6-2.66A1.89,1.89,0,0,0,209.92,460.55Z"/><path class="c" d="M221.49,470.17h-3.27V453.45h3.27Z"/><path class="c" d="M224.79,455.05c0-1.07.6-1.6,1.78-1.6s1.79.53,1.79,1.6a1.55,1.55,0,0,1-.45,1.19,1.89,1.89,0,0,1-1.34.42C225.39,456.66,224.79,456.13,224.79,455.05Zm3.42,15.12h-3.28v-12h3.28Z"/><path class="c" d="M238.35,457.93a4.85,4.85,0,0,1,1.1.1l-.24,3.07a3.87,3.87,0,0,0-1-.11,3.44,3.44,0,0,0-2.44.81,2.88,2.88,0,0,0-.88,2.25v6.12h-3.28v-12h2.49l.48,2h.16a4.47,4.47,0,0,1,1.51-1.63A3.72,3.72,0,0,1,238.35,457.93Z"/><path class="c" d="M250.63,470.17h-3.28V453.45h3.28Z"/><path class="c" d="M256.77,454.46l-.44,5.67h-2.12l-.44-5.67Z"/><path class="c" d="M267.54,470.17l-.63-1.64h-.08a4.85,4.85,0,0,1-1.71,1.45,5.45,5.45,0,0,1-2.28.4,3.68,3.68,0,0,1-2.72-1,3.76,3.76,0,0,1-1-2.81,3.16,3.16,0,0,1,1.34-2.82,7.75,7.75,0,0,1,4-1l2.09-.06v-.53a1.63,1.63,0,0,0-1.87-1.82,8.48,8.48,0,0,0-3.38.87L260.24,459a9.81,9.81,0,0,1,4.6-1.08,5.72,5.72,0,0,1,3.7,1,3.89,3.89,0,0,1,1.29,3.2v8Zm-1-5.57-1.27,0a4.05,4.05,0,0,0-2.13.52,1.64,1.64,0,0,0-.69,1.44c0,.92.53,1.39,1.59,1.39a2.53,2.53,0,0,0,1.82-.66,2.33,2.33,0,0,0,.68-1.74Z"/><path class="c" d="M279.8,470.38a4,4,0,0,1-3.32-1.54h-.17c.11,1,.17,1.59.17,1.74v4.87h-3.27V458.16h2.66l.46,1.55h.15a3.81,3.81,0,0,1,3.41-1.78,3.9,3.9,0,0,1,3.33,1.64,7.64,7.64,0,0,1,1.2,4.57,9.12,9.12,0,0,1-.56,3.34,4.64,4.64,0,0,1-1.61,2.16A4.13,4.13,0,0,1,279.8,470.38Zm-1-9.83a2.07,2.07,0,0,0-1.77.75,4.35,4.35,0,0,0-.58,2.46v.36a5,5,0,0,0,.58,2.77,2,2,0,0,0,1.82.84c1.47,0,2.2-1.21,2.2-3.63a5.21,5.21,0,0,0-.54-2.66A1.86,1.86,0,0,0,278.83,460.55Z"/><path class="c" d="M293.72,470.38a4,4,0,0,1-3.32-1.54h-.17c.12,1,.17,1.59.17,1.74v4.87h-3.27V458.16h2.66l.46,1.55h.15a3.82,3.82,0,0,1,3.41-1.78,3.9,3.9,0,0,1,3.33,1.64,7.64,7.64,0,0,1,1.2,4.57,8.92,8.92,0,0,1-.56,3.34,4.64,4.64,0,0,1-1.61,2.16A4.13,4.13,0,0,1,293.72,470.38Zm-1-9.83a2.09,2.09,0,0,0-1.78.75,4.35,4.35,0,0,0-.58,2.46v.36a5.08,5.08,0,0,0,.58,2.77,2,2,0,0,0,1.82.84c1.47,0,2.2-1.21,2.2-3.63a5.21,5.21,0,0,0-.54-2.66A1.85,1.85,0,0,0,292.76,460.55Z"/><path class="c" d="M308.68,470.17l-.64-1.64H308a4.77,4.77,0,0,1-1.71,1.45,5.45,5.45,0,0,1-2.28.4,3.68,3.68,0,0,1-2.72-1,3.79,3.79,0,0,1-1-2.81,3.16,3.16,0,0,1,1.34-2.82,7.77,7.77,0,0,1,4-1l2.08-.06v-.53a1.63,1.63,0,0,0-1.87-1.82,8.48,8.48,0,0,0-3.38.87L301.37,459a9.81,9.81,0,0,1,4.6-1.08,5.75,5.75,0,0,1,3.71,1,3.88,3.88,0,0,1,1.28,3.2v8Zm-1-5.57-1.27,0a4,4,0,0,0-2.12.52,1.62,1.62,0,0,0-.7,1.44c0,.92.53,1.39,1.59,1.39a2.51,2.51,0,0,0,1.82-.66,2.33,2.33,0,0,0,.68-1.74Z"/><path class="c" d="M321,457.93a5,5,0,0,1,1.11.1l-.25,3.07a3.81,3.81,0,0,0-1-.11,3.46,3.46,0,0,0-2.44.81,2.91,2.91,0,0,0-.88,2.25v6.12h-3.27v-12h2.48l.48,2h.16a4.55,4.55,0,0,1,1.51-1.63A3.77,3.77,0,0,1,321,457.93Z"/><path class="c" d="M329.76,470.38a6.19,6.19,0,0,1-4.53-1.6,6.06,6.06,0,0,1-1.63-4.53,6.64,6.64,0,0,1,1.51-4.67,5.35,5.35,0,0,1,4.17-1.65,5.26,5.26,0,0,1,4,1.45,5.47,5.47,0,0,1,1.42,4V465h-7.74a3.14,3.14,0,0,0,.82,2.18,2.93,2.93,0,0,0,2.17.78,9.1,9.1,0,0,0,2.06-.22,10.5,10.5,0,0,0,2-.72v2.53a7.71,7.71,0,0,1-1.84.64A11.58,11.58,0,0,1,329.76,470.38Zm-.46-10.12a2.07,2.07,0,0,0-1.63.66,3.11,3.11,0,0,0-.68,1.88h4.6a2.76,2.76,0,0,0-.63-1.88A2.15,2.15,0,0,0,329.3,460.26Z"/><path class="c" d="M337.19,455.05c0-1.07.59-1.6,1.78-1.6s1.78.53,1.78,1.6a1.58,1.58,0,0,1-.44,1.19,1.91,1.91,0,0,1-1.34.42C337.78,456.66,337.19,456.13,337.19,455.05Zm3.41,15.12h-3.27v-12h3.27Z"/><path class="c" d="M347.32,470.17H344V453.45h3.28Z"/><path class="c" d="M74.75,490.16v1.66l-1.87.48a3.32,3.32,0,0,1,.51,1.81,3.63,3.63,0,0,1-1.35,3,5.82,5.82,0,0,1-3.74,1.08l-.59,0-.49-.05a1.08,1.08,0,0,0-.5.86c0,.47.6.7,1.8.7h2a4.69,4.69,0,0,1,3,.85,3.05,3.05,0,0,1,1,2.5,3.69,3.69,0,0,1-1.76,3.26,9.17,9.17,0,0,1-5,1.16,7,7,0,0,1-3.84-.87,2.79,2.79,0,0,1-1.33-2.46,2.51,2.51,0,0,1,.68-1.81,3.83,3.83,0,0,1,2-1.05,2.16,2.16,0,0,1-.88-.7,1.68,1.68,0,0,1-.37-1,1.7,1.7,0,0,1,.39-1.14,5,5,0,0,1,1.15-.9,3.23,3.23,0,0,1-1.5-1.31,4,4,0,0,1-.55-2.13,3.76,3.76,0,0,1,1.28-3,5.56,5.56,0,0,1,3.65-1.07,9.44,9.44,0,0,1,1.2.09c.46.06.76.11.89.14Zm-9.27,13.7a1.21,1.21,0,0,0,.65,1.07,3.7,3.7,0,0,0,1.83.38,6.51,6.51,0,0,0,2.76-.48,1.47,1.47,0,0,0,1-1.32.94.94,0,0,0-.59-.94,4.87,4.87,0,0,0-1.82-.25H67.6a2.61,2.61,0,0,0-1.51.42A1.32,1.32,0,0,0,65.48,503.86Zm1.2-9.77a2.47,2.47,0,0,0,.44,1.54,1.62,1.62,0,0,0,1.36.57,1.57,1.57,0,0,0,1.35-.57,2.47,2.47,0,0,0,.43-1.54c0-1.45-.59-2.17-1.78-2.17S66.68,492.64,66.68,494.09Z"/><path class="c" d="M87.65,496.14a6.49,6.49,0,0,1-1.55,4.59,5.62,5.62,0,0,1-4.31,1.65,6,6,0,0,1-3.05-.76,5,5,0,0,1-2-2.17,7.37,7.37,0,0,1-.71-3.31,6.41,6.41,0,0,1,1.54-4.58,5.62,5.62,0,0,1,4.32-1.63,6.08,6.08,0,0,1,3,.75,5.05,5.05,0,0,1,2,2.16A7.29,7.29,0,0,1,87.65,496.14Zm-8.31,0a5.05,5.05,0,0,0,.59,2.7,2.1,2.1,0,0,0,1.9.91,2,2,0,0,0,1.89-.91,5.12,5.12,0,0,0,.57-2.7,5,5,0,0,0-.58-2.68,2.46,2.46,0,0,0-3.79,0A5,5,0,0,0,79.34,496.14Z"/><path class="c" d="M98.86,502.17l-.44-1.54h-.17a3.39,3.39,0,0,1-1.5,1.29,5,5,0,0,1-2.2.46,4.22,4.22,0,0,1-3.19-1.13A4.59,4.59,0,0,1,90.29,498v-7.83h3.27v7a3.34,3.34,0,0,0,.47,1.95,1.67,1.67,0,0,0,1.47.65,2.23,2.23,0,0,0,2-.92,5.77,5.77,0,0,0,.61-3v-5.65h3.27v12Z"/><path class="c" d="M107.67,502.17l-4.58-12h3.43l2.32,6.84a11.83,11.83,0,0,1,.48,2.46h.07a10.15,10.15,0,0,1,.48-2.46l2.31-6.84h3.43l-4.58,12Z"/><path class="c" d="M122.76,502.38a6.19,6.19,0,0,1-4.53-1.6,6.06,6.06,0,0,1-1.63-4.53,6.69,6.69,0,0,1,1.5-4.67,5.39,5.39,0,0,1,4.18-1.65,5.26,5.26,0,0,1,4,1.45,5.47,5.47,0,0,1,1.42,4V497h-7.74a3.14,3.14,0,0,0,.82,2.18,2.93,2.93,0,0,0,2.17.78,9,9,0,0,0,2-.22,10,10,0,0,0,2-.72v2.53a7.49,7.49,0,0,1-1.83.64A11.65,11.65,0,0,1,122.76,502.38Zm-.46-10.12a2.06,2.06,0,0,0-1.63.66,3.05,3.05,0,0,0-.68,1.88h4.6a2.77,2.77,0,0,0-.64-1.88A2.13,2.13,0,0,0,122.3,492.26Z"/><path class="c" d="M137,489.93a4.85,4.85,0,0,1,1.1.1l-.24,3.07a3.87,3.87,0,0,0-1-.11,3.44,3.44,0,0,0-2.44.81,2.88,2.88,0,0,0-.88,2.25v6.12h-3.28v-12h2.49l.48,2h.16a4.47,4.47,0,0,1,1.51-1.63A3.72,3.72,0,0,1,137,489.93Z"/><path class="c" d="M151.4,502.17h-3.28v-7a3.36,3.36,0,0,0-.46-1.95,1.69,1.69,0,0,0-1.47-.65,2.22,2.22,0,0,0-2,.92,5.69,5.69,0,0,0-.61,3v5.65h-3.28v-12h2.51l.44,1.53h.18a3.44,3.44,0,0,1,1.51-1.31,5.1,5.1,0,0,1,2.19-.45,4.24,4.24,0,0,1,3.18,1.13,4.57,4.57,0,0,1,1.08,3.27Z"/><path class="c" d="M160.21,502.38a6.17,6.17,0,0,1-4.53-1.6,6.06,6.06,0,0,1-1.64-4.53,6.69,6.69,0,0,1,1.51-4.67,5.39,5.39,0,0,1,4.18-1.65,5.29,5.29,0,0,1,4,1.45,5.51,5.51,0,0,1,1.42,4V497h-7.75a3.15,3.15,0,0,0,.83,2.18,2.93,2.93,0,0,0,2.17.78,9,9,0,0,0,2-.22,10,10,0,0,0,2-.72v2.53a7.42,7.42,0,0,1-1.84.64A11.48,11.48,0,0,1,160.21,502.38Zm-.46-10.12a2.1,2.1,0,0,0-1.64.66,3,3,0,0,0-.67,1.88H162a2.77,2.77,0,0,0-.64-1.88A2.15,2.15,0,0,0,159.75,492.26Z"/><path class="c" d="M178.52,502.17h-3.27v-7a3.54,3.54,0,0,0-.44-1.95,1.53,1.53,0,0,0-1.37-.65,2,2,0,0,0-1.82.93,6,6,0,0,0-.57,3v5.65h-3.28v-12h2.5l.44,1.53h.19a3.34,3.34,0,0,1,1.39-1.29,4.57,4.57,0,0,1,2.1-.47c1.8,0,3,.59,3.65,1.76h.29a3.26,3.26,0,0,1,1.42-1.3,4.76,4.76,0,0,1,2.13-.46A4.15,4.15,0,0,1,185,491a4.58,4.58,0,0,1,1,3.35v7.84h-3.29v-7a3.55,3.55,0,0,0-.43-1.95,1.54,1.54,0,0,0-1.37-.65,2.06,2.06,0,0,0-1.8.86,4.84,4.84,0,0,0-.6,2.73Z"/><path class="c" d="M194.81,502.38a6.17,6.17,0,0,1-4.53-1.6,6.06,6.06,0,0,1-1.64-4.53,6.69,6.69,0,0,1,1.51-4.67,5.39,5.39,0,0,1,4.18-1.65,5.29,5.29,0,0,1,4,1.45,5.47,5.47,0,0,1,1.42,4V497H192a3.15,3.15,0,0,0,.83,2.18,2.93,2.93,0,0,0,2.17.78,9,9,0,0,0,2-.22,10,10,0,0,0,2-.72v2.53a7.42,7.42,0,0,1-1.84.64A11.48,11.48,0,0,1,194.81,502.38Zm-.46-10.12a2.1,2.1,0,0,0-1.64.66,3.11,3.11,0,0,0-.67,1.88h4.6a2.77,2.77,0,0,0-.64-1.88A2.15,2.15,0,0,0,194.35,492.26Z"/><path class="c" d="M213.46,502.17h-3.28v-7a3.36,3.36,0,0,0-.46-1.95,1.69,1.69,0,0,0-1.47-.65,2.22,2.22,0,0,0-2,.92,5.69,5.69,0,0,0-.61,3v5.65h-3.28v-12h2.51l.44,1.53h.18a3.38,3.38,0,0,1,1.51-1.31,5.09,5.09,0,0,1,2.18-.45,4.21,4.21,0,0,1,3.18,1.13,4.53,4.53,0,0,1,1.09,3.27Z"/><path class="c" d="M221.89,499.77a6.81,6.81,0,0,0,2.06-.38v2.44a7.24,7.24,0,0,1-3,.55,3.7,3.7,0,0,1-2.87-1,4.33,4.33,0,0,1-.89-3v-5.79h-1.57v-1.39l1.8-1.1,1-2.53h2.09v2.56h3.36v2.46h-3.36v5.79a1.28,1.28,0,0,0,.39,1A1.58,1.58,0,0,0,221.89,499.77Z"/><path class="c" d="M234,502.17l-.64-1.64h-.08a4.83,4.83,0,0,1-1.7,1.45,5.53,5.53,0,0,1-2.29.4,3.68,3.68,0,0,1-2.72-1,3.79,3.79,0,0,1-1-2.81,3.16,3.16,0,0,1,1.33-2.82,7.77,7.77,0,0,1,4-1l2.08-.06v-.53a1.63,1.63,0,0,0-1.87-1.82,8.48,8.48,0,0,0-3.38.87L226.7,491a9.81,9.81,0,0,1,4.6-1.08,5.75,5.75,0,0,1,3.71,1,3.89,3.89,0,0,1,1.29,3.2v8Zm-1-5.57-1.27,0a4,4,0,0,0-2.12.52,1.62,1.62,0,0,0-.7,1.44c0,.92.53,1.39,1.59,1.39a2.51,2.51,0,0,0,1.82-.66,2.33,2.33,0,0,0,.68-1.74Z"/><path class="c" d="M243,502.17h-3.28V485.45H243Z"/><path class="c" d="M246.3,501a1.63,1.63,0,0,1,.32-1.09,1.19,1.19,0,0,1,.94-.37,1.28,1.28,0,0,1,1,.37,1.53,1.53,0,0,1,.35,1.09,1.49,1.49,0,0,1-.36,1.07,1.28,1.28,0,0,1-1,.38,1.25,1.25,0,0,1-.9-.34A1.48,1.48,0,0,1,246.3,501Z"/><path class="c" d="M62.43,79.06l-2.07-7.9H46.68l-2.14,7.9H32l13.74-42.3H61l13.91,42.3ZM58,61.83l-1.82-6.92q-.63-2.29-1.54-6t-1.19-5.24c-.18,1-.52,2.59-1,4.84S50.79,55.22,49,61.83Z"/><path class="c" d="M98.19,45.67A7.27,7.27,0,0,0,91.85,49q-2.28,3.33-2.28,9.18,0,12.15,9.25,12.16a18.94,18.94,0,0,0,5.42-.78,55.5,55.5,0,0,0,5.27-1.87V77.3a29.29,29.29,0,0,1-11.93,2.33Q88,79.63,83,74.1t-5.08-16a25.5,25.5,0,0,1,2.46-11.49A17.5,17.5,0,0,1,87.43,39,21.34,21.34,0,0,1,98.3,36.33a30,30,0,0,1,13,3l-3.48,9a40,40,0,0,0-4.67-1.84A16.32,16.32,0,0,0,98.19,45.67Z"/><path class="c" d="M153.82,79.06H142.38V61.89H129.16V79.06H117.72V36.94h11.44V52.55h13.22V36.94h11.44Z"/><path class="c" d="M175.25,33.57q-2-1.27-5.86-4c-2.59-1.82-4.78-3.44-6.59-4.86v-.6h12.39q1.5,2,5.85,6.71l1.7,1.9v.84Zm12.68,45.49h-25V36.94h25v9.13H174.3V52.7h12.62v9.13H174.3v8h13.63Z"/><path class="c" d="M213.88,79.06H202.5V46.24H192.22v-9.3h31.92v9.3H213.88Z"/><path class="c" d="M255.16,79.06h-25V36.94h25v9.13H241.54V52.7h12.62v9.13H241.54v8h13.62Z"/><path class="c" d="M308.43,50.33q0,7.06-4.16,10.91t-11.83,3.84h-3.19v14H277.87V36.94h14.57q8,0,12,3.48T308.43,50.33Zm-19.18,5.48h2.07a5.68,5.68,0,0,0,4.08-1.44,5.27,5.27,0,0,0,1.51-4q0-4.26-4.73-4.26h-2.93Z"/><path class="c" d="M341,79.06l-2.08-7.9H325.23l-2.13,7.9H310.59l13.74-42.3h15.19l13.91,42.3Zm-4.44-17.23-1.82-6.92q-.63-2.29-1.54-6T332,43.71c-.17,1-.52,2.59-1,4.84s-1.63,6.67-3.38,13.28Z"/><path class="c" d="M385.52,66.26a12.44,12.44,0,0,1-2,7A13.07,13.07,0,0,1,377.8,78,21.26,21.26,0,0,1,369,79.63,35.8,35.8,0,0,1,362,79,26.14,26.14,0,0,1,356,77V66.84a34,34,0,0,0,6.77,2.61,25.47,25.47,0,0,0,6.46.93,6.3,6.3,0,0,0,3.71-.87,2.7,2.7,0,0,0,1.18-2.27,2.47,2.47,0,0,0-.47-1.51,5.62,5.62,0,0,0-1.53-1.31q-1-.66-5.6-2.71a26.85,26.85,0,0,1-6.18-3.63,11.09,11.09,0,0,1-3.05-4,13.26,13.26,0,0,1-1-5.39,10.77,10.77,0,0,1,4.24-9.07q4.23-3.26,11.63-3.26a32.61,32.61,0,0,1,13.34,3L382,48.14a25.34,25.34,0,0,0-10.2-2.7,5.41,5.41,0,0,0-3.23.77,2.37,2.37,0,0,0-1,1.93,2.78,2.78,0,0,0,1.29,2.22,47,47,0,0,0,6.95,3.57q5.45,2.46,7.57,5.26A11.42,11.42,0,0,1,385.52,66.26Z"/></svg>