<svg xmlns="http://www.w3.org/2000/svg" viewBox="0 0 419.53 595.28"><defs><style>.a{fill:#ec681c;}.b{fill:#4d4d4d;}.c{fill:#1d1d1b;}.d{fill:none;stroke:#ec681c;stroke-miterlimit:10;stroke-width:6px;}</style></defs><title>koopgeenmonero</title><path class="a" d="M209.76,117.58a74.9,74.9,0,0,0-71,98.48h22.38v-63l48.64,48.65,48.65-48.65v63h22.38a74.9,74.9,0,0,0-71-98.48"/><path class="b" d="M177.35,191.69v39.62H145.81a74.85,74.85,0,0,0,127.9,0H242.18V191.69l-32.42,32.42Z"/><path class="a" d="M379.6,368.59V525.9H39.93V368.59H379.6m6-6H33.93V531.9H385.6V362.59Z"/><path class="c" d="M129.52,559.36q-.83,2.58-3.24,10.34h-1.42c-.45-1.34-1.35-4-2.71-8l-2.68,8h-1.42q-.81-2.6-3.26-10.34h1.62l2.38,8.28,2.71-8.28h1.31q.68,2.07,2.73,8.28.57-2.07,2.34-8.28Z"/><path class="c" d="M144.71,559.36l-3.24,10.34h-1.41l-2.71-8q-.67,2-2.69,8h-1.41q-.83-2.6-3.26-10.34h1.62l2.38,8.28,2.7-8.28H138q.68,2.07,2.72,8.28l2.34-8.28Z"/><path class="c" d="M159.91,559.36q-.82,2.58-3.24,10.34h-1.42c-.45-1.34-1.35-4-2.7-8q-.68,2-2.69,8h-1.41q-.82-2.6-3.27-10.34h1.62l2.38,8.28,2.71-8.28h1.31q.68,2.07,2.73,8.28.57-2.07,2.34-8.28Z"/><path class="c" d="M164.17,568.55a1.22,1.22,0,0,1-.34.86,1.1,1.1,0,0,1-.82.35,1.25,1.25,0,0,1-.87-.35,1.22,1.22,0,0,1-.34-.86,1.08,1.08,0,0,1,.34-.82,1.21,1.21,0,0,1,.87-.35,1.07,1.07,0,0,1,.57.16,1.26,1.26,0,0,1,.43.43A1.08,1.08,0,0,1,164.17,568.55Z"/><path class="c" d="M175.37,570a5,5,0,0,1-.29,1.77,4,4,0,0,1-.86,1.39,3.5,3.5,0,0,1-1.37.94,4.74,4.74,0,0,1-1.78.33,5.73,5.73,0,0,1-1-.08,4.43,4.43,0,0,1-.9-.25,2.91,2.91,0,0,1-.8-.45,9.35,9.35,0,0,1-.78-.61l1-1a7.54,7.54,0,0,0,.74.6,2.58,2.58,0,0,0,.76.33,3.7,3.7,0,0,0,1,.12,2.59,2.59,0,0,0,2.14-.88,3.64,3.64,0,0,0,.69-2.3v-1.62a3.32,3.32,0,0,1-.86.82,2.68,2.68,0,0,1-1,.41,4.38,4.38,0,0,1-1.07.12,4.09,4.09,0,0,1-1.41-.24,3.07,3.07,0,0,1-1.09-.68,3.87,3.87,0,0,1-.78-1.17,5.7,5.7,0,0,1-.37-1.45,11.45,11.45,0,0,1-.12-1.68,10,10,0,0,1,.29-2.51,3.69,3.69,0,0,1,1-1.8,3.41,3.41,0,0,1,2.52-.9,4.16,4.16,0,0,1,1.62.28,3.29,3.29,0,0,1,1.28,1.07v-1.23h1.49Zm-1.52-5.57a6.51,6.51,0,0,0-.51-2.83,2.05,2.05,0,0,0-2.05-1,2.31,2.31,0,0,0-1.62.51,2.81,2.81,0,0,0-.76,1.4,10.6,10.6,0,0,0,0,3.89,2.81,2.81,0,0,0,.76,1.4,2.31,2.31,0,0,0,1.62.51,2.06,2.06,0,0,0,2.05-1A6.57,6.57,0,0,0,173.85,564.45Z"/><path class="c" d="M187.06,564.94h-7a3.89,3.89,0,0,0,.8,2.62,2.8,2.8,0,0,0,2.25.93,3.59,3.59,0,0,0,1.46-.27,3.87,3.87,0,0,0,1.25-.9l1,.9a6,6,0,0,1-1.68,1.23,5.17,5.17,0,0,1-2.12.37,5,5,0,0,1-2.38-.56,3.73,3.73,0,0,1-1.55-1.76,6.69,6.69,0,0,1-.58-3,7.17,7.17,0,0,1,.31-2.22,4.64,4.64,0,0,1,.84-1.66,3.8,3.8,0,0,1,1.35-1.07,4.33,4.33,0,0,1,1.77-.34,4,4,0,0,1,2.25.61,3.7,3.7,0,0,1,1.46,1.74,6.43,6.43,0,0,1,.51,2.65Zm-1.52-1.15a5.17,5.17,0,0,0-.3-1.72,2.48,2.48,0,0,0-1-1.13,2.55,2.55,0,0,0-1.45-.43,2.62,2.62,0,0,0-1.48.43,2.36,2.36,0,0,0-1,1.13,5.52,5.52,0,0,0-.31,1.72Z"/><path class="c" d="M194.24,569.7h-1.07a2.49,2.49,0,0,1-1.95-.78,2.9,2.9,0,0,1-.69-2v-6.34h-1.29v-1.15h1.29v-3.26H192v3.26h2.2v1.15H192v6.3c0,1,.48,1.49,1.42,1.49h.78Z"/><path class="c" d="M212,569.7h-1.5v-6.38a2.79,2.79,0,0,0-.67-2,2.47,2.47,0,0,0-1.87-.7,3,3,0,0,0-1.35.29,2.2,2.2,0,0,0-.93.88,2.75,2.75,0,0,0-.32,1.39v6.55h-1.5v-6.38a3.27,3.27,0,0,0-.21-1.21,2.16,2.16,0,0,0-.49-.86,1.85,1.85,0,0,0-.78-.5,3.07,3.07,0,0,0-1.06-.16,2.49,2.49,0,0,0-1.89.7,2.77,2.77,0,0,0-.7,2v6.38h-1.52V559.36h1.52v1.15a3.64,3.64,0,0,1,2.91-1.27,3.88,3.88,0,0,1,1.89.43,3,3,0,0,1,1.29,1.29,3.91,3.91,0,0,1,3.39-1.72,3.76,3.76,0,0,1,2.68,1,3.83,3.83,0,0,1,1.11,2.87Z"/><path class="c" d="M223.61,564.53a10.86,10.86,0,0,1-.11,1.6,4.16,4.16,0,0,1-.39,1.35,3.61,3.61,0,0,1-.75,1.17,4.11,4.11,0,0,1-6.71-1.15,5.38,5.38,0,0,1-.37-1.35,9.91,9.91,0,0,1-.12-1.62,9.5,9.5,0,0,1,.26-2.36,4.12,4.12,0,0,1,1-1.74,4.29,4.29,0,0,1,5.93,0,3.79,3.79,0,0,1,1,1.72A9.23,9.23,0,0,1,223.61,564.53Zm-1.5,0a10.25,10.25,0,0,0-.16-1.91,2.57,2.57,0,0,0-.66-1.29,2.77,2.77,0,0,0-3.77,0,2.57,2.57,0,0,0-.68,1.33,12.63,12.63,0,0,0,0,3.75,2.62,2.62,0,0,0,.68,1.32,2.8,2.8,0,0,0,3.77,0,2.64,2.64,0,0,0,.66-1.3A9.9,9.9,0,0,0,222.11,564.53Z"/><path class="c" d="M235,569.7h-1.5v-6.38a3.76,3.76,0,0,0-.18-1.21,2.46,2.46,0,0,0-.52-.86,1.84,1.84,0,0,0-.76-.5,3.23,3.23,0,0,0-1.08-.16,2.46,2.46,0,0,0-1.87.7,2.81,2.81,0,0,0-.7,2v6.38h-1.51V559.36h1.51v1.15a3.49,3.49,0,0,1,1.28-1,4.25,4.25,0,0,1,1.62-.3,3.57,3.57,0,0,1,2.64,1,3.84,3.84,0,0,1,1.07,2.87Z"/><path class="c" d="M246.58,564.94h-7a3.89,3.89,0,0,0,.8,2.62,2.83,2.83,0,0,0,2.26.93,3.57,3.57,0,0,0,1.45-.27,4,4,0,0,0,1.26-.9l1,.9a6,6,0,0,1-1.68,1.23,5.12,5.12,0,0,1-2.11.37,4.9,4.9,0,0,1-2.38-.56,3.8,3.8,0,0,1-1.56-1.76,6.83,6.83,0,0,1-.58-3,7.49,7.49,0,0,1,.31-2.22,4.64,4.64,0,0,1,.84-1.66,3.75,3.75,0,0,1,1.36-1.07,4.28,4.28,0,0,1,1.76-.34,4,4,0,0,1,2.26.61,3.73,3.73,0,0,1,1.45,1.74,6.42,6.42,0,0,1,.52,2.65Zm-1.52-1.15a5.14,5.14,0,0,0-.31-1.72,2.46,2.46,0,0,0-.94-1.13,2.73,2.73,0,0,0-2.94,0,2.47,2.47,0,0,0-1,1.13,5.83,5.83,0,0,0-.31,1.72Z"/><path class="c" d="M256.69,560.2c-.18.19-.55.57-1.11,1.13a2.77,2.77,0,0,0-.82-.58,2.78,2.78,0,0,0-2.28.19,2.61,2.61,0,0,0-.88,1,3.53,3.53,0,0,0-.29,1.44v6.34h-1.52V559.36h1.52v1.25a2.93,2.93,0,0,1,1.21-1,4,4,0,0,1,1.68-.37A3.43,3.43,0,0,1,256.69,560.2Z"/><path class="c" d="M266.53,564.53a11,11,0,0,1-.1,1.6,4.73,4.73,0,0,1-.39,1.35,3.63,3.63,0,0,1-.76,1.17,4,4,0,0,1-2.95,1.17,4.08,4.08,0,0,1-3-1.17,4,4,0,0,1-.78-1.15,5.38,5.38,0,0,1-.37-1.35,9.91,9.91,0,0,1-.12-1.62,9,9,0,0,1,.27-2.36,4,4,0,0,1,4-2.93,4,4,0,0,1,2.95,1.19,3.7,3.7,0,0,1,1,1.72A9.23,9.23,0,0,1,266.53,564.53Zm-1.5,0a9.46,9.46,0,0,0-.16-1.91,2.46,2.46,0,0,0-2.54-2,2.49,2.49,0,0,0-2.57,2.07,12.63,12.63,0,0,0,0,3.75,2.7,2.7,0,0,0,.68,1.32,2.59,2.59,0,0,0,1.89.73,2.55,2.55,0,0,0,1.88-.73,2.64,2.64,0,0,0,.66-1.3A9.16,9.16,0,0,0,265,564.53Z"/><path class="c" d="M271.92,568.55a1.19,1.19,0,0,1-.35.86,1.07,1.07,0,0,1-.82.35,1.24,1.24,0,0,1-.86-.35,1.23,1.23,0,0,1-.35-.86,1.09,1.09,0,0,1,.35-.82,1.2,1.2,0,0,1,.86-.35,1.08,1.08,0,0,1,.58.16,1.26,1.26,0,0,1,.43.43A1.08,1.08,0,0,1,271.92,568.55Z"/><path class="c" d="M283.39,564.53a10.86,10.86,0,0,1-.11,1.6,4.16,4.16,0,0,1-.39,1.35,3.61,3.61,0,0,1-.75,1.17,4.11,4.11,0,0,1-6.71-1.15,5.38,5.38,0,0,1-.37-1.35,9.91,9.91,0,0,1-.12-1.62,9.5,9.5,0,0,1,.26-2.36,4.12,4.12,0,0,1,1-1.74,4.29,4.29,0,0,1,5.93,0,3.79,3.79,0,0,1,1,1.72A9.23,9.23,0,0,1,283.39,564.53Zm-1.5,0a10.25,10.25,0,0,0-.16-1.91,2.57,2.57,0,0,0-.66-1.29,2.77,2.77,0,0,0-3.77,0,2.57,2.57,0,0,0-.68,1.33,12.63,12.63,0,0,0,0,3.75,2.62,2.62,0,0,0,.68,1.32,2.8,2.8,0,0,0,3.77,0,2.64,2.64,0,0,0,.66-1.3A9.9,9.9,0,0,0,281.89,564.53Z"/><path class="c" d="M293.52,560.2c-.18.19-.55.57-1.11,1.13a2.77,2.77,0,0,0-.82-.58,2.47,2.47,0,0,0-1-.16,2.53,2.53,0,0,0-1.32.35,2.61,2.61,0,0,0-.88,1,3.53,3.53,0,0,0-.29,1.44v6.34h-1.51V559.36h1.51v1.25a2.93,2.93,0,0,1,1.21-1,4,4,0,0,1,1.69-.37A3.43,3.43,0,0,1,293.52,560.2Z"/><path class="c" d="M303.09,570a5.26,5.26,0,0,1-.28,1.77,4.1,4.1,0,0,1-.86,1.39,3.53,3.53,0,0,1-1.38.94,4.7,4.7,0,0,1-1.78.33,5.73,5.73,0,0,1-1-.08,4.62,4.62,0,0,1-.9-.25,3.06,3.06,0,0,1-.8-.45,9.35,9.35,0,0,1-.78-.61l1-1a7.55,7.55,0,0,0,.73.6,2.7,2.7,0,0,0,.76.33,3.73,3.73,0,0,0,1,.12,2.58,2.58,0,0,0,2.13-.88,3.64,3.64,0,0,0,.7-2.3v-1.62a3.49,3.49,0,0,1-.86.82,2.8,2.8,0,0,1-1,.41,4.29,4.29,0,0,1-1.06.12,4.11,4.11,0,0,1-1.42-.24,3.07,3.07,0,0,1-1.09-.68,4.27,4.27,0,0,1-.78-1.17,5.7,5.7,0,0,1-.36-1.45,10.21,10.21,0,0,1-.13-1.68,10,10,0,0,1,.29-2.51,3.86,3.86,0,0,1,1-1.8,3.45,3.45,0,0,1,2.53-.9,4.19,4.19,0,0,1,1.62.28,3.26,3.26,0,0,1,1.27,1.07v-1.23h1.49Zm-1.51-5.57a6.35,6.35,0,0,0-.52-2.83,2.05,2.05,0,0,0-2.05-1,2.31,2.31,0,0,0-1.62.51,2.81,2.81,0,0,0-.76,1.4,10.6,10.6,0,0,0,0,3.89,2.81,2.81,0,0,0,.76,1.4,2.31,2.31,0,0,0,1.62.51,2.06,2.06,0,0,0,2.05-1A6.41,6.41,0,0,0,301.58,564.45Z"/><line class="d" x1="317.41" y1="563.98" x2="384.47" y2="563.98"/><line class="d" x1="33.93" y1="563.98" x2="100.99" y2="563.98"/><path class="b" d="M348.74,326.8A14.45,14.45,0,0,1,338,331.37a15.28,15.28,0,0,1-9.92-3.53,15,15,0,0,1-5.56-12.27,15.68,15.68,0,0,1,4.42-11.47,15.27,15.27,0,0,1,21.8.11,16.49,16.49,0,0,1,0,22.59M355,298.05a23.22,23.22,0,0,0-17.06-7.18,24.46,24.46,0,0,0-21.13,12.21,25,25,0,0,0,3.72,29.62,24.4,24.4,0,0,0,34.57.2,23.63,23.63,0,0,0,7-17.33A24,24,0,0,0,355,298.05M296.52,308.9c-1.13.79-1.66,1.17-4.64,1.17H280.13V300h11.38a7.82,7.82,0,0,1,3.62.52,4.57,4.57,0,0,1,2.23,1.7,4.68,4.68,0,0,1,.84,2.79,4.36,4.36,0,0,1-1.68,3.86m1.41,9.25a14.24,14.24,0,0,0,7-4.92,13.6,13.6,0,0,0,2.31-8.1,14.67,14.67,0,0,0-2.1-8,11.86,11.86,0,0,0-5.55-4.82q-3.45-1.45-11.6-1.46h-17.2V340h9.34V319.18h8.15L299.34,340h10.21l-11.62-21.82Zm-69-27.28h31.83V300H238.21v10h22.54v9H238.21v11.73h22.54V340H228.92Zm-49.31,0h8.94l21.06,32.3v-32.3H219V340h-9l-21-32.2V340h-9.34Zm-20.7,35.93a14.47,14.47,0,0,1-10.78,4.57,15.28,15.28,0,0,1-9.92-3.53,15,15,0,0,1-5.56-12.27,15.69,15.69,0,0,1,4.43-11.47,15.27,15.27,0,0,1,21.8.11,16.49,16.49,0,0,1,0,22.59m6.22-28.75a23.23,23.23,0,0,0-17.06-7.18,24.46,24.46,0,0,0-21.14,12.21,25,25,0,0,0,3.72,29.62,24.4,24.4,0,0,0,34.57.2,23.64,23.64,0,0,0,7.05-17.33,24,24,0,0,0-7.14-17.52m-94.21-7.18h9.15l11.34,34.24,11.52-34.24h9L120.21,340h-9l-5.27-31L95.48,340H87.24l-10.3-31-5.38,31H62.45Z"/><path class="c" d="M75,405.77a6.7,6.7,0,0,1-2,1.43,6.58,6.58,0,0,1-2.67.47,6.42,6.42,0,0,1-4.76-1.92,5,5,0,0,1-1.43-2.55,18.29,18.29,0,0,1-.3-3.64v-1.14a18.29,18.29,0,0,1,.3-3.64,5,5,0,0,1,1.43-2.55,6.27,6.27,0,0,1,2.11-1.46,7,7,0,0,1,2.65-.46,6.9,6.9,0,0,1,2.69.46,6.71,6.71,0,0,1,2,1.41q-.92.94-2.79,2.79a4.16,4.16,0,0,0-.87-.7,2,2,0,0,0-1-.24,1.93,1.93,0,0,0-1.64.73,2.41,2.41,0,0,0-.35.68,5,5,0,0,0-.24,1.19C68,397.17,68,398,68,399a17.3,17.3,0,0,0,.17,2.91,3.26,3.26,0,0,0,.49,1.31,2,2,0,0,0,1.64.73,2,2,0,0,0,1-.24,4.2,4.2,0,0,0,.87-.7Z"/><path class="c" d="M87.12,395.67q-.75.75-3,3a3.58,3.58,0,0,0-.66-.5,1.55,1.55,0,0,0-.77-.16,1.71,1.71,0,0,0-1.06.4,1.65,1.65,0,0,0-.51,1.38v7.71H77.21V394.62h3.84v1.05a3.8,3.8,0,0,1,1.29-.84,4.16,4.16,0,0,1,1.74-.35,4.71,4.71,0,0,1,1.68.26A4,4,0,0,1,87.12,395.67Z"/><path class="c" d="M99.66,394.62q-1.35,3.6-5.37,14.44a4.28,4.28,0,0,1-1,1.71,3.76,3.76,0,0,1-2.89,1.07H88.9v-3.53h.85a1.38,1.38,0,0,0,.84-.22,1.33,1.33,0,0,0,.47-.75c.08-.25.2-.61.38-1.1l-4.32-11.62h4.13c.36,1.11,1.08,3.34,2.18,6.7q.54-1.67,2.11-6.7Z"/><path class="c" d="M112.11,401.06v.61a16.54,16.54,0,0,1-.21,2.89,3.79,3.79,0,0,1-1,1.94,4.31,4.31,0,0,1-3.12,1.17,3.86,3.86,0,0,1-2.88-1.08v5.11H101V394.62h3.82v1.05a4,4,0,0,1,3-1.19,4.38,4.38,0,0,1,3.16,1.17,3.83,3.83,0,0,1,1,1.94,16.54,16.54,0,0,1,.21,2.89Zm-3.94,0a9.5,9.5,0,0,0-.12-1.66,1.83,1.83,0,0,0-.47-1,1.42,1.42,0,0,0-1-.33,1.26,1.26,0,0,0-1.31.73,6.05,6.05,0,0,0-.31,2.29,11.17,11.17,0,0,0,.1,1.69,1.93,1.93,0,0,0,.46,1,1.43,1.43,0,0,0,1.06.35,1.35,1.35,0,0,0,1-.35,1.78,1.78,0,0,0,.45-1A8.61,8.61,0,0,0,108.17,401.06Z"/><path class="c" d="M120.9,407.53h-2a4.17,4.17,0,0,1-2.25-.56,3.46,3.46,0,0,1-1.34-1.43,4.22,4.22,0,0,1-.42-1.83v-5.55h-1.2v-3h1.2v-3.7h3.94v3.7h2v3h-2v5.27a.7.7,0,0,0,.77.8h1.27Z"/><path class="c" d="M134,401.06a11.73,11.73,0,0,1-.3,3,4.81,4.81,0,0,1-1.1,2,5.5,5.5,0,0,1-4.18,1.64,5.43,5.43,0,0,1-4.15-1.64,5.21,5.21,0,0,1-.84-1.24,5.9,5.9,0,0,1-.44-1.52,16.73,16.73,0,0,1-.12-2.21,13.94,13.94,0,0,1,.14-2.15,5.51,5.51,0,0,1,.42-1.53,6.58,6.58,0,0,1,.84-1.26,5.65,5.65,0,0,1,4.15-1.64,5.68,5.68,0,0,1,2.46.47,5.55,5.55,0,0,1,1.72,1.17,5,5,0,0,1,1.1,2A11.69,11.69,0,0,1,134,401.06Zm-3.94,0a10.74,10.74,0,0,0-.11-1.73,1.77,1.77,0,0,0-.45-.94,1.48,1.48,0,0,0-1.08-.35,1.5,1.5,0,0,0-1,.35,1.76,1.76,0,0,0-.45,1,10.48,10.48,0,0,0-.11,1.66,11,11,0,0,0,.11,1.69,1.85,1.85,0,0,0,.45,1,1.42,1.42,0,0,0,1,.37,1.34,1.34,0,0,0,1.06-.37,1.86,1.86,0,0,0,.47-.94A11.26,11.26,0,0,0,130.08,401.06Z"/><path class="c" d="M147.54,394.62q-1.17,3.22-4.73,12.91h-3q-1.2-3.22-4.76-12.91h4.13q.54,1.67,2.15,6.7c.35-1.11,1-3.34,2.09-6.7Z"/><path class="c" d="M159.15,407.53H155.3v-1a4.64,4.64,0,0,1-1.26.89,3.9,3.9,0,0,1-1.62.28,4.14,4.14,0,0,1-3.09-1.15,4.09,4.09,0,0,1-1.13-3,3.86,3.86,0,0,1,.47-1.88,3.49,3.49,0,0,1,1.43-1.36,5.45,5.45,0,0,1,2.48-.51h2.63v-.33a1.46,1.46,0,0,0-.47-1.24,2.31,2.31,0,0,0-1.48-.38,2.85,2.85,0,0,0-1.17.19,2.81,2.81,0,0,0-.89.68l-2.46-2.46a5.73,5.73,0,0,1,2-1.36,8.14,8.14,0,0,1,2.67-.35,6.63,6.63,0,0,1,4.24,1.17,4.25,4.25,0,0,1,1.46,3.52Zm-3.94-4.85v-.33h-2a1.37,1.37,0,0,0-.89.28.93.93,0,0,0-.35.75,1,1,0,0,0,.35.78,1.38,1.38,0,0,0,1,.3,3.42,3.42,0,0,0,.89-.09,1.55,1.55,0,0,0,.68-.4A1.73,1.73,0,0,0,155.21,402.68Z"/><path class="c" d="M167.89,407.53h-2.11a4.17,4.17,0,0,1-2.23-.56,3.65,3.65,0,0,1-1.36-1.43,4.5,4.5,0,0,1-.4-1.83V390.45h3.94v13a.7.7,0,0,0,.78.8h1.38Z"/><path class="c" d="M181,407.53h-3.84v-1a3.65,3.65,0,0,1-1.39.89,4.62,4.62,0,0,1-1.61.3,4,4,0,0,1-2.91-1.1,3.82,3.82,0,0,1-1-1.64,7.32,7.32,0,0,1-.26-2.06v-8.25h3.94v7.73a1.53,1.53,0,0,0,1.57,1.78,1.75,1.75,0,0,0,1.08-.39,1.7,1.7,0,0,0,.49-1.39v-7.73H181Z"/><path class="c" d="M190.25,407.53h-2A4.17,4.17,0,0,1,186,407a3.46,3.46,0,0,1-1.34-1.43,4.22,4.22,0,0,1-.42-1.83v-5.55h-1.19v-3h1.19v-3.7h3.94v3.7h2v3h-2v5.27a.7.7,0,0,0,.77.8h1.27Z"/><path class="c" d="M202.81,407.53H199v-1a4.84,4.84,0,0,1-1.27.89,3.86,3.86,0,0,1-1.62.28A4.17,4.17,0,0,1,193,406.5a4.08,4.08,0,0,1-1.12-3,3.85,3.85,0,0,1,.46-1.88,3.55,3.55,0,0,1,1.43-1.36,5.5,5.5,0,0,1,2.49-.51h2.62v-.33a1.43,1.43,0,0,0-.47-1.24,2.26,2.26,0,0,0-1.47-.38,2.85,2.85,0,0,0-1.17.19,2.71,2.71,0,0,0-.89.68l-2.47-2.46a5.91,5.91,0,0,1,2-1.36,8.25,8.25,0,0,1,2.68-.35,6.65,6.65,0,0,1,4.24,1.17,4.24,4.24,0,0,1,1.45,3.52Zm-3.94-4.85v-.33h-2a1.35,1.35,0,0,0-.89.28.9.9,0,0,0-.35.75,1,1,0,0,0,.35.78,1.38,1.38,0,0,0,1,.3,3.53,3.53,0,0,0,.89-.09,1.67,1.67,0,0,0,.68-.4A1.73,1.73,0,0,0,198.87,402.68Z"/><path class="c" d="M219.83,407.53h-8.58V406q1.63-2.17,6.58-8.79h-6.21v-1.52h8.21v1.48q-1.67,2.21-6.61,8.81h6.61Z"/><path class="c" d="M225.29,391.29a1.18,1.18,0,0,1-.17.59,1.36,1.36,0,0,1-.42.44,1.27,1.27,0,0,1-.61.14,1.1,1.1,0,0,1-.58-.16,1.14,1.14,0,0,1-.45-.42,1.38,1.38,0,0,1-.14-.59,1.09,1.09,0,0,1,.16-.59,1,1,0,0,1,.43-.42,1.05,1.05,0,0,1,.58-.19,1.32,1.32,0,0,1,.47.1.82.82,0,0,1,.38.28,1.34,1.34,0,0,1,.25.37A1,1,0,0,1,225.29,391.29ZM225,407.53h-1.74V395.72H225Z"/><path class="c" d="M231,409.67a4,4,0,0,1-.33,1.64,2.39,2.39,0,0,1-1,1.12,3.08,3.08,0,0,1-1.66.42h-1.27v-1.52h.94a1.59,1.59,0,0,0,1.24-.42,2,2,0,0,0,.35-1.32V395.72H231Zm.33-18.38a1.18,1.18,0,0,1-.17.59,1.36,1.36,0,0,1-.42.44,1.27,1.27,0,0,1-.61.14,1.1,1.1,0,0,1-.58-.16,1.14,1.14,0,0,1-.45-.42,1.38,1.38,0,0,1-.14-.59,1.09,1.09,0,0,1,.16-.59,1,1,0,0,1,.43-.42,1.05,1.05,0,0,1,.58-.19,1.32,1.32,0,0,1,.47.1.82.82,0,0,1,.38.28,1.15,1.15,0,0,1,.25.37A1,1,0,0,1,231.36,391.29Z"/><path class="c" d="M244.65,407.53h-1.71v-7.29a4,4,0,0,0-.22-1.38,2.89,2.89,0,0,0-.58-1,2.27,2.27,0,0,0-.87-.57,3.9,3.9,0,0,0-1.24-.18,2.81,2.81,0,0,0-2.13.79,3.2,3.2,0,0,0-.8,2.32v7.29h-1.73V395.72h1.73V397a4,4,0,0,1,1.45-1.1,4.87,4.87,0,0,1,1.85-.35,4.11,4.11,0,0,1,3,1.1,4.4,4.4,0,0,1,1.22,3.28Z"/><path class="c" d="M263.37,404.06a3.17,3.17,0,0,1-.61,1.95,4,4,0,0,1-1.66,1.24,7.06,7.06,0,0,1-2.53.42,8.33,8.33,0,0,1-2.72-.4,5.38,5.38,0,0,1-2.13-1.31l1.15-1.15a4.73,4.73,0,0,0,3.67,1.39,4.16,4.16,0,0,0,2.3-.54,1.77,1.77,0,0,0,.85-1.57,1.54,1.54,0,0,0-.47-1.2,2.6,2.6,0,0,0-1.5-.51l-2-.19c-2.34-.19-3.51-1.24-3.51-3.17a3,3,0,0,1,1.19-2.5,5,5,0,0,1,3.14-.94,8.27,8.27,0,0,1,2.39.33,5,5,0,0,1,1.85.93L261.71,398a5.05,5.05,0,0,0-3.14-.94,3.17,3.17,0,0,0-2,.52,1.72,1.72,0,0,0-.68,1.45c0,1,.7,1.6,2.09,1.71l1.87.17a4.69,4.69,0,0,1,2.58.89A2.78,2.78,0,0,1,263.37,404.06Z"/><path class="c" d="M275.21,405.94a5.56,5.56,0,0,1-1.76,1.33,5.06,5.06,0,0,1-2.11.4,5.65,5.65,0,0,1-2.08-.37,4.85,4.85,0,0,1-1.67-1.15,5.62,5.62,0,0,1-1.1-1.9,7.84,7.84,0,0,1-.4-2.62,7.38,7.38,0,0,1,.7-3.33,4.75,4.75,0,0,1,1.86-2,5.35,5.35,0,0,1,2.69-.68,5,5,0,0,1,2.11.4,5.4,5.4,0,0,1,1.76,1.36c-.25.25-.63.61-1.15,1.1a4.32,4.32,0,0,0-1.27-1,3.38,3.38,0,0,0-1.45-.28,3.13,3.13,0,0,0-2.74,1.33,3.41,3.41,0,0,0-.59,1.31,8.12,8.12,0,0,0-.18,1.86,7.7,7.7,0,0,0,.18,1.82,3.78,3.78,0,0,0,.59,1.36,3.18,3.18,0,0,0,2.74,1.32,3.25,3.25,0,0,0,1.43-.29,5.11,5.11,0,0,0,1.29-1C274.31,405.06,274.69,405.44,275.21,405.94Z"/><path class="c" d="M287.79,407.53h-1.71v-7.31a3.73,3.73,0,0,0-.35-1.71,2.19,2.19,0,0,0-1-1,3,3,0,0,0-1.52-.35,2.89,2.89,0,0,0-2.16.79,3.12,3.12,0,0,0-.79,2.3v7.31h-1.74V390.45h1.74V397a4.15,4.15,0,0,1,3.3-1.45,4.58,4.58,0,0,1,2.28.54,3.65,3.65,0,0,1,1.47,1.52,5.06,5.06,0,0,1,.49,2.3Z"/><path class="c" d="M300.45,407.53h-1.73v-1.12a3.71,3.71,0,0,1-1.48,1,5.59,5.59,0,0,1-1.95.28,6.65,6.65,0,0,1-2-.25,3.21,3.21,0,0,1-2.22-3.24,3.11,3.11,0,0,1,1.05-2.48,4.59,4.59,0,0,1,3.05-.92h3.54v-1.12a2.56,2.56,0,0,0-.71-2,3.48,3.48,0,0,0-2.32-.63,4.36,4.36,0,0,0-1.78.3,3.09,3.09,0,0,0-1.19,1.06l-1.18-1.08a4.44,4.44,0,0,1,1.11-1.06,4.33,4.33,0,0,1,1.33-.54,8.18,8.18,0,0,1,1.74-.16,7.75,7.75,0,0,1,2.11.26,4,4,0,0,1,1.45.75,3,3,0,0,1,.87,1.22,4.43,4.43,0,0,1,.3,1.71Zm-1.73-4.17v-1.27h-3.33c-1.75,0-2.63.69-2.63,2.07a1.78,1.78,0,0,0,.66,1.52,3.35,3.35,0,0,0,2.06.52A6,6,0,0,0,297,406a2.25,2.25,0,0,0,1.13-.63A2.79,2.79,0,0,0,298.72,403.36Z"/><path class="c" d="M313.41,407.53H311.7v-1.4a3.89,3.89,0,0,1-1,.93,3.18,3.18,0,0,1-1.1.47,5.21,5.21,0,0,1-1.27.14,3.87,3.87,0,0,1-2.88-1q-1.46-1.45-1.46-5t1.46-5a3.87,3.87,0,0,1,2.88-1,4.84,4.84,0,0,1,1.87.33,3.77,3.77,0,0,1,1.46,1.19v-6.65h1.73Zm-1.73-5.9a7.58,7.58,0,0,0-.61-3.31,2.34,2.34,0,0,0-2.35-1.19,2.37,2.37,0,0,0-2.34,1.21,7.4,7.4,0,0,0-.61,3.29,7.7,7.7,0,0,0,.59,3.28,2.9,2.9,0,0,0,4.71,0A7.53,7.53,0,0,0,311.68,401.63Z"/><path class="c" d="M326.77,402.09h-8a4.43,4.43,0,0,0,.92,3,3.21,3.21,0,0,0,2.57,1.06,4,4,0,0,0,1.67-.31,4.19,4.19,0,0,0,1.43-1c.26.24.65.58,1.17,1a6.73,6.73,0,0,1-1.92,1.41,6,6,0,0,1-2.42.42,5.62,5.62,0,0,1-2.71-.63,4.39,4.39,0,0,1-1.79-2,7.85,7.85,0,0,1-.65-3.39,8.52,8.52,0,0,1,.35-2.54,5.26,5.26,0,0,1,1-1.89,4.19,4.19,0,0,1,1.55-1.22,4.78,4.78,0,0,1,2-.4,4.61,4.61,0,0,1,2.58.7,4.27,4.27,0,0,1,1.67,2,7.28,7.28,0,0,1,.58,3ZM325,400.78a6,6,0,0,0-.35-2,2.81,2.81,0,0,0-1.08-1.29,3.11,3.11,0,0,0-3.35,0,2.9,2.9,0,0,0-1.11,1.29,7.06,7.06,0,0,0-.35,2Z"/><path class="c" d="M334.67,407.53H333.4a2.89,2.89,0,0,1-2.25-.86,3.37,3.37,0,0,1-.75-2.28V390.45h1.74v13.87a2,2,0,0,0,.35,1.31,1.58,1.58,0,0,0,1.24.4h.94Z"/><path class="c" d="M339.64,391.29a1.18,1.18,0,0,1-.17.59,1.26,1.26,0,0,1-.42.44,1.25,1.25,0,0,1-.61.14,1.1,1.1,0,0,1-.58-.16,1.14,1.14,0,0,1-.45-.42,1.38,1.38,0,0,1-.14-.59,1.1,1.1,0,0,1,.17-.59,1,1,0,0,1,.42-.42,1.05,1.05,0,0,1,.58-.19,1.28,1.28,0,0,1,.47.1.82.82,0,0,1,.38.28,1.15,1.15,0,0,1,.25.37A1,1,0,0,1,339.64,391.29Zm-.33,16.24h-1.73V395.72h1.73Z"/><path class="c" d="M345.38,409.67a4,4,0,0,1-.33,1.64,2.39,2.39,0,0,1-1,1.12,3.08,3.08,0,0,1-1.66.42h-1.26v-1.52h.93a1.59,1.59,0,0,0,1.24-.42,2,2,0,0,0,.36-1.32V395.72h1.73Zm.33-18.38a1.18,1.18,0,0,1-.17.59,1.26,1.26,0,0,1-.42.44,1.25,1.25,0,0,1-.61.14,1.28,1.28,0,0,1-1-.58,1.38,1.38,0,0,1-.14-.59,1.1,1.1,0,0,1,.17-.59,1,1,0,0,1,.42-.42,1.08,1.08,0,0,1,.58-.19,1.28,1.28,0,0,1,.47.1.82.82,0,0,1,.38.28,1.37,1.37,0,0,1,.26.37A1.17,1.17,0,0,1,345.71,391.29Z"/><path class="c" d="M359.63,407.53H357.5q-.94-1.5-3.75-6c-.38.43-1.14,1.32-2.3,2.64v3.4h-1.73V390.45h1.73v11.43c.89-1,2.67-3.08,5.32-6.16h2.16l-4,4.5Z"/><path class="c" d="M73.06,427.72q-1.09,3-4.36,11.81H67.18l-4.31-11.81h1.85q.8,2.37,3.21,9.47.81-2.37,3.26-9.47Z"/><path class="c" d="M84.47,433.63a12.44,12.44,0,0,1-.11,1.82,5,5,0,0,1-.45,1.55,4.07,4.07,0,0,1-.87,1.34,4.56,4.56,0,0,1-3.37,1.33,4.66,4.66,0,0,1-3.4-1.33,4.72,4.72,0,0,1-.89-1.32,6.48,6.48,0,0,1-.42-1.54,11.52,11.52,0,0,1-.14-1.85,10.59,10.59,0,0,1,.3-2.7,4.64,4.64,0,0,1,1.15-2,4.89,4.89,0,0,1,6.77,0,4.24,4.24,0,0,1,1.13,2A10.81,10.81,0,0,1,84.47,433.63Zm-1.71,0a11.19,11.19,0,0,0-.18-2.18,3,3,0,0,0-.75-1.48,3,3,0,0,0-2.16-.84,2.82,2.82,0,0,0-2.93,2.36,14.46,14.46,0,0,0,0,4.29,2.84,2.84,0,0,0,2.93,2.35,3,3,0,0,0,2.16-.85,3,3,0,0,0,.75-1.47A11,11,0,0,0,82.76,433.63Z"/><path class="c" d="M97.2,433.63a12.34,12.34,0,0,1-.12,1.82,5,5,0,0,1-.44,1.55,4.07,4.07,0,0,1-.87,1.34,4.56,4.56,0,0,1-3.37,1.33,4.64,4.64,0,0,1-3.4-1.33,4.52,4.52,0,0,1-.89-1.32,5.66,5.66,0,0,1-.42-1.54,10.42,10.42,0,0,1-.15-1.85,10.55,10.55,0,0,1,.31-2.7,4.64,4.64,0,0,1,1.15-2,4.89,4.89,0,0,1,6.77,0,4.33,4.33,0,0,1,1.13,2A10.81,10.81,0,0,1,97.2,433.63Zm-1.71,0a10.38,10.38,0,0,0-.19-2.18,2.87,2.87,0,0,0-.75-1.48,3,3,0,0,0-2.15-.84,3,3,0,0,0-2.16.84,3,3,0,0,0-.77,1.52,13.62,13.62,0,0,0,0,4.29,2.92,2.92,0,0,0,.77,1.5,3,3,0,0,0,2.16.85,2.92,2.92,0,0,0,2.15-.85,2.87,2.87,0,0,0,.75-1.47A10.25,10.25,0,0,0,95.49,433.63Z"/><path class="c" d="M108.78,428.68c-.2.22-.63.65-1.27,1.29a3.35,3.35,0,0,0-.93-.66,3,3,0,0,0-1.11-.18,2.89,2.89,0,0,0-1.5.39,3.12,3.12,0,0,0-1,1.13,3.91,3.91,0,0,0-.33,1.64v7.24H100.9V427.72h1.74v1.43A3.42,3.42,0,0,1,104,428a4.55,4.55,0,0,1,1.92-.42A3.92,3.92,0,0,1,108.78,428.68Z"/><path class="c" d="M126.26,439.53h-1.71v-7.31a3.73,3.73,0,0,0-.35-1.71,2.19,2.19,0,0,0-1-1,3,3,0,0,0-1.52-.35,2.89,2.89,0,0,0-2.16.79,3.12,3.12,0,0,0-.79,2.3v7.31H117V422.45h1.74V429a4.15,4.15,0,0,1,3.3-1.45,4.54,4.54,0,0,1,2.27.54,3.61,3.61,0,0,1,1.48,1.52,5.06,5.06,0,0,1,.49,2.3Z"/><path class="c" d="M139.53,434.09h-8a4.48,4.48,0,0,0,.91,3,3.21,3.21,0,0,0,2.58,1.06,4.08,4.08,0,0,0,1.67-.31,4.19,4.19,0,0,0,1.43-1c.26.24.65.58,1.17,1a6.73,6.73,0,0,1-1.92,1.41,6,6,0,0,1-2.42.42,5.66,5.66,0,0,1-2.72-.63,4.37,4.37,0,0,1-1.78-2,7.71,7.71,0,0,1-.65-3.39,8.21,8.21,0,0,1,.35-2.54,5.26,5.26,0,0,1,1-1.89,4.19,4.19,0,0,1,1.55-1.22,4.78,4.78,0,0,1,2-.4,4.61,4.61,0,0,1,2.58.7,4.25,4.25,0,0,1,1.66,2,7.28,7.28,0,0,1,.59,3Zm-1.74-1.31a5.75,5.75,0,0,0-.35-2,2.79,2.79,0,0,0-1.07-1.29,3.05,3.05,0,0,0-1.67-.49,3.09,3.09,0,0,0-1.69.49,2.88,2.88,0,0,0-1.1,1.29,6.71,6.71,0,0,0-.35,2Z"/><path class="c" d="M147.73,439.53h-1.22a2.8,2.8,0,0,1-2.22-.89,3.28,3.28,0,0,1-.8-2.27v-7.24H142v-1.32h1.48v-3.72h1.73v3.72h2.51v1.32h-2.51v7.19q0,1.71,1.62,1.71h.89Z"/><path class="c" d="M166.53,433.63a12.67,12.67,0,0,1-.31,2.93,4.08,4.08,0,0,1-1.12,2.08,3.44,3.44,0,0,1-1.24.75,4.75,4.75,0,0,1-1.64.28,4.88,4.88,0,0,1-1.25-.14,3.22,3.22,0,0,1-1.12-.49,3.75,3.75,0,0,1-1-.91v1.4h-1.74V422.45h1.74v6.65a3.62,3.62,0,0,1,1.48-1.19,5.15,5.15,0,0,1,3.49-.05,2.77,2.77,0,0,1,1.24.75,4.12,4.12,0,0,1,1.12,2.09A12.55,12.55,0,0,1,166.53,433.63Zm-1.71,0a7.75,7.75,0,0,0-.59-3.31,2.38,2.38,0,0,0-2.36-1.19,2.42,2.42,0,0,0-2.37,1.21,9.15,9.15,0,0,0,0,6.57,2.92,2.92,0,0,0,4.73,0A7.7,7.7,0,0,0,164.82,433.63Z"/><path class="c" d="M178.67,439.53h-1.73v-1.12a3.78,3.78,0,0,1-1.48,1,5.59,5.59,0,0,1-2,.28,6.65,6.65,0,0,1-2-.25,3.14,3.14,0,0,1-1.33-.83,3.22,3.22,0,0,1-.9-2.41,3.12,3.12,0,0,1,1.06-2.48,4.57,4.57,0,0,1,3.05-.92h3.54v-1.12a2.56,2.56,0,0,0-.71-2,3.5,3.5,0,0,0-2.32-.63,4.36,4.36,0,0,0-1.78.3,3,3,0,0,0-1.19,1.06l-1.18-1.08a4.44,4.44,0,0,1,1.11-1.06,4.33,4.33,0,0,1,1.33-.54,8.18,8.18,0,0,1,1.74-.16,7.62,7.62,0,0,1,2.1.26,4,4,0,0,1,1.46.75,3,3,0,0,1,.87,1.22,4.43,4.43,0,0,1,.3,1.71Zm-1.73-4.17v-1.27h-3.33c-1.75,0-2.63.69-2.63,2.07a1.78,1.78,0,0,0,.66,1.52,3.35,3.35,0,0,0,2.06.52,6,6,0,0,0,1.5-.17,2.25,2.25,0,0,0,1.13-.63A2.79,2.79,0,0,0,176.94,435.36Z"/><path class="c" d="M192.15,439.53h-1.71v-7.29a4,4,0,0,0-.22-1.38,2.89,2.89,0,0,0-.58-1,2.27,2.27,0,0,0-.87-.57,3.9,3.9,0,0,0-1.24-.18,2.81,2.81,0,0,0-2.13.79,3.2,3.2,0,0,0-.8,2.32v7.29h-1.73V427.72h1.73V429a4,4,0,0,1,1.45-1.1,4.87,4.87,0,0,1,1.85-.35,4.11,4.11,0,0,1,3,1.1,4.4,4.4,0,0,1,1.22,3.28Z"/><path class="c" d="M206.28,439.53h-2.13q-.94-1.5-3.75-6c-.38.43-1.14,1.32-2.3,2.64v3.4h-1.73V422.45h1.73v11.43l5.32-6.16h2.16l-4,4.5Z"/><path class="c" d="M218.28,434.09h-8a4.48,4.48,0,0,0,.91,3,3.21,3.21,0,0,0,2.58,1.06,4.08,4.08,0,0,0,1.67-.31,4.19,4.19,0,0,0,1.43-1c.26.24.65.58,1.17,1a6.73,6.73,0,0,1-1.92,1.41,6,6,0,0,1-2.42.42A5.66,5.66,0,0,1,211,439a4.37,4.37,0,0,1-1.78-2,7.71,7.71,0,0,1-.65-3.39,8.21,8.21,0,0,1,.35-2.54,5.26,5.26,0,0,1,1-1.89,4.19,4.19,0,0,1,1.55-1.22,4.78,4.78,0,0,1,2-.4,4.61,4.61,0,0,1,2.58.7,4.25,4.25,0,0,1,1.66,2,7.28,7.28,0,0,1,.59,3Zm-1.74-1.31a5.75,5.75,0,0,0-.35-2,2.79,2.79,0,0,0-1.07-1.29,3.05,3.05,0,0,0-1.67-.49,3.09,3.09,0,0,0-1.69.49,2.88,2.88,0,0,0-1.1,1.29,6.71,6.71,0,0,0-.35,2Z"/><path class="c" d="M231.24,439.53h-1.71v-7.29a4.25,4.25,0,0,0-.21-1.38,2.9,2.9,0,0,0-.59-1,2.24,2.24,0,0,0-.86-.57,4,4,0,0,0-1.25-.18,2.84,2.84,0,0,0-2.13.79,3.2,3.2,0,0,0-.8,2.32v7.29H222V427.72h1.73V429a4,4,0,0,1,1.46-1.1,4.84,4.84,0,0,1,1.85-.35,4.09,4.09,0,0,1,3,1.1,4.4,4.4,0,0,1,1.22,3.28Z"/><path class="c" d="M244,436.06a3.17,3.17,0,0,1-.61,1.95,4.06,4.06,0,0,1-1.66,1.24,7.1,7.1,0,0,1-2.53.42,8.29,8.29,0,0,1-2.72-.4,5.49,5.49,0,0,1-2.14-1.31l1.15-1.15a4.77,4.77,0,0,0,3.68,1.39,4.16,4.16,0,0,0,2.3-.54,1.76,1.76,0,0,0,.84-1.57,1.5,1.5,0,0,0-.47-1.2,2.55,2.55,0,0,0-1.5-.51l-1.94-.19C236,434,234.87,433,234.87,431a3,3,0,0,1,1.2-2.5,5,5,0,0,1,3.14-.94,8.27,8.27,0,0,1,2.39.33,5,5,0,0,1,1.85.93L242.33,430a5.05,5.05,0,0,0-3.14-.94,3.17,3.17,0,0,0-2,.52,1.7,1.7,0,0,0-.68,1.45c0,1,.69,1.6,2.08,1.71l1.88.17a4.75,4.75,0,0,1,2.58.89A2.78,2.78,0,0,1,244,436.06Z"/><path class="c" d="M255.69,427.72q-1.37,3.66-5.4,14.67a3.28,3.28,0,0,1-.84,1.38,3.14,3.14,0,0,1-2.3.82h-.75v-1.52h.52a2,2,0,0,0,1.29-.33,2.46,2.46,0,0,0,.66-1.15c.18-.51.46-1.28.84-2.29l-4.22-11.58h1.85q.82,2.37,3.24,9.47l3.23-9.47Z"/><path class="c" d="M266.61,436.06A3.23,3.23,0,0,1,266,438a4,4,0,0,1-1.67,1.24,7,7,0,0,1-2.53.42,8.37,8.37,0,0,1-2.72-.4A5.53,5.53,0,0,1,257,438l1.15-1.15a4.77,4.77,0,0,0,3.68,1.39,4.18,4.18,0,0,0,2.3-.54,1.76,1.76,0,0,0,.84-1.57,1.54,1.54,0,0,0-.47-1.2,2.55,2.55,0,0,0-1.5-.51l-1.94-.19c-2.35-.19-3.52-1.24-3.52-3.17a3,3,0,0,1,1.2-2.5,5,5,0,0,1,3.14-.94,8.32,8.32,0,0,1,2.39.33,5,5,0,0,1,1.85.93L264.94,430a5,5,0,0,0-3.14-.94,3.19,3.19,0,0,0-2,.52,1.72,1.72,0,0,0-.68,1.45c0,1,.7,1.6,2.09,1.71l1.88.17a4.68,4.68,0,0,1,2.57.89A2.79,2.79,0,0,1,266.61,436.06Z"/><path class="c" d="M274.51,439.53h-1.22a2.81,2.81,0,0,1-2.23-.89,3.28,3.28,0,0,1-.8-2.27v-7.24h-1.47v-1.32h1.47v-3.72H272v3.72h2.51v1.32H272v7.19q0,1.71,1.62,1.71h.89Z"/><path class="c" d="M287,434.09h-8a4.43,4.43,0,0,0,.91,3,3.21,3.21,0,0,0,2.58,1.06,4.08,4.08,0,0,0,1.67-.31,4.29,4.29,0,0,0,1.43-1c.26.24.65.58,1.17,1a6.73,6.73,0,0,1-1.92,1.41,6,6,0,0,1-2.42.42,5.66,5.66,0,0,1-2.72-.63,4.37,4.37,0,0,1-1.78-2,7.7,7.7,0,0,1-.66-3.39,8.2,8.2,0,0,1,.36-2.54,5.26,5.26,0,0,1,1-1.89,4.16,4.16,0,0,1,1.54-1.22,4.86,4.86,0,0,1,2-.4,4.61,4.61,0,0,1,2.58.7,4.25,4.25,0,0,1,1.66,2,7.28,7.28,0,0,1,.59,3Zm-1.74-1.31a5.75,5.75,0,0,0-.35-2,2.81,2.81,0,0,0-1.08-1.29,3,3,0,0,0-1.66-.49,3.07,3.07,0,0,0-1.69.49,2.88,2.88,0,0,0-1.1,1.29,6.71,6.71,0,0,0-.35,2Z"/><path class="c" d="M299.72,434.09h-8a4.43,4.43,0,0,0,.91,3,3.21,3.21,0,0,0,2.58,1.06,4,4,0,0,0,1.66-.31,4.1,4.1,0,0,0,1.43-1l1.17,1a6.73,6.73,0,0,1-1.92,1.41,5.92,5.92,0,0,1-2.41.42,5.66,5.66,0,0,1-2.72-.63,4.32,4.32,0,0,1-1.78-2,7.7,7.7,0,0,1-.66-3.39,8.52,8.52,0,0,1,.35-2.54,5.26,5.26,0,0,1,1-1.89,4.27,4.27,0,0,1,1.55-1.22,4.82,4.82,0,0,1,2-.4,4.56,4.56,0,0,1,2.57.7,4.27,4.27,0,0,1,1.67,2,7.28,7.28,0,0,1,.58,3ZM298,432.78a6,6,0,0,0-.35-2,2.81,2.81,0,0,0-1.08-1.29,3,3,0,0,0-1.66-.49,3.07,3.07,0,0,0-1.69.49,2.82,2.82,0,0,0-1.1,1.29,6.4,6.4,0,0,0-.35,2Z"/><path class="c" d="M320.3,439.53h-1.71v-7.29a3.23,3.23,0,0,0-.77-2.32,2.84,2.84,0,0,0-2.13-.79,3.64,3.64,0,0,0-1.55.32,2.58,2.58,0,0,0-1.06,1,3.18,3.18,0,0,0-.37,1.6v7.47H311v-7.29a3.77,3.77,0,0,0-.24-1.38,2.58,2.58,0,0,0-.56-1,2.21,2.21,0,0,0-.89-.57,3.69,3.69,0,0,0-1.22-.18,2.85,2.85,0,0,0-2.15.79,3.16,3.16,0,0,0-.8,2.32v7.29H303.4V427.72h1.74V429a4.16,4.16,0,0,1,3.33-1.45,4.46,4.46,0,0,1,2.15.49,3.52,3.52,0,0,1,1.48,1.48,4.46,4.46,0,0,1,3.87-2,4.33,4.33,0,0,1,3.07,1.1A4.4,4.4,0,0,1,320.3,432Z"/><path class="c" d="M73.79,466.09h-8a4.43,4.43,0,0,0,.91,3,3.21,3.21,0,0,0,2.58,1.06,4,4,0,0,0,1.66-.31,4.1,4.1,0,0,0,1.43-1l1.18,1a6.76,6.76,0,0,1-1.93,1.41,5.92,5.92,0,0,1-2.41.42,5.66,5.66,0,0,1-2.72-.63,4.37,4.37,0,0,1-1.78-2,7.7,7.7,0,0,1-.66-3.39,8.2,8.2,0,0,1,.36-2.54,5,5,0,0,1,1-1.89A4.16,4.16,0,0,1,66.94,460a4.86,4.86,0,0,1,2-.4,4.61,4.61,0,0,1,2.58.7,4.25,4.25,0,0,1,1.66,2,7.28,7.28,0,0,1,.59,3Zm-1.74-1.31a6,6,0,0,0-.35-2,2.81,2.81,0,0,0-1.08-1.29A3,3,0,0,0,69,461a3.07,3.07,0,0,0-1.69.49,2.82,2.82,0,0,0-1.1,1.29,6.71,6.71,0,0,0-.35,2Z"/><path class="c" d="M86.75,471.53H85v-7.29a4.25,4.25,0,0,0-.21-1.38,3.07,3.07,0,0,0-.59-1,2.2,2.2,0,0,0-.87-.57,3.9,3.9,0,0,0-1.24-.18,2.81,2.81,0,0,0-2.13.79,3.2,3.2,0,0,0-.8,2.32v7.29H77.47V459.72H79.2V461a4,4,0,0,1,1.45-1.1,4.89,4.89,0,0,1,1.86-.35,4.1,4.1,0,0,1,3,1.1A4.4,4.4,0,0,1,86.75,464Z"/><path class="c" d="M107.28,458.62q-1.17,3.22-4.74,12.91h-3l-4.75-12.91h4.12q.54,1.67,2.16,6.7c.34-1.11,1-3.34,2.08-6.7Z"/><path class="c" d="M119.77,466.35h-7.71a1.88,1.88,0,0,0,.61,1.43,2.31,2.31,0,0,0,1.66.59,3.24,3.24,0,0,0,2.68-1.08l2.34,2.34a7.59,7.59,0,0,1-2.18,1.55,6.87,6.87,0,0,1-2.84.49q-6.14,0-6.14-6.61a6.81,6.81,0,0,1,1.6-4.82,5.39,5.39,0,0,1,4.17-1.76,5.79,5.79,0,0,1,3.14.82,5,5,0,0,1,2,2.18,7,7,0,0,1,.68,3.11Zm-3.87-2.62a2.34,2.34,0,0,0-.21-1,1.53,1.53,0,0,0-.63-.73,2.09,2.09,0,0,0-1.1-.28,2.06,2.06,0,0,0-1.08.28,1.43,1.43,0,0,0-.61.73,2.34,2.34,0,0,0-.21,1Z"/><path class="c" d="M132.1,459.67l-3,3a3.24,3.24,0,0,0-.65-.5,1.56,1.56,0,0,0-.78-.16,1.67,1.67,0,0,0-1,.4,1.63,1.63,0,0,0-.52,1.38v7.71h-3.93V458.62H126v1.05a3.7,3.7,0,0,1,1.29-.84,4.15,4.15,0,0,1,1.73-.35,4.73,4.73,0,0,1,1.69.26A4.08,4.08,0,0,1,132.1,459.67Z"/><path class="c" d="M142.88,471.53h-10v-2.9q1.21-1.62,4.89-6.47h-4.61v-3.54h9.77v2.9q-1.24,1.62-5,6.45h5Z"/><path class="c" d="M162.54,458.62q-1,3.22-3.89,12.91h-3.14l-2.32-7.08-2.34,7.08h-3.14q-1-3.22-3.89-12.91H148q.39,1.67,1.61,6.7.57-1.67,2.23-6.7h2.72l2.25,6.7c.26-1.11.8-3.34,1.59-6.7Z"/><path class="c" d="M174.15,471.53H170.3v-1a4.64,4.64,0,0,1-1.26.89,3.9,3.9,0,0,1-1.62.28,4.14,4.14,0,0,1-3.09-1.15,4.09,4.09,0,0,1-1.13-3,3.86,3.86,0,0,1,.47-1.88,3.49,3.49,0,0,1,1.43-1.36,5.45,5.45,0,0,1,2.48-.51h2.63v-.33a1.46,1.46,0,0,0-.47-1.24,2.31,2.31,0,0,0-1.48-.38,2.85,2.85,0,0,0-1.17.19,2.81,2.81,0,0,0-.89.68l-2.46-2.46a5.73,5.73,0,0,1,2-1.36,8.14,8.14,0,0,1,2.67-.35,6.63,6.63,0,0,1,4.24,1.17,4.25,4.25,0,0,1,1.46,3.52Zm-3.94-4.85v-.33h-2a1.37,1.37,0,0,0-.89.28.93.93,0,0,0-.35.75,1,1,0,0,0,.35.78,1.38,1.38,0,0,0,1,.3,3.42,3.42,0,0,0,.89-.09,1.55,1.55,0,0,0,.68-.4A1.73,1.73,0,0,0,170.21,466.68Z"/><path class="c" d="M189.17,471.53h-4.88q-.67-1.17-2.69-4.71c-.13.13-.38.4-.75.82v3.89h-3.94V454.45h3.94v8.67l3.47-4.5H189q-1.17,1.33-4.74,5.34Z"/><path class="c" d="M202.93,471.53h-4.88q-.68-1.17-2.69-4.71c-.13.13-.38.4-.75.82v3.89h-3.94V454.45h3.94v8.67l3.47-4.5h4.71q-1.17,1.33-4.74,5.34Z"/><path class="c" d="M215.42,466.35h-7.71a1.88,1.88,0,0,0,.61,1.43,2.29,2.29,0,0,0,1.66.59,3.21,3.21,0,0,0,2.67-1.08l2.35,2.34a7.59,7.59,0,0,1-2.18,1.55,6.9,6.9,0,0,1-2.84.49q-6.14,0-6.14-6.61a6.81,6.81,0,0,1,1.6-4.82,5.36,5.36,0,0,1,4.17-1.76,5.79,5.79,0,0,1,3.14.82,5,5,0,0,1,2,2.18,7,7,0,0,1,.68,3.11Zm-3.87-2.62a2.34,2.34,0,0,0-.21-1,1.53,1.53,0,0,0-.63-.73,2.11,2.11,0,0,0-1.1-.28,2.06,2.06,0,0,0-1.08.28,1.43,1.43,0,0,0-.61.73,2.34,2.34,0,0,0-.21,1Z"/><path class="c" d="M228.87,471.53h-3.93v-7.71a1.67,1.67,0,0,0-.52-1.4,1.8,1.8,0,0,0-1.08-.38,1.74,1.74,0,0,0-1.08.4,1.67,1.67,0,0,0-.49,1.38v7.71h-3.94V458.62h3.85v1.05a3.72,3.72,0,0,1,1.38-.86,4.34,4.34,0,0,1,1.62-.33,3.86,3.86,0,0,1,2.88,1.1,3.48,3.48,0,0,1,1,1.62,6.84,6.84,0,0,1,.28,2.08Z"/><path class="c" d="M248,471.53H244V463.7a1.52,1.52,0,0,0-.47-1.28,1.66,1.66,0,0,0-1-.38,1.68,1.68,0,0,0-1,.38,1.59,1.59,0,0,0-.47,1.28v7.83h-3.93V454.45H241v5.22a4,4,0,0,1,1.32-.89,4.26,4.26,0,0,1,3.77.31,3.57,3.57,0,0,1,1.38,1.66,6.18,6.18,0,0,1,.47,2.42Z"/><path class="c" d="M261.83,466.35h-7.71a1.91,1.91,0,0,0,.6,1.43,2.33,2.33,0,0,0,1.67.59,3.87,3.87,0,0,0,1.55-.26,3.81,3.81,0,0,0,1.12-.82l2.34,2.34a7.33,7.33,0,0,1-2.18,1.55,6.82,6.82,0,0,1-2.83.49q-6.15,0-6.14-6.61a6.85,6.85,0,0,1,1.59-4.82,5.39,5.39,0,0,1,4.17-1.76,5.76,5.76,0,0,1,3.14.82,5,5,0,0,1,2,2.18,7,7,0,0,1,.68,3.11ZM258,463.73a2.34,2.34,0,0,0-.21-1,1.64,1.64,0,0,0-.63-.73,2.12,2.12,0,0,0-1.11-.28,2,2,0,0,0-1.07.28,1.43,1.43,0,0,0-.61.73,2.34,2.34,0,0,0-.21,1Z"/><path class="c" d="M270.5,471.53h-2a4.17,4.17,0,0,1-2.25-.56,3.46,3.46,0,0,1-1.34-1.43,4.22,4.22,0,0,1-.42-1.83v-5.55h-1.19v-3h1.19v-3.7h3.94v3.7h2v3h-2v5.27a.7.7,0,0,0,.77.8h1.27Z"/><path class="c" d="M74.75,497.06a11.23,11.23,0,0,1-.31,3,4.7,4.7,0,0,1-1.1,2,5.49,5.49,0,0,1-4.17,1.64A5.42,5.42,0,0,1,65,502a5.21,5.21,0,0,1-.84-1.24,5.9,5.9,0,0,1-.45-1.52,17,17,0,0,1-.11-2.21,12.78,12.78,0,0,1,.14-2.15,4.9,4.9,0,0,1,.42-1.53,6.58,6.58,0,0,1,.84-1.26A5.39,5.39,0,0,1,66.73,491a6.62,6.62,0,0,1,4.9,0,5.39,5.39,0,0,1,1.71,1.17,4.89,4.89,0,0,1,1.1,2A11.18,11.18,0,0,1,74.75,497.06Zm-3.94,0a9.52,9.52,0,0,0-.12-1.73,1.69,1.69,0,0,0-.44-.94,1.8,1.8,0,0,0-2.13,0,1.7,1.7,0,0,0-.45,1,9.27,9.27,0,0,0-.12,1.66,9.72,9.72,0,0,0,.12,1.69,1.78,1.78,0,0,0,.45,1,1.42,1.42,0,0,0,1,.37,1.31,1.31,0,0,0,1-.37,1.72,1.72,0,0,0,.47-.94A10,10,0,0,0,70.81,497.06Z"/><path class="c" d="M88.27,490.62q-1.17,3.22-4.73,12.91h-3q-1.2-3.22-4.76-12.91H79.9q.54,1.67,2.16,6.7.51-1.67,2.09-6.7Z"/><path class="c" d="M100.76,498.35H93.05a1.92,1.92,0,0,0,.61,1.43,2.31,2.31,0,0,0,1.67.59,3.78,3.78,0,0,0,1.54-.26,3.84,3.84,0,0,0,1.13-.82l2.34,2.34a7.46,7.46,0,0,1-2.18,1.55,6.85,6.85,0,0,1-2.83.49q-6.15,0-6.14-6.61a6.85,6.85,0,0,1,1.59-4.82A5.39,5.39,0,0,1,95,490.48a5.76,5.76,0,0,1,3.14.82,4.93,4.93,0,0,1,2,2.18,6.86,6.86,0,0,1,.68,3.11Zm-3.86-2.62a2.34,2.34,0,0,0-.21-1,1.6,1.6,0,0,0-.64-.73,2.26,2.26,0,0,0-2.18,0,1.48,1.48,0,0,0-.61.73,2.34,2.34,0,0,0-.21,1Z"/><path class="c" d="M113.09,491.67q-.75.75-3,3a3.58,3.58,0,0,0-.66-.5,1.55,1.55,0,0,0-.77-.16,1.69,1.69,0,0,0-1.06.4,1.65,1.65,0,0,0-.51,1.38v7.71h-3.94V490.62H107v1.05a3.7,3.7,0,0,1,1.29-.84,4.15,4.15,0,0,1,1.73-.35,4.73,4.73,0,0,1,1.69.26A4.08,4.08,0,0,1,113.09,491.67Z"/><path class="c" d="M125.47,503.53h-3.94V495.7a1.55,1.55,0,0,0-.47-1.28,1.59,1.59,0,0,0-2.06,0,1.59,1.59,0,0,0-.47,1.28v7.83h-3.94V486.45h3.94v5.22a3.81,3.81,0,0,1,1.31-.89,4.28,4.28,0,0,1,3.78.31,3.63,3.63,0,0,1,1.38,1.66,6.18,6.18,0,0,1,.47,2.42Z"/><path class="c" d="M139.34,498.35h-7.71a1.88,1.88,0,0,0,.61,1.43,2.31,2.31,0,0,0,1.66.59,3.24,3.24,0,0,0,2.68-1.08l2.34,2.34a7.59,7.59,0,0,1-2.18,1.55,6.87,6.87,0,0,1-2.84.49q-6.14,0-6.14-6.61a6.81,6.81,0,0,1,1.6-4.82,5.39,5.39,0,0,1,4.17-1.76,5.79,5.79,0,0,1,3.14.82,5,5,0,0,1,2,2.18,6.86,6.86,0,0,1,.68,3.11Zm-3.87-2.62a2.34,2.34,0,0,0-.21-1,1.53,1.53,0,0,0-.63-.73,2.09,2.09,0,0,0-1.1-.28,2.06,2.06,0,0,0-1.08.28,1.43,1.43,0,0,0-.61.73,2.34,2.34,0,0,0-.21,1Z"/><path class="c" d="M146.12,487.64a2.35,2.35,0,0,1-.33,1.22,2.31,2.31,0,0,1-2.07,1.17,2.52,2.52,0,0,1-1.21-.3,2.49,2.49,0,0,1-1.2-2.09,2.38,2.38,0,0,1,.31-1.19,2.53,2.53,0,0,1,.89-.89,2.42,2.42,0,0,1,1.21-.31,2.26,2.26,0,0,1,1.2.33,2.42,2.42,0,0,1,.87.87A2.3,2.3,0,0,1,146.12,487.64Zm-.43,15.89h-3.93v-12.4h3.93Z"/><path class="c" d="M159.33,503.53h-3.82v-1a4.7,4.7,0,0,1-1.31.91,4.88,4.88,0,0,1-4.8-.89,3.52,3.52,0,0,1-1-1.92,14.81,14.81,0,0,1-.24-2.91v-1.19a14.81,14.81,0,0,1,.24-2.91,3.52,3.52,0,0,1,1-1.92,3.6,3.6,0,0,1,.86-.63,4.89,4.89,0,0,1,1.06-.4,4.57,4.57,0,0,1,1.19-.14,3.9,3.9,0,0,1,2.89,1.08v-5.11h3.93Zm-3.93-6.47a9.5,9.5,0,0,0-.12-1.66,2,2,0,0,0-.45-1,1.51,1.51,0,0,0-1.07-.33,1.3,1.3,0,0,0-1.32.73,6.31,6.31,0,0,0-.3,2.29,9.72,9.72,0,0,0,.12,1.69,1.84,1.84,0,0,0,.44,1,1.8,1.8,0,0,0,2.13,0,2.09,2.09,0,0,0,.45-1A9.72,9.72,0,0,0,155.4,497.06Z"/><path class="c" d="M172.44,503.53h-3.85v-1a4.64,4.64,0,0,1-1.26.89,3.9,3.9,0,0,1-1.62.28,4.14,4.14,0,0,1-3.09-1.15,4.09,4.09,0,0,1-1.13-3,3.86,3.86,0,0,1,.47-1.88,3.49,3.49,0,0,1,1.43-1.36,5.45,5.45,0,0,1,2.48-.51h2.63v-.33a1.46,1.46,0,0,0-.47-1.24,2.31,2.31,0,0,0-1.48-.38,2.85,2.85,0,0,0-1.17.19,2.81,2.81,0,0,0-.89.68L162,492.19a5.73,5.73,0,0,1,2-1.36,8.14,8.14,0,0,1,2.67-.35,6.63,6.63,0,0,1,4.24,1.17,4.25,4.25,0,0,1,1.46,3.52Zm-3.94-4.85v-.33h-2a1.37,1.37,0,0,0-.89.28.93.93,0,0,0-.35.75,1,1,0,0,0,.35.78,1.38,1.38,0,0,0,1,.3,3.48,3.48,0,0,0,.89-.09,1.61,1.61,0,0,0,.68-.4A1.73,1.73,0,0,0,168.5,498.68Z"/><path class="c" d="M186.33,497.06v.61a16.54,16.54,0,0,1-.21,2.89,3.71,3.71,0,0,1-1,1.94,4.31,4.31,0,0,1-3.12,1.17,3.83,3.83,0,0,1-2.88-1.08v5.11H175.2V490.62H179v1.05a4,4,0,0,1,2.95-1.19,4.38,4.38,0,0,1,3.17,1.17,3.74,3.74,0,0,1,1,1.94,16.54,16.54,0,0,1,.21,2.89Zm-3.93,0a9.5,9.5,0,0,0-.12-1.66,1.9,1.9,0,0,0-.47-1,1.44,1.44,0,0,0-1.05-.33,1.27,1.27,0,0,0-1.32.73,6.31,6.31,0,0,0-.3,2.29,12.9,12.9,0,0,0,.09,1.69,2,2,0,0,0,.47,1,1.43,1.43,0,0,0,1.06.35,1.36,1.36,0,0,0,1.05-.35,1.92,1.92,0,0,0,.45-1A8.61,8.61,0,0,0,182.4,497.06Z"/><path class="c" d="M200,497.06v.61a16.54,16.54,0,0,1-.21,2.89,3.79,3.79,0,0,1-1,1.94,4.3,4.3,0,0,1-3.11,1.17,3.87,3.87,0,0,1-2.89-1.08v5.11h-3.93V490.62h3.82v1.05a4,4,0,0,1,2.95-1.19,4.36,4.36,0,0,1,3.16,1.17,3.83,3.83,0,0,1,1,1.94,16.54,16.54,0,0,1,.21,2.89Zm-3.94,0a9.5,9.5,0,0,0-.12-1.66,1.77,1.77,0,0,0-.47-1,1.42,1.42,0,0,0-1.05-.33,1.26,1.26,0,0,0-1.31.73,6.05,6.05,0,0,0-.31,2.29,11.17,11.17,0,0,0,.1,1.69,1.87,1.87,0,0,0,.47,1,1.39,1.39,0,0,0,1,.35,1.35,1.35,0,0,0,1.05-.35,1.78,1.78,0,0,0,.45-1A8.61,8.61,0,0,0,196.06,497.06Z"/><path class="c" d="M212.63,503.53h-3.84v-1a4.68,4.68,0,0,1-1.27.89,3.83,3.83,0,0,1-1.62.28,4.17,4.17,0,0,1-3.09-1.15,4.08,4.08,0,0,1-1.12-3,3.85,3.85,0,0,1,.46-1.88,3.55,3.55,0,0,1,1.43-1.36,5.5,5.5,0,0,1,2.49-.51h2.62v-.33a1.43,1.43,0,0,0-.47-1.24,2.26,2.26,0,0,0-1.47-.38,2.85,2.85,0,0,0-1.17.19,2.71,2.71,0,0,0-.89.68l-2.47-2.46a5.91,5.91,0,0,1,2-1.36,8.25,8.25,0,0,1,2.68-.35,6.65,6.65,0,0,1,4.24,1.17,4.24,4.24,0,0,1,1.45,3.52Zm-3.94-4.85v-.33h-2a1.35,1.35,0,0,0-.89.28.9.9,0,0,0-.35.75,1,1,0,0,0,.35.78,1.38,1.38,0,0,0,1,.3,3.53,3.53,0,0,0,.89-.09,1.67,1.67,0,0,0,.68-.4A1.73,1.73,0,0,0,208.69,498.68Z"/><path class="c" d="M225.31,491.67l-3,3a3.24,3.24,0,0,0-.65-.5,1.56,1.56,0,0,0-.78-.16,1.58,1.58,0,0,0-1.57,1.78v7.71H215.4V490.62h3.84v1.05a3.7,3.7,0,0,1,1.29-.84,4.15,4.15,0,0,1,1.73-.35,4.73,4.73,0,0,1,1.69.26A4.08,4.08,0,0,1,225.31,491.67Z"/><path class="c" d="M236.91,503.53h-3.84v-1a4.68,4.68,0,0,1-1.27.89,3.81,3.81,0,0,1-1.61.28,4.18,4.18,0,0,1-3.1-1.15,4.08,4.08,0,0,1-1.12-3,3.75,3.75,0,0,1,.47-1.88,3.43,3.43,0,0,1,1.43-1.36,5.45,5.45,0,0,1,2.48-.51H233v-.33a1.46,1.46,0,0,0-.46-1.24,2.31,2.31,0,0,0-1.48-.38,2.85,2.85,0,0,0-1.17.19,2.81,2.81,0,0,0-.89.68l-2.46-2.46a5.79,5.79,0,0,1,2-1.36,8.25,8.25,0,0,1,2.68-.35,6.63,6.63,0,0,1,4.24,1.17,4.24,4.24,0,0,1,1.45,3.52ZM233,498.68v-.33h-2a1.35,1.35,0,0,0-.89.28.9.9,0,0,0-.35.75,1,1,0,0,0,.35.78,1.38,1.38,0,0,0,1,.3,3.53,3.53,0,0,0,.89-.09,1.67,1.67,0,0,0,.68-.4A1.73,1.73,0,0,0,233,498.68Z"/><path class="c" d="M249.78,503.53h-3.84v-1a4.84,4.84,0,0,1-1.27.89,3.9,3.9,0,0,1-1.62.28A4.16,4.16,0,0,1,240,502.5a4.09,4.09,0,0,1-1.13-3,3.86,3.86,0,0,1,.47-1.88,3.55,3.55,0,0,1,1.43-1.36,5.47,5.47,0,0,1,2.49-.51h2.62v-.33a1.43,1.43,0,0,0-.47-1.24,2.27,2.27,0,0,0-1.47-.38,2.37,2.37,0,0,0-2.07.87l-2.46-2.46a5.73,5.73,0,0,1,2-1.36,8.14,8.14,0,0,1,2.67-.35,6.66,6.66,0,0,1,4.25,1.17,4.27,4.27,0,0,1,1.45,3.52Zm-3.94-4.85v-.33h-2a1.34,1.34,0,0,0-.89.28.91.91,0,0,0-.36.75,1,1,0,0,0,.36.78,1.35,1.35,0,0,0,1,.3,3.53,3.53,0,0,0,.89-.09,1.67,1.67,0,0,0,.68-.4A1.73,1.73,0,0,0,245.84,498.68Z"/><path class="c" d="M258.8,503.53h-2a4.22,4.22,0,0,1-2.25-.56,3.43,3.43,0,0,1-1.33-1.43,4.22,4.22,0,0,1-.42-1.83v-5.55h-1.2v-3h1.2v-3.7h3.93v3.7h2v3h-2v5.27a.7.7,0,0,0,.78.8h1.26Z"/><path class="c" d="M264.38,502.22a1.37,1.37,0,0,1-.4,1,1.22,1.22,0,0,1-.94.4,1.37,1.37,0,0,1-1.38-1.38,1.22,1.22,0,0,1,.4-.94,1.41,1.41,0,0,1,1-.4,1.27,1.27,0,0,1,.66.19,1.53,1.53,0,0,1,.49.49A1.23,1.23,0,0,1,264.38,502.22Z"/><path class="c" d="M73.5,79.06H59.62q-2.79-5-11.16-19.86-1,1.2-4.05,4.72V79.06H32.59V30.65H44.41V47.78l14-17.13H73q-4.11,4.91-16.53,19.59Q60.68,57.47,73.5,79.06Z"/><path class="c" d="M113.67,54.88v1.6q0,4.05-.26,7a22.63,22.63,0,0,1-1.4,5.64A14.63,14.63,0,0,1,108.82,74a19.5,19.5,0,0,1-6,4,19.11,19.11,0,0,1-7.57,1.39,22.67,22.67,0,0,1-5.38-.59A16,16,0,0,1,85.52,77a17.05,17.05,0,0,1-3.79-3,14.36,14.36,0,0,1-4-7.24,50.41,50.41,0,0,1-.86-10.29V53.22a50.41,50.41,0,0,1,.86-10.29,14.36,14.36,0,0,1,4-7.24,17.53,17.53,0,0,1,6-4.11,19.52,19.52,0,0,1,7.57-1.33,19.87,19.87,0,0,1,7.57,1.33,17.49,17.49,0,0,1,6,4.11A14.63,14.63,0,0,1,112,40.61a20.53,20.53,0,0,1,1.33,5.64,63.24,63.24,0,0,1,.33,7Zm-11.88,0a58.81,58.81,0,0,0-.4-8.43,9.89,9.89,0,0,0-1.33-3.52,6.7,6.7,0,0,0-4.78-2.12,6.13,6.13,0,0,0-2.79.59,6.26,6.26,0,0,0-2,1.53,7.14,7.14,0,0,0-1,1.93,20.25,20.25,0,0,0-.6,3.38c-.13,1.55-.2,3.77-.2,6.64s.07,5,.2,6.51a20.62,20.62,0,0,0,.6,3.39,6.28,6.28,0,0,0,1,1.86,5.58,5.58,0,0,0,4.78,2.26,5.7,5.7,0,0,0,4.78-2.26,9.76,9.76,0,0,0,1.33-3.46A56.44,56.44,0,0,0,101.79,54.88Z"/><path class="c" d="M157.23,54.88v1.6c0,2.7-.08,5-.26,7a22.2,22.2,0,0,1-1.4,5.64A14.6,14.6,0,0,1,152.39,74a19.66,19.66,0,0,1-6,4,19.08,19.08,0,0,1-7.57,1.39,22.67,22.67,0,0,1-5.38-.59A16,16,0,0,1,129.08,77a17.05,17.05,0,0,1-3.79-3,14.44,14.44,0,0,1-4.05-7.24,51.13,51.13,0,0,1-.86-10.29V53.22a51.13,51.13,0,0,1,.86-10.29,14.44,14.44,0,0,1,4.05-7.24,17.62,17.62,0,0,1,6-4.11,19.52,19.52,0,0,1,7.57-1.33,19.84,19.84,0,0,1,7.57,1.33,17.62,17.62,0,0,1,6,4.11,14.6,14.6,0,0,1,3.18,4.92,20.53,20.53,0,0,1,1.33,5.64,63.24,63.24,0,0,1,.33,7Zm-11.88,0a58.81,58.81,0,0,0-.4-8.43,9.7,9.7,0,0,0-1.33-3.52,6.7,6.7,0,0,0-4.78-2.12,6.16,6.16,0,0,0-2.79.59,6.26,6.26,0,0,0-2,1.53,7.14,7.14,0,0,0-1,1.93,20.25,20.25,0,0,0-.6,3.38c-.13,1.55-.19,3.77-.19,6.64s.06,5,.19,6.51a20.62,20.62,0,0,0,.6,3.39,6.28,6.28,0,0,0,1,1.86,5.59,5.59,0,0,0,4.78,2.26,5.69,5.69,0,0,0,4.78-2.26A9.58,9.58,0,0,0,145,63.18,56.44,56.44,0,0,0,145.35,54.88Z"/><path class="c" d="M201.26,46.18a15.2,15.2,0,0,1-2,7.64,14.72,14.72,0,0,1-5.65,5.78,17.18,17.18,0,0,1-8.89,2.19h-7.31V79.06H165.47V30.65h19.26a17.18,17.18,0,0,1,8.89,2.19,14.23,14.23,0,0,1,5.65,5.71A15.44,15.44,0,0,1,201.26,46.18Zm-11.95,0a5,5,0,0,0-.6-2.39A5,5,0,0,0,186.92,42a5.56,5.56,0,0,0-2.72-.66h-6.78V51.1h6.78a5.46,5.46,0,0,0,2.72-.67,4.88,4.88,0,0,0,1.79-1.79A5.15,5.15,0,0,0,189.31,46.18Z"/><path class="c" d="M258.57,57.74a37,37,0,0,1-1.06,9.76,14.52,14.52,0,0,1-3.72,6.38,18.35,18.35,0,0,1-13.68,5.57A18.16,18.16,0,0,1,226.63,74a14.29,14.29,0,0,1-4-7.24,50.32,50.32,0,0,1-.87-10.29V53.22a50.32,50.32,0,0,1,.87-10.29,14.29,14.29,0,0,1,4-7.24,17.66,17.66,0,0,1,5.91-4.11,19.52,19.52,0,0,1,7.57-1.33,22.78,22.78,0,0,1,8.43,1.33,19.77,19.77,0,0,1,6.51,4.64q-2.72,2.73-8.1,8a14.46,14.46,0,0,0-3.25-2.66,7.44,7.44,0,0,0-3.59-.79,5.53,5.53,0,0,0-4.72,2.12,7.13,7.13,0,0,0-1,1.93,20.25,20.25,0,0,0-.6,3.38c-.13,1.55-.2,3.77-.2,6.64s.07,5,.2,6.58a22.55,22.55,0,0,0,.6,3.45,7.28,7.28,0,0,0,1,1.93,5.62,5.62,0,0,0,4.72,2.06,6.59,6.59,0,0,0,2.85-.54,5.12,5.12,0,0,0,2-1.46,5.25,5.25,0,0,0,1.39-2.32,10.87,10.87,0,0,0,.4-2.92v-.6h-6.64V51.17h18.46Z"/><path class="c" d="M299.21,79.06H266.27V30.65h32.94V41.27h-21v8h18V59.93h-18v8.5h21Z"/><path class="c" d="M340.58,79.06H307.64V30.65h32.94V41.27h-21v8h18V59.93h-18v8.5h21Z"/><path class="c" d="M386.87,79.06H376.51Q372.6,72.94,361,54.68V79.06H349V30.65h10.49Q363.37,36.75,375,55V30.65h11.89Z"/></svg>