<svg xmlns="http://www.w3.org/2000/svg" viewBox="0 0 419.53 595.28"><defs><style>.a{fill:#ec681c;}.b{fill:#4d4d4d;}.c{fill:#1d1d1b;}.d{fill:none;stroke:#ec681c;stroke-miterlimit:10;stroke-width:6px;}</style></defs><title>koop geen monero</title><path class="a" d="M209.76,117.58a74.9,74.9,0,0,0-71,98.48h22.38v-63l48.64,48.65,48.65-48.65v63h22.38a74.9,74.9,0,0,0-71-98.48"/><path class="b" d="M177.35,191.69v39.62H145.81a74.85,74.85,0,0,0,127.9,0H242.18V191.69l-32.42,32.42Z"/><path class="a" d="M379.6,368.59V525.9H39.93V368.59H379.6m6-6H33.93V531.9H385.6V362.59Z"/><path class="c" d="M119.85,569.7l-2.06-6.6c-.13-.4-.37-1.32-.73-2.75H117c-.27,1.2-.51,2.12-.72,2.77l-2.12,6.58h-2l-3.06-11.24h1.78q1.1,4.23,1.66,6.45a27,27,0,0,1,.65,3h.08c.07-.39.2-.89.36-1.51s.32-1.11.44-1.47l2.06-6.45H118l2,6.45a22.45,22.45,0,0,1,.78,3h.08a8.91,8.91,0,0,1,.22-1.14q.18-.76,2.14-8.27H125l-3.11,11.24Z"/><path class="c" d="M136.19,569.7l-2.06-6.6c-.13-.4-.38-1.32-.73-2.75h-.08c-.28,1.2-.52,2.12-.72,2.77l-2.12,6.58h-2l-3.07-11.24h1.79l1.65,6.45a24.72,24.72,0,0,1,.65,3h.08c.08-.39.2-.89.37-1.51s.31-1.11.43-1.47l2.07-6.45h1.84l2,6.45a22.45,22.45,0,0,1,.78,3h.08a11.14,11.14,0,0,1,.22-1.14q.18-.76,2.14-8.27h1.76l-3.1,11.24Z"/><path class="c" d="M152.52,569.7l-2.06-6.6c-.13-.4-.37-1.32-.73-2.75h-.08c-.27,1.2-.51,2.12-.72,2.77l-2.12,6.58h-2l-3.06-11.24h1.78c.72,2.82,1.28,5,1.66,6.45a27,27,0,0,1,.65,3H146c.07-.39.2-.89.36-1.51s.32-1.11.44-1.47l2.06-6.45h1.85l2,6.45a20.76,20.76,0,0,1,.77,3h.09a8.91,8.91,0,0,1,.22-1.14q.18-.76,2.13-8.27h1.77l-3.11,11.24Z"/><path class="c" d="M159.43,568.61a1.5,1.5,0,0,1,.32-1,1.1,1.1,0,0,1,.89-.36,1.2,1.2,0,0,1,.93.36,1.77,1.77,0,0,1,0,2.06,1.23,1.23,0,0,1-.93.36,1.2,1.2,0,0,1-.86-.32A1.41,1.41,0,0,1,159.43,568.61Z"/><path class="c" d="M174.46,558.46v1.07l-2.08.25a3.56,3.56,0,0,1,.74,2.25,3.29,3.29,0,0,1-1.13,2.63,4.51,4.51,0,0,1-3.09,1,4.81,4.81,0,0,1-1-.08,1.69,1.69,0,0,0-1.08,1.45.72.72,0,0,0,.38.68,2.7,2.7,0,0,0,1.3.22h2a4.47,4.47,0,0,1,2.8.77,2.68,2.68,0,0,1,1,2.24,3.18,3.18,0,0,1-1.5,2.84,8,8,0,0,1-4.36,1,5.93,5.93,0,0,1-3.4-.82,2.65,2.65,0,0,1-1.2-2.32,2.59,2.59,0,0,1,.66-1.77,3.36,3.36,0,0,1,1.84-1,1.87,1.87,0,0,1-.72-.6,1.63,1.63,0,0,1-.29-1,1.79,1.79,0,0,1,.33-1.07,3.32,3.32,0,0,1,1-.89,3.09,3.09,0,0,1-1.42-1.22,4,4,0,0,1,.56-4.82,4.52,4.52,0,0,1,3.14-1,5.57,5.57,0,0,1,1.59.21Zm-9,13.12a1.54,1.54,0,0,0,.77,1.39,4.3,4.3,0,0,0,2.21.47,6.22,6.22,0,0,0,3.17-.64,2,2,0,0,0,1-1.74,1.4,1.4,0,0,0-.56-1.27,4.51,4.51,0,0,0-2.13-.35h-2a2.67,2.67,0,0,0-1.8.55A2,2,0,0,0,165.5,571.58Zm.93-9.52a2.29,2.29,0,0,0,.66,1.78,2.7,2.7,0,0,0,1.86.61,2.17,2.17,0,0,0,2.49-2.42,2.24,2.24,0,0,0-2.52-2.54,2.51,2.51,0,0,0-1.85.65A2.6,2.6,0,0,0,166.43,562.06Z"/><path class="c" d="M181.52,569.9a5.17,5.17,0,0,1-3.93-1.52,5.86,5.86,0,0,1-1.44-4.21,6.54,6.54,0,0,1,1.33-4.32,4.48,4.48,0,0,1,3.6-1.6,4.22,4.22,0,0,1,3.34,1.39,5.34,5.34,0,0,1,1.23,3.67v1.07h-7.74a4.45,4.45,0,0,0,1,3,3.46,3.46,0,0,0,2.67,1,9,9,0,0,0,3.59-.76v1.52a8.72,8.72,0,0,1-1.71.56A9.7,9.7,0,0,1,181.52,569.9Zm-.46-10.22a2.78,2.78,0,0,0-2.16.88,4.07,4.07,0,0,0-1,2.44h5.88a3.75,3.75,0,0,0-.72-2.47A2.52,2.52,0,0,0,181.06,559.68Z"/><path class="c" d="M192.18,568.5a6.4,6.4,0,0,0,.88-.07,6,6,0,0,0,.66-.14v1.3a3,3,0,0,1-.81.22,6,6,0,0,1-1,.09c-2.18,0-3.26-1.14-3.26-3.44v-6.68h-1.61V559l1.61-.71.71-2.4h1v2.61h3.26v1.32h-3.26v6.61a2.28,2.28,0,0,0,.48,1.56A1.68,1.68,0,0,0,192.18,568.5Z"/><path class="c" d="M210.29,569.7v-7.32a3.05,3.05,0,0,0-.57-2,2.23,2.23,0,0,0-1.79-.67,2.85,2.85,0,0,0-2.34.91,4.33,4.33,0,0,0-.76,2.81v6.28h-1.71v-7.32a3.05,3.05,0,0,0-.57-2,2.22,2.22,0,0,0-1.79-.67,2.79,2.79,0,0,0-2.35,1,5.21,5.21,0,0,0-.74,3.14v5.9H196V558.46h1.38l.28,1.54h.08a3.32,3.32,0,0,1,1.36-1.29,4.23,4.23,0,0,1,2-.46c1.76,0,2.91.64,3.45,1.91h.08a3.65,3.65,0,0,1,1.46-1.4,4.52,4.52,0,0,1,2.17-.51,3.8,3.8,0,0,1,2.85,1,4.34,4.34,0,0,1,1,3.13v7.34Z"/><path class="c" d="M225.2,564.07a6.21,6.21,0,0,1-1.38,4.29A4.89,4.89,0,0,1,220,569.9a5,5,0,0,1-2.67-.71,4.65,4.65,0,0,1-1.81-2,7.1,7.1,0,0,1-.63-3.09,6.15,6.15,0,0,1,1.37-4.28,4.84,4.84,0,0,1,3.81-1.54,4.77,4.77,0,0,1,3.75,1.57A6.16,6.16,0,0,1,225.2,564.07Zm-8.56,0a5.37,5.37,0,0,0,.86,3.28,3.43,3.43,0,0,0,5.07,0,5.28,5.28,0,0,0,.87-3.28,5.21,5.21,0,0,0-.87-3.26A3.05,3.05,0,0,0,220,559.7a3,3,0,0,0-2.52,1.09A5.31,5.31,0,0,0,216.64,564.07Z"/><path class="c" d="M235.88,569.7v-7.27a2.91,2.91,0,0,0-.63-2,2.52,2.52,0,0,0-2-.68,3.24,3.24,0,0,0-2.58.95,4.82,4.82,0,0,0-.82,3.15v5.9h-1.71V558.46h1.39l.28,1.54h.08a3.46,3.46,0,0,1,1.46-1.29,4.7,4.7,0,0,1,2.11-.46,4.27,4.27,0,0,1,3.05,1,4.14,4.14,0,0,1,1,3.13v7.34Z"/><path class="c" d="M245.82,569.9a5.17,5.17,0,0,1-3.93-1.52,5.86,5.86,0,0,1-1.44-4.21,6.49,6.49,0,0,1,1.34-4.32,4.46,4.46,0,0,1,3.59-1.6,4.22,4.22,0,0,1,3.34,1.39,5.34,5.34,0,0,1,1.23,3.67v1.07h-7.74a4.5,4.5,0,0,0,1,3,3.46,3.46,0,0,0,2.67,1,9,9,0,0,0,3.59-.76v1.52a8.72,8.72,0,0,1-1.71.56A9.7,9.7,0,0,1,245.82,569.9Zm-.46-10.22a2.78,2.78,0,0,0-2.16.88,4.14,4.14,0,0,0-.95,2.44h5.88a3.75,3.75,0,0,0-.72-2.47A2.52,2.52,0,0,0,245.36,559.68Z"/><path class="c" d="M258,558.25a6.19,6.19,0,0,1,1.35.13l-.24,1.57a6,6,0,0,0-1.23-.15,3,3,0,0,0-2.33,1.11,4,4,0,0,0-1,2.76v6h-1.7V558.46h1.4l.2,2.08h.08a4.88,4.88,0,0,1,1.5-1.69A3.39,3.39,0,0,1,258,558.25Z"/><path class="c" d="M271.13,564.07a6.17,6.17,0,0,1-1.39,4.29,4.85,4.85,0,0,1-3.82,1.54,5.08,5.08,0,0,1-2.68-.71,4.63,4.63,0,0,1-1.8-2,7,7,0,0,1-.64-3.09,6.15,6.15,0,0,1,1.38-4.28,5.37,5.37,0,0,1,7.56,0A6.16,6.16,0,0,1,271.13,564.07Zm-8.56,0a5.3,5.3,0,0,0,.86,3.28,3,3,0,0,0,2.53,1.12,3,3,0,0,0,2.54-1.12,5.28,5.28,0,0,0,.86-3.28,5.22,5.22,0,0,0-.86-3.26,3.05,3.05,0,0,0-2.56-1.11,3,3,0,0,0-2.52,1.09A5.31,5.31,0,0,0,262.57,564.07Z"/><path class="c" d="M273.87,568.61a1.5,1.5,0,0,1,.31-1,1.13,1.13,0,0,1,.9-.36,1.19,1.19,0,0,1,.92.36,1.42,1.42,0,0,1,.34,1,1.46,1.46,0,0,1-.34,1,1.21,1.21,0,0,1-.92.36,1.24,1.24,0,0,1-.87-.32A1.41,1.41,0,0,1,273.87,568.61Z"/><path class="c" d="M289.4,564.07a6.21,6.21,0,0,1-1.38,4.29,4.89,4.89,0,0,1-3.83,1.54,5,5,0,0,1-2.67-.71,4.65,4.65,0,0,1-1.81-2,7.1,7.1,0,0,1-.63-3.09,6.15,6.15,0,0,1,1.37-4.28,4.84,4.84,0,0,1,3.81-1.54,4.77,4.77,0,0,1,3.75,1.57A6.16,6.16,0,0,1,289.4,564.07Zm-8.56,0a5.37,5.37,0,0,0,.86,3.28,3.43,3.43,0,0,0,5.07,0,5.28,5.28,0,0,0,.87-3.28,5.21,5.21,0,0,0-.87-3.26,3.05,3.05,0,0,0-2.56-1.11,3,3,0,0,0-2.52,1.09A5.31,5.31,0,0,0,280.84,564.07Z"/><path class="c" d="M297.51,558.25a6,6,0,0,1,1.34.13l-.23,1.57a6,6,0,0,0-1.23-.15,3,3,0,0,0-2.33,1.11,4,4,0,0,0-1,2.76v6h-1.71V558.46h1.41l.19,2.08h.09a4.88,4.88,0,0,1,1.5-1.69A3.39,3.39,0,0,1,297.51,558.25Z"/><path class="c" d="M310.15,558.46v1.07l-2.08.25a3.56,3.56,0,0,1,.74,2.25,3.29,3.29,0,0,1-1.13,2.63,4.51,4.51,0,0,1-3.09,1,4.81,4.81,0,0,1-.95-.08,1.69,1.69,0,0,0-1.08,1.45.72.72,0,0,0,.38.68,2.7,2.7,0,0,0,1.3.22h2a4.47,4.47,0,0,1,2.8.77,2.68,2.68,0,0,1,1,2.24,3.18,3.18,0,0,1-1.5,2.84,8,8,0,0,1-4.36,1,5.93,5.93,0,0,1-3.4-.82,2.65,2.65,0,0,1-1.2-2.32,2.59,2.59,0,0,1,.66-1.77,3.36,3.36,0,0,1,1.84-1,1.87,1.87,0,0,1-.72-.6,1.63,1.63,0,0,1-.29-1,1.79,1.79,0,0,1,.33-1.07,3.32,3.32,0,0,1,1-.89,3.09,3.09,0,0,1-1.42-1.22,4,4,0,0,1,.56-4.82,4.52,4.52,0,0,1,3.14-1,5.57,5.57,0,0,1,1.59.21Zm-9,13.12A1.54,1.54,0,0,0,302,573a4.3,4.3,0,0,0,2.21.47,6.24,6.24,0,0,0,3.17-.64,2,2,0,0,0,1-1.74,1.4,1.4,0,0,0-.56-1.27,4.51,4.51,0,0,0-2.13-.35h-2a2.67,2.67,0,0,0-1.8.55A2,2,0,0,0,301.19,571.58Zm.93-9.52a2.29,2.29,0,0,0,.66,1.78,2.69,2.69,0,0,0,1.86.61,2.17,2.17,0,0,0,2.49-2.42,2.24,2.24,0,0,0-2.52-2.54,2.51,2.51,0,0,0-1.85.65A2.6,2.6,0,0,0,302.12,562.06Z"/><line class="d" x1="322.41" y1="563.98" x2="384.47" y2="563.98"/><line class="d" x1="33.93" y1="563.98" x2="95.99" y2="563.98"/><path class="b" d="M348.74,326.8A14.45,14.45,0,0,1,338,331.37a15.28,15.28,0,0,1-9.92-3.53,15,15,0,0,1-5.56-12.27,15.68,15.68,0,0,1,4.42-11.47,15.27,15.27,0,0,1,21.8.11,16.49,16.49,0,0,1,0,22.59M355,298.05a23.22,23.22,0,0,0-17.06-7.18,24.46,24.46,0,0,0-21.13,12.21,25,25,0,0,0,3.72,29.62,24.4,24.4,0,0,0,34.57.2,23.63,23.63,0,0,0,7-17.33A24,24,0,0,0,355,298.05M296.52,308.9c-1.13.79-1.66,1.17-4.64,1.17H280.13V300h11.38a7.82,7.82,0,0,1,3.62.52,4.57,4.57,0,0,1,2.23,1.7,4.68,4.68,0,0,1,.84,2.79,4.36,4.36,0,0,1-1.68,3.86m1.41,9.25a14.24,14.24,0,0,0,7-4.92,13.6,13.6,0,0,0,2.31-8.1,14.67,14.67,0,0,0-2.1-8,11.86,11.86,0,0,0-5.55-4.82q-3.45-1.45-11.6-1.46h-17.2V340h9.34V319.18h8.15L299.34,340h10.21l-11.62-21.82Zm-69-27.28h31.83V300H238.21v10h22.54v9H238.21v11.73h22.54V340H228.92Zm-49.31,0h8.94l21.06,32.3v-32.3H219V340h-9l-21-32.2V340h-9.34Zm-20.7,35.93a14.47,14.47,0,0,1-10.78,4.57,15.28,15.28,0,0,1-9.92-3.53,15,15,0,0,1-5.56-12.27,15.69,15.69,0,0,1,4.43-11.47,15.27,15.27,0,0,1,21.8.11,16.49,16.49,0,0,1,0,22.59m6.22-28.75a23.23,23.23,0,0,0-17.06-7.18,24.46,24.46,0,0,0-21.14,12.21,25,25,0,0,0,3.72,29.62,24.4,24.4,0,0,0,34.57.2,23.64,23.64,0,0,0,7.05-17.33,24,24,0,0,0-7.14-17.52m-94.21-7.18h9.15l11.34,34.24,11.52-34.24h9L120.21,340h-9l-5.27-31L95.48,340H87.24l-10.3-31-5.38,31H62.45Z"/><path class="c" d="M71.62,394.17a3.53,3.53,0,0,0-3,1.48,6.83,6.83,0,0,0-1.08,4.11c0,3.66,1.38,5.49,4.12,5.49a13.15,13.15,0,0,0,4.19-.86v2.92a11.62,11.62,0,0,1-4.51.84A6.87,6.87,0,0,1,65.82,406a9.18,9.18,0,0,1-1.9-6.24,10.23,10.23,0,0,1,.93-4.49,6.74,6.74,0,0,1,2.68-2.95,7.89,7.89,0,0,1,4.09-1,11.07,11.07,0,0,1,4.81,1.16l-1.12,2.83c-.62-.29-1.23-.55-1.85-.77A5.8,5.8,0,0,0,71.62,394.17Z"/><path class="c" d="M86,395.13a5.3,5.3,0,0,1,1.16.11l-.26,3.21a4.27,4.27,0,0,0-3.56.73,3.05,3.05,0,0,0-.92,2.36v6.39H79V395.37h2.59l.51,2.11h.16a4.78,4.78,0,0,1,1.58-1.7A3.93,3.93,0,0,1,86,395.13Z"/><path class="c" d="M87.68,395.37h3.76l2.36,7.06a9.17,9.17,0,0,1,.42,2.18h.07a9.61,9.61,0,0,1,.48-2.18l2.33-7.06h3.67l-5.31,14.16a6.16,6.16,0,0,1-2.09,2.94,5.25,5.25,0,0,1-3.16,1,7.8,7.8,0,0,1-1.74-.19v-2.72a5.69,5.69,0,0,0,1.35.15,2.47,2.47,0,0,0,1.59-.56,3.66,3.66,0,0,0,1.06-1.68l.2-.61Z"/><path class="c" d="M109.46,408.15a4.14,4.14,0,0,1-3.47-1.61h-.18c.12,1,.18,1.66.18,1.82v5.09h-3.43V395.37h2.79l.48,1.63H106a4,4,0,0,1,3.56-1.87,4.09,4.09,0,0,1,3.48,1.72,8,8,0,0,1,1.26,4.77,9.5,9.5,0,0,1-.59,3.5,4.87,4.87,0,0,1-1.68,2.26A4.35,4.35,0,0,1,109.46,408.15Zm-1-10.27a2.13,2.13,0,0,0-1.85.78,4.4,4.4,0,0,0-.61,2.57v.37a5.29,5.29,0,0,0,.6,2.9,2.16,2.16,0,0,0,1.9.88q2.31,0,2.31-3.8a5.42,5.42,0,0,0-.57-2.78A1.93,1.93,0,0,0,108.45,397.88Z"/><path class="c" d="M122.41,405.42a7.39,7.39,0,0,0,2.15-.39v2.55a7.7,7.7,0,0,1-3.14.57,3.84,3.84,0,0,1-3-1,4.48,4.48,0,0,1-.94-3.11v-6.06h-1.64v-1.45l1.89-1.14,1-2.65h2.19v2.67h3.51v2.57h-3.51V404a1.3,1.3,0,0,0,.41,1.07A1.56,1.56,0,0,0,122.41,405.42Z"/><path class="c" d="M138.51,401.62a6.78,6.78,0,0,1-1.61,4.8,5.88,5.88,0,0,1-4.51,1.73,6.29,6.29,0,0,1-3.19-.79,5.26,5.26,0,0,1-2.12-2.28,7.67,7.67,0,0,1-.74-3.46,6.66,6.66,0,0,1,1.61-4.78,5.88,5.88,0,0,1,4.51-1.71,6.37,6.37,0,0,1,3.19.79,5.21,5.21,0,0,1,2.12,2.26A7.48,7.48,0,0,1,138.51,401.62Zm-8.68,0a5.32,5.32,0,0,0,.61,2.82,2.2,2.2,0,0,0,2,1,2.16,2.16,0,0,0,2-.95,5.34,5.34,0,0,0,.6-2.83,5.11,5.11,0,0,0-.61-2.79,2.58,2.58,0,0,0-4,0A5.15,5.15,0,0,0,129.83,401.62Z"/><path class="c" d="M144.33,407.93l-4.78-12.56h3.58l2.42,7.15a13.05,13.05,0,0,1,.51,2.58h.07a11.34,11.34,0,0,1,.5-2.58l2.42-7.15h3.58l-4.78,12.56Z"/><path class="c" d="M162.4,407.93l-.66-1.71h-.09a5,5,0,0,1-1.78,1.51,5.79,5.79,0,0,1-2.39.42,3.88,3.88,0,0,1-2.85-1,4,4,0,0,1-1-2.95,3.3,3.3,0,0,1,1.39-2.94,8,8,0,0,1,4.22-1.05l2.18-.07v-.55a1.71,1.71,0,0,0-1.95-1.91,8.81,8.81,0,0,0-3.54.91l-1.14-2.31a10.19,10.19,0,0,1,4.81-1.14,6,6,0,0,1,3.87,1.1,4.08,4.08,0,0,1,1.35,3.35v8.37Zm-1-5.82-1.33,0a4.25,4.25,0,0,0-2.22.54,1.69,1.69,0,0,0-.73,1.51c0,1,.56,1.45,1.66,1.45a2.63,2.63,0,0,0,1.91-.69,2.43,2.43,0,0,0,.71-1.82Z"/><path class="c" d="M171.74,407.93h-3.42V390.45h3.42Z"/><path class="c" d="M184.23,407.93l-.46-1.61h-.18a3.57,3.57,0,0,1-1.56,1.35,5.29,5.29,0,0,1-2.3.48,4.39,4.39,0,0,1-3.34-1.18,4.81,4.81,0,0,1-1.12-3.41v-8.19h3.43v7.33a3.53,3.53,0,0,0,.48,2,1.73,1.73,0,0,0,1.54.68,2.29,2.29,0,0,0,2.07-1,5.9,5.9,0,0,0,.65-3.18v-5.91h3.42v12.56Z"/><path class="c" d="M195.74,405.42a7.5,7.5,0,0,0,2.16-.39v2.55a7.7,7.7,0,0,1-3.14.57,3.88,3.88,0,0,1-3-1,4.53,4.53,0,0,1-.94-3.11v-6.06h-1.63v-1.45l1.88-1.14,1-2.65h2.19v2.67h3.52v2.57h-3.52V404a1.34,1.34,0,0,0,.41,1.07A1.56,1.56,0,0,0,195.74,405.42Z"/><path class="c" d="M208.41,407.93l-.66-1.71h-.09a5,5,0,0,1-1.78,1.51,5.79,5.79,0,0,1-2.39.42,3.84,3.84,0,0,1-2.84-1,4,4,0,0,1-1-2.95,3.28,3.28,0,0,1,1.4-2.94,7.93,7.93,0,0,1,4.21-1.05l2.18-.07v-.55a1.71,1.71,0,0,0-2-1.91,8.81,8.81,0,0,0-3.54.91l-1.14-2.31a10.19,10.19,0,0,1,4.81-1.14,6,6,0,0,1,3.88,1.1,4.1,4.1,0,0,1,1.34,3.35v8.37Zm-1-5.82-1.32,0a4.26,4.26,0,0,0-2.23.54,1.71,1.71,0,0,0-.73,1.51c0,1,.56,1.45,1.66,1.45a2.63,2.63,0,0,0,1.91-.69,2.43,2.43,0,0,0,.71-1.82Z"/><path class="c" d="M228.36,407.93h-8.93v-1.27l6.71-9.59h-6.3v-1.45h8.35v1.45l-6.63,9.41h6.8Z"/><path class="c" d="M231.09,392.28a1.25,1.25,0,0,1,.31-.94,1.13,1.13,0,0,1,.79-.29,1.1,1.1,0,0,1,.77.3,1.2,1.2,0,0,1,.33.93,1.24,1.24,0,0,1-.33.94,1.14,1.14,0,0,1-1.56,0A1.27,1.27,0,0,1,231.09,392.28Zm2,15.65h-1.87V395.62h1.87Z"/><path class="c" d="M235.57,413.45a4.44,4.44,0,0,1-1.73-.28v-1.52a5.41,5.41,0,0,0,1.53.23,1.59,1.59,0,0,0,1.28-.48,2.2,2.2,0,0,0,.41-1.45V395.62h1.86v14.19C238.92,412.24,237.81,413.45,235.57,413.45Zm1.33-21.17a1.26,1.26,0,0,1,.32-.94,1.18,1.18,0,0,1,1.56,0,1.19,1.19,0,0,1,.32.93,1.23,1.23,0,0,1-.32.94,1.09,1.09,0,0,1-.78.31,1.06,1.06,0,0,1-.78-.31A1.27,1.27,0,0,1,236.9,392.28Z"/><path class="c" d="M251.3,407.93v-8a3.23,3.23,0,0,0-.68-2.24,2.79,2.79,0,0,0-2.15-.74,3.52,3.52,0,0,0-2.83,1,5.28,5.28,0,0,0-.9,3.45v6.46h-1.86V395.62h1.51l.31,1.68h.09a3.86,3.86,0,0,1,1.6-1.41,5.29,5.29,0,0,1,2.31-.5,4.69,4.69,0,0,1,3.34,1.07,4.58,4.58,0,0,1,1.13,3.44v8Z"/><path class="c" d="M270.91,404.57a3.1,3.1,0,0,1-1.28,2.65,6,6,0,0,1-3.59.93,7.87,7.87,0,0,1-3.82-.77v-1.73a9,9,0,0,0,1.9.7,7.61,7.61,0,0,0,2,.26,4.5,4.5,0,0,0,2.25-.46,1.56,1.56,0,0,0,.78-1.43,1.55,1.55,0,0,0-.62-1.22,9.49,9.49,0,0,0-2.43-1.21,13.46,13.46,0,0,1-2.45-1.12,3.33,3.33,0,0,1-1.07-1.08,2.81,2.81,0,0,1-.36-1.45,2.76,2.76,0,0,1,1.23-2.38,5.67,5.67,0,0,1,3.35-.87,9.83,9.83,0,0,1,3.89.81l-.66,1.52a9,9,0,0,0-3.36-.77,3.84,3.84,0,0,0-2,.42,1.28,1.28,0,0,0-.67,1.14,1.42,1.42,0,0,0,.25.85,2.57,2.57,0,0,0,.81.66,19.58,19.58,0,0,0,2.16.91,8,8,0,0,1,3,1.61A2.82,2.82,0,0,1,270.91,404.57Z"/><path class="c" d="M278.86,408.15a5.26,5.26,0,0,1-4.14-1.65,6.77,6.77,0,0,1-1.46-4.65,7,7,0,0,1,1.48-4.77,5.36,5.36,0,0,1,4.24-1.69,8.9,8.9,0,0,1,1.78.19,6.12,6.12,0,0,1,1.39.45l-.57,1.59a7.36,7.36,0,0,0-1.35-.41,6,6,0,0,0-1.29-.17q-3.75,0-3.75,4.79a5.7,5.7,0,0,0,.91,3.48,3.19,3.19,0,0,0,2.72,1.21,8.32,8.32,0,0,0,3.15-.66v1.65A6.67,6.67,0,0,1,278.86,408.15Z"/><path class="c" d="M293.31,407.93v-8a3.23,3.23,0,0,0-.68-2.24,2.78,2.78,0,0,0-2.15-.74,3.51,3.51,0,0,0-2.83,1,5.33,5.33,0,0,0-.9,3.46v6.44h-1.86V390.45h1.86v5.29a13.41,13.41,0,0,1-.08,1.58h.11a3.78,3.78,0,0,1,1.56-1.39,5,5,0,0,1,2.32-.51,4.72,4.72,0,0,1,3.39,1.07,4.52,4.52,0,0,1,1.13,3.41v8Z"/><path class="c" d="M306.58,407.93l-.37-1.76h-.09a5.13,5.13,0,0,1-1.84,1.57,5.64,5.64,0,0,1-2.28.41,4.09,4.09,0,0,1-2.87-.94,3.43,3.43,0,0,1-1-2.69c0-2.48,2-3.79,6-3.9l2.09-.07v-.77a3.16,3.16,0,0,0-.62-2.14,2.58,2.58,0,0,0-2-.69,8.16,8.16,0,0,0-3.48.95l-.57-1.43a8.32,8.32,0,0,1,2-.77,8.5,8.5,0,0,1,2.17-.28,4.72,4.72,0,0,1,3.27,1,4.12,4.12,0,0,1,1.06,3.14v8.4Zm-4.21-1.32a3.79,3.79,0,0,0,2.73-.95,3.55,3.55,0,0,0,1-2.68v-1.11l-1.86.08a6.77,6.77,0,0,0-3.21.69,2.09,2.09,0,0,0-1,1.9,1.94,1.94,0,0,0,.61,1.54A2.51,2.51,0,0,0,302.37,406.61Z"/><path class="c" d="M320.18,406.28h-.1a4.39,4.39,0,0,1-3.87,1.87,4.55,4.55,0,0,1-3.75-1.65,7.25,7.25,0,0,1-1.35-4.7,7.37,7.37,0,0,1,1.35-4.72,5,5,0,0,1,7.59.13h.15l-.08-.89,0-.86v-5h1.86v17.48h-1.52Zm-3.73.31a3.42,3.42,0,0,0,2.77-1,5.26,5.26,0,0,0,.86-3.35v-.4a6.18,6.18,0,0,0-.87-3.73,3.34,3.34,0,0,0-2.78-1.12,2.85,2.85,0,0,0-2.51,1.28,6.34,6.34,0,0,0-.88,3.6,6.05,6.05,0,0,0,.87,3.56A2.93,2.93,0,0,0,316.45,406.59Z"/><path class="c" d="M331.09,408.15a5.63,5.63,0,0,1-4.3-1.66,6.41,6.41,0,0,1-1.58-4.62,7.19,7.19,0,0,1,1.46-4.73,4.9,4.9,0,0,1,3.94-1.75,4.66,4.66,0,0,1,3.66,1.52,5.85,5.85,0,0,1,1.35,4v1.18h-8.48a4.91,4.91,0,0,0,1.09,3.29,3.8,3.8,0,0,0,2.93,1.12,9.84,9.84,0,0,0,3.93-.83v1.66a9.23,9.23,0,0,1-1.87.61A10.07,10.07,0,0,1,331.09,408.15Zm-.5-11.2a3.07,3.07,0,0,0-2.37,1,4.45,4.45,0,0,0-1,2.67h6.44a4.08,4.08,0,0,0-.79-2.7A2.77,2.77,0,0,0,330.59,397Z"/><path class="c" d="M340.66,407.93H338.8V390.45h1.86Z"/><path class="c" d="M344.46,392.28a1.25,1.25,0,0,1,.31-.94,1.13,1.13,0,0,1,.79-.29,1.08,1.08,0,0,1,.77.3,1.2,1.2,0,0,1,.33.93,1.24,1.24,0,0,1-.33.94,1,1,0,0,1-.77.31,1.06,1.06,0,0,1-.79-.31A1.27,1.27,0,0,1,344.46,392.28Zm2,15.65h-1.87V395.62h1.87Z"/><path class="c" d="M348.94,413.45a4.44,4.44,0,0,1-1.73-.28v-1.52a5.41,5.41,0,0,0,1.53.23,1.59,1.59,0,0,0,1.28-.48,2.2,2.2,0,0,0,.41-1.45V395.62h1.87v14.19Q352.3,413.46,348.94,413.45Zm1.33-21.17a1.26,1.26,0,0,1,.32-.94,1.13,1.13,0,0,1,.79-.29,1.11,1.11,0,0,1,.77.3,1.2,1.2,0,0,1,.33.93,1.24,1.24,0,0,1-.33.94,1.08,1.08,0,0,1-.77.31,1.06,1.06,0,0,1-.79-.31A1.27,1.27,0,0,1,350.27,392.28Z"/><path class="c" d="M358.09,401.62a22.28,22.28,0,0,1,1.47-1.79l4-4.21h2.21l-5,5.24,5.34,7.07h-2.26l-4.34-5.82-1.41,1.21v4.61h-1.84V390.45h1.84v9.27c0,.41,0,1-.09,1.9Z"/><path class="c" d="M67.26,439.93l-4.68-12.31h2l2.65,7.3c.6,1.7,1,2.81,1.06,3.32h.09a23.15,23.15,0,0,1,.78-2.46q.66-1.87,3-8.16h2l-4.68,12.31Z"/><path class="c" d="M86.71,433.76a6.79,6.79,0,0,1-1.52,4.7A5.33,5.33,0,0,1,81,440.15a5.59,5.59,0,0,1-2.93-.77,5.19,5.19,0,0,1-2-2.23,7.77,7.77,0,0,1-.69-3.39,6.79,6.79,0,0,1,1.5-4.69,5.34,5.34,0,0,1,4.18-1.68,5.22,5.22,0,0,1,4.11,1.72A6.8,6.8,0,0,1,86.71,433.76Zm-9.38,0a5.82,5.82,0,0,0,.94,3.59,3.75,3.75,0,0,0,5.56,0,7.24,7.24,0,0,0,0-7.17A3.35,3.35,0,0,0,81,429a3.28,3.28,0,0,0-2.76,1.2A5.78,5.78,0,0,0,77.33,433.76Z"/><path class="c" d="M100.6,433.76a6.79,6.79,0,0,1-1.52,4.7,5.32,5.32,0,0,1-4.19,1.69,5.62,5.62,0,0,1-2.93-.77,5.11,5.11,0,0,1-2-2.23,7.63,7.63,0,0,1-.7-3.39,6.79,6.79,0,0,1,1.5-4.69A5.34,5.34,0,0,1,95,427.39a5.22,5.22,0,0,1,4.11,1.72A6.8,6.8,0,0,1,100.6,433.76Zm-9.38,0a5.82,5.82,0,0,0,1,3.59,3.24,3.24,0,0,0,2.77,1.24,3.29,3.29,0,0,0,2.78-1.23,7.24,7.24,0,0,0,0-7.17,3.82,3.82,0,0,0-5.57,0A5.78,5.78,0,0,0,91.22,433.76Z"/><path class="c" d="M109.48,427.39a7.19,7.19,0,0,1,1.47.14l-.25,1.73a5.92,5.92,0,0,0-1.35-.17,3.28,3.28,0,0,0-2.56,1.21,4.42,4.42,0,0,0-1.06,3v6.61h-1.86V427.62h1.54l.21,2.28h.09a5.58,5.58,0,0,1,1.65-1.86A3.73,3.73,0,0,1,109.48,427.39Z"/><path class="c" d="M127.65,439.93v-8a3.23,3.23,0,0,0-.68-2.24,2.78,2.78,0,0,0-2.15-.74,3.51,3.51,0,0,0-2.83,1,5.33,5.33,0,0,0-.9,3.46v6.44h-1.86V422.45h1.86v5.29a11.32,11.32,0,0,1-.09,1.58h.12a3.78,3.78,0,0,1,1.56-1.39,5,5,0,0,1,2.32-.51,4.72,4.72,0,0,1,3.39,1.07,4.52,4.52,0,0,1,1.13,3.41v8Z"/><path class="c" d="M138.55,440.15a5.65,5.65,0,0,1-4.31-1.66,6.46,6.46,0,0,1-1.58-4.62,7.14,7.14,0,0,1,1.47-4.73,4.88,4.88,0,0,1,3.93-1.75,4.67,4.67,0,0,1,3.67,1.52,5.9,5.9,0,0,1,1.34,4v1.18h-8.48a4.92,4.92,0,0,0,1.1,3.29,3.78,3.78,0,0,0,2.92,1.12,9.77,9.77,0,0,0,3.93-.83v1.66a9.15,9.15,0,0,1-1.86.61A10.07,10.07,0,0,1,138.55,440.15ZM138,429a3.05,3.05,0,0,0-2.36,1,4.39,4.39,0,0,0-1,2.67h6.43a4.14,4.14,0,0,0-.78-2.7A2.81,2.81,0,0,0,138,429Z"/><path class="c" d="M150.23,438.61a5.9,5.9,0,0,0,1-.07,7,7,0,0,0,.73-.15v1.42a3.17,3.17,0,0,1-.89.24,6.15,6.15,0,0,1-1.06.1q-3.57,0-3.57-3.76v-7.32h-1.77v-.9l1.77-.78.78-2.63h1.08v2.86h3.57v1.45h-3.57v7.24a2.52,2.52,0,0,0,.53,1.71A1.85,1.85,0,0,0,150.23,438.61Z"/><path class="c" d="M166.07,427.42a4.58,4.58,0,0,1,3.77,1.65,7.26,7.26,0,0,1,1.34,4.69,7.34,7.34,0,0,1-1.35,4.71,4.56,4.56,0,0,1-3.76,1.68,5.39,5.39,0,0,1-2.19-.44,4.09,4.09,0,0,1-1.67-1.37h-.14l-.39,1.59h-1.33V422.45h1.86v4.25c0,.95,0,1.8-.09,2.56h.09A4.42,4.42,0,0,1,166.07,427.42ZM165.8,429a3.25,3.25,0,0,0-2.75,1.09,8.48,8.48,0,0,0,0,7.4,3.3,3.3,0,0,0,2.78,1.12,2.89,2.89,0,0,0,2.56-1.25,6.47,6.47,0,0,0,.84-3.6,6.18,6.18,0,0,0-.84-3.58A3,3,0,0,0,165.8,429Z"/><path class="c" d="M182,439.93l-.37-1.76h-.09a5.13,5.13,0,0,1-1.84,1.57,5.64,5.64,0,0,1-2.28.41,4.1,4.1,0,0,1-2.87-.94,3.43,3.43,0,0,1-1-2.69c0-2.48,2-3.79,6-3.9l2.09-.07v-.77a3.16,3.16,0,0,0-.62-2.14,2.58,2.58,0,0,0-2-.69,8.16,8.16,0,0,0-3.48.95l-.57-1.43a8.48,8.48,0,0,1,2-.77,8.58,8.58,0,0,1,2.18-.28,4.71,4.71,0,0,1,3.26,1,4.08,4.08,0,0,1,1.06,3.14v8.4Zm-4.21-1.32a3.79,3.79,0,0,0,2.73-.95,3.56,3.56,0,0,0,1-2.68v-1.11l-1.87.08a6.69,6.69,0,0,0-3.2.69,2.08,2.08,0,0,0-1,1.9,1.94,1.94,0,0,0,.61,1.54A2.51,2.51,0,0,0,177.8,438.61Z"/><path class="c" d="M195.65,439.93v-8a3.18,3.18,0,0,0-.68-2.24,2.78,2.78,0,0,0-2.15-.74,3.54,3.54,0,0,0-2.83,1,5.29,5.29,0,0,0-.89,3.45v6.46h-1.87V427.62h1.52l.3,1.68h.09a3.89,3.89,0,0,1,1.61-1.41,5.24,5.24,0,0,1,2.3-.5,4.71,4.71,0,0,1,3.35,1.07,4.62,4.62,0,0,1,1.12,3.44v8Z"/><path class="c" d="M203.19,433.62a22.28,22.28,0,0,1,1.47-1.79l4-4.21h2.21l-5,5.24,5.34,7.07h-2.26l-4.35-5.82-1.4,1.21v4.61h-1.84V422.45h1.84v9.27c0,.41,0,1-.09,1.9Z"/><path class="c" d="M218.62,440.15a5.66,5.66,0,0,1-4.31-1.66,6.45,6.45,0,0,1-1.57-4.62,7.13,7.13,0,0,1,1.46-4.73,4.9,4.9,0,0,1,3.94-1.75,4.66,4.66,0,0,1,3.66,1.52,5.85,5.85,0,0,1,1.35,4v1.18h-8.48a4.91,4.91,0,0,0,1.09,3.29,3.8,3.8,0,0,0,2.93,1.12,9.84,9.84,0,0,0,3.93-.83v1.66a9.23,9.23,0,0,1-1.87.61A10.07,10.07,0,0,1,218.62,440.15Zm-.5-11.2a3.07,3.07,0,0,0-2.37,1,4.45,4.45,0,0,0-1,2.67h6.44a4.14,4.14,0,0,0-.79-2.7A2.77,2.77,0,0,0,218.12,429Z"/><path class="c" d="M234.75,439.93v-8a3.18,3.18,0,0,0-.69-2.24,2.75,2.75,0,0,0-2.14-.74,3.52,3.52,0,0,0-2.83,1,5.28,5.28,0,0,0-.9,3.45v6.46h-1.87V427.62h1.52l.3,1.68h.09a4,4,0,0,1,1.61-1.41,5.28,5.28,0,0,1,2.3-.5,4.71,4.71,0,0,1,3.35,1.07,4.58,4.58,0,0,1,1.12,3.44v8Z"/><path class="c" d="M248.38,436.57a3.07,3.07,0,0,1-1.28,2.65,6,6,0,0,1-3.59.93,7.9,7.9,0,0,1-3.82-.77v-1.73a9.16,9.16,0,0,0,1.9.7,7.61,7.61,0,0,0,2,.26,4.47,4.47,0,0,0,2.25-.46,1.56,1.56,0,0,0,.78-1.43,1.52,1.52,0,0,0-.62-1.22,9.14,9.14,0,0,0-2.43-1.21,13,13,0,0,1-2.44-1.12,3.36,3.36,0,0,1-1.08-1.08,2.81,2.81,0,0,1-.35-1.45,2.75,2.75,0,0,1,1.22-2.38,5.71,5.71,0,0,1,3.36-.87,9.78,9.78,0,0,1,3.88.81l-.66,1.52a8.92,8.92,0,0,0-3.36-.77,3.84,3.84,0,0,0-2,.42,1.28,1.28,0,0,0-.67,1.14,1.42,1.42,0,0,0,.25.85,2.51,2.51,0,0,0,.82.66,18.35,18.35,0,0,0,2.15.91,8,8,0,0,1,3,1.61A2.82,2.82,0,0,1,248.38,436.57Z"/><path class="c" d="M249.46,427.62h2l2.69,7a25,25,0,0,1,1.1,3.47h.09c.1-.39.31-1,.62-2s1.32-3.77,3-8.53h2l-5.29,14a6.93,6.93,0,0,1-1.83,2.95,3.91,3.91,0,0,1-2.58.87,7.27,7.27,0,0,1-1.68-.19v-1.49a6.47,6.47,0,0,0,1.38.13,2.85,2.85,0,0,0,2.74-2.15l.68-1.76Z"/><path class="c" d="M270.94,436.57a3.07,3.07,0,0,1-1.28,2.65,6,6,0,0,1-3.59.93,7.93,7.93,0,0,1-3.82-.77v-1.73a9,9,0,0,0,1.91.7,7.55,7.55,0,0,0,2,.26,4.43,4.43,0,0,0,2.24-.46,1.57,1.57,0,0,0,.79-1.43,1.53,1.53,0,0,0-.63-1.22,9.14,9.14,0,0,0-2.43-1.21,13.29,13.29,0,0,1-2.44-1.12,3.47,3.47,0,0,1-1.08-1.08,2.91,2.91,0,0,1-.35-1.45,2.77,2.77,0,0,1,1.22-2.38,5.73,5.73,0,0,1,3.36-.87,9.87,9.87,0,0,1,3.89.81l-.67,1.52a8.88,8.88,0,0,0-3.35-.77,3.82,3.82,0,0,0-2,.42,1.29,1.29,0,0,0-.68,1.14,1.43,1.43,0,0,0,.26.85,2.36,2.36,0,0,0,.81.66,18.35,18.35,0,0,0,2.15.91,7.91,7.91,0,0,1,3,1.61A2.78,2.78,0,0,1,270.94,436.57Z"/><path class="c" d="M278,438.61a6,6,0,0,0,1-.07c.3-.05.55-.1.73-.15v1.42a3.25,3.25,0,0,1-.9.24,6,6,0,0,1-1.06.1q-3.57,0-3.57-3.76v-7.32h-1.76v-.9l1.76-.78.79-2.63H276v2.86h3.57v1.45H276v7.24a2.52,2.52,0,0,0,.52,1.71A1.88,1.88,0,0,0,278,438.61Z"/><path class="c" d="M287.29,440.15a5.64,5.64,0,0,1-4.3-1.66,6.46,6.46,0,0,1-1.58-4.62,7.14,7.14,0,0,1,1.47-4.73,4.88,4.88,0,0,1,3.93-1.75,4.64,4.64,0,0,1,3.66,1.52,5.85,5.85,0,0,1,1.35,4v1.18h-8.48a4.92,4.92,0,0,0,1.1,3.29,3.78,3.78,0,0,0,2.92,1.12,9.77,9.77,0,0,0,3.93-.83v1.66a9.23,9.23,0,0,1-1.87.61A9.94,9.94,0,0,1,287.29,440.15Zm-.5-11.2a3,3,0,0,0-2.36,1,4.39,4.39,0,0,0-1,2.67h6.43a4.14,4.14,0,0,0-.78-2.7A2.81,2.81,0,0,0,286.79,429Z"/><path class="c" d="M300.2,440.15a5.65,5.65,0,0,1-4.31-1.66,6.46,6.46,0,0,1-1.58-4.62,7.14,7.14,0,0,1,1.47-4.73,4.9,4.9,0,0,1,3.94-1.75,4.66,4.66,0,0,1,3.66,1.52,5.85,5.85,0,0,1,1.35,4v1.18h-8.48a4.86,4.86,0,0,0,1.09,3.29,3.78,3.78,0,0,0,2.93,1.12,9.84,9.84,0,0,0,3.93-.83v1.66a9.23,9.23,0,0,1-1.87.61A10.07,10.07,0,0,1,300.2,440.15Zm-.51-11.2a3.07,3.07,0,0,0-2.36,1,4.45,4.45,0,0,0-1,2.67h6.44a4.14,4.14,0,0,0-.79-2.7A2.78,2.78,0,0,0,299.69,429Z"/><path class="c" d="M323.59,439.93v-8a3.33,3.33,0,0,0-.63-2.21A2.43,2.43,0,0,0,321,429a3.14,3.14,0,0,0-2.57,1,4.69,4.69,0,0,0-.83,3.07v6.88h-1.87v-8a3.33,3.33,0,0,0-.63-2.21,2.42,2.42,0,0,0-2-.73,3.06,3.06,0,0,0-2.57,1,5.69,5.69,0,0,0-.81,3.44v6.46H307.9V427.62h1.52l.3,1.68h.09a3.66,3.66,0,0,1,1.49-1.4,4.52,4.52,0,0,1,2.15-.51c1.93,0,3.18.7,3.78,2.09h.09a3.91,3.91,0,0,1,1.59-1.53,5,5,0,0,1,2.38-.56,4.19,4.19,0,0,1,3.13,1.07,4.83,4.83,0,0,1,1,3.44v8Z"/><path class="c" d="M69.76,472.15a5.66,5.66,0,0,1-4.31-1.66,6.45,6.45,0,0,1-1.57-4.62,7.13,7.13,0,0,1,1.46-4.73,4.9,4.9,0,0,1,3.94-1.75,4.66,4.66,0,0,1,3.66,1.52,5.85,5.85,0,0,1,1.35,4v1.18H65.81a4.86,4.86,0,0,0,1.09,3.29,3.78,3.78,0,0,0,2.93,1.12,9.84,9.84,0,0,0,3.93-.83v1.66a9.23,9.23,0,0,1-1.87.61A10.07,10.07,0,0,1,69.76,472.15ZM69.25,461a3.07,3.07,0,0,0-2.36,1,4.45,4.45,0,0,0-1,2.67h6.44a4.14,4.14,0,0,0-.79-2.7A2.78,2.78,0,0,0,69.25,461Z"/><path class="c" d="M85.89,471.93v-8a3.18,3.18,0,0,0-.69-2.24,2.75,2.75,0,0,0-2.14-.74,3.52,3.52,0,0,0-2.83,1,5.28,5.28,0,0,0-.9,3.45v6.46H77.46V459.62H79l.3,1.68h.09A4,4,0,0,1,81,459.89a5.28,5.28,0,0,1,2.3-.5,4.71,4.71,0,0,1,3.35,1.07,4.58,4.58,0,0,1,1.12,3.44v8Z"/><path class="c" d="M100.36,471.93l-4.78-12.56h3.58l2.43,7.15a12.32,12.32,0,0,1,.5,2.58h.07a11.42,11.42,0,0,1,.51-2.58l2.41-7.15h3.58l-4.78,12.56Z"/><path class="c" d="M116.14,472.15a6.51,6.51,0,0,1-4.74-1.67,6.34,6.34,0,0,1-1.7-4.74,7,7,0,0,1,1.57-4.88,5.64,5.64,0,0,1,4.37-1.73,5.53,5.53,0,0,1,4.14,1.52,5.73,5.73,0,0,1,1.48,4.19v1.66h-8.09a3.27,3.27,0,0,0,.86,2.28,3,3,0,0,0,2.27.82,9.75,9.75,0,0,0,2.14-.23,10.67,10.67,0,0,0,2.12-.76v2.65a7.8,7.8,0,0,1-1.92.67A12,12,0,0,1,116.14,472.15Zm-.48-10.58a2.17,2.17,0,0,0-1.71.69,3.22,3.22,0,0,0-.71,2h4.81a2.83,2.83,0,0,0-.66-2A2.24,2.24,0,0,0,115.66,461.57Z"/><path class="c" d="M131.06,459.13a5.2,5.2,0,0,1,1.15.11l-.26,3.21a4.27,4.27,0,0,0-3.56.73,3.05,3.05,0,0,0-.92,2.36v6.39h-3.42V459.37h2.59l.51,2.11h.17a4.75,4.75,0,0,1,1.57-1.7A3.94,3.94,0,0,1,131.06,459.13Z"/><path class="c" d="M143.23,471.93h-9.92v-2l5.82-7.91h-5.47v-2.62H143v2.22l-5.66,7.72h5.86Z"/><path class="c" d="M156,471.93l-1-4.39L153.76,462h-.07l-2.3,9.94h-3.68l-3.57-12.56h3.41l1.45,5.56c.23,1,.47,2.37.71,4.12h.07a23.52,23.52,0,0,1,.39-2.71l.18-.95,1.55-6h3.77l1.47,6c0,.16.08.41.15.73s.12.66.18,1,.11.72.16,1.06.08.63.09.84h.06q.1-.81.36-2.22c.18-.94.3-1.57.37-1.9l1.51-5.56h3.36l-3.62,12.56Z"/><path class="c" d="M173.37,471.93l-.66-1.71h-.09a5,5,0,0,1-1.78,1.51,5.79,5.79,0,0,1-2.39.42,3.84,3.84,0,0,1-2.84-1,4,4,0,0,1-1-2.95,3.28,3.28,0,0,1,1.4-2.94,7.93,7.93,0,0,1,4.21-1.05l2.18-.07v-.55a1.71,1.71,0,0,0-2-1.91,8.85,8.85,0,0,0-3.54.91l-1.13-2.31a10.12,10.12,0,0,1,4.8-1.14,6,6,0,0,1,3.88,1.1,4.07,4.07,0,0,1,1.34,3.35v8.37Zm-1-5.82-1.32,0a4.26,4.26,0,0,0-2.23.54,1.71,1.71,0,0,0-.73,1.51c0,1,.56,1.45,1.67,1.45a2.63,2.63,0,0,0,1.9-.69,2.43,2.43,0,0,0,.71-1.82Z"/><path class="c" d="M182.58,465.1l1.5-1.91,3.51-3.82h3.86l-5,5.45,5.29,7.11h-4l-3.61-5.09L182.72,468v3.91h-3.43V454.45h3.43v7.8l-.18,2.85Z"/><path class="c" d="M196.84,465.1l1.5-1.91,3.51-3.82h3.87l-5,5.45,5.29,7.11h-4l-3.62-5.09L197,468v3.91h-3.43V454.45H197v7.8l-.18,2.85Z"/><path class="c" d="M213.5,472.15a6.51,6.51,0,0,1-4.74-1.67,6.34,6.34,0,0,1-1.71-4.74,7,7,0,0,1,1.58-4.88,5.62,5.62,0,0,1,4.36-1.73,5.54,5.54,0,0,1,4.15,1.52,5.73,5.73,0,0,1,1.48,4.19v1.66h-8.1a3.32,3.32,0,0,0,.87,2.28,3,3,0,0,0,2.27.82,9.82,9.82,0,0,0,2.14-.23,10.6,10.6,0,0,0,2.11-.76v2.65a7.8,7.8,0,0,1-1.92.67A11.79,11.79,0,0,1,213.5,472.15ZM213,461.57a2.17,2.17,0,0,0-1.71.69,3.22,3.22,0,0,0-.71,2h4.81a2.92,2.92,0,0,0-.66-2A2.26,2.26,0,0,0,213,461.57Z"/><path class="c" d="M233,471.93h-3.43v-7.34a3.57,3.57,0,0,0-.48-2,1.78,1.78,0,0,0-1.54-.67,2.31,2.31,0,0,0-2.08.95,6,6,0,0,0-.64,3.19v5.91h-3.42V459.37H224l.46,1.61h.19a3.6,3.6,0,0,1,1.58-1.38,5.38,5.38,0,0,1,2.29-.47,4.39,4.39,0,0,1,3.32,1.19,4.74,4.74,0,0,1,1.14,3.42Z"/><path class="c" d="M254.09,471.93h-3.43v-7.34c0-1.81-.67-2.71-2-2.71a2.3,2.3,0,0,0-2.08,1,6,6,0,0,0-.64,3.17v5.91H242.5V454.45h3.42V458c0,.28,0,.93-.08,1.95l-.08,1h.18a4,4,0,0,1,3.64-1.85,4.45,4.45,0,0,1,3.36,1.19,4.78,4.78,0,0,1,1.15,3.42Z"/><path class="c" d="M263.29,472.15a6.47,6.47,0,0,1-4.73-1.67,6.34,6.34,0,0,1-1.71-4.74,7,7,0,0,1,1.58-4.88,5.61,5.61,0,0,1,4.36-1.73,5.52,5.52,0,0,1,4.14,1.52,5.74,5.74,0,0,1,1.49,4.19v1.66h-8.1a3.32,3.32,0,0,0,.86,2.28,3,3,0,0,0,2.27.82,9.91,9.91,0,0,0,2.15-.23,10.82,10.82,0,0,0,2.11-.76v2.65a7.8,7.8,0,0,1-1.92.67A11.83,11.83,0,0,1,263.29,472.15Zm-.48-10.58a2.2,2.2,0,0,0-1.71.69,3.22,3.22,0,0,0-.7,2h4.8a2.83,2.83,0,0,0-.66-2A2.24,2.24,0,0,0,262.81,461.57Z"/><path class="c" d="M276.49,469.42a7.5,7.5,0,0,0,2.16-.39v2.55a7.75,7.75,0,0,1-3.15.57,3.84,3.84,0,0,1-3-1,4.48,4.48,0,0,1-.94-3.11v-6.06h-1.64v-1.45l1.89-1.14,1-2.65H275v2.67h3.51v2.57H275V468a1.3,1.3,0,0,0,.41,1.07A1.56,1.56,0,0,0,276.49,469.42Z"/><path class="c" d="M75.79,497.62a6.74,6.74,0,0,1-1.62,4.8,5.86,5.86,0,0,1-4.5,1.73,6.26,6.26,0,0,1-3.19-.79,5.26,5.26,0,0,1-2.12-2.28,7.54,7.54,0,0,1-.74-3.46,6.71,6.71,0,0,1,1.6-4.78,5.9,5.9,0,0,1,4.52-1.71,6.39,6.39,0,0,1,3.19.79,5.21,5.21,0,0,1,2.12,2.26A7.61,7.61,0,0,1,75.79,497.62Zm-8.68,0a5.23,5.23,0,0,0,.61,2.82,2.19,2.19,0,0,0,2,1,2.16,2.16,0,0,0,2-.95,5.34,5.34,0,0,0,.6-2.83,5.2,5.2,0,0,0-.61-2.79,2.58,2.58,0,0,0-4,0A5.15,5.15,0,0,0,67.11,497.62Z"/><path class="c" d="M81.61,503.93l-4.79-12.56h3.59l2.42,7.15a13.05,13.05,0,0,1,.51,2.58h.07a10.82,10.82,0,0,1,.5-2.58l2.42-7.15h3.58l-4.79,12.56Z"/><path class="c" d="M97.39,504.15a6.51,6.51,0,0,1-4.74-1.67,6.34,6.34,0,0,1-1.71-4.74,7,7,0,0,1,1.58-4.88,5.61,5.61,0,0,1,4.36-1.73,5.54,5.54,0,0,1,4.15,1.52,5.77,5.77,0,0,1,1.48,4.19v1.66h-8.1a3.32,3.32,0,0,0,.87,2.28,3,3,0,0,0,2.26.82,9.84,9.84,0,0,0,2.15-.23,10.6,10.6,0,0,0,2.11-.76v2.65a7.8,7.8,0,0,1-1.92.67A11.79,11.79,0,0,1,97.39,504.15Zm-.49-10.58a2.16,2.16,0,0,0-1.7.69,3.22,3.22,0,0,0-.71,2H99.3a2.88,2.88,0,0,0-.67-2A2.23,2.23,0,0,0,96.9,493.57Z"/><path class="c" d="M112.3,491.13a5.3,5.3,0,0,1,1.16.11l-.26,3.21a4.29,4.29,0,0,0-3.57.73,3,3,0,0,0-.91,2.36v6.39h-3.43V491.37h2.6l.5,2.11h.17a4.78,4.78,0,0,1,1.58-1.7A3.88,3.88,0,0,1,112.3,491.13Z"/><path class="c" d="M127.33,503.93H123.9v-7.34c0-1.81-.67-2.71-2-2.71a2.3,2.3,0,0,0-2.08,1,6,6,0,0,0-.64,3.17v5.91h-3.42V486.45h3.42V490c0,.28,0,.93-.08,1.95l-.07,1h.18a4,4,0,0,1,3.63-1.85,4.45,4.45,0,0,1,3.36,1.19,4.73,4.73,0,0,1,1.15,3.42Z"/><path class="c" d="M136.54,504.15a6.51,6.51,0,0,1-4.74-1.67,6.34,6.34,0,0,1-1.71-4.74,7,7,0,0,1,1.58-4.88,5.61,5.61,0,0,1,4.36-1.73,5.54,5.54,0,0,1,4.15,1.52,5.77,5.77,0,0,1,1.48,4.19v1.66h-8.1a3.32,3.32,0,0,0,.87,2.28,3,3,0,0,0,2.26.82,9.84,9.84,0,0,0,2.15-.23,10.6,10.6,0,0,0,2.11-.76v2.65a7.8,7.8,0,0,1-1.92.67A11.79,11.79,0,0,1,136.54,504.15Zm-.49-10.58a2.16,2.16,0,0,0-1.7.69,3.22,3.22,0,0,0-.71,2h4.81a2.88,2.88,0,0,0-.67-2A2.23,2.23,0,0,0,136.05,493.57Z"/><path class="c" d="M144.3,488.12c0-1.11.62-1.67,1.86-1.67s1.87.56,1.87,1.67a1.65,1.65,0,0,1-.47,1.25,2,2,0,0,1-1.4.44C144.92,489.81,144.3,489.25,144.3,488.12Zm3.57,15.81h-3.43V491.37h3.43Z"/><path class="c" d="M155.44,504.15a4.07,4.07,0,0,1-3.48-1.72,9.65,9.65,0,0,1,0-9.57,4.19,4.19,0,0,1,3.55-1.73,4.09,4.09,0,0,1,3.61,1.85h.12a13.37,13.37,0,0,1-.26-2.51v-4h3.43v17.48h-2.62l-.67-1.63H159A3.93,3.93,0,0,1,155.44,504.15Zm1.2-2.73a2.32,2.32,0,0,0,1.93-.76,4.48,4.48,0,0,0,.66-2.6v-.37a5.14,5.14,0,0,0-.62-2.9,2.33,2.33,0,0,0-2-.87,2,2,0,0,0-1.78,1,5.21,5.21,0,0,0-.63,2.82,4.92,4.92,0,0,0,.64,2.79A2.11,2.11,0,0,0,156.64,501.42Z"/><path class="c" d="M174.78,500.2a3.44,3.44,0,0,1-1.35,2.94,6.64,6.64,0,0,1-4,1,12.15,12.15,0,0,1-2.34-.19,8.56,8.56,0,0,1-1.8-.54v-2.83a11.5,11.5,0,0,0,2.15.75,8.81,8.81,0,0,0,2.1.31c1.24,0,1.87-.36,1.87-1.08a.93.93,0,0,0-.25-.66,3.61,3.61,0,0,0-.85-.57c-.41-.22-1-.46-1.62-.75a10,10,0,0,1-2.13-1.12,3.26,3.26,0,0,1-1-1.19,4,4,0,0,1-.31-1.64,3,3,0,0,1,1.3-2.59,6.33,6.33,0,0,1,3.68-.92,10.42,10.42,0,0,1,4.41,1l-1,2.47c-.63-.27-1.22-.49-1.76-.66a5.66,5.66,0,0,0-1.68-.26c-1,0-1.51.28-1.51.82a1,1,0,0,0,.48.8,13.78,13.78,0,0,0,2.14,1,10.46,10.46,0,0,1,2.16,1.11,3.32,3.32,0,0,1,1,1.19A3.64,3.64,0,0,1,174.78,500.2Z"/><path class="c" d="M185.42,503.93l-.66-1.71h-.09a5,5,0,0,1-1.78,1.51,5.79,5.79,0,0,1-2.39.42,3.84,3.84,0,0,1-2.84-1,4,4,0,0,1-1-2.95,3.28,3.28,0,0,1,1.4-2.94,7.93,7.93,0,0,1,4.21-1.05l2.18-.07v-.55a1.71,1.71,0,0,0-1.95-1.91,8.85,8.85,0,0,0-3.54.91l-1.13-2.31a10.12,10.12,0,0,1,4.8-1.14,6,6,0,0,1,3.88,1.1,4.07,4.07,0,0,1,1.34,3.35v8.37Zm-1-5.82-1.32,0a4.26,4.26,0,0,0-2.23.54,1.71,1.71,0,0,0-.73,1.51c0,1,.56,1.45,1.67,1.45a2.63,2.63,0,0,0,1.9-.69,2.43,2.43,0,0,0,.71-1.82Z"/><path class="c" d="M198.24,504.15a4.12,4.12,0,0,1-3.47-1.61h-.18c.12,1,.18,1.66.18,1.82v5.09h-3.43V491.37h2.79l.48,1.63h.16a4,4,0,0,1,3.56-1.87,4.09,4.09,0,0,1,3.48,1.72,8,8,0,0,1,1.26,4.77,9.5,9.5,0,0,1-.59,3.5,5,5,0,0,1-1.68,2.26A4.35,4.35,0,0,1,198.24,504.15Zm-1-10.27a2.15,2.15,0,0,0-1.86.78,4.41,4.41,0,0,0-.6,2.57v.37a5.29,5.29,0,0,0,.6,2.9,2.15,2.15,0,0,0,1.9.88c1.54,0,2.3-1.27,2.3-3.8a5.54,5.54,0,0,0-.56-2.78A1.94,1.94,0,0,0,197.23,493.88Z"/><path class="c" d="M212.79,504.15a4.15,4.15,0,0,1-3.47-1.61h-.18c.12,1,.18,1.66.18,1.82v5.09H205.9V491.37h2.78l.48,1.63h.16a4,4,0,0,1,3.56-1.87,4.09,4.09,0,0,1,3.48,1.72,8,8,0,0,1,1.26,4.77,9.5,9.5,0,0,1-.59,3.5,4.87,4.87,0,0,1-1.68,2.26A4.33,4.33,0,0,1,212.79,504.15Zm-1-10.27a2.13,2.13,0,0,0-1.85.78,4.48,4.48,0,0,0-.61,2.57v.37a5.29,5.29,0,0,0,.6,2.9,2.17,2.17,0,0,0,1.91.88q2.29,0,2.3-3.8a5.42,5.42,0,0,0-.57-2.78A1.93,1.93,0,0,0,211.78,493.88Z"/><path class="c" d="M228.42,503.93l-.66-1.71h-.09a5,5,0,0,1-1.78,1.51,5.74,5.74,0,0,1-2.38.42,3.85,3.85,0,0,1-2.85-1,4,4,0,0,1-1-2.95,3.3,3.3,0,0,1,1.4-2.94,8,8,0,0,1,4.21-1.05l2.18-.07v-.55a1.71,1.71,0,0,0-1.95-1.91,8.89,8.89,0,0,0-3.54.91l-1.13-2.31a10.12,10.12,0,0,1,4.8-1.14,6,6,0,0,1,3.88,1.1,4.08,4.08,0,0,1,1.35,3.35v8.37Zm-1-5.82-1.32,0a4.19,4.19,0,0,0-2.22.54,1.7,1.7,0,0,0-.74,1.51c0,1,.56,1.45,1.67,1.45a2.63,2.63,0,0,0,1.9-.69,2.39,2.39,0,0,0,.71-1.82Z"/><path class="c" d="M241.35,491.13a5.37,5.37,0,0,1,1.16.11l-.26,3.21a3.73,3.73,0,0,0-1-.12,3.66,3.66,0,0,0-2.56.85,3,3,0,0,0-.91,2.36v6.39h-3.43V491.37h2.6l.5,2.11h.17a4.78,4.78,0,0,1,1.58-1.7A3.88,3.88,0,0,1,241.35,491.13Z"/><path class="c" d="M252.76,503.93l-.66-1.71H252a5,5,0,0,1-1.78,1.51,5.79,5.79,0,0,1-2.39.42,3.84,3.84,0,0,1-2.84-1,4,4,0,0,1-1-2.95,3.3,3.3,0,0,1,1.39-2.94,8,8,0,0,1,4.22-1.05l2.18-.07v-.55a1.71,1.71,0,0,0-1.95-1.91,8.81,8.81,0,0,0-3.54.91l-1.14-2.31a10.19,10.19,0,0,1,4.81-1.14,6,6,0,0,1,3.87,1.1,4.08,4.08,0,0,1,1.35,3.35v8.37Zm-1-5.82-1.33,0a4.25,4.25,0,0,0-2.22.54,1.69,1.69,0,0,0-.73,1.51c0,1,.56,1.45,1.66,1.45A2.63,2.63,0,0,0,251,501a2.43,2.43,0,0,0,.71-1.82Z"/><path class="c" d="M266.65,503.93l-.66-1.71h-.09a5,5,0,0,1-1.78,1.51,5.79,5.79,0,0,1-2.39.42,3.84,3.84,0,0,1-2.84-1,4,4,0,0,1-1-2.95,3.28,3.28,0,0,1,1.4-2.94,7.93,7.93,0,0,1,4.21-1.05l2.18-.07v-.55a1.71,1.71,0,0,0-1.95-1.91,8.89,8.89,0,0,0-3.54.91L259,492.25a10.12,10.12,0,0,1,4.8-1.14,6,6,0,0,1,3.88,1.1,4.07,4.07,0,0,1,1.34,3.35v8.37Zm-1-5.82-1.32,0a4.26,4.26,0,0,0-2.23.54,1.71,1.71,0,0,0-.73,1.51c0,1,.56,1.45,1.67,1.45a2.63,2.63,0,0,0,1.9-.69,2.39,2.39,0,0,0,.71-1.82Z"/><path class="c" d="M277.86,501.42A7.5,7.5,0,0,0,280,501v2.55a7.75,7.75,0,0,1-3.15.57,3.86,3.86,0,0,1-3-1,4.53,4.53,0,0,1-.94-3.11v-6.06H271.3v-1.45l1.89-1.14,1-2.65h2.19v2.67h3.51v2.57h-3.51V500a1.3,1.3,0,0,0,.41,1.07A1.56,1.56,0,0,0,277.86,501.42Z"/><path class="c" d="M282.47,502.74a1.64,1.64,0,0,1,.34-1.14,1.24,1.24,0,0,1,1-.39,1.32,1.32,0,0,1,1,.39,1.59,1.59,0,0,1,.36,1.14,1.56,1.56,0,0,1-.37,1.12,1.31,1.31,0,0,1-1,.39,1.36,1.36,0,0,1-1-.35A1.55,1.55,0,0,1,282.47,502.74Z"/><path class="c" d="M73.42,79.06H60.14L51.53,62.41,48,64.49V79.06H36.22V35.51H48V54.42a53.17,53.17,0,0,1,3.61-5.57l9.14-13.34H73.66L59.93,55Z"/><path class="c" d="M118.87,57.22q0,11-5.39,16.71T97.7,79.65Q87.46,79.65,82,73.9T76.52,57.16q0-10.86,5.43-16.6t15.8-5.74q10.41,0,15.76,5.69T118.87,57.22Zm-30,0q0,12.63,8.79,12.63,4.45,0,6.62-3.07t2.16-9.56q0-6.53-2.19-9.63a7.46,7.46,0,0,0-6.54-3.11Q88.92,44.48,88.91,57.22Z"/><path class="c" d="M167.48,57.22q0,11-5.39,16.71t-15.78,5.72q-10.26,0-15.72-5.75t-5.46-16.74q0-10.86,5.43-16.6t15.8-5.74q10.39,0,15.76,5.69T167.48,57.22Zm-30,0q0,12.63,8.79,12.63,4.45,0,6.62-3.07t2.16-9.56q0-6.53-2.19-9.63a7.46,7.46,0,0,0-6.54-3.11Q137.52,44.48,137.52,57.22Z"/><path class="c" d="M207,49.36q0,7.3-4.31,11.27t-12.22,4h-3.31V79.06H175.35V35.51h15.07q8.25,0,12.39,3.6T207,49.36ZM187.11,55h2.14a5.88,5.88,0,0,0,4.22-1.49A5.4,5.4,0,0,0,195,49.42c0-2.94-1.62-4.41-4.88-4.41h-3Z"/><path class="c" d="M247.22,53.56H266V77a51.57,51.57,0,0,1-16.83,2.62q-10.06,0-15.56-5.84t-5.5-16.65q0-10.54,6-16.41T251,34.88a37.05,37.05,0,0,1,7.76.78,33.48,33.48,0,0,1,6.36,2l-3.73,9.24a23,23,0,0,0-10.33-2.33,9.82,9.82,0,0,0-8,3.36q-2.82,3.34-2.81,9.57c0,4.07.84,7.17,2.54,9.31a8.86,8.86,0,0,0,7.35,3.2,21.41,21.41,0,0,0,4.82-.51V62.64h-7.77Z"/><path class="c" d="M300.74,79.06H274.89V35.51h25.85V45H286.65V51.8H299.7v9.44H286.65v8.22h14.09Z"/><path class="c" d="M334.22,79.06H308.37V35.51h25.85V45H320.13V51.8h13.05v9.44H320.13v8.22h14.09Z"/><path class="c" d="M383.3,79.06H367.88L352,48.38h-.27c.38,4.82.57,8.51.57,11V79.06H341.84V35.51h15.37l15.85,30.26h.18q-.42-6.58-.42-10.57V35.51H383.3Z"/></svg>