<svg xmlns="http://www.w3.org/2000/svg" viewBox="0 0 419.53 595.28"><defs><style>.a{fill:#fff;}.b{fill:#9d9d9c;}.c{fill:#ec681c;}.d{fill:#4d4d4d;}.e{fill:#1d1d1b;}.f{fill:none;stroke:#ec681c;stroke-miterlimit:10;stroke-width:6px;}</style></defs><title>pl-niekupujmonero</title><rect class="a" x="0.5" y="0.5" width="418.53" height="594.28"/><path class="b" d="M418.53,1V594.28H1V1H418.53m1-1H0V595.28H419.53V0Z"/><path class="c" d="M209.76,117.58a74.9,74.9,0,0,0-71,98.48h22.38v-63l48.64,48.65,48.65-48.65v63h22.38a74.9,74.9,0,0,0-71-98.48"/><path class="d" d="M177.35,191.69v39.62H145.81a74.85,74.85,0,0,0,127.9,0H242.18V191.69l-32.42,32.42Z"/><path class="c" d="M379.6,368.59V525.9H39.93V368.59H379.6m6-6H33.93V531.9H385.6V362.59Z"/><path class="e" d="M119.85,569.7l-2.06-6.6c-.13-.4-.37-1.32-.73-2.75H117c-.27,1.2-.51,2.12-.72,2.77l-2.12,6.58h-2l-3.06-11.24h1.78q1.1,4.23,1.66,6.45a27,27,0,0,1,.65,3h.08c.07-.39.2-.89.36-1.51s.32-1.11.44-1.47l2.06-6.45H118l2,6.45a22.45,22.45,0,0,1,.78,3h.08a8.91,8.91,0,0,1,.22-1.14q.18-.76,2.14-8.27H125l-3.11,11.24Z"/><path class="e" d="M136.19,569.7l-2.06-6.6c-.13-.4-.38-1.32-.73-2.75h-.08c-.28,1.2-.52,2.12-.72,2.77l-2.12,6.58h-2l-3.07-11.24h1.79l1.65,6.45a24.72,24.72,0,0,1,.65,3h.08c.08-.39.2-.89.37-1.51s.31-1.11.43-1.47l2.07-6.45h1.84l2,6.45a22.45,22.45,0,0,1,.78,3h.08a11.14,11.14,0,0,1,.22-1.14q.18-.76,2.14-8.27h1.76l-3.1,11.24Z"/><path class="e" d="M152.52,569.7l-2.06-6.6c-.13-.4-.37-1.32-.73-2.75h-.08c-.27,1.2-.51,2.12-.72,2.77l-2.12,6.58h-2l-3.06-11.24h1.78c.72,2.82,1.28,5,1.66,6.45a27,27,0,0,1,.65,3H146c.07-.39.2-.89.36-1.51s.32-1.11.44-1.47l2.06-6.45h1.85l2,6.45a20.76,20.76,0,0,1,.77,3h.09a8.91,8.91,0,0,1,.22-1.14q.18-.76,2.13-8.27h1.77l-3.11,11.24Z"/><path class="e" d="M159.43,568.61a1.5,1.5,0,0,1,.32-1,1.1,1.1,0,0,1,.89-.36,1.2,1.2,0,0,1,.93.36,1.77,1.77,0,0,1,0,2.06,1.23,1.23,0,0,1-.93.36,1.2,1.2,0,0,1-.86-.32A1.41,1.41,0,0,1,159.43,568.61Z"/><path class="e" d="M174.46,558.46v1.07l-2.08.25a3.56,3.56,0,0,1,.74,2.25,3.29,3.29,0,0,1-1.13,2.63,4.51,4.51,0,0,1-3.09,1,4.81,4.81,0,0,1-1-.08,1.69,1.69,0,0,0-1.08,1.45.72.72,0,0,0,.38.68,2.7,2.7,0,0,0,1.3.22h2a4.47,4.47,0,0,1,2.8.77,2.68,2.68,0,0,1,1,2.24,3.18,3.18,0,0,1-1.5,2.84,8,8,0,0,1-4.36,1,5.93,5.93,0,0,1-3.4-.82,2.65,2.65,0,0,1-1.2-2.32,2.59,2.59,0,0,1,.66-1.77,3.36,3.36,0,0,1,1.84-1,1.87,1.87,0,0,1-.72-.6,1.63,1.63,0,0,1-.29-1,1.79,1.79,0,0,1,.33-1.07,3.32,3.32,0,0,1,1-.89,3.09,3.09,0,0,1-1.42-1.22,4,4,0,0,1,.56-4.82,4.52,4.52,0,0,1,3.14-1,5.57,5.57,0,0,1,1.59.21Zm-9,13.12a1.54,1.54,0,0,0,.77,1.39,4.3,4.3,0,0,0,2.21.47,6.22,6.22,0,0,0,3.17-.64,2,2,0,0,0,1-1.74,1.4,1.4,0,0,0-.56-1.27,4.51,4.51,0,0,0-2.13-.35h-2a2.67,2.67,0,0,0-1.8.55A2,2,0,0,0,165.5,571.58Zm.93-9.52a2.29,2.29,0,0,0,.66,1.78,2.7,2.7,0,0,0,1.86.61,2.17,2.17,0,0,0,2.49-2.42,2.24,2.24,0,0,0-2.52-2.54,2.51,2.51,0,0,0-1.85.65A2.6,2.6,0,0,0,166.43,562.06Z"/><path class="e" d="M181.52,569.9a5.17,5.17,0,0,1-3.93-1.52,5.86,5.86,0,0,1-1.44-4.21,6.54,6.54,0,0,1,1.33-4.32,4.48,4.48,0,0,1,3.6-1.6,4.22,4.22,0,0,1,3.34,1.39,5.34,5.34,0,0,1,1.23,3.67v1.07h-7.74a4.45,4.45,0,0,0,1,3,3.46,3.46,0,0,0,2.67,1,9,9,0,0,0,3.59-.76v1.52a8.72,8.72,0,0,1-1.71.56A9.7,9.7,0,0,1,181.52,569.9Zm-.46-10.22a2.78,2.78,0,0,0-2.16.88,4.07,4.07,0,0,0-1,2.44h5.88a3.75,3.75,0,0,0-.72-2.47A2.52,2.52,0,0,0,181.06,559.68Z"/><path class="e" d="M192.18,568.5a6.4,6.4,0,0,0,.88-.07,6,6,0,0,0,.66-.14v1.3a3,3,0,0,1-.81.22,6,6,0,0,1-1,.09c-2.18,0-3.26-1.14-3.26-3.44v-6.68h-1.61V559l1.61-.71.71-2.4h1v2.61h3.26v1.32h-3.26v6.61a2.28,2.28,0,0,0,.48,1.56A1.68,1.68,0,0,0,192.18,568.5Z"/><path class="e" d="M210.29,569.7v-7.32a3.05,3.05,0,0,0-.57-2,2.23,2.23,0,0,0-1.79-.67,2.85,2.85,0,0,0-2.34.91,4.33,4.33,0,0,0-.76,2.81v6.28h-1.71v-7.32a3.05,3.05,0,0,0-.57-2,2.22,2.22,0,0,0-1.79-.67,2.79,2.79,0,0,0-2.35,1,5.21,5.21,0,0,0-.74,3.14v5.9H196V558.46h1.38l.28,1.54h.08a3.32,3.32,0,0,1,1.36-1.29,4.23,4.23,0,0,1,2-.46c1.76,0,2.91.64,3.45,1.91h.08a3.65,3.65,0,0,1,1.46-1.4,4.52,4.52,0,0,1,2.17-.51,3.8,3.8,0,0,1,2.85,1,4.34,4.34,0,0,1,1,3.13v7.34Z"/><path class="e" d="M225.2,564.07a6.21,6.21,0,0,1-1.38,4.29A4.89,4.89,0,0,1,220,569.9a5,5,0,0,1-2.67-.71,4.65,4.65,0,0,1-1.81-2,7.1,7.1,0,0,1-.63-3.09,6.15,6.15,0,0,1,1.37-4.28,4.84,4.84,0,0,1,3.81-1.54,4.77,4.77,0,0,1,3.75,1.57A6.16,6.16,0,0,1,225.2,564.07Zm-8.56,0a5.37,5.37,0,0,0,.86,3.28,3.43,3.43,0,0,0,5.07,0,5.28,5.28,0,0,0,.87-3.28,5.21,5.21,0,0,0-.87-3.26A3.05,3.05,0,0,0,220,559.7a3,3,0,0,0-2.52,1.09A5.31,5.31,0,0,0,216.64,564.07Z"/><path class="e" d="M235.88,569.7v-7.27a2.91,2.91,0,0,0-.63-2,2.52,2.52,0,0,0-2-.68,3.24,3.24,0,0,0-2.58.95,4.82,4.82,0,0,0-.82,3.15v5.9h-1.71V558.46h1.39l.28,1.54h.08a3.46,3.46,0,0,1,1.46-1.29,4.7,4.7,0,0,1,2.11-.46,4.27,4.27,0,0,1,3.05,1,4.14,4.14,0,0,1,1,3.13v7.34Z"/><path class="e" d="M245.82,569.9a5.17,5.17,0,0,1-3.93-1.52,5.86,5.86,0,0,1-1.44-4.21,6.49,6.49,0,0,1,1.34-4.32,4.46,4.46,0,0,1,3.59-1.6,4.22,4.22,0,0,1,3.34,1.39,5.34,5.34,0,0,1,1.23,3.67v1.07h-7.74a4.5,4.5,0,0,0,1,3,3.46,3.46,0,0,0,2.67,1,9,9,0,0,0,3.59-.76v1.52a8.72,8.72,0,0,1-1.71.56A9.7,9.7,0,0,1,245.82,569.9Zm-.46-10.22a2.78,2.78,0,0,0-2.16.88,4.14,4.14,0,0,0-.95,2.44h5.88a3.75,3.75,0,0,0-.72-2.47A2.52,2.52,0,0,0,245.36,559.68Z"/><path class="e" d="M258,558.25a6.19,6.19,0,0,1,1.35.13l-.24,1.57a6,6,0,0,0-1.23-.15,3,3,0,0,0-2.33,1.11,4,4,0,0,0-1,2.76v6h-1.7V558.46h1.4l.2,2.08h.08a4.88,4.88,0,0,1,1.5-1.69A3.39,3.39,0,0,1,258,558.25Z"/><path class="e" d="M271.13,564.07a6.17,6.17,0,0,1-1.39,4.29,4.85,4.85,0,0,1-3.82,1.54,5.08,5.08,0,0,1-2.68-.71,4.63,4.63,0,0,1-1.8-2,7,7,0,0,1-.64-3.09,6.15,6.15,0,0,1,1.38-4.28,5.37,5.37,0,0,1,7.56,0A6.16,6.16,0,0,1,271.13,564.07Zm-8.56,0a5.3,5.3,0,0,0,.86,3.28,3,3,0,0,0,2.53,1.12,3,3,0,0,0,2.54-1.12,5.28,5.28,0,0,0,.86-3.28,5.22,5.22,0,0,0-.86-3.26,3.05,3.05,0,0,0-2.56-1.11,3,3,0,0,0-2.52,1.09A5.31,5.31,0,0,0,262.57,564.07Z"/><path class="e" d="M273.87,568.61a1.5,1.5,0,0,1,.31-1,1.13,1.13,0,0,1,.9-.36,1.19,1.19,0,0,1,.92.36,1.42,1.42,0,0,1,.34,1,1.46,1.46,0,0,1-.34,1,1.21,1.21,0,0,1-.92.36,1.24,1.24,0,0,1-.87-.32A1.41,1.41,0,0,1,273.87,568.61Z"/><path class="e" d="M289.4,564.07a6.21,6.21,0,0,1-1.38,4.29,4.89,4.89,0,0,1-3.83,1.54,5,5,0,0,1-2.67-.71,4.65,4.65,0,0,1-1.81-2,7.1,7.1,0,0,1-.63-3.09,6.15,6.15,0,0,1,1.37-4.28,4.84,4.84,0,0,1,3.81-1.54,4.77,4.77,0,0,1,3.75,1.57A6.16,6.16,0,0,1,289.4,564.07Zm-8.56,0a5.37,5.37,0,0,0,.86,3.28,3.43,3.43,0,0,0,5.07,0,5.28,5.28,0,0,0,.87-3.28,5.21,5.21,0,0,0-.87-3.26,3.05,3.05,0,0,0-2.56-1.11,3,3,0,0,0-2.52,1.09A5.31,5.31,0,0,0,280.84,564.07Z"/><path class="e" d="M297.51,558.25a6,6,0,0,1,1.34.13l-.23,1.57a6,6,0,0,0-1.23-.15,3,3,0,0,0-2.33,1.11,4,4,0,0,0-1,2.76v6h-1.71V558.46h1.41l.19,2.08h.09a4.88,4.88,0,0,1,1.5-1.69A3.39,3.39,0,0,1,297.51,558.25Z"/><path class="e" d="M310.15,558.46v1.07l-2.08.25a3.56,3.56,0,0,1,.74,2.25,3.29,3.29,0,0,1-1.13,2.63,4.51,4.51,0,0,1-3.09,1,4.81,4.81,0,0,1-.95-.08,1.69,1.69,0,0,0-1.08,1.45.72.72,0,0,0,.38.68,2.7,2.7,0,0,0,1.3.22h2a4.47,4.47,0,0,1,2.8.77,2.68,2.68,0,0,1,1,2.24,3.18,3.18,0,0,1-1.5,2.84,8,8,0,0,1-4.36,1,5.93,5.93,0,0,1-3.4-.82,2.65,2.65,0,0,1-1.2-2.32,2.59,2.59,0,0,1,.66-1.77,3.36,3.36,0,0,1,1.84-1,1.87,1.87,0,0,1-.72-.6,1.63,1.63,0,0,1-.29-1,1.79,1.79,0,0,1,.33-1.07,3.32,3.32,0,0,1,1-.89,3.09,3.09,0,0,1-1.42-1.22,4,4,0,0,1,.56-4.82,4.52,4.52,0,0,1,3.14-1,5.57,5.57,0,0,1,1.59.21Zm-9,13.12A1.54,1.54,0,0,0,302,573a4.3,4.3,0,0,0,2.21.47,6.24,6.24,0,0,0,3.17-.64,2,2,0,0,0,1-1.74,1.4,1.4,0,0,0-.56-1.27,4.51,4.51,0,0,0-2.13-.35h-2a2.67,2.67,0,0,0-1.8.55A2,2,0,0,0,301.19,571.58Zm.93-9.52a2.29,2.29,0,0,0,.66,1.78,2.69,2.69,0,0,0,1.86.61,2.17,2.17,0,0,0,2.49-2.42,2.24,2.24,0,0,0-2.52-2.54,2.51,2.51,0,0,0-1.85.65A2.6,2.6,0,0,0,302.12,562.06Z"/><line class="f" x1="322.41" y1="563.98" x2="384.47" y2="563.98"/><line class="f" x1="33.93" y1="563.98" x2="95.99" y2="563.98"/><path class="d" d="M348.74,326.8A14.45,14.45,0,0,1,338,331.37a15.28,15.28,0,0,1-9.92-3.53,15,15,0,0,1-5.56-12.27,15.68,15.68,0,0,1,4.42-11.47,15.27,15.27,0,0,1,21.8.11,16.49,16.49,0,0,1,0,22.59M355,298.05a23.22,23.22,0,0,0-17.06-7.18,24.46,24.46,0,0,0-21.13,12.21,25,25,0,0,0,3.72,29.62,24.4,24.4,0,0,0,34.57.2,23.63,23.63,0,0,0,7-17.33A24,24,0,0,0,355,298.05M296.52,308.9c-1.13.79-1.66,1.17-4.64,1.17H280.13V300h11.38a7.82,7.82,0,0,1,3.62.52,4.57,4.57,0,0,1,2.23,1.7,4.68,4.68,0,0,1,.84,2.79,4.36,4.36,0,0,1-1.68,3.86m1.41,9.25a14.24,14.24,0,0,0,7-4.92,13.6,13.6,0,0,0,2.31-8.1,14.67,14.67,0,0,0-2.1-8,11.86,11.86,0,0,0-5.55-4.82q-3.45-1.45-11.6-1.46h-17.2V340h9.34V319.18h8.15L299.34,340h10.21l-11.62-21.82Zm-69-27.28h31.83V300H238.21v10h22.54v9H238.21v11.73h22.54V340H228.92Zm-49.31,0h8.94l21.06,32.3v-32.3H219V340h-9l-21-32.2V340h-9.34Zm-20.7,35.93a14.47,14.47,0,0,1-10.78,4.57,15.28,15.28,0,0,1-9.92-3.53,15,15,0,0,1-5.56-12.27,15.69,15.69,0,0,1,4.43-11.47,15.27,15.27,0,0,1,21.8.11,16.49,16.49,0,0,1,0,22.59m6.22-28.75a23.23,23.23,0,0,0-17.06-7.18,24.46,24.46,0,0,0-21.14,12.21,25,25,0,0,0,3.72,29.62,24.4,24.4,0,0,0,34.57.2,23.64,23.64,0,0,0,7.05-17.33,24,24,0,0,0-7.14-17.52m-94.21-7.18h9.15l11.34,34.24,11.52-34.24h9L120.21,340h-9l-5.27-31L95.48,340H87.24l-10.3-31-5.38,31H62.45Z"/><path class="e" d="M79.85,410.21H75.38l-4.86-7.82-1.66,1.19v6.63H64.92V391.65h3.94v8.49L70.4,398l5-6.31H79.8l-6.48,8.21Z"/><path class="e" d="M89.8,395.75a6,6,0,0,1,1.31.11l-.29,3.63a4.65,4.65,0,0,0-1.14-.13,4.08,4.08,0,0,0-2.89,1,3.43,3.43,0,0,0-1,2.66v7.23H81.88V396h2.93l.57,2.39h.2a5.22,5.22,0,0,1,1.78-1.92A4.36,4.36,0,0,1,89.8,395.75Z"/><path class="e" d="M91.66,396H95.9l2.68,8a11.24,11.24,0,0,1,.46,2.46h.08a10.76,10.76,0,0,1,.55-2.46l2.62-8h4.16l-6,16a7,7,0,0,1-2.35,3.33,6,6,0,0,1-3.58,1.1,9.28,9.28,0,0,1-2-.21v-3.08a6.7,6.7,0,0,0,1.53.17,2.74,2.74,0,0,0,1.79-.63,4,4,0,0,0,1.2-1.9l.23-.7Z"/><path class="e" d="M116.27,410.46a4.71,4.71,0,0,1-3.92-1.82h-.2c.13,1.19.2,1.87.2,2.06v5.75h-3.87V396h3.15l.54,1.84h.18a4.49,4.49,0,0,1,4-2.1,4.6,4.6,0,0,1,3.94,1.94,9,9,0,0,1,1.42,5.39,10.5,10.5,0,0,1-.67,3.95,5.46,5.46,0,0,1-1.89,2.55A4.84,4.84,0,0,1,116.27,410.46Zm-1.14-11.62a2.43,2.43,0,0,0-2.09.89,5.06,5.06,0,0,0-.69,2.91v.42a6,6,0,0,0,.68,3.27,2.42,2.42,0,0,0,2.15,1c1.74,0,2.6-1.43,2.6-4.29a6.11,6.11,0,0,0-.64-3.14A2.19,2.19,0,0,0,115.13,398.84Z"/><path class="e" d="M130.91,407.38a8.31,8.31,0,0,0,2.44-.45v2.88a8.74,8.74,0,0,1-3.56.65,4.36,4.36,0,0,1-3.38-1.17,5.12,5.12,0,0,1-1.06-3.53v-6.84H123.5v-1.64l2.13-1.29,1.12-3h2.47v3h4v2.91h-4v6.84a1.51,1.51,0,0,0,.47,1.22A1.81,1.81,0,0,0,130.91,407.38Z"/><path class="e" d="M149.12,403.08a7.62,7.62,0,0,1-1.83,5.42,6.62,6.62,0,0,1-5.09,2,7.18,7.18,0,0,1-3.61-.89,6,6,0,0,1-2.4-2.58,8.6,8.6,0,0,1-.84-3.91,7.55,7.55,0,0,1,1.82-5.4,6.65,6.65,0,0,1,5.1-1.93,7.18,7.18,0,0,1,3.61.88,6,6,0,0,1,2.4,2.56A8.48,8.48,0,0,1,149.12,403.08Zm-9.82,0a6,6,0,0,0,.69,3.19,2.5,2.5,0,0,0,2.26,1.08,2.46,2.46,0,0,0,2.23-1.07,6.1,6.1,0,0,0,.67-3.2,5.84,5.84,0,0,0-.68-3.16,2.49,2.49,0,0,0-2.25-1.05,2.46,2.46,0,0,0-2.23,1.05A5.79,5.79,0,0,0,139.3,403.08Z"/><path class="e" d="M164,410.21l-1.09-5L161.42,399h-.09l-2.59,11.24h-4.17l-4-14.2h3.86L156,402.3c.27,1.12.53,2.68.8,4.66h.08a25.17,25.17,0,0,1,.44-3.06l.21-1.08,1.75-6.81h4.27l1.66,6.81c0,.18.09.46.16.82s.14.75.21,1.16.13.82.18,1.21a8.82,8.82,0,0,1,.1.95H166c.08-.61.21-1.45.41-2.51s.33-1.78.42-2.15l1.7-6.29h3.79l-4.08,14.2Z"/><path class="e" d="M183.58,410.21l-.75-1.93h-.1a5.6,5.6,0,0,1-2,1.7,6.46,6.46,0,0,1-2.7.48,4.38,4.38,0,0,1-3.22-1.17,4.5,4.5,0,0,1-1.17-3.32,3.77,3.77,0,0,1,1.58-3.34,9.14,9.14,0,0,1,4.77-1.18l2.46-.08v-.62a1.93,1.93,0,0,0-2.21-2.16,10,10,0,0,0-4,1L175,397a11.6,11.6,0,0,1,5.43-1.28,6.8,6.8,0,0,1,4.38,1.24,4.61,4.61,0,0,1,1.53,3.79v9.46Zm-1.14-6.58-1.5.05a4.78,4.78,0,0,0-2.51.61,1.91,1.91,0,0,0-.83,1.7c0,1.09.63,1.64,1.88,1.64a2.94,2.94,0,0,0,2.15-.78,2.7,2.7,0,0,0,.81-2.05Z"/><path class="e" d="M194.15,410.21h-3.88V390.45h3.88Z"/><path class="e" d="M208.26,410.21l-.52-1.82h-.2a4.09,4.09,0,0,1-1.77,1.53,6,6,0,0,1-2.6.54,5,5,0,0,1-3.77-1.34,5.41,5.41,0,0,1-1.27-3.85V396H202v8.29a4,4,0,0,0,.55,2.31,2,2,0,0,0,1.74.77,2.63,2.63,0,0,0,2.35-1.09,6.74,6.74,0,0,0,.72-3.6V396h3.87v14.2Z"/><path class="e" d="M221.28,407.38a8.25,8.25,0,0,0,2.43-.45v2.88a8.69,8.69,0,0,1-3.55.65,4.34,4.34,0,0,1-3.38-1.17,5.12,5.12,0,0,1-1.07-3.53v-6.84h-1.85v-1.64L216,396l1.12-3h2.48v3h4v2.91h-4v6.84a1.51,1.51,0,0,0,.46,1.22A1.86,1.86,0,0,0,221.28,407.38Z"/><path class="e" d="M224.55,396h4.24l2.68,8a11.21,11.21,0,0,1,.47,2.46H232a10.75,10.75,0,0,1,.54-2.46l2.63-8h4.15l-6,16a7,7,0,0,1-2.36,3.33,6,6,0,0,1-3.57,1.1,9.21,9.21,0,0,1-2-.21v-3.08a6.61,6.61,0,0,0,1.52.17,2.74,2.74,0,0,0,1.8-.63,4.1,4.1,0,0,0,1.2-1.9l.23-.7Z"/><path class="e" d="M257.3,406.41a3.5,3.5,0,0,1-1.44,3,6.84,6.84,0,0,1-4.07,1,8.74,8.74,0,0,1-4.31-.88v-1.95a10.59,10.59,0,0,0,2.15.8,9.21,9.21,0,0,0,2.22.29,5,5,0,0,0,2.53-.53,1.81,1.81,0,0,0,.19-3,11.13,11.13,0,0,0-2.75-1.37,14.71,14.71,0,0,1-2.76-1.26,3.76,3.76,0,0,1-1.22-1.23,3.38,3.38,0,0,1,1-4.32,6.52,6.52,0,0,1,3.8-1A11.07,11.07,0,0,1,257,397l-.75,1.72a10,10,0,0,0-3.79-.87,4.4,4.4,0,0,0-2.26.47,1.46,1.46,0,0,0-.76,1.3,1.57,1.57,0,0,0,.28.95,2.92,2.92,0,0,0,.92.75,21,21,0,0,0,2.44,1,9,9,0,0,1,3.34,1.81A3.21,3.21,0,0,1,257.3,406.41Z"/><path class="e" d="M269.63,410.21H259.54v-1.44l7.59-10.84H260v-1.64h9.43v1.64L262,408.57h7.68Z"/><path class="e" d="M275,403.08a24.15,24.15,0,0,1,1.66-2l4.49-4.76h2.5L278,402.22l6,8h-2.55l-4.92-6.58L275,405v5.21h-2.09V390.45H275v10.48c0,.46,0,1.18-.1,2.15Z"/><path class="e" d="M298.55,403.24a7.69,7.69,0,0,1-1.71,5.31,6,6,0,0,1-4.74,1.91,6.21,6.21,0,0,1-3.31-.88,5.77,5.77,0,0,1-2.24-2.51,8.82,8.82,0,0,1-.78-3.83,7.62,7.62,0,0,1,1.7-5.3,6,6,0,0,1,4.72-1.9,5.9,5.9,0,0,1,4.64,1.94A7.65,7.65,0,0,1,298.55,403.24Zm-10.6,0A6.61,6.61,0,0,0,289,407.3a3.69,3.69,0,0,0,3.13,1.4,3.77,3.77,0,0,0,3.15-1.39,6.63,6.63,0,0,0,1.07-4.07,6.48,6.48,0,0,0-1.07-4,3.79,3.79,0,0,0-3.17-1.38,3.72,3.72,0,0,0-3.13,1.36A6.53,6.53,0,0,0,288,403.24Z"/><path class="e" d="M311.72,408.34h-.12a5,5,0,0,1-4.36,2.12,5.16,5.16,0,0,1-4.25-1.87,8.2,8.2,0,0,1-1.52-5.3,8.33,8.33,0,0,1,1.53-5.35,5.65,5.65,0,0,1,8.58.15h.16l-.09-1,0-1v-5.66h2.11v19.76H312Zm-4.22.36a3.85,3.85,0,0,0,3.13-1.18,5.92,5.92,0,0,0,1-3.79v-.44a7,7,0,0,0-1-4.22,3.72,3.72,0,0,0-3.14-1.27,3.22,3.22,0,0,0-2.84,1.44,7.14,7.14,0,0,0-1,4.07,6.91,6.91,0,0,0,1,4A3.33,3.33,0,0,0,307.5,408.7Z"/><path class="e" d="M327.08,410.21H317v-1.44l7.59-10.84h-7.12v-1.64h9.43v1.64l-7.49,10.64h7.68Z"/><path class="e" d="M338.9,410.21l-.42-2h-.1A5.94,5.94,0,0,1,336.3,410a6.3,6.3,0,0,1-2.58.46,4.68,4.68,0,0,1-3.25-1.07,3.89,3.89,0,0,1-1.17-3q0-4.22,6.74-4.42l2.36-.07V401a3.53,3.53,0,0,0-.7-2.42,2.9,2.9,0,0,0-2.26-.78,9.2,9.2,0,0,0-3.93,1.07l-.65-1.61a9.67,9.67,0,0,1,2.25-.88,9.89,9.89,0,0,1,2.46-.32,5.29,5.29,0,0,1,3.69,1.11,4.59,4.59,0,0,1,1.2,3.54v9.5Zm-4.76-1.49a4.28,4.28,0,0,0,3.09-1.08,4,4,0,0,0,1.12-3v-1.26l-2.11.09a7.69,7.69,0,0,0-3.62.78,2.35,2.35,0,0,0-1.11,2.15,2.15,2.15,0,0,0,.69,1.74A2.87,2.87,0,0,0,334.14,408.72Zm4.54,4.51a1.06,1.06,0,0,0,1.2,1.19,5.46,5.46,0,0,0,1.23-.16v1.38a6,6,0,0,1-1.59.23c-1.75,0-2.63-.8-2.63-2.39a3.16,3.16,0,0,1,.55-1.74,5.56,5.56,0,0,1,1.46-1.53h1.52a8.28,8.28,0,0,0-1.3,1.53A2.73,2.73,0,0,0,338.68,413.23Z"/><path class="e" d="M73.79,438.41a3.5,3.5,0,0,1-1.44,3,6.84,6.84,0,0,1-4.07,1,8.74,8.74,0,0,1-4.31-.88v-1.95a10.59,10.59,0,0,0,2.15.8,9.2,9.2,0,0,0,2.21.29,5,5,0,0,0,2.54-.53,1.81,1.81,0,0,0,.19-3,11.13,11.13,0,0,0-2.75-1.37,14.4,14.4,0,0,1-2.76-1.26,3.76,3.76,0,0,1-1.22-1.23,3.38,3.38,0,0,1,1-4.32,6.52,6.52,0,0,1,3.8-1,11.07,11.07,0,0,1,4.39.91l-.75,1.72A10,10,0,0,0,69,429.8a4.4,4.4,0,0,0-2.26.47,1.46,1.46,0,0,0-.76,1.3,1.57,1.57,0,0,0,.28.95,2.92,2.92,0,0,0,.92.75,20.21,20.21,0,0,0,2.44,1,9.06,9.06,0,0,1,3.34,1.81A3.21,3.21,0,0,1,73.79,438.41Z"/><path class="e" d="M75,428.29h2.26l3,7.94a29.77,29.77,0,0,1,1.24,3.92h.11c.1-.43.34-1.17.69-2.22s1.5-4.26,3.44-9.64h2.26l-6,15.85A7.94,7.94,0,0,1,80,447.47a4.44,4.44,0,0,1-2.92,1,8.71,8.71,0,0,1-1.9-.21v-1.69a7.51,7.51,0,0,0,1.56.15,3.22,3.22,0,0,0,3.1-2.44l.77-2Z"/><path class="e" d="M99.3,438.41a3.48,3.48,0,0,1-1.45,3,6.81,6.81,0,0,1-4.06,1,8.78,8.78,0,0,1-4.32-.88v-1.95a10.82,10.82,0,0,0,2.15.8,9.28,9.28,0,0,0,2.22.29,5,5,0,0,0,2.54-.53,1.8,1.8,0,0,0,.18-3,10.94,10.94,0,0,0-2.75-1.37,15,15,0,0,1-2.76-1.26,3.86,3.86,0,0,1-1.22-1.23,3.23,3.23,0,0,1-.4-1.63A3.14,3.14,0,0,1,90.82,429a6.48,6.48,0,0,1,3.79-1A11.12,11.12,0,0,1,99,429l-.75,1.72a10,10,0,0,0-3.8-.87,4.4,4.4,0,0,0-2.26.47,1.46,1.46,0,0,0-.76,1.3,1.58,1.58,0,0,0,.29.95,2.81,2.81,0,0,0,.92.75,19.85,19.85,0,0,0,2.43,1,9.13,9.13,0,0,1,3.35,1.81A3.21,3.21,0,0,1,99.3,438.41Z"/><path class="e" d="M107.22,440.72a7.36,7.36,0,0,0,1.9-.25v1.61a3.67,3.67,0,0,1-1,.27,8,8,0,0,1-1.2.11c-2.7,0-4-1.42-4-4.25v-8.28h-2v-1l2-.87.89-3H105v3.22h4v1.64h-4v8.19a2.86,2.86,0,0,0,.59,1.93A2.08,2.08,0,0,0,107.22,440.72Z"/><path class="e" d="M117.78,442.46a6.42,6.42,0,0,1-4.87-1.88,7.31,7.31,0,0,1-1.78-5.22,8,8,0,0,1,1.66-5.34,5.5,5.5,0,0,1,4.45-2,5.25,5.25,0,0,1,4.14,1.72,6.63,6.63,0,0,1,1.52,4.54v1.33h-9.59a5.58,5.58,0,0,0,1.24,3.72,4.27,4.27,0,0,0,3.31,1.27,11.11,11.11,0,0,0,4.44-.94v1.88a11.24,11.24,0,0,1-2.11.69A11.93,11.93,0,0,1,117.78,442.46Zm-.57-12.66a3.45,3.45,0,0,0-2.67,1.09,5,5,0,0,0-1.17,3h7.27a4.67,4.67,0,0,0-.89-3.06A3.15,3.15,0,0,0,117.21,429.8Z"/><path class="e" d="M144.23,442.21v-9.06a3.77,3.77,0,0,0-.71-2.49,2.77,2.77,0,0,0-2.21-.83A3.59,3.59,0,0,0,138.4,431a5.34,5.34,0,0,0-.94,3.48v7.77h-2.11v-9.06a3.72,3.72,0,0,0-.71-2.49,2.77,2.77,0,0,0-2.22-.83,3.44,3.44,0,0,0-2.9,1.18,6.48,6.48,0,0,0-.92,3.9v7.3h-2.11V428.29h1.72l.34,1.91h.1a4.16,4.16,0,0,1,1.68-1.59,5.18,5.18,0,0,1,2.43-.57q3.27,0,4.27,2.36h.1a4.55,4.55,0,0,1,1.8-1.73,5.65,5.65,0,0,1,2.69-.63,4.7,4.7,0,0,1,3.54,1.21,5.44,5.44,0,0,1,1.17,3.88v9.08Z"/><path class="e" d="M162.69,435.24a7.64,7.64,0,0,1-1.72,5.31,6,6,0,0,1-4.73,1.91,6.24,6.24,0,0,1-3.32-.88,5.75,5.75,0,0,1-2.23-2.51,8.68,8.68,0,0,1-.79-3.83,7.67,7.67,0,0,1,1.7-5.3,6,6,0,0,1,4.73-1.9A5.91,5.91,0,0,1,161,430,7.69,7.69,0,0,1,162.69,435.24Zm-10.6,0a6.62,6.62,0,0,0,1.06,4.06,4.23,4.23,0,0,0,6.28,0,6.56,6.56,0,0,0,1.07-4.07,6.41,6.41,0,0,0-1.07-4,3.77,3.77,0,0,0-3.17-1.38,3.69,3.69,0,0,0-3.12,1.36A6.53,6.53,0,0,0,152.09,435.24Z"/><path class="e" d="M177.74,442.21,175.19,434c-.16-.5-.46-1.63-.9-3.4h-.1c-.34,1.48-.64,2.62-.89,3.43l-2.63,8.14h-2.44l-3.79-13.92h2.21c.89,3.5,1.58,6.16,2,8a30.45,30.45,0,0,1,.8,3.69h.11c.09-.48.24-1.1.45-1.87s.38-1.37.54-1.82l2.55-8h2.28l2.49,8a26.12,26.12,0,0,1,1,3.67h.1a11.55,11.55,0,0,1,.27-1.41q.23-1,2.65-10.25h2.18l-3.85,13.92Z"/><path class="e" d="M186.43,424.52a1.44,1.44,0,0,1,.35-1.06,1.28,1.28,0,0,1,.89-.34,1.26,1.26,0,0,1,.88.35,1.69,1.69,0,0,1,0,2.11,1.29,1.29,0,0,1-1.77,0A1.44,1.44,0,0,1,186.43,424.52Zm2.28,17.69H186.6V428.29h2.11Z"/><path class="e" d="M206.41,428.06a5.17,5.17,0,0,1,4.26,1.88,10,10,0,0,1,0,10.62,5.15,5.15,0,0,1-4.25,1.9,6.07,6.07,0,0,1-2.48-.5,4.76,4.76,0,0,1-1.89-1.54h-.15l-.44,1.79h-1.52V422.45H202v4.8c0,1.08,0,2-.1,2.9h.1A5,5,0,0,1,206.41,428.06Zm-.31,1.77a3.68,3.68,0,0,0-3.11,1.24,9.54,9.54,0,0,0,0,8.36,3.73,3.73,0,0,0,3.14,1.27,3.25,3.25,0,0,0,2.89-1.42,7.31,7.31,0,0,0,.95-4.07,7,7,0,0,0-.95-4A3.37,3.37,0,0,0,206.1,429.83Z"/><path class="e" d="M224.42,442.21l-.42-2h-.1a5.83,5.83,0,0,1-2.07,1.77,6.32,6.32,0,0,1-2.59.46,4.65,4.65,0,0,1-3.24-1.07,3.89,3.89,0,0,1-1.17-3c0-2.81,2.24-4.28,6.74-4.42l2.36-.07V433a3.53,3.53,0,0,0-.71-2.42,2.9,2.9,0,0,0-2.25-.78,9.17,9.17,0,0,0-3.93,1.07l-.65-1.61a9.33,9.33,0,0,1,2.25-.88,9.89,9.89,0,0,1,2.46-.32,5.29,5.29,0,0,1,3.69,1.11,4.59,4.59,0,0,1,1.2,3.54v9.5Zm-4.76-1.49a4.26,4.26,0,0,0,3.09-1.08,4,4,0,0,0,1.13-3v-1.26l-2.11.09a7.66,7.66,0,0,0-3.62.78,2.35,2.35,0,0,0-1.11,2.15,2.15,2.15,0,0,0,.69,1.74A2.84,2.84,0,0,0,219.66,440.72Z"/><path class="e" d="M239.85,442.21v-9a3.59,3.59,0,0,0-.78-2.54,3.13,3.13,0,0,0-2.42-.84,4,4,0,0,0-3.2,1.18,5.94,5.94,0,0,0-1,3.9v7.3h-2.1V428.29H232l.34,1.91h.11a4.28,4.28,0,0,1,1.81-1.6,6,6,0,0,1,2.6-.56,5.29,5.29,0,0,1,3.79,1.21,5.19,5.19,0,0,1,1.27,3.88v9.08Z"/><path class="e" d="M248.37,435.08c.36-.51.92-1.19,1.66-2l4.49-4.76H257l-5.64,5.93,6,8h-2.55L250,435.63,248.37,437v5.21h-2.08V422.45h2.08v10.48c0,.46,0,1.18-.1,2.15Z"/><path class="e" d="M271.94,435.24a7.69,7.69,0,0,1-1.71,5.31,6,6,0,0,1-4.74,1.91,6.21,6.21,0,0,1-3.31-.88,5.69,5.69,0,0,1-2.23-2.51,8.68,8.68,0,0,1-.79-3.83,7.67,7.67,0,0,1,1.7-5.3,6,6,0,0,1,4.72-1.9,5.89,5.89,0,0,1,4.64,1.94A7.65,7.65,0,0,1,271.94,435.24Zm-10.6,0a6.61,6.61,0,0,0,1.07,4.06,3.69,3.69,0,0,0,3.13,1.4,3.77,3.77,0,0,0,3.15-1.39,6.63,6.63,0,0,0,1.07-4.07,6.48,6.48,0,0,0-1.07-4,3.77,3.77,0,0,0-3.17-1.38,3.69,3.69,0,0,0-3.12,1.36A6.47,6.47,0,0,0,261.34,435.24Z"/><path class="e" d="M287,442.21,284.45,434c-.16-.5-.46-1.63-.9-3.4h-.11c-.33,1.48-.63,2.62-.88,3.43l-2.63,8.14h-2.44l-3.8-13.92h2.21l2.05,8a33.46,33.46,0,0,1,.81,3.69h.1c.09-.48.24-1.1.45-1.87s.39-1.37.54-1.82l2.55-8h2.29l2.49,8a27.34,27.34,0,0,1,1,3.67h.1c0-.31.13-.78.28-1.41s1-4.05,2.64-10.25h2.19l-3.85,13.92Z"/><path class="e" d="M301.74,442.46a6.4,6.4,0,0,1-4.87-1.88,7.26,7.26,0,0,1-1.78-5.22,8.08,8.08,0,0,1,1.65-5.34,5.51,5.51,0,0,1,4.45-2,5.22,5.22,0,0,1,4.14,1.72,6.58,6.58,0,0,1,1.52,4.54v1.33h-9.58a5.48,5.48,0,0,0,1.24,3.72,4.25,4.25,0,0,0,3.3,1.27,11.19,11.19,0,0,0,4.45-.94v1.88a11.32,11.32,0,0,1-2.12.69A11.76,11.76,0,0,1,301.74,442.46Zm-.57-12.66a3.45,3.45,0,0,0-2.67,1.09,5,5,0,0,0-1.18,3h7.27a4.67,4.67,0,0,0-.88-3.06A3.16,3.16,0,0,0,301.17,429.8Z"/><path class="e" d="M328.18,442.21v-9.06a3.72,3.72,0,0,0-.71-2.49,2.76,2.76,0,0,0-2.21-.83,3.55,3.55,0,0,0-2.9,1.13,5.34,5.34,0,0,0-.94,3.48v7.77h-2.11v-9.06a3.77,3.77,0,0,0-.71-2.49,2.79,2.79,0,0,0-2.22-.83,3.47,3.47,0,0,0-2.91,1.18,6.48,6.48,0,0,0-.92,3.9v7.3h-2.1V428.29h1.71l.34,1.91h.11a4,4,0,0,1,1.68-1.59,5.13,5.13,0,0,1,2.43-.57c2.17,0,3.6.79,4.26,2.36h.11a4.42,4.42,0,0,1,1.8-1.73,5.62,5.62,0,0,1,2.69-.63,4.73,4.73,0,0,1,3.54,1.21,5.44,5.44,0,0,1,1.17,3.88v9.08Z"/><path class="e" d="M336.61,428.29v9a3.63,3.63,0,0,0,.78,2.54,3.13,3.13,0,0,0,2.42.84,3.93,3.93,0,0,0,3.19-1.2,6,6,0,0,0,1-3.9v-7.31h2.11v13.92h-1.74l-.3-1.87H344a4.14,4.14,0,0,1-1.79,1.57,6,6,0,0,1-2.63.55,5.29,5.29,0,0,1-3.8-1.21,5.14,5.14,0,0,1-1.26-3.86v-9.1Z"/><path class="e" d="M65.14,474.21V455.65h2.15v18.56Z"/><path class="e" d="M96.56,474.21v-9.06a3.77,3.77,0,0,0-.71-2.49,2.77,2.77,0,0,0-2.21-.83A3.58,3.58,0,0,0,90.73,463a5.34,5.34,0,0,0-.94,3.48v7.77H87.68v-9.06a3.72,3.72,0,0,0-.71-2.49,2.77,2.77,0,0,0-2.22-.83,3.44,3.44,0,0,0-2.9,1.18,6.48,6.48,0,0,0-.92,3.9v7.3H78.82V460.29h1.72l.34,1.91H81a4.16,4.16,0,0,1,1.68-1.59,5.18,5.18,0,0,1,2.43-.57q3.27,0,4.27,2.36h.1a4.48,4.48,0,0,1,1.8-1.73A5.65,5.65,0,0,1,94,460a4.7,4.7,0,0,1,3.54,1.21,5.44,5.44,0,0,1,1.17,3.88v9.08Z"/><path class="e" d="M115,467.24a7.69,7.69,0,0,1-1.72,5.31,6,6,0,0,1-4.73,1.91,6.24,6.24,0,0,1-3.32-.88,5.75,5.75,0,0,1-2.23-2.51,8.68,8.68,0,0,1-.79-3.83,7.67,7.67,0,0,1,1.7-5.3,6,6,0,0,1,4.73-1.9A5.91,5.91,0,0,1,113.3,462,7.69,7.69,0,0,1,115,467.24Zm-10.6,0a6.62,6.62,0,0,0,1.06,4.06,4.23,4.23,0,0,0,6.28,0,6.63,6.63,0,0,0,1.07-4.07,6.48,6.48,0,0,0-1.07-4,3.77,3.77,0,0,0-3.17-1.38,3.69,3.69,0,0,0-3.12,1.36A6.53,6.53,0,0,0,104.42,467.24Z"/><path class="e" d="M130.1,460.29v1.33l-2.58.31a4.47,4.47,0,0,1,.64,1.16,4.59,4.59,0,0,1,.27,1.62A4.11,4.11,0,0,1,127,468a5.6,5.6,0,0,1-3.84,1.22,6.11,6.11,0,0,1-1.16-.1,2.07,2.07,0,0,0-1.35,1.79.91.91,0,0,0,.47.84,3.3,3.3,0,0,0,1.61.28h2.47a5.49,5.49,0,0,1,3.47.95,3.3,3.3,0,0,1,1.21,2.77,4,4,0,0,1-1.85,3.52,9.92,9.92,0,0,1-5.41,1.21,7.46,7.46,0,0,1-4.21-1,3.28,3.28,0,0,1-1.48-2.87,3.23,3.23,0,0,1,.81-2.2,4.14,4.14,0,0,1,2.29-1.26,2.22,2.22,0,0,1-.9-.74,2,2,0,0,1-.36-1.19,2.26,2.26,0,0,1,.41-1.33,4.23,4.23,0,0,1,1.28-1.1,3.77,3.77,0,0,1-1.76-1.51,5,5,0,0,1,.69-6,5.59,5.59,0,0,1,3.89-1.24,7.08,7.08,0,0,1,2,.25ZM119,476.54a1.91,1.91,0,0,0,1,1.72,5.28,5.28,0,0,0,2.73.58,7.61,7.61,0,0,0,3.93-.79,2.44,2.44,0,0,0,1.28-2.16,1.68,1.68,0,0,0-.7-1.56,5.31,5.31,0,0,0-2.63-.44H122a3.37,3.37,0,0,0-2.24.68A2.48,2.48,0,0,0,119,476.54Zm1.14-11.79A2.84,2.84,0,0,0,121,467a3.3,3.3,0,0,0,2.3.75q3.08,0,3.08-3t-3.12-3.14a3.13,3.13,0,0,0-2.29.8A3.26,3.26,0,0,0,120.14,464.75Z"/><path class="e" d="M141.51,474.21l-.42-2H141a5.85,5.85,0,0,1-2.08,1.77,6.3,6.3,0,0,1-2.58.46,4.64,4.64,0,0,1-3.24-1.07,3.86,3.86,0,0,1-1.18-3q0-4.22,6.74-4.42l2.37-.07V465a3.53,3.53,0,0,0-.71-2.42,2.9,2.9,0,0,0-2.25-.78,9.24,9.24,0,0,0-3.94,1.07l-.65-1.61a9.57,9.57,0,0,1,2.26-.88,9.75,9.75,0,0,1,2.45-.32,5.29,5.29,0,0,1,3.69,1.11,4.59,4.59,0,0,1,1.2,3.54v9.5Zm-4.76-1.49a4.28,4.28,0,0,0,3.09-1.08,4,4,0,0,0,1.12-3v-1.26l-2.1.09a7.7,7.7,0,0,0-3.63.78,2.35,2.35,0,0,0-1.11,2.15,2.15,2.15,0,0,0,.69,1.74A2.89,2.89,0,0,0,136.75,472.72Zm4.54,4.51a1.06,1.06,0,0,0,1.2,1.19,5.46,5.46,0,0,0,1.23-.16v1.38a6,6,0,0,1-1.59.23c-1.75,0-2.63-.8-2.63-2.39a3.24,3.24,0,0,1,.55-1.74,5.56,5.56,0,0,1,1.46-1.53H143a8.28,8.28,0,0,0-1.3,1.53A2.73,2.73,0,0,0,141.29,477.23Z"/><path class="e" d="M166.86,467.08A7.66,7.66,0,0,1,165,472.5a6.62,6.62,0,0,1-5.1,2,7.17,7.17,0,0,1-3.6-.89,6,6,0,0,1-2.4-2.58,8.6,8.6,0,0,1-.84-3.91,7.55,7.55,0,0,1,1.82-5.4,6.65,6.65,0,0,1,5.1-1.93,7.23,7.23,0,0,1,3.61.88,6,6,0,0,1,2.4,2.56A8.61,8.61,0,0,1,166.86,467.08Zm-9.81,0a6,6,0,0,0,.69,3.19,2.47,2.47,0,0,0,2.26,1.08,2.43,2.43,0,0,0,2.22-1.07,6,6,0,0,0,.68-3.2,5.93,5.93,0,0,0-.68-3.16,2.49,2.49,0,0,0-2.25-1.05,2.46,2.46,0,0,0-2.23,1.05A5.79,5.79,0,0,0,157.05,467.08Z"/><path class="e" d="M180,470a3.91,3.91,0,0,1-1.51,3.33,7.52,7.52,0,0,1-4.54,1.14,14.25,14.25,0,0,1-2.64-.21,9.58,9.58,0,0,1-2.05-.62v-3.19a14.18,14.18,0,0,0,2.44.85,10.22,10.22,0,0,0,2.38.34c1.4,0,2.1-.41,2.1-1.22a1,1,0,0,0-.28-.74,3.79,3.79,0,0,0-1-.65q-.69-.36-1.83-.84a11.51,11.51,0,0,1-2.4-1.27,3.52,3.52,0,0,1-1.12-1.34,4.51,4.51,0,0,1-.35-1.86,3.38,3.38,0,0,1,1.47-2.93,7.11,7.11,0,0,1,4.15-1,11.85,11.85,0,0,1,5,1.11l-1.17,2.8a18.69,18.69,0,0,0-2-.75,6.11,6.11,0,0,0-1.89-.29c-1.14,0-1.71.3-1.71.92a1.07,1.07,0,0,0,.55.9,14.41,14.41,0,0,0,2.42,1.13,11,11,0,0,1,2.43,1.26,3.75,3.75,0,0,1,1.15,1.35A4.17,4.17,0,0,1,180,470Z"/><path class="e" d="M187.16,462.4l.89-.55,1.49,2.5-2.38,1.43v8.43h-3.87v-6.06l-.9.55L181,466.2l2.33-1.43V454.45h3.87Z"/><path class="e" d="M200.58,474.21l-.75-1.93h-.1a5.6,5.6,0,0,1-2,1.7,6.46,6.46,0,0,1-2.7.48,4.38,4.38,0,0,1-3.22-1.17,4.5,4.5,0,0,1-1.17-3.32,3.77,3.77,0,0,1,1.58-3.34,9.14,9.14,0,0,1,4.77-1.18l2.46-.08v-.62a1.93,1.93,0,0,0-2.21-2.16,10,10,0,0,0-4,1L192,461a11.57,11.57,0,0,1,5.43-1.28,6.8,6.8,0,0,1,4.38,1.24,4.61,4.61,0,0,1,1.53,3.79v9.46Zm-1.14-6.58-1.5.05a4.78,4.78,0,0,0-2.51.61,1.91,1.91,0,0,0-.83,1.7c0,1.09.63,1.64,1.88,1.64a2.94,2.94,0,0,0,2.15-.78,2.7,2.7,0,0,0,.81-2.05Z"/><path class="e" d="M215.17,459.75a4.57,4.57,0,0,1,3.93,2,9,9,0,0,1,1.43,5.37,8.83,8.83,0,0,1-1.47,5.45,5.12,5.12,0,0,1-7.92.11h-.26l-.65,1.57h-3V454.45h3.87v4.6c0,.58,0,1.52-.15,2.8h.15A4.49,4.49,0,0,1,215.17,459.75Zm-1.25,3.09a2.44,2.44,0,0,0-2.09.89,5.06,5.06,0,0,0-.69,2.91v.42a6,6,0,0,0,.68,3.27,2.44,2.44,0,0,0,2.16,1,2.15,2.15,0,0,0,1.89-1.09,6,6,0,0,0,.71-3.2,5.68,5.68,0,0,0-.71-3.14A2.24,2.24,0,0,0,213.92,462.84Z"/><path class="e" d="M223.56,456.34c0-1.26.7-1.89,2.11-1.89s2.11.63,2.11,1.89a1.88,1.88,0,0,1-.53,1.41,2.23,2.23,0,0,1-1.58.5C224.26,458.25,223.56,457.61,223.56,456.34Zm4,17.87h-3.87V460h3.87Z"/><path class="e" d="M240.67,474.21l-.75-1.93h-.1a5.6,5.6,0,0,1-2,1.7,6.46,6.46,0,0,1-2.7.48,4.38,4.38,0,0,1-3.22-1.17,4.5,4.5,0,0,1-1.17-3.32,3.77,3.77,0,0,1,1.58-3.34,9.17,9.17,0,0,1,4.77-1.18l2.46-.08v-.62a1.93,1.93,0,0,0-2.21-2.16,10,10,0,0,0-4,1L232,461a11.6,11.6,0,0,1,5.43-1.28,6.8,6.8,0,0,1,4.38,1.24,4.61,4.61,0,0,1,1.53,3.79v9.46Zm-1.14-6.58-1.5.05a4.78,4.78,0,0,0-2.51.61,1.91,1.91,0,0,0-.83,1.7c0,1.09.63,1.64,1.88,1.64a2.94,2.94,0,0,0,2.15-.78,2.7,2.7,0,0,0,.81-2.05Z"/><path class="e" d="M253.13,474.46q-6.63,0-6.63-7.27a7.75,7.75,0,0,1,1.8-5.53,6.76,6.76,0,0,1,5.17-1.91,9.93,9.93,0,0,1,4.42,1l-1.14,3c-.61-.25-1.18-.45-1.71-.61a5.63,5.63,0,0,0-1.57-.23q-3,0-3,4.29c0,2.78,1,4.16,3,4.16a7.14,7.14,0,0,0,2.07-.29,7.3,7.3,0,0,0,1.9-.94v3.32a6.24,6.24,0,0,1-1.89.82A10.84,10.84,0,0,1,253.13,474.46Zm-2.17-16v-.34a36.17,36.17,0,0,0,3-3.82h4.34v.26c-.44.44-1.19,1.1-2.25,2s-1.9,1.52-2.5,1.94Z"/><path class="e" d="M73.63,506.21l-.75-1.93h-.1a5.6,5.6,0,0,1-2,1.7,6.46,6.46,0,0,1-2.7.48,4.36,4.36,0,0,1-3.22-1.17A4.5,4.5,0,0,1,63.68,502a3.75,3.75,0,0,1,1.58-3.34A9.13,9.13,0,0,1,70,497.45l2.47-.08v-.62a1.93,1.93,0,0,0-2.21-2.16,10,10,0,0,0-4,1L65,493a11.57,11.57,0,0,1,5.43-1.28A6.84,6.84,0,0,1,74.81,493a4.6,4.6,0,0,1,1.52,3.79v9.46Zm-1.14-6.58-1.5.05a4.8,4.8,0,0,0-2.52.61,1.91,1.91,0,0,0-.82,1.7c0,1.09.63,1.64,1.88,1.64a3,3,0,0,0,2.15-.78,2.7,2.7,0,0,0,.81-2.05Z"/><path class="e" d="M88.11,506.46a4.72,4.72,0,0,1-3.92-1.82H84c.13,1.19.2,1.87.2,2.06v5.75H80.32V492h3.15l.54,1.84h.18a4.49,4.49,0,0,1,4-2.1,4.59,4.59,0,0,1,3.93,1.94,9,9,0,0,1,1.42,5.39,10.71,10.71,0,0,1-.66,3.95,5.55,5.55,0,0,1-1.9,2.55A4.84,4.84,0,0,1,88.11,506.46ZM87,494.84a2.44,2.44,0,0,0-2.09.89,5.06,5.06,0,0,0-.69,2.91v.42a6,6,0,0,0,.68,3.27,2.42,2.42,0,0,0,2.15,1c1.74,0,2.6-1.43,2.6-4.29a6.11,6.11,0,0,0-.64-3.14A2.17,2.17,0,0,0,87,494.84Z"/><path class="e" d="M105.79,506.21l-.75-1.93h-.1a5.71,5.71,0,0,1-2,1.7,6.45,6.45,0,0,1-2.69.48A4.35,4.35,0,0,1,97,505.29,4.46,4.46,0,0,1,95.83,502a3.77,3.77,0,0,1,1.58-3.34,9.2,9.2,0,0,1,4.77-1.18l2.46-.08v-.62a1.93,1.93,0,0,0-2.21-2.16,10,10,0,0,0-4,1L97.15,493a11.64,11.64,0,0,1,5.44-1.28A6.84,6.84,0,0,1,107,493a4.63,4.63,0,0,1,1.52,3.79v9.46Zm-1.15-6.58-1.49.05a4.8,4.8,0,0,0-2.52.61,1.91,1.91,0,0,0-.82,1.7c0,1.09.62,1.64,1.88,1.64a3,3,0,0,0,2.15-.78,2.69,2.69,0,0,0,.8-2.05Z"/><path class="e" d="M120.4,491.75a6.1,6.1,0,0,1,1.31.11l-.3,3.63a4.59,4.59,0,0,0-1.14-.13,4.1,4.1,0,0,0-2.89,1,3.42,3.42,0,0,0-1,2.66v7.23h-3.87V492h2.93l.57,2.39h.19a5.3,5.3,0,0,1,1.78-1.92A4.39,4.39,0,0,1,120.4,491.75Z"/><path class="e" d="M133.3,506.21l-.75-1.93h-.1a5.71,5.71,0,0,1-2,1.7,6.41,6.41,0,0,1-2.69.48,4.35,4.35,0,0,1-3.22-1.17,4.5,4.5,0,0,1-1.18-3.32,3.77,3.77,0,0,1,1.58-3.34,9.2,9.2,0,0,1,4.77-1.18l2.46-.08v-.62a1.93,1.93,0,0,0-2.2-2.16,10,10,0,0,0-4,1L124.66,493a11.64,11.64,0,0,1,5.44-1.28,6.84,6.84,0,0,1,4.38,1.24,4.63,4.63,0,0,1,1.52,3.79v9.46Zm-1.15-6.58-1.49.05a4.8,4.8,0,0,0-2.52.61,1.91,1.91,0,0,0-.82,1.7c0,1.09.62,1.64,1.88,1.64a3,3,0,0,0,2.15-.78,2.69,2.69,0,0,0,.8-2.05Z"/><path class="e" d="M146,503.38a8.25,8.25,0,0,0,2.43-.45v2.88a8.69,8.69,0,0,1-3.55.65,4.34,4.34,0,0,1-3.38-1.17,5.12,5.12,0,0,1-1.06-3.53v-6.84h-1.86v-1.64l2.14-1.29,1.11-3h2.48v3h4v2.91h-4v6.84a1.51,1.51,0,0,0,.46,1.22A1.86,1.86,0,0,0,146,503.38Z"/><path class="e" d="M165.82,506.46a4.71,4.71,0,0,1-3.92-1.82h-.2c.13,1.19.2,1.87.2,2.06v5.75H158V492h3.15l.54,1.84h.18a4.49,4.49,0,0,1,4-2.1,4.6,4.6,0,0,1,3.94,1.94,9,9,0,0,1,1.42,5.39,10.5,10.5,0,0,1-.67,3.95,5.46,5.46,0,0,1-1.89,2.55A4.84,4.84,0,0,1,165.82,506.46Zm-1.14-11.62a2.45,2.45,0,0,0-2.1.89,5.15,5.15,0,0,0-.68,2.91v.42a6,6,0,0,0,.68,3.27,2.42,2.42,0,0,0,2.15,1c1.74,0,2.6-1.43,2.6-4.29a6.11,6.11,0,0,0-.64-3.14A2.19,2.19,0,0,0,164.68,494.84Z"/><path class="e" d="M183.49,506.21l-.74-1.93h-.11a5.6,5.6,0,0,1-2,1.7,6.46,6.46,0,0,1-2.7.48,4.34,4.34,0,0,1-3.21-1.17,4.46,4.46,0,0,1-1.18-3.32,3.77,3.77,0,0,1,1.58-3.34,9.17,9.17,0,0,1,4.77-1.18l2.46-.08v-.62a1.93,1.93,0,0,0-2.21-2.16,10,10,0,0,0-4,1L174.86,493a11.6,11.6,0,0,1,5.43-1.28,6.8,6.8,0,0,1,4.38,1.24,4.61,4.61,0,0,1,1.53,3.79v9.46Zm-1.14-6.58-1.5.05a4.78,4.78,0,0,0-2.51.61,1.91,1.91,0,0,0-.83,1.7c0,1.09.63,1.64,1.88,1.64a3,3,0,0,0,2.16-.78,2.73,2.73,0,0,0,.8-2.05Z"/><path class="e" d="M203.29,506.21h-3.88v-8.29a4,4,0,0,0-.54-2.31,2,2,0,0,0-1.74-.77,2.63,2.63,0,0,0-2.35,1.09,6.74,6.74,0,0,0-.72,3.6v6.68h-3.88V492h3l.52,1.82h.22a4.09,4.09,0,0,1,1.78-1.56,6.11,6.11,0,0,1,2.59-.52,5,5,0,0,1,3.75,1.33,5.38,5.38,0,0,1,1.29,3.87Zm-8.76-15.76v-.34a36.17,36.17,0,0,0,3-3.82h4.34v.26c-.44.44-1.19,1.1-2.25,2s-1.9,1.52-2.5,1.94Z"/><path class="e" d="M217.17,502a3.91,3.91,0,0,1-1.51,3.33,7.52,7.52,0,0,1-4.54,1.14,14.25,14.25,0,0,1-2.64-.21,9.58,9.58,0,0,1-2-.62v-3.19a14.18,14.18,0,0,0,2.44.85,10.22,10.22,0,0,0,2.38.34c1.4,0,2.1-.41,2.1-1.22a1,1,0,0,0-.28-.74,3.79,3.79,0,0,0-1-.65q-.69-.36-1.83-.84a11.51,11.51,0,0,1-2.4-1.27,3.52,3.52,0,0,1-1.12-1.34,4.51,4.51,0,0,1-.35-1.86,3.38,3.38,0,0,1,1.47-2.93,7.11,7.11,0,0,1,4.15-1,11.85,11.85,0,0,1,5,1.11l-1.17,2.8a18.69,18.69,0,0,0-2-.75,6.11,6.11,0,0,0-1.89-.29c-1.14,0-1.71.3-1.71.92a1.07,1.07,0,0,0,.55.9,14.41,14.41,0,0,0,2.42,1.13,11,11,0,0,1,2.43,1.26,3.75,3.75,0,0,1,1.15,1.35A4.17,4.17,0,0,1,217.17,502Z"/><path class="e" d="M226.18,503.38a8.25,8.25,0,0,0,2.43-.45v2.88a8.69,8.69,0,0,1-3.55.65,4.34,4.34,0,0,1-3.38-1.17,5.12,5.12,0,0,1-1.06-3.53v-6.84h-1.86v-1.64l2.13-1.29,1.12-3h2.48v3h4v2.91h-4v6.84A1.51,1.51,0,0,0,225,503,1.86,1.86,0,0,0,226.18,503.38Z"/><path class="e" d="M243.15,506.21l-1.09-5L240.58,495h-.08l-2.59,11.24h-4.17l-4-14.2h3.85l1.64,6.29c.26,1.12.53,2.68.8,4.66h.08a25.17,25.17,0,0,1,.44-3.06l.21-1.08,1.75-6.81h4.26l1.67,6.81c0,.18.08.46.15.82s.15.75.21,1.16.13.82.19,1.21.08.71.09.95h.08c.08-.61.21-1.45.41-2.51s.33-1.78.42-2.15l1.7-6.29h3.79l-4.09,14.2Z"/><path class="e" d="M266.64,499.08a7.62,7.62,0,0,1-1.83,5.42,6.62,6.62,0,0,1-5.09,2,7.18,7.18,0,0,1-3.61-.89,6,6,0,0,1-2.4-2.58,8.6,8.6,0,0,1-.84-3.91,7.55,7.55,0,0,1,1.82-5.4,6.65,6.65,0,0,1,5.1-1.93,7.18,7.18,0,0,1,3.61.88,6,6,0,0,1,2.4,2.56A8.48,8.48,0,0,1,266.64,499.08Zm-9.82,0a6,6,0,0,0,.69,3.19,2.5,2.5,0,0,0,2.26,1.08,2.46,2.46,0,0,0,2.23-1.07,6.1,6.1,0,0,0,.67-3.2,5.84,5.84,0,0,0-.68-3.16,2.49,2.49,0,0,0-2.25-1.05,2.46,2.46,0,0,0-2.23,1.05A5.79,5.79,0,0,0,256.82,499.08Z"/><path class="e" d="M281.5,506.21l-1.09-5L278.94,495h-.09l-2.59,11.24h-4.17l-4-14.2h3.86l1.63,6.29c.27,1.12.53,2.68.8,4.66h.08a23.75,23.75,0,0,1,.45-3.06l.2-1.08,1.75-6.81h4.27l1.66,6.81c0,.18.09.46.16.82s.14.75.21,1.16.13.82.18,1.21a8.82,8.82,0,0,1,.1.95h.07c.08-.61.21-1.45.41-2.51s.33-1.78.42-2.15L286,492h3.79l-4.08,14.2Z"/><path class="e" d="M290.06,492h4.24l2.68,8a11.21,11.21,0,0,1,.47,2.46h.07a11.31,11.31,0,0,1,.55-2.46l2.63-8h4.15l-6,16a7,7,0,0,1-2.35,3.33,6,6,0,0,1-3.57,1.1,9.21,9.21,0,0,1-2-.21v-3.08a6.55,6.55,0,0,0,1.52.17,2.76,2.76,0,0,0,1.8-.63,4.1,4.1,0,0,0,1.2-1.9l.23-.7Z"/><path class="e" d="M306.78,504.86a1.88,1.88,0,0,1,.39-1.29,1.39,1.39,0,0,1,1.11-.44,1.48,1.48,0,0,1,1.14.44,2.16,2.16,0,0,1,0,2.56,1.48,1.48,0,0,1-1.14.44,1.5,1.5,0,0,1-1.08-.4A1.73,1.73,0,0,1,306.78,504.86Z"/><path class="e" d="M83.44,79.06H66L48,44.35h-.3q.64,8.19.64,12.5V79.06H36.54V29.8H53.92L71.85,64h.2q-.48-7.44-.47-12V29.8H83.44Z"/><path class="e" d="M94.08,79.06V29.8h13.38V79.06Z"/><path class="e" d="M147.35,79.06H118.1V29.8h29.25V40.48H131.41v7.75h14.76V58.91H131.41v9.3h15.94Z"/><path class="e" d="M216,79.06H201l-9.74-18.84-3.94,2.36V79.06H173.9V29.8h13.37V51.19a59.64,59.64,0,0,1,4.08-6.3L201.69,29.8h14.56L200.71,51.87Z"/><path class="e" d="M263.18,29.8V59.45q0,9.66-5.48,15t-15.78,5.31q-10.08,0-15.48-5.16T221,59.75V29.8h13.38V58.71c0,3.48.65,6,2,7.58a7.05,7.05,0,0,0,5.76,2.36c2.72,0,4.69-.79,5.92-2.35s1.83-4.11,1.83-7.66V29.8Z"/><path class="e" d="M309.27,45.47q0,8.25-4.87,12.75t-13.83,4.5h-3.74V79.06H273.52V29.8h17.05q9.33,0,14,4.08T309.27,45.47Zm-22.44,6.4h2.43A6.6,6.6,0,0,0,294,50.18a6.1,6.1,0,0,0,1.77-4.65q0-5-5.52-5h-3.44Z"/><path class="e" d="M359,29.8V59.45q0,9.66-5.48,15t-15.78,5.31q-10.08,0-15.48-5.16t-5.41-14.82V29.8h13.38V58.71c0,3.48.65,6,1.95,7.58a7.05,7.05,0,0,0,5.76,2.36c2.72,0,4.69-.79,5.91-2.35s1.84-4.11,1.84-7.66V29.8Z"/><path class="e" d="M365.47,94.52a32.7,32.7,0,0,1-6.91-.71V83.47c.72.13,1.48.29,2.29.45a12.82,12.82,0,0,0,2.63.26c2.2,0,3.77-.67,4.72-2s1.41-3.59,1.41-6.81V29.8H383V74.24q0,10-4.38,15.14T365.47,94.52Z"/></svg>